<mxfile host="app.diagrams.net" modified="2021-10-27T15:30:16.915Z" agent="5.0 (Windows NT 10.0; Win64; x64) AppleWebKit/537.36 (KHTML, like Gecko) Chrome/95.0.4638.54 Safari/537.36" etag="JFbFP2zewuvSW_6xpqWh" version="15.6.0" type="github">
  <diagram id="t8g883oV49ZAjnVzBYlP" name="Page-1">
    <mxGraphModel dx="1564" dy="936" grid="1" gridSize="10" guides="1" tooltips="1" connect="1" arrows="1" fold="1" page="1" pageScale="1" pageWidth="850" pageHeight="1100" math="0" shadow="0">
      <root>
        <mxCell id="0" />
        <mxCell id="1" parent="0" />
        <mxCell id="DZH7VH-jRp4rcOsMZcXj-2" value="" style="shape=image;verticalLabelPosition=bottom;labelBackgroundColor=#ffffff;verticalAlign=top;aspect=fixed;imageAspect=0;image=data:image/png,iVBORw0KGgoAAAANSUhEUgAABfoAAAMXCAYAAABiieS+AAAgAElEQVR4AezdiZ9U1Z3/f/6I72zfmfl+Z+abTCYzv/nOTDLfyUxPNp3EMcZ9iyaGnWLXiIqIBndlUxsVF3BBAYmIURAbBBEXXFCEgLhAK6sIguwgO5/f432qT9Wt27Xcrq7qqlv3VY9Hpbuq7j33nOe51ZL3PfecbsYDAQQQQAABBBBAAAEEEEAAAQQQQAABBBBAAAEEYivQLbY1p+IIIIAAAggggAACCCCAAAIIIIAAAggggAACCCBgBP2cBAgggAACCCCAAAIIIIAAAggggAACCCCAAAIIxFiAoD/GnUfVEUAAAQQQQAABBBBAAAEEEEAAAQQQQAABBBAg6OccQAABBBBAAAEEEEAAAQQQQAABBBBAAAEEEEAgxgIE/THuPKqOAAIIIIAAAggggAACCCCAAAIIIIAAAggggABBP+cAAggggAACCCCAAAIIIIAAAggggAACCCCAAAIxFiDoj3HnUXUEEEAAAQQQQAABBBBAAAEEEEAAAQQQQAABBAj6OQcQQAABBBBAAAEEEEAAAQQQQAABBBBAAAEEEIixAEF/jDuPqiOAAAIIIIAAAggggAACCCCAAAIIIIAAAgggQNDPOYAAAggggAACCCCAAAIIIIAAAggggAACCCCAQIwFCPpj3HlUHQEEEEAAAQQQQAABBBBAAAEEEEAAAQQQQAABgn7OAQQQQAABBBBAAAEEEEAAAQQQQAABBBBAAAEEYixA0B/jzqPqCCCAAAIIIIAAAggggAACCCCAAAIIIIAAAggQ9HMOIIAAAggggAACCCCAAAIIIIAAAggggAACCCAQYwGC/hh3HlVHAAEEEEAAAQQQQAABBBBAAAEEEEAAAQQQQICgn3MAAQQQQAABBBBAAAEEEEAAAQQQQAABBBBAAIEYCxD0x7jzqDoCCCCAAAIIIIAAAggggAACCCCAAAIIIIAAAgT9nAMIIIAAAggggAACCCCAAAIIIIAAAggggAACCMRYgKA/xp1H1RFAAAEEEEAAAQQQQAABBBBAAAEEEEAAAQQQIOjnHEAAAQQQQAABBBBAAAEEEEAAAQQQQAABBBBAIMYCBP0x7jyqjgACCCCAAAIIIIAAAggggAACCCCAAAIIIIAAQT/nAAIIIIAAAggggAACCCCAAAIIIIAAAggggAACMRYg6I9x51F1BBBAAAEEEEAAAQQQQAABBBBAAAEEEEAAAQQI+jkHEEAAAQQQQAABBBBAAAEEEEAAAQQQQAABBBCIsQBBf4w7j6ojgAACCCCAAAIIIIAAAggggAACCCCAAAIIIEDQzzmAAAIIIIAAAggggAACCCCAAAIIIIAAAggggECMBQj6Y9x5VB0BBBBAAAEEEEAAAQQQQAABBBBAAAEEEEAAAYJ+zgEEEEAAAQQQQAABBBBAAAEEEEAAAQQQQAABBGIsQNAf486j6ggggAACCCCAAAIIIIAAAggggAACCCCAAAIIEPRzDiCAAAIIIIAAAggggAACCCCAAAIIIIAAAgggEGMBgv4Ydx5VRwABBBBAAAEEEEAAAQQQQAABBBBAAAEEEECAoJ9zAAEEEEAAAQQQQAABBBBAAAEEEEAAAQQQQACBGAsQ9Me486g6AggggAACCCCAAAIIIIAAAggggAACCCCAAAIE/ZwDCCCAAAIIIIAAAggggAACCCCAAAIIIIAAAgjEWICgP8adR9URQAABBBBAAAEEEEAAAQQQQAABBBBAAAEEECDo5xxAAAEEEEAAAQQQQAABBBBAAAEEEEAAAQQQQCDGAgT9Me68qlT95MmqFEuhCCCAAAIIIIAAAggggAACCCCAAAIIIIAAAtURIOivjmt8Sz1B0B/fzqPmCCCAAAIIIIAAAggggAACCCCAAAIIIJBEAYL+JPZ6sTYT9BfT4TMEEEAAAQQQQAABBBBAAAEEEEAAAQQQQKDuBAj6665Lalwhgv4adwCHRwABBBBAAAEEEEAAAQQQQAABBBBAAAEEOiZA0N8xr8bfmqC/8fuYFiKAAAIIIIAAAggggAACCCCAAAIIIIBAQwkQ9DdUd1agMQT9FUCkCAQQQAABBBBAAAEEEEAAAQQQQAABBBBAoOsECPq7zjoeRyLoj0c/UUsEEEAAAQQQQAABBBBAAAEEEEAAAQQQQKBNgKCfUyFXgKA/14NXCCCAAAIIIIAAAggggAACCCCAAAIIIIBAnQsQ9Nd5B3V59Qj6u5ycAyKAAAIIIIAAAggggAACCCCAAAIIIIAAAp0RIOjvjF4j7kvQ34i9SpsQQAABBBBAAAEEEEAAAQQQQAABBBBAoIEFCPobuHPLahpBf1ls7IQAAggggAACCCCAAAIIIIAAAggggAACCNRKgKC/VvL1elyC/nrtGeqFAAIIIIAAAggggAACCCCAAAIIIIAAAgjkFSDoz8uS4DcJ+hPc+TQdAQQQQAABBBBAAAEEEEAAAQQQQAABBOIoQNAfx16rZp0J+qupS9kIIIAAAggggAACCCCAAAIIIIAAAggggEDFBQj6K04a8wIJ+mPegVQfAQQQQAABBBBAAAEEEEAAAQQQQAABBJImQNCftB4v1V6C/lJCfI4AAggggAACCCCAAAIIIIAAAggggAACCNSVAEF/XXVHHVSGoL8OOoEqIIAAAggggAACCCCAAAIIIIAAAggggAAC0QUI+qNbJWNLgv5k9DOtRAABBBBAAAEEEEAAAQQQQAABBBBAAIGGESDob5iurFBDCPorBEkxCCCAAAIIIIAAAggggAACCCCAAAIIIIBA1wgQ9HeNc3yOQtAfn76ipggggAACCCCAAAIIIIAAAggggAACCCCAgJkR9HMa5AoQ9Od68AoBBBBAAAEEEEAAAQQQQAABBBBAAAEEEKhzAYL+Ou+gLq8eQX+Xk3NABBBAAAEEEEAAAQQQQAABBBBAAAEEEECgMwIE/Z3Ra8R9CfobsVdpEwIIIIAAAggggAACCCCAAAIIIIAAAgg0sABBfwN3bllNI+gvi42dEEAAAQQQQAABBBBAAAEEEEAAAQQQQACBWgkQ9NdKvl6PS9Bfrz1DvRBAAAEEEEAAAQQQQAABBBBAAAEEEEAAgbwCBP15WRL8JkF/gjufpiOAAAIIIIAAAggggAACCCCAAAIIIIBAHAUI+uPYa9WsM0F/NXUpGwEEEEAAAQQQQAABBBBAAAEEEEAAAQQQqLgAQX/FSWNeIEF/zDuQ6iOAAAIIIIAAAggggAACCCCAAAIIIIBA0gQI+pPW46XaS9BfSojPEUAAAQQQQAABBBBAAAEEEEAAAQQQQACBuhIg6K+r7qiDyhD010EnUAUEEEAAAQQQQAABBBBAAAEEEEAAAQQQQCC6AEF/dKtkbEnQX1Y/f/nllzZ37lybMmWKTZ48mScGOefAY489ZrNmzbJ169bZ8ePHyzrH2AkBBBBAAAEEEEAAAQQQQAABBBBAAIFCAgT9hWSS+j5Bf4d6fteuXfbwww/b4MGDrU+fPta7d2/r1asXTwxyzgGdFzo/UqmUjR071jZs2EDg36FvGhsjgAACCCCAAAIIIIAAAggggAACCBQTIOgvppPEzwj6I/e6Qv7bb7/dBbjdu3c3nhhEOQd69uxpw4cPt88++4ywP/K3jQ0RQAABBBBAAAEEEEAAAQQQQAABBIoJEPQX00niZwT9kXr9xIkTNm7cODeCX+HuVVddZfPmzbPNmzfbV199xRODnHNg27ZttmTJErvxxhvdSP8ePXrYyJEj3TaRTjg2QgABBBBAAAEEEEAAAQQQQAABBBBAoIgAQX8RnER+RNAfqds//PBDN12PQv4RI0bYpk2b7OjRo3by5EmeJ0+WNJRTpR5xMdfc/Hv27LHx48e7C0QK+1977TU7cuRIpSgoBwEEEEAAAQQQQAABBBBAAAEEEEAgoQIE/Qnt+ILNJugvSBP8QAvuas51Bf1Lly51IX/wc35HoJDAp59+apdffrk7d8aMGePC/0Lb8j4CCCCAAAIIIIAAAggggAACCCCAAAJRBAj6oyglaRuC/ki9feutt5rmWh86dKjt3Lkz0j5shIAENO3TLbfc4s6fYcOGMX0PpwUCCCCAAAIIIIAAAggggAACCCCAQKcFCPo7TdhgBRD0R+rQ3/72ty6o1bQ9e/fujbQPGyHgBe666y43fc/gwYNtx44d/m1+IoAAAggggAACCCCAAAIIIIAAAgggUJYAQX9ZbA28E0F/pM694YYbXNB/3XXX2b59+yLtw0YIeIG7776boN9j8BMBBBBAAAEEEEAAAQQQQAABBBBAoNMCBP2dJmywAgj6I3UoQX8kJjYqIEDQXwCGtxFAAAEEEEAAAQQQQAABBBBAAAEEyhIg6C+LrYF3IuiP1LkE/ZGY2KiAAEF/ARjeRgABBBBAAAEEEEAAAQQQQAABBBAoS4Cgvyy2Bt6JoD9S5xL0R2JiowICBP0FYHgbAQQQQAABBBBAAAEEEEAAAQQQQKAsAYL+stgaeCeC/kidS9AfiYmNCggQ9BeA4W0EEEAAAQQQQAABBBBAAAEEEEAAgbIECPrLYmvgnQj6I3UuQX8kJjYqIEDQXwCGtxFAAAEEEEAAAQQQQAABBBBAAAEEyhIg6C+LrYF3IuiP1LkE/ZGY2KiAAEF/ARjeRgABBBBAAAEEEEAAAQQQQAABBBAoS4Cgvyy2Bt6JoD9S59Zv0N9iqW7drFu3lLVEagkbVV6gdB8Q9FdenRIRQAABBBBAAAEEEEAAAQQQQACBJAsQ9Ce59/O1naA/n0q794oF/c1NCtq7WSqctLc2W5NC+KZma21XYqXeKB0yd+pIrS2Wampy7VMbuzWlrLmSjelg+S2ptLWri7vA0c2amlLWUsk6dRisdB8Q9HcYlR0QQAABBBBAAAEEEEAAAQQQQAABBIoIEPQXwUnkRwT9kbq9WNDf2twWhIeSfv9+U0WT8XB1S4fM4T2iv/Zlh8L1il246Gj5reYvqgSD/vTvTRW5AFFen/l2FL6rgqA/+lnHlggggAACCCCAAAIIIIAAAggggAACpQUI+ksbJWuLBAT9R44csZMnT3aqX4sF/eZH7oemz0mPPq9MAF248qVD5sL7lvikJZUeyR8I9ltbmq0p8LpECcU/7nD52aA/c03F3RGQvhBRiQsqBP3Fu4xPEUAAAQQQQAABBBBAAAEEEEAAAQTqQ4Cgvz76oX5qkYCg/4UXXrA77rjDnnvuOVu/fr0dP368w/5Fg37LE0BbngC+tcWaC06D01ZGU7O1NKfSU/7kmyonEGx369ZkqebmPHP0t1pLqilbRjdNb9McmN4me6zmVP67ERxQ5gJGN2tqbsk7/VBLc+5xwlP7FP08Qvm5HZXHWR5tU/hkwn8rp/3Nee8W8GUWbUe+vs6tuDGiPwTCSwQQQAABBBBAAAEEEEAAAQQQQACBTgkQ9HeKrwF3TkDQ/+yzz1oqlbK+ffta//79TaH9zJkzbe3atXb06NFInVo86DfzI8G7+WTYh9j+dSYMDk2Dk7kLIBtit5uWJjOCvsg2Ucoptk2mnrkcumAQrE9TKhj4Z0P24DbZNQlKfW7ugkRw39zyc+tigQsqwX3Sv/tpc8o0ShUL+ku1w3/u6xCutxH0tyfhHQQQQAABBBBAAAEEEEAAAQQQQACBTggQ9HcCryF3TUjQ369fP+vevbt79ujRw/r06eNC/xEjRti0adNs9erVRUP/UkF/ePoeH/xn8vN209Ro1Hk69E9vkw2oM6Pn/cUCH9AHX/vFZ4Pv6QQNvs5s44Nov2Bw9lipCOsHtIYXzPX1sVZrbQkE/63huwtKfZ7+RhUuP/yNy9Y7G/Q3WVMqcLdCJ9vv+y13GqBS7fC+BP3hHuM1AggggAACCCCAAAIIIIAAAggggEB1BAj6q+Ma31ITGPT7wF8/g6H/1VdfbVOmTLEVK1bYoUOHcvq0ZNAfGG2eavGBdDb49QFyNqDOjuzPDfqDc/qHAmR/sSBz9UBVjLKNRs7nu6gQPFZOc/O/cFMPpcvxQXirphlqyrYld3S9rjsU/zznQHnKz/k8xzj3k8yrvEbR2+/7ybfPl1u8HaE+8DsFfjJ1TwCDXxFAAAEEEEAAAQQQQAABBBBAAAEEOi1A0N9pwsYqYOLEifbQQw819HPChAluBH8w4M/3u0L/3r17u2l+Bg4caJMmTbJ3333XDhw44Kb76dmzp1133XW2b9++vCeBD4m7pVLpeeODgbwPoDPT8ISL8BcHguF7KEDOM1q9NfieivTH0aj7kiP6g8cK1yc9HZGbSseXo6C97YKBC8LbjqVt3CM8or/E5/IqWn67Knkjf2dCuw063X7fhzlBf4l2tLvYkqdaBP15UHgLAQQQQAABBBBAAAEEEEAAAQQQQKBsAYL+sukac8devXq5cFsBd6M+b7nlFte2fOF+sffkoUV8X3nlFbvmmmvc6P9iQX828A2OnvfnjQ/tC41+9yF2MHz3+/g7A/w24TL0OsI2mYsMvpzgsXw9sz996N3+LoS2Y2UuKoTrE+3zkuVnq9L2m693kaA/MOq/Xb0jtD9cJ3cNo1Q7w3dVtKs3c/TnIeEtBBBAAAEEEEAAAQQQQAABBBBAAIFOCBD0dwKvEXfdtGGjbdzY2M/p06e7hXiLhfr+M43av/XWW2327NnORaP5tWBv6al70meHnyInG7wHzpp2c93nC+iD4Xs46Ncc/C2WykyV02Sp5hZrdq990J/epjlnEd22kfOZqvjAPHiszIeBX7SOQJM1dcsG+Tnz4Vv680yg3pSylBvx7+sS7fPC5Qeq4n719S4W9He2/bm+6SUMSrUjTz+Fqs6I/hAILxFAAAEEEEAAAQQQQAABBBBAAAEEOiVA0N8pvsbb+cTx43bixImGfj777LMWXIzXh/r+p+5qGD16tM2bN88+//xzO3jwoB05csSZ+B6PGvT77fmJQFCAoD+owe8IIIAAAggggAACCCCAAAIIIIAAAp0VIOjvrGCj7Z/QxXj79u1rd911ly1atMi2bdvmwn2N3D958mTeHiboz8vCmxEFCPojQrEZAggggAACCCCAAAIIIIAAAggggEAkAYL+SEwJ2ihBQb8W29XCvK+//rpt377dvv76azctT6FwP3gWEPQHNfi9owIE/R0VY3sEEEAAAQQQQAABBBBAAAEEEEAAgWICBP3FdJL4WQKC/pUrV9qyZcvsq6++cuH+sWPHCo7cL3QKEPQXkuH9KAIE/VGU2AYBBBBAAAEEEEAAAQQQQAABBBBAIKoAQX9UqaRsl4Cg//jx46ZnlJH7hbqdoL+QDO9HESDoj6LENggggAACCCCAAAIIIIAAAggggAACUQUI+qNKJWW7BAT9lehKgv5KKCa3DIL+5PY9LUcAAQQQQAABBBBAAAEEEEAAAQSqIUDQXw3VOJdJ0B+p9wj6IzGxUQEBgv4CMLyNAAIIIIAAAggggAACCCCAAAIIIFCWAEF/WWwNvBNBf6TOJeiPxMRGBQQI+gvA8DYCCCCAAAIIIIAAAggggAACCCCAQFkCBP1lsTXwTgT9kTqXoD8SExsVECDoLwDD2wgggAACCCCAAAIIIIAAAggggAACZQkQ9JfF1sA7EfRH6lyC/khMbFRAgKC/AAxvI4AAAggggAACCCCAAAIIIIAAAgiUJUDQXxZbA+9E0B+pcwn6IzGxUQEBgv4CMLyNAAIIIIAAAggggAACCCCAAAIIIFCWAEF/WWwNvBNBf6TOJeiPxMRGBQQI+gvA8DYCCCCAAAIIIIAAAggggAACCCCAQFkCBP1lsTXwTgT9kTqXoD8SExsVECDoLwDD2wgggAACCCCAAAIIIIAAAggggAACZQkQ9JfF1sA7EfRH6lyC/jTT8ePH7fDhw3bkyBE7ceJEjp1e6/Pw4+TJk277Y8eOZT46evSoKyf4nn7XU9vrZ7j8zM4x/IWgP4adRpURQAABBBBAAAEEEEAAAQQQQACBOhYg6K/jzqlJ1Qj6I7ET9EdiYqMCAgT9BWB4GwEEEEAAAQQQQAABBBBAAAEEEECgLAGC/rLYGngngv5InTtq1Cjr2bOnXXvttbZ3795I+7ARAl5g/Pjx1rt3bxs6dKjt2LHDv81PBBBAAAEEEEAAAQQQQAABBBBAAAEEyhIg6C+LrYF3IuiP1LmjR4+2Xr16WZ8+fWzLli1ueplIO7JR4gW+/vprd4GoR48eNnz4cNu5c2fiTQBAAAEEEEAAAQQQQAABBBBAAAEEEOicAEF/5/wab2+C/kh9OnfuXEulUta9e3d7+umn7dChQ5H2YyMEFi1aZIMGDXLnzhNPPGEHDhwABQEEEEAAAQQQQAABBBBAAAEEEEAAgU4JEPR3iq8Bdyboj9SpGoV9+eWXu7C2b9++NmfOHDt48GCkfdkomQJamHjJkiV25ZVXmkbza+qnTz75JO+CxckUotUIIIAAAggggAACCCCAAAIIIIAAAuUKEPSXK9eo+xH0R+rZkydP2oIFCzKj+vv16+emY5k0aZJNnTrVpk2bxhODzDnw+OOPm9Z1GDBggAv5dSfIjBkzbP/+/ZHONzZCAAEEEEAAAQQQQAABBBBAAAEEEECgmABBfzGdJH5G0B+5148cOWLz58/PhP0apa05+3likO8c0Ah+Bfx6Tp8+3Xbv3s3aDpG/bWyIAAIIIIAAAggggAACCCCAAAIIIFBMgKC/mE4SPyPo71CvK+xfu3atacT2wIEDM6O1faDLz3SwjUN3dwHo3nvvtRUrVrh5+XVXCA8EEEAAAQQQQAABBBBAAAEEEEAAAQQqIUDQXwnFRiqDoL/DvXnixAm3GO+ePXts69attnnz5sQ/N27caEOHDnWj1z/44IPEe3zxxRe2a9cut46D5urngQACCCCAAAIIIIAAAggggAACCCCAQCUFCPorqdkIZRH0d6oXNUqb50lbunSpDRo0yGbOnOnCbUwYvd+pLxY7I4AAAggggAACCCCAAAIIIIAAAggUFSDoL8qTwA8J+hPY6ZVv8ltvveWmMpozZ46726HyR6BEBBBAAAEEEEAAAQQQQAABBBBAAAEEEPACBP1egp9pAYJ+zoQKCBD0VwCRIhBAAAEEEEAAAQQQQAABBBBAAAEEEIgoQNAfESoxmxH0J6arq9lQgv5q6lI2AggggAACCCCAAAIIIIAAAggggAACuQIE/bkevCLo5xyogABBfwUQKQIBBBBAAAEEEEAAAQQQQAABBBBAAIGIAgT9EaESsxlBf2K6upoNJeivpi5lI4AAAggggAACCCCAAAIIIIAAAgggkCtA0J/rwSuCfs6BCggQ9FcAkSIQQAABBBBAAAEEEEAAAQQQQAABBBCIKEDQHxEqMZsR9Cemq6vZUIL+aupSNgIIIIAAAggggAACCCCAAAIIIIAAArkCBP25Hrwi6OccqIAAQX8FECkCAQQQQAABBBBAAAEEEEAAAQQQQACBiAIE/RGhErMZQX9iurqaDSXor6YuZSOAAAIIIIAAAggggAACCCCAAAIIIJArQNCf68Ergn7OgQoIEPRXAJEiEEAAAQQQQAABBBBAAAEEEEAAAQQQiChA0B8RKjGbEfQnpqur2VCC/mrqUjYCCCCAAAIIIIAAAggggAACCCCAAAK5AgT9uR68IujnHKiAAEF/BRApAgEEEEAAAQQQQAABBBBAAAEEEEAAgYgCBP0RoRKzGUF/Yrq6mg0l6K+mLmUjgAACCCCAAAIIIIAAAggggAACCCCQK0DQn+vBK4J+zoEKCBD0VwCRIhBAAAEEEEAAAQQQQAABBBBAAAEEEIgoQNAfESoxmxH0J6arq9lQgv5q6lI2AggggAACCCCAAAIIIIAAAggggAACuQIE/bkevCLo5xyogABBfwUQKQIBBBBAAAEEEEAAAQQQQAABBBBAAIGIAgT9EaESsxlBf2K6upoNJeivpi5lI4AAAggggAACCCCAAAIIIIAAAgggkCtA0J/rwSuCfs6BCggQ9FcAkSIQQAABBBBAAAEEEEAAAQQQQAABBBCIKEDQHxEqMZsR9Cemq6vZUIL+aupSNgIIIIAAAggggAACCCCAAAIIIIAAArkCBP25Hrwi6OccqIAAQX8FECkCAQQQQAABBBBAAAEEEEAAAQQQQACBiAIE/RGhErMZQX9iurqaDSXor6YuZSOAAAIIIIAAAggggAACCCCAAAIIIJArQNCf68Ergn7OgQoIEPRXAJEiEEAAAQQQQAABBBBAAAEEEEAAAQQQiChA0B8RKjGbEfQnpqur2VCC/mrqUjYCCCCAAAIIIIAAAggggAACCCCAAAK5AgT9uR68IujnHKiAAEF/BRApAgEEEEAAAQQQQAABBBBAAAEEEEAAgYgCBP0RoRKzGUF/Yrq6mg0l6K+mLmUjgAACCCCAAAIIIIAAAggggAACCCCQK0DQn+vBK4J+zoEKCBD0VwCRIhBAAAEEEEAAAQQQQAABBBBAAAEEEIgoQNAfESoxmxH0J6arq9lQgv5q6lI2AggggAACCCCAAAIIIIAAAggggAACuQIE/bkevCLo5xyogABBfwUQKQIBBBBAAAEEEEAAAQQQQAABBBBAAIGIAgT9EaESs9nJk4lpKg2tngBBf/VsKRkBBBBAAAEEEEAAAQQQQAABBBBAAIGwAEF/WITXCCDQaQGC/k4TUgACCCCAAAIIIIAAAggggAACCCCAAAKRBQj6I1OxIQIIRBUg6I8qxXYIIIAAAggggAACCCCAAAIIIIAAAgh0XoCgv/OGlIAAAiEBgv4QCC8RQAABBBCouECLpbp1s27dUtbiyg6/rvgBKRABBBBAAAEEEEAAAQTqWICgv447h6ohEFcBgv649hz1RgABBBpZYJ0dOuMbtvMv9DzXDn0WbOsi26/3z5hsx4Nv1/j31uYm6+bC/G6WSqf5gRqFg/3w68CmwV9bWyzVlC23W1PKmluDG8T194jtj2vzqCTIYnQAACAASURBVDcCCCCAAAIIIIAAAiUECPpLAPExAgh0XICgv+Nm7IEAAgggUG2BYND/Dds5bFHggOUF/ccfOtddONj70LpAWZX61QfXGrXfzbq1S/r95x0Y0d+Sylw48BcQ0j99GZWqe3XL8RdAmnKuUIQ9qlsHSkcAAQQQQAABBBBAoN4ECPrrrUeoDwINIEDQ3wCdSBMQQACBhhPwQf+5tteN7A+O6q/DoL8tlG9qbrHmpuAUPb5jwsF2+LXfzv/0n6cvGvhB/K0tzZZqaoSg37eTnwgggAACCCCAAAIIJFOAoD+Z/U6rEaiqAEF/VXkpHAEEEECgLAEf9A+3IwuHp6fwyUzVky/oX2dHhp1re91UP+kpf/aeMdmOuCl/fFl+KqD0z/0L2yr22SI7dEZ6tL+bKuiM4YGpgvy+wQsN7RvUklK43+Sm1Un/Hp6+xwf3PqQPvw6VmRnN77cPfe5etlpLqsma2qYL0mj/pqZma/FXBaw1fdFB7zWnstvlTP8TZRsza9UFjGJTCLVacyr7eVOqxVr98QP1Ux3TNzvka38l2mPWGmpr1iPXsKU51y53WqSsS6Zd/i6Nkha5x+EVAggggAACCCCAAAL5BAj686nwHgIIdEqAoL9TfOyMAAIIIFAVAR+wD7cjZnZkWDCcDwf9ftvcID89v7/2z/95OuhvKytwgSC7nxrm9y0W9LeF1k3N5jJ2H9L7YNj5hIPt8OtcRD/dTfspgPx2bUF0KETPndqnyDa+rgXCeFdOZhtf17ZpiTLH9Bch8h8n1VLofbXBl1m8jA63x9s3pSyVSrn1DXJmDPJ8meOH2pRpc566u/709Q7tl1lkOXMAfkEAAQQQQAABBBBAoKhARYL+7du329y5c2337t128uTJoges5Ic61pEj+r9q7R9vvPGGvf/++3b8eOWWVFu7dq299NJLdvTo0fYHLPOdEydO2LFjx/LuPW/ePFuzZo1pGx4IxEmAoD9OvUVdEUAAgaQI+IA9HfTbZ5PTo/XdqP5Q0O8/+4vhbSP4zeyzbIDvR+7nnaO/3d0CujMgeFEhgndm2h4/lN6HwekR/ukS/Hs+2A6/zj1OyaC/tblthH4qO4JfC/e2hfDpawzZsFpTCrnaBfdzh4ywTSY8b7uQYRp5nw6609m3X0vA1yU9Mt9f5/BtKTpHf7BenrGc9mTq6uuS65p91WqtLW0merO1uc3O90/WJRW8UpApv4BF9gD8hgACCCCAAAIIIIBAUYGCQb9C9DfffNNuvfVW+8UvfmFnn322XXzxxTZ69Gh79913c8JnBer//d//XTSU/vLLL+3AgQOdvhCwf/9+mzhxohtRc+6559rPf/5zGzJkiM2YMcO+/vrrTGOvv/56mzBhQsELAZkNO/DLtGnT7MILLzTVoTMPXRiRY+/evZ3rWWedZVdffbUp2A9euOjVq5fNnDmzohcWitV748aN9uijj5qOe84559h5551nv/nNb+y5556zffv2dbrvih2bzxpLgKC/sfqT1iCAAAKNIRAK+s3MB/X7F4aCfh/W5yzYG74LILt/cDFeX2Z6FH/uHQH+AkEpTx96p0ef5470zobbPoT3QXL4degoPlAuNFLcf+7T9LbdfV1yg/5iFxx8oF14Gx/U52tfTtAfqotvkd8/a6FPQu2vWHvMTWeUqWuR9QzcFD9uPYVgn/n+yeei6wHZ6Ykyx8i5uOJbzU8EEEAAAQQQQAABBIoL5A36FfIr8D3ttNNcAP373//eFi1aZM8884wNHTrUva/f/Uh0Bf//+Z//aR999FHOBYDgoa+66ipbsmRJp0bYayT9wIED7aKLLnJ1ee+99+ydd96xhx9+2AX+N910kx0+fNgdVncXVDqclsnPfvazTgX9X331lf3qV7+ynj17WktLiy1btsxdUBk3bpxz1TF82K9tDx482CUB++rVq52r6jZ58mR7+eWXbf78+XbnnXfamWeeaeq/nTt3dkldgucNv8dTgKA/nv1GrRFAAIHGFmgf9Jv5gL9tgV4/Z78P+isyor+jqj6wDobFgd8zU8H47XyQHH4dPq7/PHcxXs2V7xbj9cG4LgSUHAFfOMS3zNQ9Rbbxx8q0JVTXzOe+Lq2m+e997u/D8UhBf6fb4+uWroPC+Nzjtn3eVmetJeAeBUf0B110faLt7oVCFv7w/EQAAQQQQAABBBBAoIRA3qD/9ddft//6r/+y++67z3bs2GGHDh1y4bN+Kuy9+eab3ed/+MMfXLCfL+hXyL5ixQr74osv3BQ6Km/SpEm2atWqzMUAhdi6gPD888/bK6+8Yrt27SoaJKu8H/7wh/biiy+6uwN0oUFP3SmgixG//e1vbe/eva7JmvJm/fr17lh6T/sqQP/8889dwK4yFKQHpxrSFDnLly930/O0tra6fVXfbdu2ue3yBf1qw+LFi10bdCHDX2go5D579mz7/ve/b7KTp2+DvHTB4u6773bva/+VK1c6Pz91j6Yh0sUNTR+ktum1tlEfqR1btmxxd1Xo/Q8++MDmzJljr776qrtYUKg+el9tuOSSS+zXv/61ffrpp85TVnqqXgr9f/rTn7o7JFRnPXRhQC66i0LH0Kh/Xeip5FRJxerMZ/UtQNBf3/1D7RBAAIFkCuQL+s0sE+p/w3b6oD8zj37uiPz0wrqTzU8MGR69X5E5+n3w6wPjTGf5oN4Hxf511KC/2OhxleFHnAcuKvi58zMhtN/G10GVC9cjyjZ+n/Cxwm3J/dyT+KDfj4BPv+/L9GX4euSW4fbpQHvSo/T9/PzpsooF/b5O2Z/h+gTtgn7hevr9MicAvyCAAAIIIIAAAgggUFQgb9A/atQoN6VMOAj3JSlYPuWUU+yee+5x08qEg34Fx8OGDXOjwDUdjKZ/+bd/+ze77LLL7Pbbb3cB8ieffOKC5e7du9uNN97oRrhriiC974Ntfzz/U+GyQvInnnii3XQ2CqD37NmT2ffKK6+0MWPGuOBd4bhGpU+fPt0GDBhg1113nZ1//vnumLq4oIcC9xtuuMFNWaP2686F3/3ud+5OAd29oLsJwkH/hx9+aJdeeqkbCX/ttde6aX00Un/z5s05FxB8/fXzhRdecG3QxQEdM/iQW/AuBN25oOmCFLirfddcc42rty5oDB482E1XpHbpzgDV75FHHrHLL7/cjcKXuaYDOuOMM9w0QcFpjYLH1O+vvfaa/ehHP3IXXfKtP6DjayokmXmvHj16WHNzs5s2SW3v16+fnX766aa1EcLtCh+P140vQNDf+H1MCxFAAIH4CRQI+oOhfiboT8/Jf2jYuZadgudc2ztsUSbkT7d/ke0/w18MCCyuq/n8zwjuq23a1gbIHC+wfQAzd6qcwAdu8HcwaA4H2+HXufv6V60tKWsKTi/TlLJmP4S/tcWaU8GpZJpMI9T9AP9Io/UzFwyCgXaeurk7CYLHUtsC4bb7PBt+59ZDdyH4z/xx8h+j0+3JzPXfZp/j4VX1M72OQCbgd4v3BtvkLzz4+gb2LWUR2JRfEUAAAQQQQAABBBAoJNAu6NfIcM23r/BdAW++h7ZRoPzLX/7SBdDBoF8j2hWUK/Bet26dC30ViGtqH43c99O/KITXXPAbNmxwi/hqpL2CZH8hIN9xVR8F9bo7QHPcv/32224Ef3BUvt+vb9++rh6qj7bT8RWO68KDwmpNmaNwWyPsFUwrLP/xj3/sRuerjrqYoeD/e9/7nk2dOrVd0K+R66q/LiionSpz06ZN7uKF2u9Hvvv6+J+aUkjz/GttgXvvvdeN7FfAn++hUfSaRkftnjVrlqufAlTVT2seKMhX/XQ3gwJ63YGhOx5Uru6kUJ0ee+wx56U6FrqActddd7lpg9TmQg9doJCX7kRQ27U+gvpBdzHogpDWHejTp4+7qNPZNQwK1YH34yNA0B+fvqKmCCCAAAIIIIAAAggggAACCCCAAALxF2gX9Csw/sEPfmD333+/C48LNVGL9Cqs1khxH/Qr0B8/frybg15T5/hpXBTiayS+poDx72n0vQ/9dQyF9SNHjrT+/fsXDMm1nQJuhd+6O0AXJDRnvi4qaNoblelD/2DQr3n8dXwf6qschfuq/5NPPunaqfZofno/9Y+20QUC7Zcv6Ff7/IUBP4Jdx547d66rkwL9fA9to4sbCtd1N4DWQdCoe42I1x0EwZH3waBfdyFom2D9NO2R+soH/eqzpqYmdzHDO2gKHwX0+lko6NeFCd09ECw7XPelS5e6cvyIfV2U0cUemfuH7vDQxQ/dlcAj2QIE/cnuf1qPAAIIIIAAAggggAACCCCAAAIIINC1Au2CfoXBCrc1V3y+aVx89RQOn3POOTkj+keMGOFGlGv0d3DffEG/5ndXyK4pflSOpqDRcRUUB8Nufzz/UwG2RsBr9LmmyFEYrxHsGmGuEeU+ZA4G/boQobLDiwHruJruRiPmBw0aZFdccUXOsXVRQSPk8wX9CxcudGXqrgYF8P558cUXu2mKNNd9oWBd72vUu9qg0F9z3OsOBQX+miLHtz8Y9GuqHIX9wdH/GqWviw0+6H/ggQdcGB8M37XWgLZ5//333TRGWlxXU//oqQWAdaxbbrnF+RUL+hXwy0LeurChoF9lBOvz4IMPugswxcrx/cjPjgnonFFfaT2KODy15obuvtGdKLqgF4c6q476W+AvknWsh9gaAQQQQAABBBBAAAEEEEAAAQQQQACB2gm0C/pVFYXtCsoLLSyrIEwjwDVnvIIxP6JfC7pqPy3qGhytHw76Va6m0dH8/PPmzbOPP/7YTTWj8rS/D7pLsageCp0Vmit4VxCtn3ovX9Cvufr9HQUqWxcHJk6c6NqgUFIXHYLH1pQ0KnPGjBnuwkVwjn5N9aPpgB5//HG3OO6CBQtMTy2UqzYp7I4SGGobXRTRBQqVr7UP5KFgNxj0y1RTCQXrp2mIFOLrTgWVoaBddwgEg3Yf9Cugl7suBugijp66C0JTDD311FOunWvXri14cUJ3UZx66qluwV/V+YILLrDbbrutXdCvCx3B45fqQz4vLKBzQH2ic0zfDa27oItRcXgOHDjQdHFKd+jEob6+jjLWha/58+e7qa+ifIcL9yCfIIAAAggggAACCCCAAAIIIIAAAggg0DUCeYN+zeuuKWEU4CtsDD/efPNNN5pdI/cVnPugX++vX7/ejfa+6aabMhcKwkG/RrtrOhnN2a8R4TqGAjWF2b17984Js4PHVoCebyFebaPR7aqzD+WDQb8Cfo3o1/zywfYo6NeCsgrANTpdxw+OUF++fLnbT/XUxYNg0K9pinQRQNPnaB9d8Ag+8wWEek+heviOB99GjYJWPRXKyzUY9F911VWm8FSjjv1Di+iqzbrAoPop6NedEcGg3Qf9r7/+euaiiC4q6KmyVCd/wcCP8Pfl+5+ahkjTGmk9Aj//vi70hLfX8c8777yc6Xx8GfzsmID6X+eKgmedywrNdWGMZ/UNNBWYLlDoDhotDh68ONixXmRrBBBAAAEEEEAAAQQQQAABBBBAAAEEukYgb9CvKWUUKCq0ffHFFzPBu0Z/a8S6przR/Ox+Hnof9H/00UcuFNM0Lxr9PXPmTBcub9261QXYmmJGgbSm3FGg7UN7BWnPPPOMG43+i1/8IifMDjI899xz9pOf/MQtMBucj1/11eLBGmGvOijMDwb9mrZGxwvPUx8M+jXFiIJ7P72PwnsFfVrsVm0OB/0K9XUHg8J376ALBrpwoEVx9Xu+x4QJE9wc/mpLeHS+pg86/fTT3ToECuCDQb+sNHpfiwjLS0G9QmDVz8+brxH6Z599dtGgP1+dVJ7m99fiuqqf+sdffFm9erVb9FcXEHThw4eeGrmvdQaCbVDQL9Pg1EH5jsd7xQVkPH36dDedlA/4tfCyvDVNFc/qGOjcv+OOO9w0XPr7J/vhw4cT9hc/XfkUAQQQQAABBBBAAAEEEEAAAQQQQKAOBPIG/QqZNTJfIZeCZwX7moteIa4CX4XqW7ZsyUxNEwz6FRArBFdwrMVyNYpeFwg0Wl5BskbKaiS5RtArtNcxNIpfC7lOmzbNjVDXNBrBANk7aT+F6FpEVxchNMWQ5sZXuK06KpDXsfUIBv1+ZP7KlSvbjehXuKdQXsG5wlTVWXX084vr4oFGwyt8DY7o1zHUNoX9WlRXFwVUH4WDWvzXB+K+7v6nLkpoahC5Xnjhha7taoMWFVY5WvRWFxX0CAb9u3btchdXNI+/6qaLAgqDdQFDFzJ0vEmTJtlZZ52VN+j3FwN8PcI/NVJfFwpUJ9VF7VKYL49UKmW6WyN48UKfaeHlYD8xoj+sWt5rnVf6Duhc0rmoRay3b9/uzlH1E8/qGehuGP3t098jrfmhPtA0V8G7ZMrrVfZCAAEEEEAAAQQQQAABBBBAAAEEEECgegJ5g34dToG9RqprjnDNAa/R+ZpyRiFYcDS9ttV2CrcVQOoigR4KxvSeHx2uxXc17/XixYtdKK19FD6rbIXIeq3QWCFnsVBax9ACtm+99ZbNmTPHLUS7YsUK010DPuTX8TV638857+uiMN/XT9voAoDao7bqoTqoLNVb7+u1phjyo+jVFk0D5IN4/dSCvZpyR9P76EKDLoAE6+EKDvyPjq/6aEod3T2guxzkqpHzCnN92dpFx/J+2k9hv0J91W/Tpk3uM43y93P6a1vVNViGLo7o4oH2DbY9UKXMr9r2iy++cMGy7nDQXQcy0sWJ4OLK2kH9JKPgBQ1NAaTtg8fPFM4vkQW0boQufmlUuaZn0t0lpfouXLi+I/p+BC/EhLfp6tc6n3WxLXwuVbIeOh/1/euoV7AO+nug78vtt9/uLt4p8Nd3LHiuB7fndwQQQAABBBBAAAEEEEAAAQQQQAABBGotUDDo9xVT6KWR3AoM9TNfgKb3FO6GP9N7PhzTZwrggiG4Aj+N9g8Gfz6o88fP91Nl+X21vz9GcNvwsUvVT8G7RtqvWbPGtVPt1kUIjWjXRQodU++pnPBDbVI9CvmEt9drlRWlDdpOD10IuPnmm1247oNMjejX3QwK4n2Z4fqp3vna7nYo8D++PYVstZvKDLsX8ilwGN7OI6CLaFoLQSH/qFGjXOCcZ7OSb2mxaJ0bunhU7KGLNcFzRgtQK+T2512xfTvymcrTnSi6YDhkyBB3IUMXMwo99Z3TxSRNEabvZPhcCx5bF9fuvPNO09z6uqNF7Zbh3Llzy77Qoe+N7uTRnTPqC134qqeLJsH28zsCCCDQXqDFUt26WbduKWtp/6GZtVpzkz5vsubWvBvE7M1S7Y1ZcypS3VqZlHPccvapCFKEQuq5bhGqzyZ1KBA+p8Kv67DKVAkBBBBAAAEEYiNQMuiPTUs6WVGNslcAqSmAFBqOHDnShfyPPPKIC/A7WXynd1cAqyl0zj//fBszZoyNGDHC1U/THQWn1On0gSigpgIKrXUeKlzWotjlhsu6SKWpsnTHSaGHAv3LLrss52KA5v/XehnlHrfQsXS3h6ad0h0zuotFi2brqQWddVeKFu+eOnVq5n19H3XHy2mnnZazNkS4fN2Boul1NFWXLm74O1403Y6m+JKh7lQp56G+0BRK6gtN26W7iXgggECjCZQTsETdJ+p21TAtdexKB/2+vG6WCl9ZaG22Jl10aGq26l1TKNXeahjXe5m1MinnuOXs01X+9Vw3bxCHOvq6xvVnJY3DZYVfx9WIeiOAAAIIIIBAPQgQ9Lf1gkbwavofTXeiueoff/xxe/XVV9286Pqs1g+NiFbwqCmCHnroIbeQsYLQ4HRJta4jx++8gKZk8kG/LuKUG7gr6NcaGAr6tUC1XmuKKX++6C4QBfqnnHKKm3JKI/sVkmstDd3ZoumzdGfHZ5995qaZ0sUkveencwrehaNWawS+phlauHChC/N1N0jwoemptIaF6qPP1C493377bVdPjb7X3Qz+fX3ndDxdrCg2HZRG2vttVK7uTtBT03RNnjzZtG6Efi/nISMteK2gX+tfEPSXo8g+CNS7QDkBS/t9WpubrFu3btaUMzy+/XalNPKXU2qvfJ+XOrYP5is3ot/XvVso6ffv59rkq3Nn3ivV3s6U3TX7Vt6pViblHLfj+1Teq1A/d7xuhUqq3vtxqGP1Wl/pkvOfW5U0DpcVfl3pFlEeAggggAACCCRJgKA/0NsKFxVoKtDTKOBwmBnYtCa/qn4KM1U/zdteb/WrCUqDHVQj3wcPHuzCZU3N1JmgX6PhtaisFpnWHSq6G+SGG25wa0RoAW0tAv29733Phg4das8++6xbIPsHP/iBXXDBBTZs2DC3RsUdd9zhftc211xzjZsSRyPzNWLeB98vvviiW8RZ+2iR7Ysuusi1wU95pS7StFNjx45tt6itQnwtOr1gwYKcab20T5SgXxcedLFCa3/owkTwoe+wQv5ypyEi6A9q8jsCjSWg6cCC05Z1tnX5g6GOl1qpcsxKBUeVD/rNj9wPTRfUkuqKKYJKtbfjfdHVe1Su733Na2VSznE7vk/lvbxb+GfH6xYugdfxEqj+uRU+p8Kv4+VFbRFAAAEEEECgvgQI+uurP6hNwgUqGfQrAB89erRbuFnT9ChMP/30092CzQrBNVWOtvnkk0/chS1to8+bm5szi0DrwoAWpH7iiSfcQs2aQkp3lGjtCs2hrwtPF198sd133332+eefu/n9td7Ftdde6xaN1sUoBfAK/zVqPzzNVGeDfoXxl156qZuXXxc1dFeCLkBU4i4cgv6EfxlpfkIEwgFLWwDe1Gwtzan0lDNu2plUYC774D4+MFeYnX2mB7UHt0tztjQ3ZcvMKbdYOZpSv8Wam9J3DbjjNAXrk/485ebcT4fqqebmyHP0pwq0Mx3Qh6bi8WF+3ml4sm3IDupvb1C8LVH8o7a31VpSud5N6tfM/EHZYzWn2myzFQ+d/62W2UZ3bqRaAtMQRT9O/nMq69b+HCpWx1LHzWMfalXh81EbZo+dv95thbW2WMfOvWj9V7huxbzMCu8Xarx7GWhjS5Tve7qM4scIlFngu5U+dInvdKa62fbmnJ4tqfTfHPdm+74uXsdM4W2/BOpc0CG7Tea7kKlQqXPRzILlZv5W+juKCpddvB1t7U7p73X2u96UarbW8HkZmFIsuG3u39OsdfvvYntj9x3xfztCfxcKH0Pk4bJyX3f8b2+4P3mNAAIIIIAAAkkWIOhPcu/T9roTqGTQr7nvly1bllnIVgvzKqBftGiRC981iv/UU0910+54CI3W1zQ1umNEDwX9WuBW9fLhuQJ9lfP000+7CwQK8TXiX9to9Lyeu3fvdqG+9vnggw/szDPPdNMA+TL88Tob9Ku8DRs2uIsTmmLnZz/7mZubX3P2P/XUU2VP26P6EfT7XuInAo0skBuwZMLNTBCVDe+zc8wH9+lIMOT3C5Tpwn7NXR+lnNB+mZHz+fdNB1WlFuMNl6nXbfvkBInpc8AHUIWm4fEjYTPT9/gLA5lAsICBP2YBh3QY5+f4j9LeMrfJ1DN4zucvK71p/s9y7Yts4y6Y5P+8YPnug/z75B7XWxc6B/znoXMgcxGnyDGibJPp06Clfi9SbmafYnXLv3/aq9h+4Xp0tC7esdQx8tcv9xwuUEam/bl1bfe9crl5ut9y2x21jrnlR+uTPO2Kei76vwPt/q6Ggv7g567sAk6Z86/A58FyMr9HscnTxm7+Yqc/li8nyraFvlvhskKvy/jbG+5RXiOAAAIIIIBAcgUI+pPb97S8DgUqHfRrjn0frmvEvgL6efPmRQ76NRWP5tbfuXNnRkvTXeiCwMSJE13QP3/+fDd1j8J8Te+jBXDVDk2NoYfuHNCFAN0NEH50NuhXebqwoFH8upCh0P/111930wSpPjfeeKOb+z983CivCfqjKLENAnEXCAUsgRCyqblt1HYmpPIBT3gfMx/E5Qbg4e1arbUlMBK8tf2o+7zl+NAnE25p9Gwg5AvWz49WD76Xt4t8SNVkKT/EXSNgXSjmw7dCr71DnoJDx/XtSYeR6VG9uYFnqC1R/IPHKNTevNv49vjgzht0s1TO2gqhdnl/hbDueOnRy+mMs22h4cxnbaPV28LFdLuzxyl8ThU6h7L75tQxUvt8ewv1V6nzMXvsgvXOW4+ASYjSvYy0T6m6FfYq9R3LrZJvY77vgT9Pwo6l6ubL1JodBf6G+HOq0Hc6t5LtR4AHDd22Ha1j+AC+zsUc/Dah70uwLpnvo69Pm2FbezN/H8OvA9/7nPNcl0CL/s0MHid9cP+3sVtT2/c183fW/10rVWahc8sfq+375Psw890P/F2IXG//3QyVnRnx7+sc/jzcf7xGAAEEEEAAAQSyAgT9WQt+Q6DmApUO+jdv3twu6NeCzppCJ8qIfgX9Gh0fDPoVrP/85z930/VoCiCVpeNonnwtfvurX/3KrQegqX10UUBz9+t9P6d/ELkSQX+wPF3U0HRBe/fudXcmaJ0CLUasOnf0QdDfUTG2RyCOAuEAxYdZPmBRm8LbhF9HDIaUAWsqj8wUO360pw978pfjw/L0aG2/TyDo94FTJk3PV+dw3+Rrp2bXCJTr6ptdZDhTj5zjFCpXAZ8/Rvv2FWxLJvAr4h+lvXm3CbfP1y94rHB7Ahcn8rW77ONEPYcK1DHScdsfI9y64udjvmOHysxbj9A24YNG3Kd43fJ/V3SoUvvlVidfG8PnSfv2FD9GvjJzy8h8lzKjzbPf63ynmeoc/G76/TPBebu/UdVwyNeuwt+PYH2z63dk26m/Adm2Fii7ZH/muqb7P/s3K93X7csu3n+Fzq3QsfKex9mzq/gxQmXl7b9sO3x/Z+6Uyh6G3xBAAAEEEEAAgXYCBP3tSHgDgdoJVDro37p1a6YxfkT/M8884+bWjxL0jxo1yoX2X375ZaYcBeCay3/mzJmuHI3cV8CuufgV5usuAi38O2HCBNuyZYub+mfJkiV526Iy8AAAIABJREFUF4/uTNCv8H7atGmmxYDzLVqsOxc0NdE777xT1qKbBP2ZLucXBBpYIBy4tA+FKhb0twVDmt/dPTIjTdsH4dkALxCkZUb/hrojz4ja1uB7oc3bDm7N7oJDcASvH4kdCL59OU1NbRcoAp/lLTcbknVLpdJ3CPj2ansfjhVqS5Sg39cpM5LWrF17/XEC22htgPQdCz5gzNfXeRrly/IjhK3VzQfumuU/6/BxfF1K9H1ej4Bj0eO2P0ZO69rqXvh8zOcTKjNKX+Qc1CW3betU+DskCvdf4bplz7N835Vi++VWJ9vG7J0t4e9BqM2VcPPnTcHvQW4t3Su/T6o5893N3ojS0TqGy4/ikN0me9yI52Lgu5e+yNcUuoumeNmF+zPU7tDFyXQrQ2WX7L8C51Y4jPf9UeTvQvR6t29H5uJIB/72hnuV1wgggAACCCCQTAGC/mT2O62uU4FKBv1aaDcY0IeDfo3s1zz+n376aWbEu6a7GTduXGb0vYL+73//+5lQX4H+jBkz7Kc//amtWrXKPXv37m3BIF/HvOCCC+zee++1l156yf2uwN9PIRSkjxL0K6jXnQNa+Nc/dVFB5WkB3nPOOcd08SJ4x4DaNHDgQDv33HPd3Qb5jh2sR77fCfrzqfAeAo0mEA5YQqGQa254m/DrbDDkR6qns+3Qdj4YajeKt33Ym7+c3NGwmbn0M2Fw+HO9zpad23O+nXn2CYWPfmSuq1Pos9wy/Svf7nTZwZw/e9EkfFxfT1+v4AUFX154m3AZeh1hm0wb8h3LtyH40x8/93jpdvkycj/LtfLbFGtToXMo376qm3+/2HF9vb1JsE3BgDZcht/eH6NYvf024TL02pcTOm6xuvt9yv2uRNgvtzZF6p85T0KOJY/hyyzm5ssMuxUyU61D+2TqF/ysbf+SdcxViHY+5WuXyvHvh9vSzbq11TE9Ij3oUej4oW1KtsObZN386PfsBSBfv7ayS5ZZ6LsYPpZ/ndvu3AuAuZ9lvxN+X1/v8Ou0T8f/9oZdeY0AAggggAACSRQg6E9ir9PmuhWoZNCvED9f0D9r1iwXmCsM11z7CsrvvvtuF5Qr2P/JT35iWti2tbXVNHVPnz593PQ7v/nNb+zyyy93o/nvv/9+t9Ctpu3RyP3zzjvPBgwY4Obo12j+VCpla9eudZ+NHDnSLc6bDz1K0K+LCpoqKPj0ZW7bts3uvPNOt9jvhRde6OqtNQXUrh49etjSpUvz3kmQry7h9wj6wyK8RqARBcIBSygUck0ObxN+rY1aLJWZkseHVeHt0nM4+xBfc0in3FQ5PuwpVI6yNJWfnsohs78PRbWb+9yHShot29I26jdYtmtM2/+0tbOp2Vo0nZC/+JAZnRrYNhCM5Yb2gW1Cv2YDqjzHL9qWKP4R29vaYs2poFmTaYStn0Y8G1D6/go1Ivgyx7dbbjllHSd8buhg+c6hfB5tFSt53HzHyGmUtQR92p2P+Y6dp8wcmyjnXpT+K/e7EmW/XIPMnS0FvwfhNpc6Rkfcguenvr95vi+B6ma/V/6uFP9hR+vo9/M/s3VOFXTIbpMzol9FlDoXdY60/Y1pciPUdYdQypr9+iCZiwXh72Ipa19u1q1k0K87coqe92pQvu9i+2Pl/t0N/l0odYxwWeHXbf1Sxt9e36P8RAABBBBAAIHkChD0J7fvaXkdClQq6FfAv2zZMjedjm+m5q5XsK5wXNPeaP78devWualvVq9e7V5r1P8bb7xhCxcudPPcazFbLaSr6Xjeeustmzt3ritjz549mRH6+/btc/Pga1HeBQsW2KuvvmqaMkjlv/nmm7Zy5cqCYbv2VZ20BkB4Hn3V5f3333dhvQL74PPjjz92ZWqkvubj9/XTXQqaskfz8stAbS73QdBfrhz7IYBAQwkEp2dpqIbRGASKhNeJwqmuQ/oCRXqaMA0iac1cHAoH+4lCL91Y/vaWNmILBBBAAAEEEGgnQNDfjoQ3EKidwOeff25DhgxxI9OnTJmSd+75KLXzQX54W4XvwUBdQblG5et9/1A4rvf02U033eTqo9Bd72vqnOC2fh/N06999PTT6ugz/Z5ve7+fjqHP9TP88J/p8/BTxws+tK2vn+oQbGNwu478rosVuotBdzc8+uijOVMDdaQctkUAgdoL6ILgV199lbn451/Xvmb1XwM/QpaFIOu/r6hhRwWqG3B3tDa1276aDr5sf8dR8Gd2JH7t2l6/R+Zvb/32DTVDAAEEEECgngUI+uu5d6hb4gQUPmkEvcJljabX61o+br75Zhs8eLAp6E/aQ3cwqO3qi6efftoOHjyYNALaiwACiRfIhnRRp+1JPBkAMRLw53fSR5ZX2cGN4M+dpkhT92Rm7onRGdN1VfV9Ep6mqetqwJEQQAABBBBAIJ4CBP3x7Ddq3aACGomuRWy1wG14kdtaNFmL6Wqh26SF3Fr8d8yYMa4PevbsaR9++KGF7yKoRX9wTAQQQAABBBBAAAEEEEAAAQQQQAABBPIJEPTnU+E9BGoooLn1Bw4c6EaSa3S/5r7XXPb5prepdjU1VY9C/locu9pty1e+2rlhwwZ3saVfv36uD7TYbxLvaMjnw3sIIIAAAggggAACCCCAAAIIIIAAAvUpQNBfn/1CrRIsoHntp0+fbn379nVB84ABA2z48OGmwHn8+PE8q2Qwbtw401RFmpe/T58+zv7KK680v1Bxgk9Jmo4AAggggAACCCCAAAIIIIAAAgggUOcCBP113kFUL5kC+/fvtxkzZpgfVd6jRw/r1atXZkofP7UPP9NTHFXKQdP0aE5+Pa+55hpbtWqVW1A4mWchrUYAAQQQQAABBBBAAAEEEEAAAQQQiIsAQX9ceop6Jk5AU+asXbvWje6//vrr7YorrnAL9Wo6n3p/9u/f33RxIpVK2ZAhQ+q+vt5z2LBhNnr0aFu0aJFt3brVjh07lrjzjgYjgAACCCCAAAIIIIAAAggggAACCMRPgKA/fn1GjRMkoMV5tTCs5oj/6quvYvPUIr6acuh3v/udbdmyJTb13rlzp+3Zs8cOHz6cmHUJEvR1oqkIIIAAAggggAACCCCAAAIIIIBAwwoQ9Dds19IwBGon8NZbb7kFhefMmWNa0JcHAggggAACCCCAAAIIIIAAAggggAACCFRPgKC/eraUjEBiBQj6E9v1NBwBBBBAAAEEEEAAAQQQQAABBBBAoAYCBP01QOeQCDS6AEF/o/cw7UMAAQQQQAABBBBAAAEEEEAAAQQQqCcBgv566g3qgkCDCBD0N0hH0gwEEEAAAQQQQAABBBBAAAEEEEAAgVgIEPTHopuoJALxEiDoj1d/UVsEEEAAAQQQQAABBBBAAAEEEEAAgXgLEPTHu/+oPQJ1KUDQX5fdQqUQQAABBBBAAAEEEEAAAQQQQAABBBpUgKC/QTuWZiFQSwGC/lrqc2wEEEAAAQQQQAABBBBAAAEEEEAAgaQJEPQnrcdpLwJdIEDQ3wXIHAIBBBBAAAEEEEAAAQQQQAABBBBAAIE2AYJ+TgUEEKi4AEF/xUkpEAEEEEAAAQQQQAABBBBAAAEEEEAAgYICBP0FafgAAQTKFSDoL1eO/RBAAAEEEEAAAQQQQAABBBBAAAEEEOi4AEF/x83YAwEESggQ9JcA4mMEEEAgQQLHjx+3o0eP2pEjR3hiwDkQ03Pg2LFjdvLkyQT95aKpCCCAAAIIIIBA/AQI+uPXZ9QYgboXIOiv+y6igggggEBVBXbv3m2LFi2y0aNH2/Dhw+3qq6/miQHnQMzPgeuvv96eeOIJW7NmjbtgU9U/IhSOAAIIIIAAAggg0GEBgv4Ok7EDAgiUEiDoLyXE5wgggEDjCqxcudJuvfVWGzRokPXq1cu6d+/OEwPOgQY4B3r06GH9+vWzyy+/3GbNmmW7du1q3D9ktAwBBBBAAAEEEIihAEF/DDuNKiNQ7wIE/fXeQ9QPAQQQqI7AqlWr7MYbb8wE/AoFb775Zhs3bpyNHz+eJwacAzE9B8aMGWNXXnll5rvdv39/mzlzJmF/df6UUioCCCCAAAIIIFCWAEF/WWzshAACxQQI+ovp8BkCCCDQmAIHDhywsWPHZoLABx54wD7++GPbuXOn7dmzhycGnAMxPgc0Hde2bdts/vz5dtVVV7k7NAYMGGDvvfeeaf5+HggggAACCCCAAAK1FyDor30fUAMEGk6AoL/hupQGIYAAAiUF3n77bRs2bJgLAO+9917btGmTaSFeHggg0BgCWoz30KFD9tJLL7nR/ZqW69FHH7Xt27c3RgNpBQIIIIAAAgggEHMBgv6YdyDVR6AeBQj667FXqBMCCCBQXYHJkye7+bs1L/+yZcvs6NGj1T0gpTuBzZs3m9ZF2L9/f92I6E6OjRs3smBr3fRIZSuyd+9e01Q+mrP/mmuusbVr11b2AJSGAAIIIIAAAgggUJYAQX9ZbOyEAALFBAj6i+nwGQIIINCYAnfddZebtufqq692IW9jtrL+WqV50nUnRbGwVXdWaGql4B0WX3/9tQviNUq7ko+DBw+6qV2efPJJNx//yJEjrdBTYbHu/NCFobvvvtvWrVtXtCqaOuaxxx6z4cOHW+/evS2VSrnpopYvX+5GmhfdmQ8rJqBzZsqUKc5fc/V/+OGHFSubghBAAAEEEEAAAQTKFyDoL9+OPRFAoIAAQX8BGN5GAAEEGlhA8/P37NnTrrvuOtMocx5dI/DEE0+4Oyk0ir7Q49NPP7XRo0ebfvrHhAkTbMGCBe4CgH+vEj+1ILNCeM3l/tRTT9l9993nnroAdNppp9mIESNMx9b7CosV3s+dO9cuueQSU2Bf6KGLAFoMVgs86yKCyn/uuedceRdddJErQxcZeHSNgPpWc/SrP1avXt01B+UoCCCAAAIIIIAAAkUFCPqL8vAhAgiUI0DQX44a+yCAAALxFiDor03/KejXyHYF/brA8s4779gnn3ySGeGuhZCfeeYZ69u3r7388stuPvUNGza4MH7ixIlu28OHD9uXX35pO3bsMP3+0Ucfmf5b/vnnn7dbaFV3BmgEt6YL2rp1a7spmp5++ml3sWfNmjVuOiFN86Ln7Nmz7ayzzrJ58+a5BZr13r59+9xdBvrs/PPPdyP7Cykq3NfFgFdeecXtp7nidVeCLhTceeed9tBDD7k2FNqf9ysroKB/4MCBBP2VZaU0BBBAAAEEEECgUwIE/Z3iY2cEEMgnQNCfT4X3EEAAgcYWIOivTf8q6Nf0KXfccYebMke/KzSfNGmSffXVV27hVM2l/qMf/cguu+wymzp1qptX/Yc//KGdc845bkS8gv/bbrvNbrnlFrv22mtt6NChbv51jZRXcK9QXtO1aBFWXTDQMbTNxRdfbOPGjXOBv1qvbW688UbTBYTwAq26e0DHe+2113KmENJ+UYL+Rx55xLXrzTffzLn4oGPu3r3bdEEjODVRbXojOUcl6E9OX9NSBBBAAAEEEIiPAEF/fPqKmiIQGwGC/th0FRVFAAEEKiZA0F8xyg4VpKBfI+UV9GukvUbZP/roo3bppZfaihUr3Oj3+++/37p3725vvPGGC8Q1Gv8Xv/iFGwWvKXG0cLKm1vnxj3/s9v3ss8/c3PkK/lWOpuPR6H5N1aKytB6ARtK/+uqrbn0A/XdfZejCQp8+faylpcXdGRBsSGeDfk0P88tf/tJ+/etf2/Tp0906EMeOHQsegt+7UICgvwuxORQCCCCAAAIIIBBRgKA/IhSbIYBAdAGC/uhWbIkAAgg0igBBf216UkG/RsovWbIkM9JdAb9G2+s9jXLXArYaie/n8Vdor9H9Cms1fY4e11xzjQvSFeqfOHHCjc7X6HmN6ldwv379enexQBcUvvjiC7fPkSNH3HQ/mkJHI+u1vaZz+cMf/uBeB0U6G/TrQsJ7771nN9xwg5177rl25plnutBfr3WXgKYU4tF1AgT9XWfNkRBAAAEEEEAAgagCBP1RpdgOAQQiCxD0R6ZiQwQQQKBhBAj6a9OVCvo1Ol8BvX9oZL/e03z2CsijBv0a1a9pfPxD4f6vfvUrt/jtzp073eK5mhZIo+rHjx/v5tvXKH6F/HpMnjzZTf8TLMOX1dmgX+WoLarHxo0bXeg/c+ZMd4HivPPOM03to7rw6BoBgv6uceYoCCCAAAIIIIBARwQI+juixbYIIBBJgKA/EhMbIYAAAg0lQNBfm+5U0K/gXVPb+IcP+jWnvkbdRw36R4wY4UJ0X86mTZvcyP8pU6a4KX/279/vFuFVwK5pfTTaX/P1a/FeTaNz1VVXuWPt2rXLF5H5WYmgP1OYmTvewYMH3VoAt99+u5ti6IMPPghuwu9VFCDoryIuRSOAAAIIIIAAAmUKEPSXCcduCCBQWICgv7ANnyCAAAKNKkDQX5ueVdDfu3dvF7b7Gvig/8UXX7RDhw5FCvqHDx9ugwcPNs3P7x+a6kdz9D///POm6Xn00FRACtg1sl5z/l9yySWmOmje/549e7p5+/PNnd+ZoF/Hmz9/vr3//vuZevg66ufvfvc7N5XPu+++G3yb36soQNBfRVyKRgABBBBAAAEEyhQg6C8Tjt0QQKCwAEF/YRs+QQABBBpVgKC/Nj2rkF3z72tUvX+Eg/7HH3/cza/vR7xrjn7dBaB99+zZ43ZT0H/qqafayy+/7O4C0HQ806ZNswsuuMAUoC9dutRGjx7tpgjyQf6WLVtcuZMmTbIZM2bYb37zm5x6+ProZ2eCft2VcOutt7qFfjUdkb/ooHJVB91JoPYEDYLH5vfKCxD0V96UEhFAAAEEEEAAgc4KEPR3VpD9EUCgnQBBfzsS3kAAAQQaXoCgvzZdrLC+T58+OSF3OOjXYrUXXnih9ejRw41+Vzh+5ZVXulHwCvg1p/61117rytFiugrVb7zxRrfI7z333GNffvmlm//+5ptvdiP8tQCu+lvl9erVy7T477hx49xTZed7lAr6zzrrLNNc+1oTIPh84IEHbNu2baY2aQ2Bs88+200XpHprAWEtOvzLX/7SFi5cmHMBIF8deK9yAgT9lbOkJAQQQAABBBBAoFICBP2VkqQcBBDICBD0Zyj4pUYCGu2p83DixIluHmkFVqNGjeKJAedAFc+BVCrlRndfd911tnnz5hp9+5N32NbWVjeFzu7duzON1xz5ixcvNs2xr6l29DdRo/IVzi5btsxNvaNw//e//717ahFbzc+vv5Maua8pf5588kk3Dc/27dtdGSdOnHBhvy4aaKoclTV79mz79NNP3R0Ac+fOdQvkBkfbZyrUNvJedwts3bo1s3iv/1yL6yqonzNnjr3wwgs5z+XLl7v66i6CHTt2uPrpuFp3QHV4/fXX3YUKTVHkFwX25fKzegI+6NfFHl104b+x/BuDc4BzgHOgNueA/n/OnXfeac8884z776G/6656/wWgZAQQqGcBgv567h3qhkBMBQj6Y9pxDVJtzS+tf+wOHTrUTWcxZMgQN52ERq/yxIBzoHrngEaVd+/e3Qj6u/aPqf4Pvaa2URDvH/r98OHDLqD37x09etQOHDiQmZZH2yiU1/z3+l1Bv8ICXRzQ+1p4V+WGw3O9p3L0ubbzx1U5+bb3x9cFh3Cdwp8prA8/Ve9gHdReHXffvn057fFl8bNrBIJBv9Z24G9r9f62Yost5wDnQLFz4IorrnB3ug0YMMDd+aaL9X5avq75LwJHQQCBehIg6K+n3qAuCDSIAEF/g3RkDJuxfv16N4JfgeODDz7oFofU6FFNO6FRqTwx4Byo3jlw2223ucVYCfpj+MfTzF2g0WhM7saIZ/91da190K/1IZYsWcJ/X/k3BucA5wDnQI3OAf3/HN2l19LS4i7a6+Lr888/b8E7/br6vxEcDwEEaidA0F87e46MQMMKEPQ3bNfWdcM04lNT9Sh0mDVrlvs/G9y6WtddRuUaTIA5+uPdoQpun376aTc9T7xbQu27QsAH/f369bPVq1d3xSE5BgIIIIBAAQH9/yDd7faHP/zBDXoaNmyYm04veEdcgV15GwEEGkyAoL/BOpTmIFAPAgT99dALyauDpuzRQo0aVfzFF1/kTPWQPA1ajEDXCxD0d715JY+oqXj01BQ7PBAoJUDQX0qIzxFAAIGuF9B0d/PmzbOrrrrKpk6dysX7ru8CjohAzQUI+mveBVQAgcYTIOhvvD6NQ4vmz59vgwYNcotIakQLDwQQ6FoBgv6u9eZoCNRSgKC/lvocGwEEECgsoLV29G+y22+/3dasWVN4Qz5BAIGGFCDob8hupVEI1FaAoL+2/kk9uqbr0SJUS5cuNY1m4YEAAl0rQNDftd4cDYFaChD011KfYyOAAAKFBXR33v3332/XX389U6sVZuITBBpWgKC/YbuWhiFQOwGC/trZJ/nIzzzzjAv6ly1bRtCf5BOBttdMgKC/ZvQcGIEuFyDo73JyDogAAghEEtCdzQ888ICNHDnSPvjgg0j7sBECCDSOAEF/4/QlLUGgbgQI+uumKxJVEYL+RHU3ja1DAYL+OuwUqoRAlQQI+qsES7EIIIBAJwUI+jsJyO4IxFyAoD/mHUj1EahHAYL+euyVxq8TQX/j9zEtrG8Bgv767h9qh0AlBQj6K6lJWQgggEDlBAj6K2dJSQjEUYCgP469Rp0RqHMBgv4676AGrR5Bf4N2LM2KjYCC/l69etmIESNs8+bNsak3FUUAgY4LTJ8+3U2Xl0qlmAO643zsgQACCFRNgKC/arQUjEAsBAj6Y9FNVBKBeAkQ9MervxqltgT9jdKTtCOuAhMmTLDevXtb//79be3atXby5Mm4NoV6I4BAEYFjx465hR71fR8yZIh9/PHHRbbmIwQQQACBrhQg6O9KbY6FQP0JEPTXX59QIwRiL0DQH/sujGUDCPpj2W1UuoEE5syZ40K/Hj162O9//3vbt29fA7WOpiCAgBf48MMP7YYbbrDu3bvbuHHjuIPHw/ATAQQQqAMBgv466ASqgEANBQj6a4jPoRFoVAGC/kbt2fpuF0F/ffcPtWt8gS1bttjIkSNd+Dd48GBbuHChHThwoPEbTgsRSIiA7tJZt26dC/f79Onjvuvz58+3gwcPJkSAZiKAAAL1L0DQX/99RA0RqKYAQX81dSkbgYQKEPQntONr3GyC/hp3AIdPvMDx48dt9uzZppBfI331c/To0abv5rx580yBIE8MOAfieQ68+OKLNmnSJLcGhw/5tS7Hhg0bmKYr8X/9AUAAgVoKaKDFqlWrbOXKle753nvv2cMPP2z6G/3SSy9l3v/ss8+4MFvLjuLYCHSRAEF/F0FzGASSJEDQn6Terp+2EvTXT19Qk+QK7N+/35599tlM2K85vAcMGGCDBg3iiQHnQMzPgX79+pmm5tKFPF3E09z8mq+fBwIIIIBA7QRee+01u+mmm+yKK65wz8svv9ytl6TF0rWOin//qaeesu3bt9euohwZAQS6RICgv0uYOQgCyRIg6E9Wf9dLawn666UnqEfSBRT2v/vuu3bvvfe6/6OpUJAnBpwDjXEOaHourcGxadMmO3r0aNL/3NF+BBBAoOYCa9assdtuu63kv7VeeOEF07Q+PBBAoLEFCPobu39pHQI1ESDorwl74g9K0J/4UwCAOhI4cuSI7d6929avX+9uGX///fdt2bJlPDHgHIjpObB8+XI3gn/r1q1u7Y0TJ07U0V8cqoIAAggkV+DQoUNuarVevXoVDPs1yn/p0qVMtZbc04SWJ0iAoD9BnU1TEegqAYL+rpLmOEEBgv6gBr8jUB8CCgM1tYdG/vLEgHMgvueAvsdah0ML8vJAAAEEEKgfAf1dXrhwoQ0bNqxg0K/p1lpbW+un0tQEAQSqJkDQXzVaCkYguQIE/cnt+1q2nKC/lvocGwEEEEAAAQQQQAABBGohoIV277zzzoJB/7Rp02znzp21qBrHRACBLhYg6O9icA6HQCMKaAGgGTNmmP4BoecDDzxgo0aNsgkTJtiTTz6ZeV9zuh48eLARCWhTHQgQ9NdBJ1AFBBBAAAEEEEAAAQQQ6FIBTZn42GOPWe/evduF/XrvlVdeYfH0Lu0RDoZA7QQI+mtnz5ERaBiBlpYWu+KKK9yii/3797dUKmV9+/a1fv36Zd7T+w899JBpkUYeCFRDgKC/GqqUiQACCCCAAAIIIIAAAvUusHjxYrv66qvbBf0jRoxw6yXVe/2pHwIIVEaAoL8yjpSCQKIFdKvgkCFD2v2jonv37jnvaSSBRhvwQKAaAgT91VClTAQQQAABBBBAAAEEEKh3gc2bN9vYsWNz/v+3/v/4/fffb/qMBwIIJEOAoD8Z/UwrEaiqgBbXu+mmm6xnz57t/mHhw36N8tc/MFjErapdkejCCfoT3f00HgEEEEAAAQQQQACBxApo0XRNm6s76/3/B9fP559/3g4cOJBYFxqOQNIECPqT1uO0F4EqCcycOdNN2RP8R0Xw97vuusv27t1bpaNTLAJmBP2cBQgggAACCCCAAAIIIJBUgSVLlti1116bCfoHDRpkb7/9NoPtknpC0O5EChD0J7LbaTQClRf45JNPik7fs3DhQjt8+HDlD0yJCLQJEPRzKiCAAAIIIIAAAggggEBSBbZu3WoaYOcH3N122222Zs2apHLQbgQSKUDQn8hup9EIVF5AIf4NN9yQd/oeLcrLtD2VN6fEXAGC/lwPXiGAAAIIIIAAAggggEByBI4fP24zZsyw/v37u7B/ypQptn379uQA0FIEEDCCfk4CBBComMD06dNNob4fQeB/jhs3jml7KqZMQYUECPoLyfA+AggggAACCCCAAAIIJEFg6dKlNnLkSPf/yV966SXTeno8EEAgOQIE/cnpa1qKQNUFVq1aZYMHD24X9C9YsIBpe6quzwEI+jkHEEAAAQQQQAABBBBAIMkCO3bssHvuucdNq6vQnwcCCCRLgKA/Wf1NaxEpJVn+AAAgAElEQVSoqsChQ4fsuuuusx49emTC/r59+9qmTZtYAKiq8hQuAYJ+zgMEEEAAAQQQQAABBBBIssCJEyds1qxZ9vDDD9v69euTTEHbEUikAEF/IrudRiNQPQHNA6hw30/bM3bsWKbtqR43JQcECPoDGPyKAAIIIIAAAggggAACiRRYsWKFvffee/z/8ET2Po1OugBBf9LPANqPQIUFli9fboMGDcoE/fPnz2fangobU1x+AYL+/C68iwACCCCAAAIIINDYAgcO77dXP1toE98cb3csusFufXkkzwQbXD97mF0/Z5jd/NIIzoMEnwe3vTzSxi2+xZ5dNcM279loJ06eaOw/hLTOCRD0cyIggEBFBQ4cOGBXX321m76nd+/etnHjRtPtgzwQqLYAQX+1hSkfAQQQQAABBBBAoF4EDhzZbyu2LLPmN0bbJdN+bj+Y+H/tu83fsH++56/tn+/mmWyDv7J/vltPzoOkG/zLPX9j/37f39vZj59iE9+8yz7fs6le/oRRjyoJEPRXCZZiEUiqwMmTJ+3222+3Xr162ZVXXmm7du1KKgXt7mIBgv4uBudwCCCAAAIIIIAAAjUTWLP9Ixv8+572neZv2LfG/ql9Y/T/4IkB5wDnQN5z4G/H/LF9t/mbdvuiG2zT7g01+7vFgasvQNBffWOOgEDiBJYsWWIDBw602bNnmxbo5YFAVwgQ9HeFMsdAAAEEEEAAAQQQqAeBqe8/Yj968F/yhnpxC/1vWTjSlm56y1ZvXckTA86BCp0DH2xd4ab0umPRb+1HD6T/Vnznnv9jD7x1t+36emc9/BmjDlUQIOivAipFIpB0gX379tmIESNsw4YNTNuT9JOhC9tP0N+F2BwKAQQQQAABBBBAoGYCXx89aFe/MMi+Pe7PGiLof/ide23vob2mu8N5YsA5UKlz4IQdPX7Edh38ymatnG4/f/SH7u/FpdPOchfWavYHjANXVYCgv6q8FI5AMgX0H+bFixfbwYMHkwlAq2siQNBfE3YOigACCCCAAAIIINDFAu9sfMMueOK0hgj5dffBpHfus32H93WxIodDIDkC+4/stzsWjbJ/uvuv7B/H/6U9sWySHT5+ODkACWopQX+COjuOTVVg/Mn2D+3u1+6wS6efZT9/9Ad2xiPf5xkDg1Pu+1f72eT/pK/qrK8uevJ0G/3KTabb+I4ePxrHPwsF60zQX5CGDxCoqIBu9X1u9Uwb8lwvO/fx/7Iz+G8z/62rs//W8W/F2vxbWSMFL5l2po1/7VZbvW2lHSFAqOjfXgpDICjw7KoZ9pOHv0fQH0ThdwQQKCow96Pn3L/bdXFt/Ku3Mn1PUa34fkjQH9++a/iaP7r0Aesz8xL7ycP/Zt9p/j/2rbF/0jD/kInbnInUt3EWttIiPP9yz9/Yjx/8rt312u225+vdDfO3hKC/YbqShtSpwNKNb9pNC661sx8/1f7jvn+wfxj/F/bNMX/Ef5tZ9I1zgHMgcw7o3+ua//eUh75rD751j20/8GWd/kWjWgjEW2D68sftxw9+J/Pdi/v/X2NEf7zPR2ofD4E31i22C5883f3duO3l6+3L/VvjUXFq2SEBgv4OcbFxVwkcP3HczR/29+P+Z+z/8dJ03z/YxVPPcHck6K4EnhjU6hy4eNoZLpz72zHpi2a6gDZ28c22++tdXfXVrupxCPqrykvhCLi/F/9x/z+YLhjGOVDQvy3OefxU/nvMv0k4Byp8Dlw09XT79/u+bd9q+3fGv074pt3/5jjCfv77gUAVBKYtf4ygvwquFIlAIwu8uf41u3jqz9y/4299eaRt2/dFIzc3sW0j6E9s19d3w19bt8i+2/yNWAcJPgQZNmeArd3xsX2+dxNPDGp7DuzZZGt3fGKPLJ1o37v32/bN0X/kRt0tXNtih4/Ff34+gv76/rtO7eItsO/wXtPCXf5Cof9vXBx/6m6EVz5dUNu/x/z3EP8GPAc279loH3252u5/c7z94IF/cv+O/969f2f6d0ajTRcY77/o1L4RBAj6G6EXaQMCXStA0N+13rU6GkF/reQ5bkEBzct/xey+9u0GGM2vAOS3L11l+1lYqGB/80HXCpy0k6bA7qkVU+z/Tfhb93/Cr3i+r+04sL1rK1KFoxH0VwGVIhFoE5j3yZyGGTn4/Yn/11ZvXUnfIoBAFQROnDxhew7ttoffvtf0XdO/hUe9dI19vmdTFY5GkQgkV4CgP7l9T8sRKFeAoL9cuXjtR9Afr/5KRG11+5D+j4FGG8dxpGC4zgT9iThtY9dIXXzSgnl/N/ZP7Z/v/mtr3fGJ6SJbnB8E/XHuPepe7wIjW35j/3T3/26I/y4T9Nf72Ub9GkFg674t9usZ59s3x/yxnTb5P2z55+82QrNoAwJ1I0DQXzddQUUQiI0AQX9suqpTFSXo7xQfO1dD4MNtq+xfm7/ZEGECI/qrcYZQZqUEtADPP939V+67tmzzUtPaGHF+EPTHufeoe70L9Jn5C/u7sX/WEP9tJuiv97ON+jWCgEb2j5p/tft3xr/c8zemcIEHAghUToCgv3KWlIRAUgQI+pPR0wT9yejnWLVyxZZlDTM/P0F/rE69xFV2whujTf/nW+fpOxuX2LETx2JtQNAf6+6j8nUu0H3G+fatsemFvMN3rsXtNUF/nZ9sVK9hBO58ZZR9p/kb9o93/aW9sW5xw7SLhiBQDwIE/fXQC9QBgXgJEPTHq7/KrS1Bf7ly7Fc1gRVb3iPor5ouBSOQFZjwxphM0P/2xjcI+rM0/IYAAiGBX884j6A/ZMJLBBAoLjD6lRvdv+n/cTxBf3EpPkWg4wKVDvq/d9+37YIn/9sGP9fTrp93pQ1+rped8egP7B/v+l9dcjffpHfus32sa9fxE4E9EOiAAEF/B7BivClBf4w7r1GrTtDfqD1Lu+pNgKC/3nqE+iBQvwIE/fXbN9QMgXoVIOiv156hXo0gUImgX2vinfPYKTb5nfts5RfLbfOejab18nYc2O5+bty13pZuetNufOka+/f7vl3VwJ+gvxHOStpQ7wIE/fXeQ5WpH0F/ZRwppYICBP0VxKQoBIoIEPQXweEjBBDIESDoz+HgBQIIRBAg6I+AxCYIlCnQ2aD/78f/uY166Wr7w5b37aMvP7Cp7z9iV70w0C6a+jM75/FT7JJpZ9otC0faWxtet027N9jiTxdY99+db38/7n9WJfAn6C/zRGA3BDogQNDfAawYb0rQH+POa9SqE/Q3as/SrnoTIOivtx6hPgjUrwBBf/32DTVDoF4FCPrrtWeoVyMIdCbo1xpdd792h3361Rp7ZuV0++X0s92Ifa2n8bdj/tg00v9bY/7E/vmev7YfP/gdu/z5PvbG+sWm/5/ef9Zl9vfj/rziYT9BfyOclbSh3gUI+uu9hypTP4L+yjhSSgUFCPoriElRCBQRIOgvgsNHCCCQI0DQn8PBCwQQiCBA0B8BiU0QKFOg3KD/m2P+yG57+Xr7+MsP7eG377X/nvwf9u2xf1Y0uP//xv+lnTflJzbvkzn27qa37LKnznUXBL4x+n8U3a8jnxP0l3kisBsCHRAg6O8AVow3JeiPcec1atUJ+hu1Z2lXvQkQ9Ndbj1AfBOpXgKC/fvuGmiFQrwIE/fXaM9SrEQTKDfovnXamC+unL3/MhfzfGvsnkcL6vxv7p3belJ/a6+sW2ayVT9lpk/7D7ac7AP7prv9t3+7klD4E/Y1wVtKGehcg6K/3HqpM/Qj6K+NIKRUUqGTQ/w/j/9x6P32xjX/1Njfv4LyPZ7vbE8cu/v/Zew93qYp0b9s/4rzv+50wJ86ZeJxwJsqMqKNjwJxzVhQQEBVQFEEwkKMkAQFRkKCAIkGy5Jxz3OScM8LzXXdtart27+7dOazu37quprtXr1Xh9yx2Vd311FPv2LPDH7T/6fAvCXVskvFGiLy2+cRX7cTZ4xlUSElJgcwoINCfGR2VihQoBQUyCfpv7vcXe2vCK9ZnXjcbtXKYjV3zpfWZ29Uaj61n1/b6rSUKHSLb20S//7XHr2zVnuWlYDbVUQrkVQGB/rzKr8yLXIFUQP/P2v2jfbKorwP9Tw2734D3ibadXIfnP+33ij1Lrct3bazLzDY2a+t0W7dvtc0rm2lvjn/F/tjtZ0ml6fPPB+i/dOmSnTx50s6cOWN8jnecPXvWjh49aufOnYt5KWkdO3bMzp8/H/Ma/VCuwIULF5xWp0+fTkh/6Za+AgL96WsYhhQE+sNgpRIrYyZAP54Fr3z1gs3dNtN2Ht1umw9utFlbprlNhGZvm2EbD6xz59lUCOCfrgeC76BEexfoL7EHOETVFegPkbFUVCmQZwUyAfpv//haA0ys37/Gdhzdbkt2LrDpmyfZzC3E/V1kO46W2eq9K63DjHftLx9eaYQXiNaupntOoD/PD5OyLxkFBPpLxtSqaB4USAX0M9EO6Os5p7Nd1f0XKbWxf+j6ExuzeoTtPbHHth7ebBPWfW1A+kkbxtmmA+ut15zOVrPnb5JOOx3Qv3jxYps6dart378/YUucOHHC+vbta48//ri1a9fOtm3bFvde8nj77bdt/vz5Ma8dO3astW7d2pYtWxbzmnR/2Lp1q5HPggULjHoEDyYs5s6da/PmzbPjxwvb2XDHjh327rvv2siRI92ES7Ae+pwdBQT6s6NroaUq0F9oFlF53CY/v+vy46Q7B37gf2WHH1m/+T1sx5Eym7Z5kr085nmr1f9qu6737+yaXr9177f2v9o+mPK2Ldm10LYf2WYfL+hpv+38Hynn6fOO9i7Qr4e6UBUQ6C9Uy6hcUqDwFEgX9L848nFbtGOerdu/2rrPam8PDK5lN/T5o13T63/dRn98rvvlUw4eAA7mbJtp9w++xfA+jNa2pnNOoL/wni+VqDgVEOgvTruqVoWhQCqg/5WvXrRluxZbw9HPuc12U2lL2aj39W8a2MwtU513P+PrP3T9qYP7nWa8Zyv3LLM3xzeyX3X6t6Ta73RAf69evaxp06a2cuXKhI0DDH/++eeta9eutnHjRufVH+/mr776ymrXrm3Tpk2LeemQIUPspZdecrA95kVp/jBlyhR79tln7amnnnL5RK5GaN++vXXo0MF27tyZcE6jRo2yGTNmJKRDwonGuXDz5s1Wv35969evX8FPSsSpSmh+FugPjanSKqhAf1ry6eZsKJCOR/+vO/27jVwxxPYd32MdZ7xnN3z0J2PzIDokwY4M33/b+T/t+j5/sI4z3rVdx3a4ZYy/6ZR52C/Qn42nRGlKgaoKjBgxwl588UVbtGiRlstWlUdnpEBaCqQD+gnJs3rvCreqjnTwBvxp26oxgX/Z4V/sLz2utGeGPWgLt8+zhTvm2YODayUdWiDY3kf7LNCf1qOgm6VAwgoI9CcslS6UAkkrkAro7zTjfftuy1R75LM7Ko2No7WVNT78H2s89iW3YS/heq7u8euKexhHA/h/0+nf7ceBcfafuv3MvlzxuX258nO7pd9fK66Pln7kuXRAf6dOnaxu3bq2dOnSKjoSQufIkSN26tQpu3jxYsXvQPs6deq4lQDB83zGE/7QoUNGqJ7gwT1MDgD6SZcwPoT+Cd4fC/QTnubw4cNVyhFMP9HP48ePd2Oem2++2dq2bWt4xgePd955x1q1amXbt2+vOM1kABpQhshQRZSNewYPHpyWZz15sMLg4MGD1U4YEPqIMjDBItBfYaKcfBDoz4nMec9EoD/vJlABIhVIB/R3mN7a9h7fbW9PfM3oaCSy7J/VAy2/bWq7j+201pOauYmByI5HOt8F+iMtrO9SIDsKCPRnR1elKgVQIFXQf9fA623JzoU2ds0ou2fQjQmFyvtF+3+yewfdaPPLZtuUjRPshj5/SgoWxGuzBfr1TEuB3Cgg0J8bnZVLaSqQCujvM7ebC7Fz7yc3Vduu4gw3YvlntvHAelu+a7FtOrjeAfxa/a6u9j6c6d75tqnz9n92+ENGON14bbL/PZOgn1Awffr0sWHDhlmTJk3sgQcesCeffNKFuwHMjxkzxh599FGrWbOm3XPPPdatWzcHxdesWePA+RNPPGEPPfSQmwggLaA/B/cB+jt37mzNmze3Bx980Lh2wIABtm/fPndNJOg/cOCADRo0yJ577jmXJtdzP+F3AOMTJkxw4WtwVPKe+aw2IKQNHvbEsY88AP2vv/66g/kvvPCCjR49utKkBJCf8EEe9OPZ/9FHH9kzzzxj999/vyvLp59+6sq8a9cuV+e//e1vVqtWLWvWrJlbHdG7d++KCQT2HPjwww/tvffes/Xr17viUFbSwBuf9DnfsWNHpzO6sPJh6NChRv05CHfE6omBAwe6PNBg+vTpVUD/nDlzXL3QhQkIHZlVQKA/s3oWamoC/YVqmRIuV6qgH5hQdmSr23TXQf6Ad4HvQMR6/03n/3Ae/VsPbbK7B15vbOKLF0LdL5+0R4bckdamvQL9Jfwwq+o5VUCgP6dyK7MSUyAV0M+G93j1rdi91HkPJhOGhw0Cnxn+oAv1Q5ixP3b7qdX48Jf2xNB77PkRj7gQAT9NchNB3wcQ6C+xh1fVzZsCAv15k14Zl4ACyYB+2k8c29buW2XTN0+2uwfeUC2Af39Kc1u5Z7nxzpj4rQmv2vJdS1xInis7/qjae+uPesZW713u4vd/vnSQ3ffJTfbz9vHD8GUS9Pfo0cPuu+8+e+utt4wwN0uWLHGf8eDn8549exz4Jj4/4HnLli0OVHN948aNbfLkybZ69WoHsQmRgyc/HuiAfiA2sB+4vmLFCjehALznGlYABEE/3wHmwPjPP//cpQnAphxdunSx3bt3G6CdSQP2CQDMs89AixYt7IMPPqiYDIh8nAH9AHnKSYieV1991ZXFXwfk96Cf1QnkVa9ePVcG4vrjuU8dKCv5MaFAHd5//323KoIyM0HC5AMHIZH4jqY+bBFe+0w2MKHCBEnLli3tlVdesYkTJ7rvTG6gHeMzVhJ8++23Toenn37aCLXEvgrLly+vBPpZkfHaa6+5CQG0CK6U8HXTe3oKCPSnp19Y7hboD4ulSqicqYL+wYv7ug2Abu5bIynvAT/wv6bnb239/rU2Yf3X9t3mKbb50Ebbc3yX2xxw+qZJdteA6+2n7aqGGvD3x3oX6C+hh1dVzasCAv15lV+ZF7kCqYD+Jz6/x7XLLb5t4sLlxWonY50nlA977qzau9zGrBphy3Yvtp1Ht9uuYzsdrGgxsYmlsqePQH+RP6yqXsEoINBfMKZQQYpQgURBP2F62DB3/f419sWKIfbciIfjtsmfLu5vMzZPcXvlsEL+b71/Z99tmWIfzu5of+r+82pB/++7/sRNyPdf0MNW71vhJuxbftvExfGP1d5zPtOgH099wDxe4d9//72NGzfOeZmzoS7e6F9//bUL94NXOUCZzW0B09zjQ9vgpU/sf7zry8rKHNwnXUA4oJv78GZ/+eWXnVc84D4I+jds2OAAe/fu3Z33PPmSNqCbOP5Ad9LAg79hw4YOiuMhz2TD7Nmzo3rz8yh70M+Gu0xINGjQwHr27FnhPY/nPWUGlgPUCW36ySefGJ75aAH8p0yE61m7dq2b5CD00ccff+x+ozykCbTnYBIDD3z0GT58uKsD6VJvdGXygokDVj+gN/VEHyYwmLQgFj+g/+GHH3bpoBnhezZt2lQB+knvzTffdBMXXE85dWReAYH+zGtaiCkK9BeiVUq8TKmAfjzwNx3cYHRKymMF/kO1HZBonQyWFraZ2tIOntpvG/avtY7T37VHh9xpTb55yW0qBGio1e+vSU8iCPSX+AOt6udMAYH+nEmtjEpQgVRA/4ez2tvy3UvsroE3JBRKL1rbfEvfv7j4/odOHbThyz+1Ol886QACsIIJ+daTmyUN+8MG+sfVvsKuqNHFNpbgc1dsVS41Wwr0F9sTrPoUkgKJgH4c1SZvGG+ztk6zBqOftat7/Kp8/7q2lfev8+0vbf3gxf1tx5Ey23t8j83Z9p1NXD/Wpm+eZPtP7rUthzbZuLWj7f5PbonZrhO+h4n6P3b7md33yc02cvkQW7NvpTUZW89+1fFfY47RMwn6gd6EqQFY+2PWrFnOoxzgzPHNN984CP/dd9+579wDfAc4+wMIjzc8QHvZsmUO9OP5DgDnNw6ANGAdj/d169ZVAv2sJmDDXCYV/PXcAxgnlJAH6Xj+f/bZZ658hBliTEOIoVhHEPSzVwCrBYD5ePhTHjzzKROgn012AewAdyYhCKfDiwkMNGJCgVj5ePyzuoF88fLnd7zy+U7IHcIToQUTEUxofPHFFw7ks0KCc9zPxIM/gP1MiBCDn5UBkyZNcqshyJsyc/jNeN9++223GoCJB1YHCPJ7FTP/LtCfeU0LMUWB/kK0SomXKRXQf//gW+zI6cP24hePJ7Q0kM5MtI0Aa/b4tbHE8LEhd9nvu/638+C/suO/2u0fX+u8INjol82HfGcokfewgf5SG4SWyn+3TNg1E2lkU2+B/myqq7RLXYFkQT9tLN5/bMpXs+dvEmo3mXAHEATbVkL4EDqg5cQmdkOfP9ov2/+zEcOfTQIHLfzI1uxdYfcPvjmpSfhEQX/1f/M2WpcaV9gVtcdl/dGovhzpZV992pXruLFLDbviiisqv2LVf2MXqxFxbY0u6U9VRC3DFVdYJtJOT0mzqGWL0Kd6vdMtQeHdL9BfeDZRiYpHgXig/zed/sM5wS3dtcheGvW0xQu5Q9v73pTmbnJ9XtksG7d2jH295kv7avUX9vXqL2z8uq8c+GfF++vf1E9ozx1C7F3f548ujQXb59jDn91eqY0PtveZBv2Ex1m4cGGFwYn9jkc6kJ0jEvTjsY5XPeFkgof3vgdWA82B46wKCB6E3SFszapVqyqBfoA8oN8DfX8P4W8ee+wxt4rAnwO4A/8Jj8OkBKA81kG6b7zxRgVYJw4+kBxgDrQn7I8H/cD9e++913nos3GvfxHHv3379g6sR4J+QDv7FqAJExyE5cGrn4kLYD/niMfPJsiEHiJUEkA/OElC2VkhgB2YcAH0M+GAhr5uHvRff/31dtNNN7lrI9OIpYHOp6aAQH9quoXtLoH+sFmsBMqbCuhvNKa2nTh73G3YF28DXuIMDls22Hnpz9gyxV784jEHDeho/KTt/3MxgH/e/p8qdUKAD+9OftNt2Pu33r+P6cEQ7Kz4z4mC/uoHf5UH29l8DKovR3o5V5925TomMmCuKE2WgELO0q/IKHsfqte+OACFQH/2nh+lLAWSBf2/6/JftmLPUus2q13c5fq/7vRvzjN/9rYZtnTnQhca4C8f/k9FO0x4HvbSidzU7+8f/ckBiTZT307Kqz9R0G/jajuoHcFqyx+Gy+1O1N8y/LjE+/udVnZJ1NG1y5VWFoyz2sD8SufMXHmvuMIqa1PexqcL5Mv7BrWt0vSK7wNElCMhXVz9a1gG5iDKQX+lMlTVJ6u2TKjCub1IoD+3eiu30lIgHuh/6NNbbfHO+db5uw/sD11/UtGm+jFqtPcO09812uL6zvv/13Z1j8ov9q9buWeZNZ/wqv2i/T8nlCZtN32IhTvm2ruT3zImIKLlnUnQD5wHPONt7g9APyCdUDMckaCfzWoB/cF7uA5v9kaNGrkJACA1gB5o7Q+gNR70eMCzIW0wdA+rBYhJT1ggD7e5D/DPeT8BcPToUQfgSYPz5InXfKwD0E98fO9BT9rUD6jOBrnsNUCZ8OhnLwHqTVidvXv3VnoxQcBqgkjQT77oQxrAeiYNSJ+9DAgJxAoCJhrY7JgQPKwEINQPG+4GDzz6Oc8kCasNqBvp+sODfvYbYNUDOrdp08aV21+j98wqINCfWT0LNTWB/kK1TAmXKxXQz0Di5LkTdtWHv4zacfCdCZYQ4k2w+eBGG7iwj4vFv/Xw5subBP5/1d6LVz+hAzrNeM95JjAp4NOt7j1R0C+gUO7958FAIQAF/htmE1hE/W+eQegQTD8eXEhE73hpBPPLx2eB/nyorjxLRYFkQf+NH/3ZrYTzoK+6drLbzHa29dAmG7tmlA1f9qkLxdd7ble7qvsvqm1n2Tdn0oZxNnXjRKs98lH7Vcd/q/Z6X4aEQb9dBrW+YQoYOypwDvyeyY/Z/dubeB2rthN+kjgAyqubOMiAKDF1vwz7k55IyGCbm4g+2bVlBgTOcBL+//+VHX5kM7dMy3DqSk4KlLYC8UD/O5Net8U7F9gLIx+rMlHu28PId0D/jM2T7ZEhd0RtTx8cXMulmQzoJw9C9oxaOcxGrRpmN/f7S9S0Mwn6AcyE22FzV38Aqgm740FzJOgHuuN9T4x+4DUHsJ2NbgHeO3bssC+//NLuvvtuF5Lm8OHD7hofox8Pd0B6EPQT1x/Qjec7v3FcuHDBecsTaocVB4T0AZgzyQAMpxyEEGJSgXj30Q5AP5MCwdBExP5nsoIJDvYR8KAfDdgMmMkPX2YmBtgfADBP3H4P+oH6J06ccFkShogVAsTux4uf/QaYFAD6s2EuEw0zZ850ExiscGClA/H7uYaD/Q24htUAW7dudasBiOPvV1RwjQf92ItJB36rXbt2xX4CLiH9k1EFBPozKmfBJibQX7CmKd2CJQP6a/W/2sasHuE2zd19bKf9sdtPo3YcfCem6Tf17diZo/biyMcdQLiu9+/chn6DFvWxX3f692rv/X2X/7YVu5fZvhN7beOBddZ1Zlv7U/efxfXuTxj0CyjYFVf84KWXyIC52smRTPwXyjKwiFrEDEKHYPrx4EIiesdLI5hfPj4L9OdDdeVZKgokCvoJb/fB1BYuNj8r7Zp+08B+1Sk2gMdbcMnOhW6lHRPqNT78pfWa28V5DPLdt9+x3nvM7mTbj2yzHUfLXNzghz+7w9i3J9b1nE8c9PvJ3h/apnJ7V16BVvEMXG4zKsLbVPLuvpxW7XGVQ7xEXENa7m+tD3tTe1z5942dN3cAACAASURBVMjrvBe7v66KB/0P+VWkF5nG5YKX/x6/jtHaifJ22IP+y7rEyKdCpzQ+uDIE+grBpKLVo6LuXqfApE2V3yJCAFX5PXBvMF//Ob4+l20SoU+8fNzvCTw3vk8U6/nz5czlu0B/LtVWXqWmQDzQ331We5u+aZLh2V9dmxj8LVugnzzaT29t36wd7eL2B/P0nzMN+vEOTwb0Hzp0yEFswvsQcx4Pc+La852QNcB/QD8e/XjIE66GcDaEzOEcsf+JPR8E/UB9YtLjyU7IHDz7ue/RRx91nvJHjhxx3u5MBuAVz/dTp065awD/wPjgSgD/jEcD/fzGxAITADVq1DBC8+DRz2QB9WESo0OHDq4M7EcA/AfMszEvUB54T72Ixc+kBhMHeO9fe+21bgLBTxIwGcBkBxvtAv85WJFA+CJgf58+fZx2rVu3dt8pK9qhIaCf7/7woJ/yUQ72A+B+NPd6+mv1nhkFBPozo2OhpyLQX+gWKsHyJQr6X/ryaWODXF7NJ75mt/avacQB9J2FyHfi+fad/6Hzyr/vk5vs2l7/617zt892naBa3N829v148BMfGIhA6J+dR7fbzC1T7Zqev60W9icO+v3gPv5g2z0WAgrl8ZEjBsyZ+y+TJLBIArqUg4rLcY4D5a8y2A9ABz/Qr7gmcJ8lmnfwngihigFQCPRHGFVfpUAGFUgE9F/X63+dtx6b9Q1e3M+e/Pw++33Xn8T0JGRS4MnP77UthzZa91ntXDt+ba/fWpupLW3H0e1W54vH3b44kSF7gu37n7v/3N1HOIAVu5fYxgPr7eUxz1c7uZAM6PfwtBLjvfw3N3iuKoCu2oZU/P2uuLHcmz7ohV5+zQ/9gIr2Ivj3O9ok9OVzVdNKYB+BaOnFqmOwHBbp0R97dUCmHsWqOv+QcvlvftKhvE8V1MO3lRXyc6ur+w/3+NSwQ9x7/cWX313+1epTFfQnkk8iz01VXao+fxHFzclXgf6cyKxMSlSBeKCf0HlTNk60BwbXijk+DranfAb0E9P/w9kd7OUxtau8cHRjBV6yHv2k/d6Ut2zs2lExy5MO6McTHsAO2OYgZA4Q23/nHFAZiL1y5Up3De/cgzc7B0Ad73xC3BA+BlCOFzxe797LnYkDNs3Fg530iYXPi1A+wG4OrgfuE+aGA3jP9cS7Z1IAz39gN3CdiYDp06c7j/5t27ZVQH0+UzY85gH/kQd7ATDpQJ2CB7H18fInvj6TCkxecPCORpQBAE9sfsqMFz0rCvx9nO/evbvTBD1mzJjhvPmJm+83yF2xYoVb0QC497pwLbH6WYXAhAb1ZEKDVRSsGOBghcDgwYPdPgbuhJnLnzBA7EngVwKwioJzwfL76/WevgIC/elrGIYUBPrDYKUSK2MioB9P/nX7VtvUTRPtrgHXO2/8yA38gh2Xez+5yXVaCL1z4eIFI1zPpoMb3OvUuZMu7A9gAo//X3b4l2o7Q4QKIERQnS+ftJ1Hy+yr1SMNb/9gfsHPyYB+AYUfHvb4A+ZsA4Uk0o8GSRKCLlUhT3XQwXnpVSIUHlJExEKOlXcEgPhB7cuwJuL3aNAkGIu50ACFQH/QovosBTKrQDzQ/z8d/sU+W/KxbTq43pqMfcn+0uNK+1m7f4zZNrJZ75crh1rZka127vtztv/kPqMdpm3ed2KPnf/+vJtQH7NqhLH6LtiuRn6m/WfSgAl/QvngAPDE0HtibhSYFOi3y8A08Le3avtU/rc8cEm5+BEQ2QHbiIvcuYq/vVHaBO/hX3FN1fJ4S5cD4R8mCSK/++uqvldNs2odo7QTfpK5ok7Ry181v9TPlLdLP9SxUkoRelf6zX2pWs9YbW5C90ZcVEWzKvpUBf0RSTB1UmWT50Sfmwoz+ETj6uEvzN67QH/2tFXKUiAe6G816XVjU92nh91fbRsabFNbTXrDyg5vcY5xe4/vtsgXY2nC5TYeW89+Vo2DXTBN/7nXnM42etVwu2PAdVHLkw7oxxMcoIxHPQdwHA9x/51zfAbGe6DMO/f4MD1cA7AGXgPhAc4A8uDveLlzj3/fs2eP7d+/333nXg7/WzBvzgHVSZPr8bLnep8fZQX6+wOoTj7UCxAfeVD2yPr5a/iNyQXq4eE8v0WWge++zPzOfQcPHnTl5DMH5cST33/nHHr4lQfB+/lMeSO189dwX1B/0vL19HpwjvpSN+of1ITfdKSvgEB/+hqGIQWB/jBYqcTKmAjoB65vOLDW7hp4vQELfAci1juxCY+dPWo953Sylt82tRYTm1R5HTl92D6c3d7FEIyVTvA8EwLNxr/sOkANRj9bsaFv8Bo+JwX6owzwqgwcL4f4iTegS3RgWMljTUAh8L8tUWBRdVDuE4mELPFt4sF9dO/CYGij8jySzLsCFPkS/vBe5TkLIaAQ6P/BnvokBTKtQDzQz8Z9hLXDY49N/6qbfKdt/EX7fzLa+5lbp1m7aa2qtMm008QJJr4wk/uRbWu073j+39a/ps0vm2UjVwyxa3r9Nup9yYF+77Xu4XL5391Kbaf/e+nDw1R6/+Hvedw24HI6ke27u6/i73eMSQUMHgF2o+UX67moDNCj1LHCe//yarTLdaykQzUhCGPl6867cgfT9VpXvatyOSv/Xv7bD3pXQPNK9ohY4RCh2Q8pXm5fq7v3h4vdp/L8g/WIWBVQpY/FbfHziWbHSs9Egs9fRHFz8lWgPycyK5MSVSAe6L//k5sd6MdLn9V10drNyHN/7vZz4z5W28V6PfTZbca+d/Ha+WDarKSfsnGCfTSvm3MECP7mP6cD+kv0EVC1pUDSCgj0Jy1ZKG8Q6A+l2Yq70PFA/1Xdf+li8n84u2O1S/N9p4H3Ol88YcfPHnMxAX/b+b/sN53+o8pr17EdbiIg0c38SJd05pbNtNGrRtj/dv6vqB2o5EC/gIJ/uuMPmMthxxWRRMQnEOs9YaCQaPrpQZdKg3XKHAM6RBvoW6xJnyjpVMknQp/4ekfzRCwsQCHQH2FUfZUCGVQgHugfunSQzds+224fcF3MUD3BdvkX7f/Zlu1abAMW9rK/9f59lTaZ9rXvvO42f/scuzVB0E/6rLprPamZrdm30oUH+O+2/7dK25ws6K8U8sVB1SBMdgTcakSJkR8pf7S/45X+NicC+mNc4/Jy7ccPkDxafpFlqvgeTDdaHT3or5hwqLgz8OFym1DtNYHLU/hY3lb9UMdgEq6+FfH7o5Xl8rlgvyFqm5vgvcHME9Insh1NLJ9odkzkuYkoXl6+CvTnRXZlWiIKxAP9OKX1X9DTAHuPDb07obYZeE87ird+rBe/JwP5ccprPbmZC6/XcPTz9vMYq/0E+kvkwVU186qAQH9e5c9Z5gL9OZNaGSWqQDzQ//yIRxy0f/DTWq4jEgQHsT570M+y/lixfokHjMd/MqCf/NpPb2U7j+2wP3f/RRWYwO/Jgn4BhfInxQ3mq4UF0QbIiT5liVyXYPpBOBKZbALQpdJgnfujQofLcCAIJ7g22byr0TO+3oUPKAT6Ix9AfZcCmVOgOtB/Zcd/tUU75tmgRR8Z++HEaouD5z3o7zOvqxFnP/ib/9xjdkebXzY7KdDPvTf1reFAf/MJr7kJBJ+ef08a9Huv61gb416edK3s3V5V+7jANkY6lduJ2JPQla+L0W5ULdblM5fbvJh1jBK6J0paftI4srmKcmlKp2KC/svtYYUNoraPP9SxIvNobW6i91YkUv4h6XY0wXxSfW4iipeXrwL9eZFdmZaIAvFAP23evYNudHvRzdoy3R4dcmfS4XZ8u5nqO5MFhMZdtWe59Zvfw+1tFystgf4SeXBVzbwqINCfV/lzlrlAf86kVkaJKhAP9L/6dR07ce64i9mbqDdBNkH/M8MeNML+sCQxWnmSBv0CCu5RSWTAnBugEBH/vsqDnB50iQQzSYH+asIkRKYb+T2yGonoXSmNAgQUAv2RVtV3KZA5BaoD/exTs3LPMuvyXRsXtifWID54Ppug/+ft/9EW7phnnWa8H7U8yYN+v9quPCxLBUwOyFveHkV4+gORAxOs7m9oBAGv9HfVh3ap8Eq/DOsJHxNIJ2rb54B15fYqWn6BIlf56NNlP5iYdQyUo0oC7sRlmB5lhQPliZZu9HSiny0vY4RH/+X2KKiRX/EWXPXn9EDLoA2itmVV2/Wo90YU0ZUtjj4unYprEsvH3RMss39OKtLxz2f1z19EcXPyVaA/JzIrkxJVIBHQT5i8hz69zW3Ku2bvShu8uL+9+MXjdvvH19jNfWtk5cVk+40f/dlqj3zURiz/zNbvX2MDFva2m/v9xX5aTVx/gf4SfZBV7ZwqINCfU7nzlplAf96kV8axFIgH+uuNetp59N/Y9yqLtiQ/CBL8Zw/6J6772oYv/9SGLR9c5cWmvKl49D834mE7euaIXdPzN/bjNv+nildi8qDfD9gEFCoP2qM9MdkFCsHYuRFjbGPg7YGFhyOVrkkQulQe9Mf20o820EeRpPIOQIFINYsBUAj0R1pV36VA5hSoDvTj0b9i9xLrMaeTi9vr297q3j3oX7tvlY1ZPaJKm0w7vXrvCluxZ1nSHv14EBLbv+OM6HGJUwH9FeA4AOEj1fV/j93G6RFwnmuj/R2v0gb4yX7uvwzco/59vtzGVOR1RQTkjZFfZJkrf78MnmPUMWo5KidQ8a2KFjEmDypuSPBDtHTRoFL769PyEwCXtQTwx7TB5Wsq0knwXp8V74noU8XeCeQTs8wRbXoVbSJ+D5Y1V58F+nOltPIpRQUSAf20wz9v/092+4BrrfN3H9iC7XNs66HNtvXQJttyaKNtztbr4EbnxT906UBjrzxW+9E2V9cvEOgvxadYdc61AgL9uVY8P/kJ9OdHd+VajQLxQD8b7eFB//KY52NugBvZibil319dLP2lOxe6wT8AIPIFUKg/KvamupFp+u9tp71j6/avjhl6IBXQL6CQ2IDZP0ZVBrcZAgpJpZ8idKky6PdwJgI6RBvo+/KVrwIIbgAYA/hUM+gvBkAh0F/xROiDFMi4AtWB/v9u+39s8obx9vWaL93qNt8+VvfOPYT6WbJzoXtFtsl8X7F7qX22ZIDVdBPp/1AtIAjmdVPfq2ztvtX2ylcv2P90+FGV+1ID/RmXVAlKgaJXQKC/6E2sCuZRgURBP+0jcfV/3/W/nac9q9FZIU9Inde/aZCV16tf1bEHB9eyv/a40n7Z4Z+rtMPBNtt/FujP48OkrEtGAYH+0jC1QH9p2DlUtYwH+vECnL5pkn23Zar9b5foG+D6DoN/Z9nidb1/bzd89Cf7e4zXDX3+ZL/p/B8GfPD3xXvHi3HZriU2csUQ+23n/4x6X2qgP1QmU2GlQEEoINBfEGZQIYpUgepAP21ls/GN3PJ8AAKhc+K1n/xe48Nf2g19/hizXaa9/ovzAkwsPZ9nhxnvGisF7vvk5qhtukB/kT6kqlbBKSDQX3AmUYGKSIFkQL9vH3nHw//Kjj9y+9KxN102XqTPJrzBfON9FugvoodTVSlYBQT6C9Y0GS2YQH9G5VRimVAgHuink/DciEds/8l99v6Ut+1/OvxLUp2IeJ2MRH9nQoAlkPtO7LXHhtwVczmiQH8mngqlIQXiKyDQH18jXSEFUlUgHuj/Y9efGoMHPPtv6feXmBvfJ9rGpnrdA4NruZUAbPrHREK0dAT6U30KdJ8USE4Bgf7k9NLVUiAZBVIF/dHaxUI4J9CfjPV1rRRITQGB/tR0C9tdAv1hs1gJlDcR0I8nfa+5nW3H0TLrPruDi/uXjCd+up2ZP3T9iXWb2c52Ht3hNh+M5c1PPgL9JfDQqooFoYBAf0GYQYUoUgXigX42o3962ANGGz5t07f26JA7E16un26bzP3E/n12+IM2f/tsm7llmt098IaYm/4J9BfpQ6pqFZwCAv0FZxIVqIgUEOgvImOqKlIgRwoI9OdI6DxnI9CfZwMo+6oKJAL6GdT/sdvPjOX5ZUe22pq9K23w4n72wdS3rdWkN+ydLL3emvCq9Zjd0ZbuWmRLdi5weV3V/ZdW3abAAv1VbawzUiAbCgj0Z0NVpSkFyhWIB/ppl3/Z4V/s8aH32Lyy2W6Dv0kbxrnJ8FaTmmWtXX574mv2/pTmNmHd17Zyz1IbvvxTu/eTm6rdw0egX0+1FMiNAgL9udFZuZSmAgL9pWl31VoKpKOAQH866oXnXoH+8NiqZEqaKOgHKvyuy3/bQ5/eZj1nd7L5ZbNdTN6NB9bZpgPrs/Jicz88FVt+29Ru7V/TxeWPt5JAoL9kHl1VNM8KCPTn2QDKvqgVSAT00y6zJ86NH/3Z3hzfyMatHePC6Gw4sNay1Tav37/GFu+cb/0X9LQnht5jV/f4lf2sXfUx/QX6i/pRVeUKSAGB/gIyhopSdAoI9BedSVUhKZB1BQT6sy5xQWQg0F8QZlAhggokA/qBCj9t9/+M2MBs2ler318dgAfCZ+NVq//Vdn2fPyQE+CkbL4H+oHX1uZAU6DqzbcUm0nPLZtqFixcKqXhJl0WgP2nJdIMUSFiBREE/7R5hfH7d6d/tmp6/tZv7/sVu7X91Vtrk8nb+arupbw27qvsvEt4EWKA/YbPrQimQlgIC/WnJp5ulQLUKCPRXK49+lAJSIIoCAv1RRCnCUwL9RWjUsFcpWdDvgXqhvgv0h/2JLN7yC/QXr21VMymQaQWSAf2F2h77cgn0Z/rpUHpSILoCAv3RddFZKZAJBQT6M6Gi0pACpaWAQH9p2FugvzTsHKpaCvSHylwqbIgVEOgPsfFUdCmQYwUE+nMsuLKTAkWggEB/ERhRVShYBQT6C9Y0KpgUKFgFBPoL1jQZLZhAf0blVGKZUECgPxMqKg0pEF8Bgf74GukKKSAFyhUQ6NeTIAWkQLIKCPQnq5iulwKJKyDQn7hWulIKSIFyBQT6S+NJEOgvDTuHqpYC/aEylwobYgUE+kNsPBVdCuRYAYH+HAuu7KRAESgg0F8ERlQVClYBgf6CNY0KJgUKVgGB/oI1TUYLJtCfUTmVWCYUEOjPhIpKQwrEV0CgP75GukIKSIFyBQT69SRIASmQrAIC/ckqpuulQOIKCPQnrpWulAJSoFwBgf7SeBIE+kvDzqGqpUB/qMylwoZYAYH+EBtPRZcCOVZAoD/Hgis7KVAECgj0F4ERVYWCVUCgv2BNo4JJgYJVQKC/YE2T0YIJ9GdUTiWWCQUE+jOhotKQAvEVEOiPr5GukAJSoFwBgX49CVJACiSrgEB/sorpeimQuAJB0N/y26b27YZvbNqmb0P7Kju81S5cvJC4ALpSCkiBpBUQ6E9aslDeINAfSrMVd6EF+ovbvqpd4Sgg0F84tlBJpEChKyDQX+gWUvmkQOEpINBfeDZRiYpHgSDo/3Txx3by3Ak7//250L6+v/R98RhHNZECBaqAQH+BGibDxRLoz7CgSi59BQT609dQKUiBRBQQ6E9EJV0jBaQACgj06zmQAlIgWQUE+pNVTNdLgcQVCIL+oUsH2bnvzyZ+s66UAlKgJBUQ6C8Nswv0l4adQ1VLgf5QmUuFDbECAv0hNp6KLgVyrIBAf44FV3ZSoAgUEOgvAiOqCgWrgEB/wZpGBZMCBauAQH/BmiajBRPoz6icSiwTCgj0Z0JFpSEF4isg0B9fI10hBaRAuQIC/XoSpIAUSFYBgf5kFdP1UiBxBQT6E9dKV0oBKVCugEB/aTwJAv2lYedQ1TII+v/Q9Sd240d/tpv6XhXaV7dZ7ezUuZOhsoEKWxoKCPSXhp1VSymQCQU86P9F+3+y63r/LrRtMv2Jx4bcZRsPrMuELEpDCkiBahQQ6K9GHP0kBdJUQKA/TQF1uxQoQQUE+kvD6AL9pWHnUNUyCPqbT3jNVu1ZbhsPrg/ta//JvXbx0sVQ2UCFLQ0FBPpLw86qpRTIhAIe9N/w0Z9s8sbxoW2T6U9sO7zZzl5QLONMPBdKQwpUp4BAf3Xq6DcpkJ4CAv3p6ae7pUApKiDQXxpWF+gvDTuHqpZB0N9pxgd2+vypUJVfhZUCYVFAoD8sllI5pUD+FfCgv1b/q23DgbX5L5BKIAWkQMErINBf8CZSAUOsgEB/iI2nokuBPCkg0J8n4XOcrUB/jgVXdvEVEOiPr5GukAKZUECgPxMqKg0pUBoKCPSXhp1VSymQSQUE+jOpptKSApUVEOivrIe+SQEpEF8Bgf74GhXDFQL9xWDFIquDQH+RGVTVKVgFBPoL1jQqmBQoOAUE+gvOJCVboF2bT9r0L3bbuEHbi+q1ZNpBO3nsQlHZVaC/qMypyhSYAgL9BWYQFUcKhEABgf4QGCkDRRToz4CISiKzCgj0Z1ZPpSYFYikg0B9LGZ2XAlIgUgGB/khF9D1fCiyeetDaPLfcGt+2oKheg97bYPt3nsmXrFnJV6A/K7IqUSngFBDo14MgBaRAsgoI9CerWDivF+gPp92KutQC/UVtXlWugBQQ6C8gY6goUqDAFRDoL3ADlVDx5k/Yb80fWGx1/jq7qF59mq21vWWni8qSAv1FZU5VpsAUEOgvMIOoOFIgBAoI9IfASBkookB/BkRUEplVQKA/s3oqNSkQSwGB/ljK6LwUkAKRCgj0Ryqi7/lSQKA/X8onn69Af/Ka6Q4pkKgCAv2JKqXrpIAU8AoI9HslivtdoL+47RvK2gn0h9JsKnQIFRDoD6HRVGQpkCcFBPrzJLyyraKAQH8VSQr2hEB/wZpGBSsCBQT6i8CIqoIUyLECAv05FjxP2Qn050l4ZRtbAYH+2NroFymQSQUE+jOpptKSAsWtgEB/cds3TLUT6A+PtQT6w2MrlTR8Cgj0h89mKrEUyLcCAv35tkBu8hfoz43OyiUJBQT6kxBLl0qBNBQQ6E9DPN0qBUpMAYH+EjN4AVdXoL+AjRNRNIH+CEH0VQpkUAGB/gyKqaSkQIkoINBfGoYW6C8NO4eqlgL9oTKXChtiBQT6Q2w8FV0K5FgBgf4cC67sYiog0B9TmoL7QaC/4EyiAhWRAgL9RWRMVUUK5EgBgf4cCZ3nbAT682wAZV9VAYH+qprojBTIhgIC/dlQVWlKgeJUQKC/OO0axloJ9IfHagL94bGVSho+BQT6w2czlVgK5FsBgf58WyA3+Qv050Zn5ZKEAgL9SYilS6VAGgoI9Kchnm6VAiWmgEB/iRm8gKsr0F/AxokomkB/hCD6KgUyqIBAfwbFVFJSoEQUEOgvDUML9JeGnUNVS4H+UJlLhQ2xAgL9ITaeii4FcqyAQH+OBVd2MRXIBOivd80c6/TSSps8bJf1aLzGXv77PKvz19lJvRrftsC+7r/dhnfdYm/et8jq1kzu/sj8+jRba3vLTsesdxh/EOgPo9VU5rAoINAfFkupnFKgcBQQ6C8cW2SzJAL92VRXaaekgEB/SrLpJimQtAIC/UlLphukQMkqINBfsqYvuIqnA/pfunaOdWm4ymaP3We7t56y0ycu2JiPygxoHwne431v9fhS27j8mB07dM42rzpuo3tvs+b3L7J6NecknRZ5CfQX3KOmAkmBglYgE6D/0qVLdvDgQZs3b56NHTvWRo8erZc00DMQ4mfgq6++sqlTp9q2bdvs/PnzVf6GCfRXkaQoTwj0F6VZw12pMIL+Cxcu2Pr1623BggU2Z84cvaRBpWeAzvPKlSvt1KlTRoe6UA6B/kKxhMohBQpfAYH+wrdRqZQwFdBf/7o51u2V1TZ3/D7bs+2UA/MTP91p+3acsXEDt1uT25MH/e89vczK1p2weeP32cLJB1y6W1cft6/6ltnbDy42Vg3EmywI/i7QXypPsOopBTKjQLqgH8D/9ddf27vvvmuNGjWyl156yerVq6eXNNAzEPJnoGHDhvbGG29Y3759bcOGDfb9999X/NER6K+Qoqg/CPQXtXnDWbkwgX5mSb/77jvr2LGjNW3a1F555RXXUaKzpJc08M8Az0Xjxo3tvffec94yx44dKwjgL9Afzr+RKrUUyIcCAv35UF15RlMgGdDf4G9z7cPXVtv8ifttT9lp27T8mH3ZY6u1eW65tXx4iW1eeTxt0D+syxZ757ElLp+ZY/a6lQJb1xy3sf3LrOXDiQN/gf5o1tY5KSAFYimQDugH8g8aNMgaNGhgTz31lD3xxBN6SQM9A0X2DNSuXdvatm3rHA497Bfoj/UXtbjOC/QXlz2LojZhAf1A/s8//9xeffVVe+aZZ9QwFlnDmI0OLx1pvGV69+5thw4dyjvsF+gvij+ZqoQUyIkCAv05kVmZJKBAIqAfD/4eTdbYwkkHHODfsOSojei6xT54Zpm9est8F16n8a3zXeiddD36P2u3ycX4J8837l5o3Rqtthmj9tiuzads29oTbiKh5SNL4nr4C/QnYHxdIgWkQIUCqYL+06dP25AhQ6xu3br25JNPOuc0oP/s2bNt2bJltnz5cr2kgZ6BkD4DixYtcit1WrZs6RjVs88+65xSN27c6P52CPRX/Akt6g8C/UVt3nBWLiygf+TIkVa/fn3XQQL0d+nSxf1RnTRpkuklDYLPwPjx461Pnz5Wp04d97w8//zz9tFHH9nx48fz+p9UoD+v8itzKRAqBQT6Q2Wuoi5sIqC/28urbMPSY7Z+8VH7vPNmI8zOKzfPt7qB+PmZBv0+DA/7ALxx10K3F8DUEbtt15ZTNmX4Lnvz3kXVhvIR6C/qx1aVkwIZVyBV0L9ixQpr0aKFG5M0a9bMZs6caYcPH7Zz5865EB94/uolDfQMhPMZIKT0yZMnDbDfvXt3A/TDHsaNG2dnz541gf6M/ykuyAQF+gvSLKVdqDCA/t27d9trr73mOkjA2+nTp9vevXvdH1W8JPSSBsFngNj8ePAvXbrUhXjCs5+ldMTtpzHO1yHQny/lla8UCJ8CAv3hs1mxljgR0N+/xXrbs+20ffzOenvlpnlWt+bsKpA9W6A/lceelwAAIABJREFUCPxfv3OhrZh9yBZ8u99aPLykShn8tbwL9BfrE6t6SYHsKJAK6GevsKFDh9oLL7xgTz/9tH3zzTdu/JqdEipVKSAF8qUAEzVLlixxk3pEKujatavboFegP18WyW2+Av251Vu5JaBAGED/qFGj3MwofzS//PJLO3HiRN7DsCQgrS7JswJA/RkzZrilsjw7/fv3d89Ovool0J8v5ZWvFAifAgL94bNZsZY4IdDfEtB/yjrXXxUTrmcb9HuIv3DSfrdHgED/tGJ9JFUvKZAXBVIB/Xj0fvjhhxXe/KtXr877GPbIkSMOSOI4N23aNOcYxX5mwWP//v3Wo0cP55WMt3LkceDAAevZs2faExc4YXXo0MEWLlwYmUXM72j68ccfu5C+7H1QCMe6deusX79+NnHiRKfn/PnzLdZr8+bNdubMGduyZYvbuDWavsE64cBG+tjqq6++cmPbXbt2ZdR5bfLkydarVy9bu3ZtMOuKz1OmTKn294oLAx+o4/r1650eOOBFO1jZwjPABrbUk6OsrMwWLFgQVb/FixdbpM23bdtmnOeZzPeBLYkqAHdo3ry5sZpHoD/fVslN/gL9udFZuSShQBhAf7t27ZwXBN4QO3fuzGoHic4DKwjIJ9Zr3759dvHixSRUjn4pHh5jx451jX20K44ePWo7duywrVu3us4AnS6WeeIdkq1j1qxZrqOS7zA3maofDe6bb77pOthvvPGG8/TPVNrJpiPQn6xiul4KlK4CAv2la/tM1py+Srr9lUyDfjbQbf/iCmt4/Vzn+d/8wUX27pNL7ZWb51ndq2db0zsXWqvHl9rrdy00wvI0ummetXhkifV6fa2Lw+9j9HuwH/ku0P9ju7LDj2zmFoH+TP5fUlpSIBXQj3Ma4WYBfx988IEBefN1AF4Jb8qGwITBffnll11Y3Mcee8w5RQGpKS8HkwFjxoxxsJVV04ynpk6dWlF+xsjcD9xmvJrqQRgjyjJhwoSEk6A8jO3gA4zZYx1AVgCwn8SgTjiAMa7O9DF69Ghr1aqVKxO6PP744+51//3327333muPPPJIxbm+ffvanj173ERKmzZt3Bg/VnkoKxMhhINp3Lixg8fs9YBmAwcONJhEJg480ZlE2L59u0sO+E7sea/dZ599Zq+88ooD8InmR/QFnvn77rvP8Q72W4w8cOZkpUtQhwEDBtjDDz9cSTOvJ3WfM2dORTKwETa/vfvuu23YsGF5Xy0Do/nkk0/chttNmzZ1E2oC/RXmKuoPAv1Fbd5wVi4MoP/tt992fzBp4HyDky21V61aZc8995w99NBDMV/84c5EOegIvP/++zFjx9Oo0jF84IEH3ItGj4buxRdftLfeestt2pPpUDR4C+B5kmj96LCuWbPGojXe2bJRsun6iSL2eMjnbL9Af7KW0/VSoHQVEOgvXdtnsua05Z9++qkNHz7cec0Ba5J1Fsg06D9x5LytmnvYWj++1MH+ueP22e6tp6z7q6sd2P+ix1bbvOq4je5TZk3vWOBWCayYfdjWLzlqJ45eMIH+2E9Im6kt7HddBPpjK6RfpEDqCqQK+jt37uzGcwBJvLjzcTBexMHM73OHBz1juE2bNhne3EBcNgoGhHMtYUhoP4DqtBnEHwdk4xDGAehnXAXoT3TMGK3e5Ee+TEAkelAmnLfQszrQz0puXkB1DsA/4Hnu3LmJZpXQdUymd+zY0b3IA63wjOdFOQkhy6SJP0eZcdx79913XWhivPWjHVzDqgq4BHsVYi+83bke73sYwddff+3SinZ/MueYBMLJz4/nmURgQsLrO3jwYLeJNKsUEj1YdfDqq6/a3//+dzfZhfNi8GDihWeK3/F+x/ufg/8vxLhn4sFr5t/x/A8+b0w+wYfgNuyDEUvLYL7Z/kyfC5s3adLETTQJ9Gdb8cJIX6C/MOygUgQUCAPoB2rzB5PGMtue5ngl0IjNnj3bvWiAatSo4Wai/blly5ZVNIQBKZP+CLCnUQo2WMFEunXrZrfffruxXI548yxjA8TTWaDRB/zTmUjXWy+YJ/riHUAHL5GDDhQz794DJJF7cn1Np06dXMe2Xr16Av0ZFH/EiBFu0gmPD98xzGDySkoKlLQCAv0lbf6MVZ5l8a1bt3bemgyGAQtDhgxxXma094lA/0yD/hWzDtmg9zYYoXxeuna2ffjaavvkg4321v2LnId/2+eX28etNli7F1ZYwxvmWrN7F1mfN9fZyO5bbN+OMwL91TwdAv3ViKOfpECaCoQZ9DN2ZWU83uGEOgmO81jNjgc3MBmgCuin7fj888/dxsFMCrz33nt222232UsvveTg8vLlyx3o7927txuXtmzZ0k0WAIQ9WCcfgDHX+raGMSvjWMA+oJfwQQDrQYMGGQ5utFOvv/66y4MyRDs86McLHBgMvMd5jlBC5Akgx8MeRzkAMO0edWHMfccdd7hys4KAOuN9/d1337nr2SiZPQG5NugpD7ynnvyO8yF1YsLGj7/xXKfctK0A8+DRvn17Y/yJ/pFHPNBP/dGC1QvBlSBoicashqAcQVuSB05t1AFugW05mCCgrqza8CsweMfm1B874BEPbEfTBx980L3oPxBuCrsyGUQIZSZ3+PzOO+84ZoLe0Q4P+nlmAPlBT3yu5zuMBydG8gmCfuyJ7tUd5MukAHalTEw8sQeGt0t192bzN4H+bKpbuGkL9BeubUq2ZAL9lU1P40mDSSeHF4351Vdf7TwX/Dl+Z4abBhFvcRpxdlYH2PuODKnS2eCPPR4HzPTjMeHjz/F7IqCf5X50NkiXhotGjTSAq8yA46XnOxWcnzRpkgG26fwAYlnSFmzw6BjQEWEZKQ05gD7YsaMjQgfMl5NOBnVjF3m8B+g4ERuP8nCe5Z7Mun/00UcuLA5LJCkDExCc4zMdN2bg0c8flIm0qEesDoK/Nt13gf50FYx+v0B/dF10VgpkQgGB/kyoqDRowxmMA1J44TRB3wOYgSMDA3+cCAAuwb5CULlMg/6Jn+60N+8D6s9x8fwbXD/XXv77PKt3Tfn3+tfNcYC//nVzXSgfzgP8276wwravPynQHzROxGeB/ghB9FUKZFCBMIN+xqOM2RiXRYJhJGKMxpgQMMwYD4992gmcuQC9bCx6zz33uHEvYV7wnAasPvroo24lOGNHQDthWBgfkxZjQtob4KsfH5M3UJcJB0AwgJly4dUPTGds6ldixwpv60E/IWEYgxP+hYkCxqPER2esC0QmTSY3WMmAFz/pcg95M/kwb948B+EpM6vZSQdwzH2AbUA4jnY4GrICnzoy9gHqk68PAUTarPbHGc/X0z926YB+bMEkBtAdXViR5w/PBIJja/8bY3gmERjr+0kXJjYI/wMUZ0zOgQbYmFUBjNXxQKcuaEdfoXbt2o4Z8CygB0AewE+/Aa24nnozYRLt8KCf5wKgTx7YjoPywxXQFX1TAf1EYWASgWeUkENMJmBbJl7yeQj051P9/OUt0J8/7ZVzDAUE+mMIc/k0jVnNmjUrNRo0eDQsvrHDq53GE7juvfOZlaaBpPGicaTjQaNJo+Yb6kRBP7A+8gC233zzza6xpdEEltOB8UsyaVTxIGDJHA0eHQ9m+OmUNWzYsKJMNIh4N9BgM2FAfekocS11odFs1KiRa0TpRJEmdSJ/Oga1atVynTrqxTm04Ho/e8/kBqsP6CAGV2PQyWBFAktAs+0NLtAf+fRk5rtAf2Z0VCpSIJoCAv3RVNG5ZBWIBP0e+PPuIQh9GQb/bG7IAJ9N84LQP9Ogf9zA7dbk9gUxN+2tW3O21bl6dpXf33t6mZWtOyHQX81DINBfjTj6SQqkqUCYQT9OZ0BvwHUiB2FWGMsxfmVMyDiRMSae+IwXAauMKbmGyWLAPuNAxo3AW7+hKu0MkNoDcEA/0BcQTR7AccaDeMqzmoAxMvcylgT++pjxwTJ70M8EAfczvgTKM94jbULKUhYgNmkQnoh7AP6Mzb/99ls3ocGEBeN3xsU4nlEHxszUgXaRCQ482OvUqePqze/kxX20leTBAdglH66PPNIB/WjGZAljeSYoKCfje2xAnbyjX2Se3IeHO/UAhnNwH2CeFQJ4+nMwcQGoB+7DKti7gc/Ui/Os0vCOevyO8yFQHS6BnZg8QBtWCUQ7POjHwZD7sA/l5sAZkvKQLhEMUgH93AuXYGUDzxUTCTw31CGfh0B/PtXPX94C/fnTXjnHUECgP4Ywl09HA/1A7bvuust1ChhEMygGet56662us8PsOksc2XiHZWdcQyeJWHdAdSYBGESnAvq5j/SYpb/mmmsq8qPDQZgf4DurDciPzhxLFvGs8B2cW265pWIgT2eGDshf//pX1/nhGjp0LHVkFQEz/dQJ7w/So550boD5NPJ4AOJlQOOMVwP1JpYgKw2oK405HSK8JCgHDb7v6DFpgGcAHTh/rnpLpP6rQH/q2lV3p0B/deroNymQngIC/enpF4a7GSgziMfbEYiSjRcr9gAWQcAf7TMwBgDCIBlQghchbT/9hDnf7LHmDyyuAt6Dm+D2b7ne9mw75eLpB88HPxOqZ+PyY1Yd6MfLn98/a7/JGt9WeTJAoD/+Uy3QH18jXSEFUlUgzKAfZzTAfND7mjEaUJK/+f7Fd8aRQdDPeI92CkcwwDqHj9EfGScfBzIAMWNA4DlObkHQj2MaIXAiQT8r1P0Kb8a6OIjRHjEWjTw86AcUs4LcH8BkQDar04HyfKbejD85aA8B04BhDq4D9LOSgDpyMCYFIDMpAhBnfI3DGmUBsKMN+QPZgcuUmbow1o3mmJcO6Kc8ePUDxRnfA8TRlvKwkgIWwG/RDuyEPuyBQN1YwUe9uB/Az5id+2nrGcPzG6CfVQ5ox/MAy8DOHPyOLQkn7Mft2Bc9sW+0w4N+JlgI/8RkDjH1OZgcwD7YAvZA+YKhe2AJ8AjyDL6YvICt0DfhOcLJEZtwcJ46wG58ZAL3Q47/EejPseAFkp1Af4EYQsX4QQGB/h+0iPYpGuhnQIz3m/fe5z48CYDieMQB4lneSAPqvfe5Bg+FG2+80TWwNNyJgP7rr7/edcxorIlXhzcFjTu7y9Mwki8NLqF1mGkHxNOw8iI/Bvg01lxHg8hu9d4DgTLR8N5www1RQT+dPOpEQ0xjTqeGjgH1452DstCpo7PIgccAKyDwIPAegXgDkA6NOvWmY0RnkTL7+9zNWfonE6CfcuMhQifCd0STLW6xbcZL/Ec6woCqbK/KSFZrXS8Fwq6AQH/YLRi7/LSfDL4ZoOKph0ckXmnZeNF3oL2NBverO8fAGm9I+kBfDlhsb95fGboHAT6fUwX9jW9dYH2br7Nm9yx0EwnvPLbENq88bmzIO+CdDdbmueVuw17yEOiP/Uz5XwT6vRJ6lwKZVyDMoB9HLPrsjPv8wRgVgM9vvIDexINn3JYo6Ac+4wzmD0LVAmNJw4P0IOgnT7zFcRIjD8AvY0nKETwY49I2Bsvrf/egn7F4EHQTbpewOoyFEwH9TCIAzQGzpOkPJgQ4DyynvJQREE1bipMa42ImARgXEyOfdpyJ+mhjoXRBP2VinE/5GL8D3hmPwhtowz138GX37zjSoQVOWYzTWGUBVGecjk7YhxX6ON4BxRMB/XALvxkz+ZAuDgLUPdoRBP1wCCaFKC/1gJHQB4JVMNFCiMEg6GeVB2GUmAAKvmAJhCNiVQbOhjyzpMtYn4kJ+At9l3xuyivQH+1pKP5zAv3Fb+PQ1VCgv3qTRYJ+GlugNR2bIMTnPKCdBp1Ox0033eSWkAWX1dFI41GPRzyNaiKgn+tpFGmo8cyn8br22mudV0FweT0wn/OsImAiwr+4n44d15IfnRPvtUDN6TAQAohldZQv6NFPhwXvBTpaNLg0pjSiQPxYoJ/VDn/7298qPADIg3QoN14E5M3SxjvvvNOtOAD6Z/tIFfRjIzqB6I63BsCExpvOYypHMYF+P7nEM0FnKhd2TEVz3SMFwqqAQH9YLVd9uWk7We7OABvvSgbdeM7jNchy80y/iH9M21Ud1A/+Rn8BD0gG7nh+4in33VfbrfkDizLu0d/8/kU2c8we27LquHVusNLF6B/SfpPt3HzKejdbY9NG7nbQf+C7G+yVm+YJ9Ff/aLlfBfoTEEmXSIEUFQgz6AeM8rcez3A/hsMhC4crwCsvYDBOYQDXREE/bRhjTH8A+hlrEoaH8R5wHA9y7/yFsxhjQsA5MBoPcVZ9Uy7GFv5gPIl3NtA+8mC8ShvqJwv87wBsnOKYHEgG9Ed6gPsVy2xSy0F+tIWMdxgXUy5eTGQQohbNYoWLSQf0oxlOhUGWQHnQCR3RGZgPtI88GHsD0tER7gBYp/zozOoDnLWY1KH8pJcI6IcH0FfxB6CfCREmRoK287970A9jwEmOvfkoE5M6cAvu4zxlhBEEQT/9o/nz5zvWAm/xL2yBbdEV5sF91M2/mHTheWIfQf/M+fLk6l2gP1dKF1Y+Av2FZQ+VxswE+qt/DCJBP1cDqVlSGAT9nMfLHu92GjbgOX/og40z1ycL+pmZxluAjhgvlkIyg81Su6A3PN4TLHFjpp3BefDFPXTq8OaPBP3MpFNWOjWUNQj6qROwmyV9hAECeDNzjzcDZaIBjfToZ1aeEEJ+8x+vLh0j6rJ582Y3c0/HJOgB4q/LxnsyoJ/OA51KOiXAfcrJskQmTuggs8FwUPdkyltMoJ/nBo8clmES5kmHFJACmVVAoD+zehZKaqyOo73m7ycQgaX+DFwZ7Gbjxd9nBsJBmB/5mb4BfRcG34AZ2m/aOT+Bm40Y/Z3rr7QFk/bb9g0nL4fpmW8vXTvHFny731bNPWzvPrXUWj2+xOaN32c7Np60zzttti4NVylGf5wHWaA/jkD6WQqkoUCYQT9/1wHsrBzDiSkSzAKU6dPTNsUC/d7LHQl96B7GjUEHMkA/k8t4nQOgcTIDKrMymoPzjCUjQX9wwoA2EW99AHowNI83Hb8D+hkLM+b2B6AfAO/3DGDMG7zGh+7xAJ9V2tQpOGHA2BZoDNQGZFNeADl5cjBW/uKLL1w4GSbpqT+T44y1ox3pgH5AN0CcTYl9/j4P+g6MUaljNI24jvrStjOOJWY/kznYnvJyL+8+hn8ioJ89Agjt4w/0weELhhANqnvQT+x8Jh5gADxj2AjHQT+Jg+0jQT8TNtgn2sEEC88VExY4V9LP8S/6MIRZQnfC++TjEOjPh+r5z1OgP/82UAkiFBDojxAk4ms00E84HBoglqH5A88HvPhp7IDjLHtnGVoQCtNgESaHJYA0eIl49LNKIBjzj4YUTztgOh0MwAAHnRvO0YgGG1s8EHznivKwcVEwPToP1113nZvh57og6MdDgwaUSQI6hEBwPBYIP8TSOfIG9NOY+noCwplwiGxc0YpVAQB0JiqY1Q9Ogngds/EeD/RTNrw/sDUdTzrC2MbD/SAUEeg311FkRQudYzxDeN51SAEpkFkFBPozq2chpEZbymQ47QtejLn424nXH21/sB3jM95ywAzaciAGbTbOCMH+g9csG6CfcD0A/K2rj1u7F1ZYvZpz7N0nl9rWNSds7Mflm/XWv26ufd2/zI4dOmdThu2yHk3WCPR7o8R4F+iPIYxOS4EMKBBm0M/ELZDWj28I1cPffzy6WTkOfGX8BpQF3Ed69DN2pe0AHDOepd2gHWFcFAv0M470q9fIizEk4wf2qwuCfsaSjLkA04BaHMvw1iasjB9fBs2XCOhnTAtUJuQt6TL2ZcxLHWj7yIfyMJah3oBunOTwBKcslJN7uJdxP78DyZmsp00FntOOA+LxmA+G8w2WNR7op+54tLPpb/DFeJ7JGXTCQ50JFMb9wH+0pG6Mq+EOkY6HPn+AOBM3OPTBDuiDYCvKD49gzA/85wiCfrTjmqefftrVH4jOGDkd0A8zgH0QtpfykDf9Ew6eRSZ2gh79sUA/PALmwUoRVixGTlhRR55JJrSCkxIuoxz9I9CfI6ELLBuB/gIziIojj/54z0A00E8noFatWq7xAxLTESA+HB7reC8wUKbBpCNDY0wnhVltOgM06HhB0DClAvopL+kxE89kgt/MFk8CJgX8xrh0gvBYwGuCGIM0sCzbpHFlsyLuYyYdr4saNWq4zgrXBEE/HRg8GqgvHQFAP14Z7BuAtwSNKZ0ArqHDBLTgfkB+JOinvjTudEpYEcEqgcjGOZ4tUv09Guinc0GMZDq3dGZY6kfIgmhwn06hf9EZoXOLR3uyrzaj37Gr3r/SftXyP2zs/DG2ZduWpNNINs9MXo/HCCEn8I6hg0XHFDtHA0Op2kr3SQEpUK6AQH/xPQn8PWZwTngE33Znu5ZB0M/AmTaMtp2+Cn0X2u14f8OzAfpbPLTYBrTe4ED/8lmH7IPnltvwLlvchr49m66xl/8+177sudV2bTlls8fuc7H62zy/XKA/zgMj0B9HIP0sBdJQIMygn2oDcIHVgFDGPfTlGfsAspmEBozSZtAmAHcZPxF2h/Efq7C5BsDN/UBkYqj7372sjBPx0Gacx+QCsezxzCcfYC7jCEA7EJ8xBOCccQXjZsaQOFsxriQv0ojWPlEPfuee4OpwVo+TNl74jDEBwYBuJjEA5Iy/aQOpA2NhwDkaMHnBeBDvePJm1T7QmfLjMAdMpw60ocBu4DtjSMbRjCGZLIlWTjTBwQ0do3ndA6wB0tSZCZHgixA5gHEc7gDHaIenOuyA69GMcT2TKbHG0zAKdCJdVuZzUE5sRD3Qx6/c83ZhPE961A890I4JEX5HF373BxpRDiaBotWfPgZjf1gIdeEgLcL3UD9/DyskWHFAv4iDiR7yirZKgjr17dvXPYPYM9qBXXy5YBW5PgT6c614YeQn0F8YdlApAgrIoz8gRpSPNO6E5KGx8gcdHjoINLYAYELZ0PjT0HsvdTpKdCboQHhITMNMwwZQ56DzQecimrcCv+MhwP1+tt3nzztL7UiXcjBQpwGloQXcUx5+4146Lh7GUm4aUjpbdCzwMqDhZlbfdyhonPidjhP50piSjk8TsE/HhIaWjgD6AO9ZKUCnj44b9wf18uUmXiOhi1iuF8vzwV+byXcP+glPwEZE6MoSQWzGREg8uO/txzvhfJiwCXbGEv38QsPn7YHa99l9z99tL7/WMKU0Es0rG9f5Dh/PDs8V3j6+g5hJeyktKSAFzAT6i+8pALDQ7tOGBmMaZ7Om9C+AH0z8M2imbccRIBYYiFaWbID+JrcvsEY3znNe+sTpx6t/8dQDtnbhERe2p27N2Taq1zYb3afMWj+x1IX10Wa80axT+ZxAf2U99E0KZFKBsIN+tAB8MkYFogNqefGZNikIRRlXMn7EA5y+PlCWcSHtCPAbL/Lg715n0mEM6Me6jIsZL/h8/KQBaZEHY1g81xlXkh5AnDz4PVgenz7vlIU8Iq/xafixOGmTN+kx7qQetIF8J09CzzDGHTp0qKsT58mfazyYpq2kHQW4M0HOC8BMHqTP51jjeMqKHtSLyYnIg/KjfbQXaZI3daXs5EP5cDbz3v7x2nLupS44G3KtP7A/UB1b+IM8mNzx10Vqh7bB37kPDdAxVv2xH/eQtu9zkC7nePcH5aGc/plBM66JpplPM9L2Pq1guTyrCP6Wi88C/blQufDyEOgvPJuUfIkE+qt/BGhs6Jz4Bt9fTeNBY08nAcBNI02D5xsyruNeGmSuYYCPN59vxPidRpbOUixYSieGWPjROjqUhwY/eD/5kwflYTYbsE4HjYbeH3Q2KDe/kT8dF7z8KZ/vAAXzpPGlDizT9Es1gw0njTf6cD8NPQ118H6fL+9MTrASAo+RaHUKXpvJzx70A6ixE/rgBcKERBDiJ/KZeIYs58RDIdlXwxYv2Z0Natmt9f5u77RtYd26dU06jWTzzOT1ePCzhBU78mwHn6tM2ktpSQEpINBfjM8A7TKr8fDwC4Y6yGZd+TtN28yAOdg/SSbPbIH+On+dbQ2un2tv3rvIOtRd6bz1x3+yw5rescBt/Nv0zoX22q3z3Sa9XCvQH99qAv3xNdIVUiBVBYoB9Kda92K8j/EMDl94kAfH58VYV9UpdwoI9OdO60LKSaC/kKyhsjgFBPrTexAYOMcbPCdyTXqlqHx3rPwA9SxJxIufGXu8MVjiiLc+M/Lx6lE5l8rf4t3LzDyAgyWAfM7lEQT93ksDyMKEBLH5gS5sjshqhXiwH9jN5AiTMMm+2o9rbX9q+wv7Zasf2bfLxtmevXuSTiPZPDN5Pd4TTOzEmpjKpU2VlxQodgXk0V98FmbSn3YQ78Fcgf5MqJhN0A/A59Wu9nJbPO2AdWu0ynnv+/PBd4H++NYU6I+vka6QAqkqINCfqnKFeZ8H/cHNgguzpCpVmBQQ6A+TtTJXVoH+zGmplDKkgEB/hoQMQTJAWuLisamP92Ynnj4x+KMtj8tUlfAqJzwOeRIjMXJ1RKbyiZVOJOgPXkdZWKHAkkjiFw4fPtzFW2TzpmjQn7iUsZYoBtON9rnrzLb2287/aT9u8w82t2ymXbiY+7iB0cqlc1JAChSeAgL9hWeTdEsk0D/fNi4/ZuMGlm+2G4T4L/99nr394GLjPXg++FmgP/4TKNAfXyNdIQVSVUCgP1XlCvM+HN5YlY4DmlYpF6aNwlgqgf4wWi39Mgv0p6+hUsiwAgL9GRa0wJOjMwPQZgMfNunFm4GOTjyP/HSqhdc8+wcQMiibEwqxylgd6A/eQzghJkOIZUgoIsLUEJP/2WefrYD+Av1BxfRZCkiBbCkg0J8tZfOXrkB/bNAfBPqxPgv0x392Bfrja6QrpECqCgj0p6pc4d4XaxV84ZZYJSt0BQT6C91C2SmfQH92dFWqaSgg0J+GeCG9Fa8F4vnjzZ5NwO/lIe4hr1zk5fMMvicK+oP3EJ4G6M8eCCtXrrTRo0fbBx98YJ988kmlzYuC98TAE97SAAAgAElEQVT7LI/+eArpdykgBbwCAv1eieJ5F+gvB/0LJ+23Xq+vtVdunmf1as6xtrWX24evrbamdy6wulfPtnceXWJdG62yVo8vsQZ/m+ti9nd6aaV98v5G27PttH3WblO1nv+kP3/ifmvx8JKYqwOYTOjTbK3tLfthg8JieNIE+ovBiqpDoSog0F+ollG5pEDhKCDQXzi2yGVJBPpzqbbySkgBgf6EZNJFIVYgFdAfrC7Q/8SJE24fA1ZEpBqjXqA/qKo+SwEpUJ0CAv3VqRPO3wT6y0H/qWMXbM2CI9b6iaXW8Pq5tuDb/bZ/xxkH+1+6do6N6r3Nbcz7db8yY0PeLg1X2er5R1zYn5PHLgj0V/P4C/RXI45+kgJpKiDQn6aAul0KlIACAv0lYOQoVRTojyKKTuVXAYH+/Oqv3LOvQLqgP1MlFOjPlJJKRwoUvwIC/cVnY4H+ctAP2O/ReLU1umme1a0529o8t9xtwtv0jnKP/hYPL7bODVY6z348+pvctsA61FlhA9+VR3+8/xUC/fEU0u9SIHUFBPpT1053SoFSUUCgv1QsXbmeAv2V9dC3AlBAoL8AjKAiZFUBgf6syqvEpYAUyIICAv1ZEDXPSQr0l4P+8YN22Ot3LrA6V892oXWA/fWumePC9hBSh/A97nvNy7/zveYce/+ZZVa27qQ8+qt5jgX6qxFHP0mBNBUQ6E9TQN0uBUpAAYH+EjBylCoK9EcRRafyq4BAf371V+7ZV0CgP/saKwcpIAUyq4BAf2b1LITUBPrLQf+4gdutye0Lqo2fH21DXm3GG/8pFuiPr5GukAKpKiDQn6pyuk8KlI4CAv2lY+tgTQX6g2roc0EoINBfEGZQIbKogEB/FsVV0lJACmRFAYH+rMia10QF+gX6s/0ACvRnW2GlX8oKpAL6T58+bV27drUnnnjCWrVqZRs2bChlCVV3KVDUCrCP34ABA9z/9zfeeMOWLl1qs7fOsAcG32I/bvMP1npyM9t7fHdRa1CqlRPoL1XLF3C9wwD6W7RoYU899ZS99tprduzYsQJWU0UrRAXatm1rTz/9tDVo0MAOHjyYtyIqRn/epFfGUiB0Cgj0h85kcQtc7KB/7/bT9s2A7dbykcXGprqRXvmNb80u6Cfmf+f6q2zzymO2cPIBa/HwkiplCJapT7O1trfsdFy7hekCgf4wWUtlDZsCqYB+wF/fvn3tmWeesTp16ti8efOMczqkgBQoPgW2b99uHTp0cKD/vffes3Xr1gn0F5+Zo9ZIoD+qLDqZTwXCAPrxyAbUPvvss7Zp0ya7ePFiPiVT3iFS4PDhw9akSRN78sknrXnz5sb3fB0C/flSXvlKgfApINAfPpvFK3Exg37i56+YfcgO7DpjOzaetIWTDtjQDpvdhrr1ryuH/tkA/cD9Lg1X2biBO2ztwiMO3B/cfcZG994WNzyQQH+8J1a/SwEpEFQgFdDP/dOnT3fOaoxFunTpYtu2bbNLly4Fk9ZnKSAFQq7AqVOn7IsvvrCXXnrJgf6hQ4fa0aNHBfpDbtdEiy/Qn6hSui5nCoQB9E+dOtVeeOEF90ezd+/edvz48Zzpo4zCqwAeMyNHjqx4doYPH240wvk6BPrzpbzylQLhU0CgP3w2i1fiYgb9Da6fay0fXmI9m66xCYN32LrFR23f9tO2E+g/+YB93mmzdaq/0rauOWHpxugf1Wub9W621tjUd92iow7u79p80hZNPWDDOm+2jvVWWtM7F7gNfYMe/JGfBfrjPbH6XQpIgaACqYL+/fv3G05rrE6vXbu28/idOXOm7d27106cOKGXNNAzEOJn4MiRI7Z69WobOHCgNWrUyDkX4mS4YMEC55yq0D3Bv6LF+1mgv3htG9qahQH0MxvatGlT94cT4M8SSDz7L1y4EFrdVfDsKYCXzJ49e2zEiBH28ssvu+fmxRdfzPtqEIH+7NlcKUuBYlNAoL/YLGpWzKDfQ3S899lot9VjS6xH4zUO6q9ZcMRB/z3bTtvZ09+nDfoP7T1r+3eecZMICybtt6EdN1mHOius+QOL7ZWb5lm9mlXDBvnyBd8F+ovv/5hqJAWyqUCqoB/Ho1WrVlnr1q0d7GeFOkDwrbfeMsLTtmzZUi9poGcgpM/A22+/7TgVrIFVO7CH8ePHVzimCvRn869y4aQt0F84tlBJLisQBtAPuF24cKE1bNjQ/QHFG4INTt5//33nFUEsNL2kgX8G2rRp48L01K1b1z0vzz//vE2YMMHYECufh0B/PtVX3lIgXAoI9IfLXomUthRAfxCkE6e/yW0LXPie7q+utrH9t9vKOYetf8v11ujGedXGzw+m4z+/ftdCmzFqj80dv88+a7fJ2r+4wt66f5ERvqduzdlJpyfQn8hTq2ukgBTwCqQK+rn/3LlztnLlSrcxr1+lzga9ekkDPQPF8QwA+Zs1a2aTJ092IXt8eC6Bfv8XtLjfBfqL276hrF0YQD/C0kGaP3++vf76684bgkaRP6jE7tdLGgSfAZbG+k5T/fr1HeRnE2ff4ObrP6pAf76UV75SIHwKCPSHz2bxSlxqoN8Det6B/o1vW2BvP7TYXr1lvtVN0Os+Mo0371tkb967yE0UpAL3g+kJ9Md7YvW7FJACQQXSAf2kc/78edu3b59zXhsyZIh169bNOnbsqJc00DMQ4megc+fOLtrElClTbMuWLS5McJA5CPQH/4oW72eB/uK1bWhrFhbQj8Bnz551GxhNnDjRefCz5BHwr5c0CD4Db775plvtMWrUKFu7dq2dPHky75Cf51egP7R/JlVwKZBzBQT6cy551jMsZdAfBOyF8lmgP+uPvDKQAkWlQLqg34sB8CeuN9CfOP16SQM9A+F+Bg4ePOgiBwQBv///LtDvlSjud4H+4rZvKGsXJtDvBWZDVWKw79ixw8rKyvSSBpWege3bt9uuXbtcbLyLFy/6xybv7wL9eTeBCiAFQqOAQH9oTJVwQQX6kw+vk81JAYH+hB9dXSgFpICZZQr0S0wpIAVKRwGB/tKwtUB/adg5VLUMI+gPlcAqrBS4rIBAvx4FKSAFElVAoD9RpcJznUC/QH+2n9Y2U1vY77r82K7s8CObuWVatrNT+lKgpBQQ6C8pc6uyUiAjCgj0Z0TGgk9EoL/gTVR6BRToLz2bq8b5UUCgPz+6K1cpEEYFBPrDaLXqyyzQL9Bf/ROS/q8C/elrqBSkQCwFBPpjKaPzUkAKxFJAoD+WMsV1XqC/uOxZFLUR6C8KM6oSIVBAoD8ERlIRpUCBKCDQXyCGyGAxBPoF+jP4OEVNSqA/qiw6KQUyooBAf0ZkVCJSoKQUEOgvDXML9JeGnUNVS4H+UJlLhQ2xAgL9ITaeii4FcqyAQH+OBc9BdgL9Av3ZfswE+rOtsNIvZQUE+kvZ+qq7FEhNAYH+1HQL210C/WGzWAmUV6C/BIysKhaEAgL9BWEGFUIKhEIBgf5QmCmpQgr0C/Qn9cCkcLFAfwqi6RYpkKACAv0JCqXLpIAUqFBAoL9CiqL+INBf1OYNZ+UE+sNpN5U6fAoI9IfPZiqxFMiXAgL9+VI+e/kK9Av0Z+/pKk9ZoD/bCiv9UlZAoL+Ura+6S4HUFBDoT023sN0l0B82i5VAeQX6S8DIqmJBKCDQXxBmUCGkQCgUEOgPhZmSKmRYQf+2NSfsm4+327DOm4vqNeurvXb88PmkbFjoFwv0F7qFVL4wKyDQH2brqexSID8KCPTnR/dc5yrQn2vFlV9cBQT640qkC6RARhQQ6M+IjEpECpSEAgL9xWfmsIL+c2cv2rFD5+3IgXNF9Tp57IJd/P5SUT1oAv1FZU5VpsAUEOgvMIOoOFIgBAoI9IfASBkookB/BkRUEplVQKA/s3oqNSkQSwGB/ljK6LwUkAKRCgj0RyoS/u9hBf3hV750aiDQXzq2Vk1zr4BAf+41V45SIOwKCPSH3YKJlV+gPzGddFUOFRDoz6HYyqqkFRDoL2nzq/JSICkFBPqTkisUFwv0h8JMoS6kQH+ozafCF7gCAv0FbiAVTwoUoAIC/QVolCwUSaA/C6IqyfQUEOhPTz/dLQUSVUCgP1GldJ0UkAIC/cX3DAj0F59NC61GAv2FZhGVp5gUEOgvJmuqLlIgNwoI9OdG53znItCfbwso/yoKCPRXkUQnpEBWFBDoz4qsSlQKFKUCAv3FZ1aB/uKzaaHVSKC/0Cyi8hSTAgL9xWRN1UUK5EYBgf7c6JzvXAT6820B5V9FAYH+KpLohBTIigIC/VmRVYlKgaJUQKC/+Mwq0F98Ni20Ggn0F5pFVJ5iUkCgv5isqbpIgdwoINCfG53znYtAf74toPyrKCDQX0USnZACWVFAoD8rsipRKVCUCgj0F59ZBfqLz6aFViOB/kKziMpTTAoI9BeTNVUXKZAbBQT6c6NzvnMR6M+3BZR/FQUE+qtIohNSICsKCPRnRVYlKgWKUgGB/uIzq0B/8dm00Gok0F9oFlF5ikkBgf5isqbqIgVyo4BAf250zncuAv35toDyr6KAQH8VSXRCCmRFAYH+rMiqRKVAUSog0F98ZhXoLz6bFlqNBPoLzSIqTzEpINBfTNZUXaRAbhQQ6M+NzvnORaA/3xZQ/lUUEOivIolOSIGsKCDQnxVZlagUKEoFBPqLz6wC/cVn00KrkUB/oVlE5SkmBQT6i8maqosUyI0CAv250TnfuQj059sCyr+KAgL9VSTRCSmQFQUE+rMiqxKVAkWpgEB/8ZlVoL/4bFpoNRLoLzSLqDzFpIBAfzFZU3WRArlRQKA/NzrnOxeB/nxbQPlXUUCgv4okOiEFsqKAQH9WZFWiUqAoFRDoLz6zhgn0z54929q2bWtr1qyxixcvVhhj1KhR9tZbb9lrr71mrVu3tt69e9t3331nx48fd9dMnDjRvv32Wzty5EjFPf7D999/b0uXLrWOHTtas2bNrEmTJta9e3dbt26dnT9/3l8W833btm124sSJmL/rBzOBfj0FUiB7Cgj0Z09bpSwFilUBgf5itWzlegn0V9ZD3wpAAYH+AjCCilASCgj0l4SZVUkpkBEFBPozImNBJRIW0H/hwgUH8V988UX7/PPP7fDhwxU6tmvXzjp37mwzZ860hQsXGmC/adOmNnbsWAfh+/TpYx999JHt3bu34h7/gWs++OADGz16tAP+8+fPtw8//NAB/7Vr19qlS5fcpUwsnD171iiHP3fu3LmKSQGfHr9xHZME/jr/W7x3ridNXsneGy/tfP4u0J9P9ZV3sSsg0F/sFlb9pEDmFRDoz7ymhZiiQH8hWqXEyyTQX+IPgKqfMwUE+nMmtTKSAqFXQKA/9CasUoFly5ZZhw4dbMyYMXb06NEqvxfKiZUrV1qLFi3s008/tZYtWzqPe1+2999/3z777DMH/wHxeNj36NHDunbtart27XKfe/bsaXv27PG3uPfdu3db48aN7euvv3Z1B+bj4c/5OXPm2KFDh9x169evdxMJrBZ48803bcKECW61AHnefffdLo3Nmzfbli1bXJ5vv/22Wx1AugcPHrRevXrZqlWr3CoEJlZYPbBx40aX9qxZs9zExKZNm2zQoEH27rvvujz69u3ryjt9+nRjxcK+ffvc9SdPnnQrFlavXl1pVYP7sUD/EegvUMOoWEWhgEB/UZhRlZACOVVAoD+ncuctM4H+vEmvjGMpINAfSxmdlwKZVUCgP7N6KjUpUMwKCPSH27qXLl20S8f32/dli+3C0tF2fs4g2zGmo03v0dSWD25lx6f2tvPzh9j366bZxf2b7dL502ZW7tGe75oTjqdfv35GqBzC9BCK5/RpymcG6B8yZEhFaB686du3b2/dunVzsBzoHw30T5061QF5QgFFHqThwwMNHz7cRo4caUyKfPXVV/bGG2+48EF4/7/wwgvu3LFjx4yVBf379zdgPmGGmBTgGsrnVxd8/PHHVrduXbf6AM/9Ll26uPspC6CfCYZFixa5MESTJ092KxTIb/ny5a6ICxYscCsQgqsNIsteaN8F+gvNIipPMSkg0F9M1lRdpEBuFBDoz43O+c5FoD/fFlD+VRQQ6K8iiU5IgawoINCfFVmVqBQoSgUE+sNn1kvH9tqFlePs3KTOdnbYK3ZmwDN2ps+Ddrr7HXa6yy12vOONdqDtDXa4/d/tZOeb7HTXWna65712pt9jdmbwi3buq3fchMDFXavMLpzNiwD79+934JvQPAB4wDvhdXbs2OHKA0hv0KCBderUya1OwKMeOA4UB6bHAv3Adzzo8abnIIY/XvqscOAFdD916pTLB8g/ZcoUt6Lg4YcfdgAeD/5XX33VTQDs3LnTAXxCBFHOGTNmWMOGDW3EiBH2ySef2IABA1w6TECQNhMGlJ/JgHnz5jnPf7z0ue+bb76x5557zoYNG+Y8+d955x236gBvflYHcN6vNsiLQZLMVKA/ScF0uRRIQgGB/iTE0qVSQAo4BQT6S+NBEOgvDTuHqpYC/aEylwobYgUE+kNsPBVdCuRYAYH+HAueYnaXvj9vF3cst/PTejpYf7rHXXa64/V26oMaduq9Pyb+ev9PdqpdTTchcKbvw3Z2dHM3aXDpxEGzSz9shptiMRO+DSB/3333OfgNWH/yySftzjvvdCAfr3tAPy/gOTAej3pC6XiP/1igH5DvvfMpDFAfD/xJkya58wB14vqzmoA9AL744gv3euSRR1zeQdDP5r3PP/+82yyY8EK82NSXTYHZ7BfAT7qsLOCd0Dzjx493YXw2bNjgViiw0TBe/ewxUK9ePRs6dKgLKUQIICY2VqxY4cIWMTFAiKGwHAL9YbGUyhlGBQT6w2g1lVkK5FcBgf786p+r3AX6c6W08klYAYH+hKXShVIgLQUE+tOSTzdLgZJSQKC/sM0N4L+wfrqdHfO2nen3qJ3u9Hc79cFViYP9eJMAQP8ed9mZT+vY+dkD7OLRPVkH/njkN2vWzIXtwUOfEDZ41+O17+PyA/kB5MTjB+5HQvBYoB+v+EaNGjl4T1x/NsA9c+aM4TnPBr2kz6TBK6+84uD8gQMHnJf/448/XgH6+Y3yMCFQp04d53lPOdgPAIBPHkwgtGrVynnysxoBT37C/FBuJhNYsdC8eXMbOHCgbd261VgdwAoFJgvYN4H4/IQrIhQRkw5lZWWF/SBGlE6gP0IQfZUCGVRAoD+DYiopKVAiCgj0l4ahBfpLw86hqqVAf6jMpcKGWAGB/hAbT0WXAjlWQKA/x4Inkd3Fg2V2blJXO93nIeeFf+q9P2UO8EdOALz/53Iv/89ftu83zLBL504lUdLkLl2yZInb7BaveB8znxTYpBY4jic9wDwYoz8yh1ign/SIg88qAcL+jBs3znnZ8xmPevIAvBOCh4kEvPMJnXPHHXe4SQA26eU64vID74m3T1m4j3Tx0Cf+P/ngwf/EE09U7C2AZz8TBlzLZAYTC1zvY/UTuodzrEwgXBH5Pvroo66MTByE6RDoD5O1VNawKSDQHzaLqbxSIP8KCPTn3wa5KIFAfy5UVh5JKSDQn5RculgKpKyAQH/K0ulGKVByCgj0F57JL50/axdWjrczQ16y0x1vsFPv/7kK4D/T91E7P72X22iXzXaTfZ0Z2sBOtb+mSrqn2vzFTve6z85P6WYXD5WZXcx8OB+85YHmkTHp2fz2yy+/dCCeUDh43vtQPZFWYmNcXsePH4/8yXnbM4mAZz0wng1/x4wZ47z0yQMIT4ifwYMHu3j7lIcJgVGjRrkVBBMmTHDx9wHy27dvd79xLasBiNWPRz4rBQD+eOgzccB30iE0DxMEfGefAL7j1T9r1iybO3euff75525VwIULF9wEACsbVq5c6a6vUpECPiHQX8DGUdFCr0CmQD9/7wgPNm3aNLeCib+rekkDPQPhfAYIY0g/Yvfu3VVWOfJHT6A/9H/6E6qAQH9CMumiXCog0J9LtZVXKSsg0F/K1lfdpUByCgj0J6dXtq++dPKQnZvc1cF2oHus+Ptnh79qF/ess0tnjqf0Oje1e3kYoEjP/svfCRF05rN69v3WRWYXzmW02oTR4RUZjgc4DkQ/e/asA/hA/qDHf7AQPo1Yv5M2G/EyIObFhEAwP/IgfA4hdgD/5MXEA572pM1vnKNM3EvYHkL5cB/nOLiPPLiHg98ov/9O2UiT/PHY5zzfSRcA17FjR7eqgPBBYTsE+sNmMZU3TAqkC/r5O8RkKn9jmjZt6sKZvfzyy24lE6uZ9JIGegbC9wzwf/i1116zd955xzke4GQQ7AMJ9Ifpr3zqZRXoT1073ZklBQT6sySskpUCEQoI9EcIoq9SQArEVECgP6Y0Of/h0vF9dm58Wzvd+SY7xaa5MSA8589+8bpdOrwj5TKen/GRne58Y7V5nGpTw84MeNq+3zTX7MLZlPPSjZUVIM4/GwF37drVefcHJyAqX1m43wT6C9c2Kln4FUgH9DP5yMohwpc988wzLrwYIcb0kgZ6BorjGXjyySfd/kH0I9auXVsB+wX6w/+3P5EaCPQnopKuyakCAv05lVuZlbACAv0lbHxVXQokqYBAf5KCZenyi8f22tlv3rNTbLYbB/LnDPQz0fDBVXa6/xP2/caZZucF+zNhfjYJ3rhxo/P0997/mUg3l2kI9OdSbeVVagqkCvpZVTRy5EirX7++AQN5Z7NvQrX4cGd6Lw/7Jh2kQ9ieAfYUIiQhIf+eeuopY9+fbt262ZYtW9yfSIH+0mgpBPpLw86hqqVAf6jMpcKGWAGB/hAbT0WXAjlWQKA/x4JHye7i0d12duy7dqrTDZbohrs58ej3Kwo+uMrO9HvMLmz4zi6dPxOlBjpVagoI9JeaxVXfXCqQKuhn35BWrVo5yN+4cWMH+AlDRugwQo3pJQ30DIT3GWAijxU7q1atcmG5nn76afv/2XsL9zqvM937j5jOzJmZc+Z8Z85MuZ1i0vY0SZM2aZomTcNOnNiJncQoMzMzs2OSmZlZJsmyJUuywGJm3pI2w/1d91JeeVvaW7AZnve63u6tFxbcz5Lc/Naz7jVkyBBcuXJF/W4L6A/kX+ng1SWgP3jaS81uFBDQ70YYuSwK+FgBAf0+FlSKEwUiWAEB/cENLsG5+epqGFbRRqd7ux5nK5+Agn4C/0W/gTF2EOzlGX7ZoDe4UZDa+6qAgP6+KibPiwK9V8AT0M+9Q44ePaosPZjte+rUKbUXSO9rlSdFAVEgHBSwWq1ITEzEzJkzlSXXhg0bUFZWJpvxhkPwfNBGAf0+EFGK8K0CAvp9q6eUJgq4U0BAvztl5LooIAp0VkBAf2dFAvuzNfUMDJve7ZVdT1BBP2H/kv8H07mFcDRXBlYkqS3kFBDQH3IhkQZFkAKegH5mam/cuFFl80+ZMgXp6ekdG4dHkDTSFVFAFADUJN7mzZsV6J81a5b6fZeM/ugYGgL6oyPOYdVLAf1hFS5pbBgrIKA/jIMnTRcFAqyAgP4AC+5Unb3yCYx7h4Cb3jpD/N58D3hG/7c2PoaVf4Ll4VE4jC1OPZGv0aaAgP5oi7j0N5AKeAL629rasGbNGgX+Fi1ahPz8fI+bbDQaUV1djbq6OniyjwjfvXjxomoDVxr46sjJycHJkyeRkJCAlpbQ+jfo/v37uHPnjrJW8VV/vSmnubkZN27cUBu+MwO8u5MbwjNOdrsd2vee6uaz3G+msrJS9TkcN5XvqY+Buv/o0SPcunVL/b71tk7Ga8+ePcqrf/LkyWAZAvp7q154PyegP7zjF5GtF9AfkWGVToWgAgL6QzAo0iRRIEQVENAfnMA4jDqYzs6Dfvkf+gz5OREQLNDPug1bP4St6CFgtwZHPKk16AoI6A96CKQBEayAJ6Cf0HX16tUK9C9durRjg87eykRwmJaWhiVLlijfb9r/0AN8woQJCq7X19f3tihVzujRo3H58mUFj3v9YjcPEvLPmDEDY8aMwenTp9HQ0NDN04G/tXbtWqVdcXGx28rZ5oqKChgMBvUM4Tg3Uu2Ltm4L73QjKSkJCxcuVGOCFi9ff/2125MrQUpLS3H8+HG1uSs3i3d30CeeEwjTp0/HV199pUDz4MGDwaxywmqOw2g4+PtSVFQE7oHh7bFjxw61t0Z2dnafitq3b5/Sf9KkSUhOThbQ3yf1wvdhAf3hG7uIbbmA/ogNrXQsxBQQ0B9iAZHmiAIhrICA/uAEx5p+sd2ypw++/M6Z/sb9w2HLvgF7RUbXsyZPbZprb6oEVw24esZ8fiEMK//o0SSDfvFvYL64BA5ddXDEk1qDroCA/qCHQBoQwQoEA/SnpqYqqM/s4LNnz+LBgwe4ffs2CLAHDRqE/fv39zpbnZCZEwUE8r7K9D537pwC1dyHwNOVBv4cMgsWLFATEQUFBW6r4cQHdSRU50FIvG7dOty7d8/tO57eOHjwoILHjOWFCxdw+PBhdY4aNQp///vf1aSEdo0rERobG1VbOEGTkpLitlqu1Bg6dCjY36tXr+Lhw4dqM9g5c+bgyy+/VNc8WQXitsIQvaHT6bB+/XrVX2+byDHACTXabfXlENDfF7Ui51kB/ZETy4jpiYD+iAmldCTEFRDQH+IBkuaJAiGkgID+wAfDYTbCdGwy9Et/7xloZ1b9ildg3PIhjNv6dzlNxybBXl8My50dMMYO7nKf7xjWvA794t96Xv/av8JWnCQb8wZ++IREjQL6QyIM0ogIVSAYoH/v3r0qg59QmBnnzFgmpCeM5r0TJ050WIvQtuXJkydqw1/CRsJfZqrzOg9XoJ9WOwTaBNCE9VlZWWB2uHYQDjOTnGXRnofZ4aybZfI67Yj69eun9iEgEKVVEfclyMjIUJnobOPNmzdVdjzbzqO8vFytLmCWPcsjlNYyzmltc/fuXZw/f14BVpanHayTmfaE5OwfgTbbopWrPef8SfDNrHZC8ri4OBw4cEBNlDQ1NanH2Jh0R5sAACAASURBVN9p06YhJiZGlcnnjh07plZgrFy5Eo8fP1Z2SbRgYXs5YcD6Dx06pPqgrQJgYdSS73Mi5cyZM8q2xdnKiFouXrxYgXtqoNfrVb/Zd27cygx8ZuXzZ560amKfCZy7A/0slys+Ro4cCVoVUX8e/OSKi+3bt6tyWZ+7g/1g9jknbjiZxDhoB/XlOOKECHXnhtK0oNImDthW6lNSUqImSzhWqDPL4T0e1Jvlsxxm3GsaUi/ndtHKiG1mHayLMePKis4xpg3V9evXcenSJdUW9pUrM/h7MmDAALVqgm3S+sFxcu3aNTWhw9hwHLEu7WBfGGvGnnWzjZxMmzhxooB+TST57FYBAf3dyiM3g6GAgP5gqC51RqMCAvqjMerSZ1HAMwUE9Hummzdv2fITYNjyoceQ3Tmz39V349Z+sFfnwHxhicfWQK7Kfebaot/AHLcFjrbQsk/wJi7ybu8VENDfe63kSVGgrwoEA/Qz05wgnZCd4Nf5YLY34SYhJUEoASaB9ezZsxUcHjdunILYhO48OoN+QtcVK1Zg2LBhKhOcQJxZ4bSKYWY0QSih9fjx49V9ZkrzO+1hCEWZcU7LnrfeeksBUUJWlknIy3YQsnN/grFjx6rvBLg8CGd5j5sTs41HjhxRMJcTDnPnzlX3li9fDma50z6FUJf9u3LliiqLliicYGDdbAutjTqDYFURoMqilQ0z2wnuWS/tcgjqCYEJfz/55BO8//77SjdCXsL4N954Q8F1TjhwVQXbxVUVrJdt43dmylNzTkYQRnMTVurD+9SV4J3XqAkPgnBmiBMmazBea+c333yj2sV9DjofPYF+TgYQ9H/66acqJvxZOzgpxLaxr+5WcXCyY9myZUoj2kwxXuyDtgqCwJ46s8+E3xwnjA0nWjgpxJUQ8+fPV+8z3tSZsaXOnBxgXzkBRasi6sgyVq1apbQYPny4muxh2zjeqD91mzp1qoL1rIdWR3yfB5/hZATtohgnxpPt5e8Hxzm1+stf/gKWy0mwqqoqFT+2mZMljB/7we+cVOHvDvVimRyzfI6TLuyDZpElGf3aaJLP7hQQ0N+dOnIvKAoI6A+K7FJpFCogoD8Kgy5dFgU8VEBAv4fCefiaw26H6fwi/wH4hc8hIKBfefV/BFtlJgDfbbbooazyWoAVENAfYMGluqhSIBign3CcUJKwn/CVYJqZ5Z2hPzOmCTl5EkwzY5xgXLP3YWZ1Z9C/e/duBfkJRJnBzCxtvk/Qyix7QlJCUUJrQtSysjJVBuE1gTSzpAniCdIJaGndQ1shAl76y+fm5qp2EPbyWmxsrALOnEhgfwhr+TxBPp8lHGYfCe7Zx127dql9CZjVTejM7GrCXS27nm0g7OcEBMtwdRAEv/nmm2qDVJbBfnKvBPaLAJcQnBMH1JgTF+wT20dozkkW9okxoCYfffSR6ifbRt92vseJiszMTNUPQmlmofM+oT7hMfusbcDMfhBgc8VC58Mb0M+yCK0Jpnlu2bIF8fHxKn5a1n3n+rSfOVlEzRkLtovt5uQFJ3w4AcNJCsJxTlCw/RxX7LsG/jlJQF3Zd2bSs8/sPyeCCOAZL20FB8cAy+UYZj2JiYlKV4J/6sx3GE9Cdo43lsOsfQJ4jjOOcb7DWFEvrijhyfHJscE+cxKpf//+2LZtm4ol48v7bD/LYpksmxMOhPqcQGBbOPY4QcaxxXHOSQz+7rButqsvB8cALbLEo78vqoX/swL6wz+GEdcDAf0RF1LpUIgqIKA/RAMjzRIFQlABAf2BDQoz7Y07B0C/6Pnwzuhf+Bz0i38Hy8MjcJiiY/O9wI6U0K5NQH9ox0daF94KBAP0MxuaMJXwltnihKWEuQTPe/bsQWVlpcpmJ9BlZjVBNaE+wSlBNsEq4T1/dgb9XAlAuEkQTvjJjGqehKDM8CfsZtkEpIS4tITh5AIzqmtra1XGPzOh+Rzva5noBLLMpubPWmY5M94JUZnRTSjMiYW3335b2QVpExa0cmGGPCcFWAcPQlq2h20nwOWEAkEys8jZVr5LoKutMHA1utg/lkvbGC3rnxZFhNDsE4958+aplQ8akCeI1trC+5wcIPBl+/mdB8viqgDa7RCAczUCvzMzns+wfbSkoVaavQ+1ITTnpEbnw1vQz5gTghOSMx5sC8cJAThXJWhWRZ3rZbY+dSWc1mJBuyECcEJ+TvhwzHFSSLPYYd8Zd75HrWiDwzoZY44lHuw/JxCoGWE8J29YDqE7xygPxpErLRgjwnXGhWOHZXI8swyOHa4yYIyo29atWzFixAgVO7aDJ9vJ9nLVAscd+84xxoOTMBzPHCfsF8tk2RxPnFQg/OcEz5AhQ9TEhjYxwmfZNv6eCehXUsr/9KCAgP4eBJLbgVdAQH/gNZcao1MBAf3RGXfptSjgiQIC+j1RzfN3LKmnYVj/t75D/sW/g37Zi9Ave6nH07hjIOw1uTBfWQn9mr/0+Lwqk+V7sDGw6ex8OJorPRdE3gxLBQT0h2XYpNFhokAwQD+lITAn9CaIJnQknCT8ZNYwPwlJCTwJZZkdTYDJrGfC7Ndff109Q7jqDPoJ3AlMaVFDIEzQyZNlvvLKKwqMsk7WRYjLDHdCf2bqc8WABoU7g35my2tZ7s5hpVUL28X2E8J+8MEHyvdfe4bZ+wTHzMp2dRBEc3KAWfVaW/n5zjvvKOsdd+8RIlMHTpZoB21e2Bbtnd6Cfk6YUBPt4KTEwIEDFTRmZjxhOLPAqScBN9tM6M/4aZMdBPquoLu3oJ9tIqTmygauQKD3PSdPCN/ZRmbnO+8XoPWBwJv3OYHifHA88SB055hgWdo1XufkBq/T2ol95HhjjDmxoR208eEkDFcAMO4E/QTumm8/n6MtD4E6s+q5UoS2O1zt4RxjWkNxworjlxMljB0BvnY4t6sz6OeKEY5djhPWr5XLOl599VW1QoN959ijFtrBMtkf9ktAv6aKfHangID+7tSRe0FRQEB/UGSXSqNQAQH9URh06bIo4KECAvo9FM7D1wwXlqJt+ct9Bv2mcwtgy70NW8mjHk97ZRYcZgPsDaWwl6X1+DzLNF9YDMOqP/W5XW1b+8NWle2hGvJauCogoD9cIyftDgcFggX6O2tDoEugSpBK2Epgzex9gnh6pRNA04KEVizMTOdkQGfQzyxrZjrzHYJvAl3nk5MKXE1AQM1nuaEubWgIWbUsdrajt6CfbeCEATO7Wd+AAQPUJILWN/r6aysBtGvOn1y9QDhLmx7ndvI7s+mZ9e/qIOinhYq2PwCfYf3M1NYsdHoC/cxSZ0Y/vdu5EkI7aI1ESM7NZwmGeY9QmHsVcFKA8Jgb/XKSgRnnzK4nVGZWeefDF6C/c5mcjCGE58oNxplt6Hwwrowns/5dHdSXExedJwK4iTJjSC2pD4E4++ysD8cnLZLYf+pCyM4JHW1lAOsj6KdtEFcFcBLp448/VsC/c4y58oBlc8UCdXQG/c7t7gz62T/uwcBxQDuezuXSVoiTGIwVf2+cD4J+bcw6X+/pu1j39KRQZN4X0B+ZcQ3rXgnoD+vwSePDSAEB/WEULGmqKBBkBQT0By4ADrsN+v0xaFv0mz4DdcvtbbA3VcCafgGWhD2+O5OPw9FaB8u9WBjWvN7ndrUufRHW4mTx6Q/cMAqJmgT0h0QYpBERqkCgQT+tSA4fPqwyjV1lgdNDnhnu9GdnljyzyQlsaYlC8EwY6g70MwOdAJxe5YSshPY8aTNDEEv7HJ7MAifw5z2+QwscAluuHOBkQ2fQT5DLlQIEs9pB4MysbQJdTiDQz5/Z1YTF2sHvzNombNUsfwh2uaKAgJowlsCZnyxPay8nIviz9o5WnvZJwEvYzskK7SCc5iQHs7159Ab0E/hyEoWrJ7SDVjNaP6g528J2sT2cWKG1D7PJGRO2m1n+XHXh6vAG9DN+1J1WRKzf+WAMuVEvteXkT+eD2facxNi7d2+HxRD7wkkQZtATnPNd3me/tIMaEo4TnBP0cwJo06ZNz6xWIOjnBAPtlzgRxXHDcli+dhD0c98CjguOdZbJCRRtzLE/Wow5pjkhxBUjmu0Sy+FqAI4TtoPt5e+BZt2j2VfR8oe/Q9q44RjnWOe44Tjg7wk3SdZso7gZNVdDcPKJk1N9OQT090WtyHlWQH/kxDJieiKgP2JCKR0JcQUE9Id4gKR5okAIKSCgP3DBsDdXwbBzYJ9hun7hczBfWwNbdQ5Mh8fAsPYNn53GHQPAfQPMcZthWPWqB217Xk0+wPr0P6gDp6jUFCwFBPQHS3mpNxoUCDToJxBlFjkzrplNT8hMAErgSpBOoE5IS5hJkPzZZ58pwEmASd9yWqHQmocgm/79ztY9BJ47d+7ssGUh+GS5zEantzrLZBY2rXgI5jnpQNBKaEsYy3bRxqYz6Ge7CHQJfTkRQHBKmxdCevaBAJXlER5roJ1jR9v4l2CeWehsi1Y236fVEAEvJwsIpwlomY3NLHICYudMcuexyPJoH0OQrB2E1Kxfm2jgM9SSdjdsL6ExM/UJ6gmZCZAJ+mk3xKxwxoUrCAiCmV3OjHXqT60IoHmfcWL7NdDPdlJXQmlXR0+gn5rSWobvO5+MC/dS0KA0JxWoO+PLe/yZbdA2xe1cN+POfQUI5Nl/vkdd2F/CcsaFExzUnve5GoH1cdJCy9Znewj6Od5Yp3ZooJ9jieOGmhOCUxvtIOjnigPGh+ONKy1oz0PNGWNep68/LYIYC7aBbeP44vgjvCfEZ4x5j/sUEPRzPwROUrE9nOggsOfKD/aP73DCgJpzkoTjjf3TJoQYP044cVNfAf1apOSzJwUE9PekkNwPuAIC+gMuuVQYpQoI6I/SwEu3RQEPFBDQ74FoHr5iLbwPw5YPPIDpzym/fVtlJoy7vvDofU4WuDoN696EvSID5hsboPfAukdNQtzaCkdbo4eqyGvhqICA/nCMmrQ5XBQINOgnWCfoJCTWvN+ZQU7QTvhPMMmNRAlrOQlA2EvYT/hP8MkMZQJeAkuWQViq+aoT2HIygJn5LI/WKwSoWnY3vd6ZwU/LHMJOnoShzHxmBjYz+wnFNRjPTGoehLHMdCew5UkAzPJpucKsesJbtoPgWgPtfI/t4c8E57zHjHv2hXYuBPqEwwT+XIXA+2wLnyFw1uC6q3GkZfR3B/oJtAnDeRKmcyKBEJtgn3Ce9i/UhhoRevMeoTX7RZBO/fkO+8i2UUM+T62oL7UizKaWfNbV0RPo514L77//vrLLoWWOdmqTMJzE4YQO48uxwnZo44R9IGgn5O58cIwxY50rLvg848yyqRv7xBhzJcCsWbPU6gXqro0FriThpBJBP/dBcAX6GU/W7Qz6CdK1wzmjn2VxokmLrVYXNSfEZ1v4DOPFscUY8PeBvwuclOF45bjlKhVqxfe4qoUTDewP+8fxyHc5scG6OBHAsXXmzBl1nxNSjB0nB/jJ5ySjX4uWfHangID+7tSRe0FRQEB/UGSXSqNQAQH9URh06bIo4KECAvo9FM6D1wxJJ6Ff95ZL4O4Kwjtf48a6oQr6207Nga2pwgNF5JVwVUBAf7hGTtodDgoEGvRTEwJw2sAw25lQn0CSMJoWMMxEJvjUnmMWNKE0PeOZWc+MZ2ZfM8uZwJPZ2QSuzPgm4CV0JxjlfZbJk1CX2fGsl8+wDF6jRQuznAnbCew1Gxe2jUDYOZObGdNsL7PfCVMJ4tkODTSzfmbBE8w6H4Tg9NJnXfSE5+QB28e28OB9Anv2keXyk23RNHAuS/vOjG0+4wzY2Wbn+tlfgnK2lxqyb6yH7eB1akboy/0BCO1ZL7XgpsRcocCDfePECbPGeY8n289+s3zuo8B4UVNXByczGCNnHbXnuBqD8aaOnU++RwBOWM3JHgJxAnhOprD9/NlZe61M50++y34ztlyZwJUWrJPXeRDMs+2ciOHEBp9jzDmpw4N6MW6sn23RDk4A8Do33+VJzdkWjjvt0OKjxZDPsWyuqmBdbAvrdp4coEaE7xyvHOuMCccSteVYYV+oAce1ZtfDtjE2fJ5xZkyZ8a/Fg2VSK+0+28Bxk5ub63ITY639rj7FuseVKpF/TUB/5Mc47HoooD/sQiYNDlMFBPSHaeCk2aJAEBQQ0B840ZuubkHLytd6Bv2rX4Vh4zvt9jyr/wzD6j/DErep3brn4Cj1M68Z1r8Fw6b3oF/6Qs9lMqN/6QswbPw7DOvfVH78qoztn8JelQ3LnR0wbH6/vew1r8Ow6V3oV70G/aLf9lh2Q+wIWGoKAyek1BR0BQT0Bz0E0oAIViAYoN9ZTkJMQlUCWA1QOt/ndwJnPqPBcV7jd2e42vkdrVzCVFfP8Rrr5H2C3M51d/6Z5fMan+/cFq1uV+9o77Eud+/xGa2P/HRXjlaPu8/O71EDlufcf7aD/SWwJuhn1j3BsaaF87NaPXye/eapxYDPadppz7n67Nwm52d4z9Xp/Iz2nW0gOO+rPpqufN/Vwft9Lbe7Prmqg9f4jjYG3PVB05S6uooD32M/nOvnz9rvj6t3tDJZt3bf+X137e18XUB/Z0Wi42cB/dER57DqpYD+sAqXNDaMFRDQH8bBk6aLAgFWQEB/4ASvO7sSumWv9AjOzXe2wVaaAntZGuxlqep0NFXAYdbDXpPbcc1eng5bRQaMOz7rsUyuDjAeHA1bzi3Yyx8/LbsyS5XraK5UFj7t9aWp75a7O0FrH+eVBa6+V28eCFNlbuCElJqCroCA/qCHQBoQwQoEG/RHsLQh3TVmt9O2h17wrjLuQ7rx0riAKyCgP+CSh0SFAvpDIgzSCGcFBPQ7qyHfRQH/KSCg33/aSsmiQKQpIKA/cBGtPrUMzUtf7hGcWxIPwN5UAeujk7Dc3ub2tObegaO1HsbdX/VYpgL9h8bAXl8Ma/ZNEOK7LTthDxy6aliTjqpVA67gvvO1yg2fwlSREzghpaagKyCgP+ghkAZEsAIC+iM4uN10jXCfVkK0gtEsZrp5XG5FuQIC+qNzAAjoj864h3SvBfSHdHikcRGkgID+CAqmdEUU8LMCAvr9LLBT8ZUnl6N5ac8Z/Za4zbBXZMK0f+RTm55vLXyU3c63383X1sJeWwDj7sG9Av2G2MGw1+bDfGkZDBv+5r7sLR/CXpmpJgMMa17vsezy9Z/CKKDfKdKR/1VAf+THWHoYPAUE9AdP+2DWTAse+rnT51+zdAlme6Tu0FZAQH9ox8dfrRPQ7y9lpVyPFRDQ77F08qIo0CcFBPT3SS55WBSIagUE9Acu/GVnN6Jp2as9gnPLjQ2wlz2GcceAbp81X1isrHyMsb0E/Tu/gL0mD6Yzc6Bf9qLbsg2rX1P1M+OfEwvO2fuuvpdu+RqGyvzACSk1BV0BAf1BD4E0IIIVENAfwcGVrokCPlJAQL+PhAyzYgT0h1nAoqG5AvqjIcrSx1BQQEB/KERB2iAKhIcCAvoDF6fi6wfQuPKNHsF5uIH+ot1Toa8pC5yQUlPQFRDQH/QQSAMiWAEB/REcXOmaKOAjBQT0+0jIMCtGQH+YBSwamiugPxqiLH0MBQUE9IdCFKQNokB4KCCgP3BxKk++iZrV76B1wXPdwv5wAv2Nc3+F4pNrYGiqC5yQUlPQFRDQH/QQSAMiWAEB/REcXOmaKOAjBQT0+0jIMCtGQH+YBSwamiugPxqiLH0MBQUE9IdCFKQNokB4KCCgP3Bx0lUWo2T1x2ia++suoN+452uYjk+B6fhUWNMvwV5fAvONDepnXjOsfQP6Rc/DuOMzmI5ObH/u0QnYmythjtv89Ln1f4N+0W87yjds/DtMh8eq++abG+ForoLl4RGYTs1S14w7ByobH8O6N2E6NLq9nHMLVP3WrGswn1vQ/hz3AVj+h45yNQufkqm/QE38SViNhsAJKTUFXQEB/UEPgTQgghUQ0B/BwZWuiQI+UkBAv4+EDLNiBPSHWcCiobkC+qMhytLHUFBAQH8oREHaIAqEhwIC+gMXJ5vFjOy1g1E3p2tGvzX1DOz1xbA3lMKhb4LDaoJDV61+5jXjvmHQL/4tzLe/gb0qu/25tgbAZnnmOdORCdAv/X0HkDedmAZbSXL787rq9ufb6mFvLFPXLPdiYVj3VwX5bUUP2utrKgdYv6EZjqby9ueSjsKw4e2OcjXQnzXpOTQ/SYDDYQ+ckFJT0BUQ0B/0EEgDIlgBAf0RHFzpmijgIwUE9PtIyDArRkB/mAUsGporoD8aoix9DAUFBPQHJwqVRXrEn6/BreNVcnqhQW6KDmajQMNAjWIB/YFSur2exztmonr+C12Aua0gAegGlhsPj1Wg35J0DA5Tm9tGm07Pgn7p0/LN5xeqLH53L1hSz8Cw4W8qa5/w391hzb4Jw+b3nml324JfI2Xu22guynD3mlyPUAUE9EdoYKVbIaGAgP6QCEPQG6HX6/HkyRPcu3cPqampaGxshMPhUO2yWCyorKxEQ0MDdDodMjMzcf/+fXXNZrOpZ0wmEyoqKtDU1KTOx48f48GDB6ipqYHdLv8/O+gB9rIBAvq9FDBMXxfQH6aBi+RmC+iP5OhK30JJAQH9wYnGg6u1WDQoFdPfS5LTCw1Of1OC1iZLcIIYhbUK6A9s0J9c2Iu8ea+hed6z9j3hCPrLp/8SaZvHo6WqJLAiSm1BV0BAf9BDIA2IYAUE9EdwcHvZtYKCAqxatQpjxozBzJkz1ee0adOQnJwMgvz6+nqsXr0aK1aswNKlS8F7I0eORExMDK5fvw6j0YiSkhJ1j88tX75cPTN8+HBVFicPOFkgR/gqIKA/fGPnTcsF9HujnrzrFwUE9PtFVilUFOiigID+LpIE5MKdM9WY9LcHGPb7e3J6ocHBlQXQNch/fARk0AIQ0B8opdvrqc17jPiZf0fVzF8+kx0fjqA/cfhPkHt+F0xtusCKKLUFXQEB/UEPgTQgghUQ0B/Bwe1l12JjYxW4P378uMrqj4uLw4gRIxTcr6qqAs9x48bh7bffxq5du1TGf2Jioro2YcIEZGVlITc3FwT7H330EQ4cOABm9N+5c0eVO2vWLHAyQY7wVUBAf/jGzpuWC+j3Rj151y8KCOj3i6xSqCjQRQEB/V0kCcgFAf2+meAQ0B+Q4dpRiYD+DikC8sVqMuDeuonIn/ZbtMx/mtUfbqC/btavcGvS66jOfACHvd0mICACSiUhoYCA/pAIgzQiQhUQ0B+hge1Dt5iNT1hPWx4eZrMZS5YswZQpUxT4r66uxvjx4xW0J8CnpQ8z/Q8dOoQvvvgCN27c6AD9fIfQn89YrVZs374dQ4YMUZZAfWiSPBpiCgjoD7GABKg5AvoDJLRU03sFBPT3Xit5UhTwRgEB/d6o5/m7AvoF9Hs+eoL3poD+wGtfdO8iEqe/jtpZv+rI6g830J86+r/xeM9C6OurAy+g1Bh0BQT0Bz0E0oAIVkBAfwQHt5ddozUPs/g3bNiAqVOnYuzYsSp7f/To0cjIyFA++wT9ixYtQnl5eUepfOezzz7DmTNnFNznKgCWQS9/7Th79qyaDLhy5Yp2ST7DUAEB/WEYNB80WUC/D0SUInyrgIB+3+oppYkC7hQQ0O9OGf9eF9AvoN+/I8w/pQvo94+u3ZVqamlC3OKvkDnhVx1e/eEE+ium/xJXR/4O5clxsFvFZqu7WEfqPQH9kRpZ6VcoKCCgPxSiELw2tLS0YOvWrQrub968GRcuXMCtW7dASx7CfWfQT+992vhox927d/Hpp5/i1KlTyMvLU3Y/W7ZsQXNzs/YILl68iM8//xyXLl3quCZfwk8BAf3hFzNftFhAvy9UlDJ8qoCAfp/KKYWJAm4VENDvVhq/3hDQL6DfrwPMT4UL6PeTsN0V63Ag68JeXIp5CcVTfoG2Bc/BeHg8zBeXuj0NG96GftHzMO4dAvP5he6f2/w+9It/27FSwLj1I5hPz3H7vHHfcOiX/wGGTe/CdGqW2+dMB0fDsOIVNTFx66sf4+6acdDJJrzdRTmi7wnoj+jwSueCrICA/iAHIMjVE+QPHToU69evR2lpKQwGA9ra2jB79myMGjXqGdA/d+5ctemu1uSrV69i0KBBCuLn5+cr0M9NfWtqarRHcOLECWXdw+x/OcJXAQH94Rs7b1ouoN8b9eRdvyggoN8vskqhokAXBQT0d5EkIBcE9AvoD8hA83ElAvp9LGgvi9M31ODG0hG4OewXqKGFz7IXoV/+Mgxuzg54v/SFdjDv9rnfdUB+/cLnoF/yu+6fZ3mLnod+MZ97yX396rnfgJY950a8jJLEa7CZTb3srTwWaQoI6I+0iEp/QkkBAf2hFI3AtyU1NRWDBw/Gtm3blEc/vfcJ5QcOHKg2101LS1Pgnhn+H3zwgdpg1263w2KxYOPGjRg2bBi4MS9B/8iRI5VNT1JSkvLo56TB0qVLMWbMGLAcOcJXAQH94Rs7b1ouoN8b9eRdvyggoN8vskqhokAXBQT0d5EkIBcE9AvoD8hA83ElAvp9LGhvi3M4UJl+H+fG/w3Jo/4bjXOfbsyrAD0hfYidXH1w9vOfIu3oJhibn/r99rbL8lzkKCCgP3JiKT0JPQUE9IdeTALZosbGRixcuBADBgxQn/y+du1aMHu/X79+alPehw8fKisfWvDMnDkTq1evxoIFC9C/f381QUCPfw30f/XVV5g3bx7WrFmDOXPmKGsfQmJto99A9k3q8p0CAvp9p2U4lSSgP5yiFSVtFdAfJYGWbgZdAQH9wQmBgH4B/cEZed7VKqDfO/28eZsZ8RlnY3Fm2IsqU74phGF/6bRf4OLAH+L2yjFoKs2Dw273puvybpgrIKA/zAMozQ9pBQT0h3R4/N44ZucXFBQoi51du3apz8zMTGXRc/nyZeWxn56erkA/N+O9fv06jh8/jp07dyrLHnr2a2Uwo5+TBPT4P3LkCFjetWvXUFtbqzL8/d4ZqcBvCgjo95u0tovDWgAAIABJREFUIV2wgP6QDk90Nk5Af3TGXXodeAUE9Adec9YooF9Af3BGnne1Cuj3Tj9v3zY01+P2uik4/vkvkRKimf3FU3+Bi5//EGfG/BXlj+7AZjF72215P8wVENAf5gGU5oe0AgL6Qzo8AWmcw+FAa2sr6urqwM15ad/Dg9Y7vE6YP3HiRJWlz+/cbJdZ/EajsQPgc7KAoJ8TAFwl0NTUpJ4xmcR2LyBB9HMlAvr9LHCIFi+gP0QDE83NEtAfzdGXvgdSAQH9gVT7aV0C+gX0Px0N4fNNQH/wY9VYnINrS0bg2ICfITnmpyFl41M4+Re4MPCHODH8T8i9cQJmfUvwBZMWBF0BAf1BD4E0IIIVENAfwcH1Udc4AUDQT8seZue7OgoLCxETE4MdO3aoyQJXz8i18FVAQH/4xs6blgvo90Y9edcvCgjo94usUqgo0EUBAf1dJAnIBQH9AvoDMtB8XImAfh8L6kFxtMFpKHqC68ticGzAz5Ew7CeonfUrtC0Ink9/6/xfI3vCz3D2sx/gZMyfkXv9BEytzYDD4UEP5ZVIU0BAf6RFVPoTSgp4AvqZ6U2LFvq60489Nzc3lLokbfGxAszy3717N86cOaOy+V0VX1NTo/z6r169qlYCuHpGroWnAlarVdkwcYPmqVOnIiUlBfeKbuHDvX/Bfy75DuZfm4bqlsrw7Jy0ulsFBPR3K4/cDIYCAvqDobrUGY0KCOgPTtQF9AvoD87I865WAf3e6eertx0OOxpLcnBz5TgcGdBulZM78efQzQ/8Jr3VM3+J+KE/wbGPv49To/+K/LjTMLfpAAjk91W8w70cAf3hHkFpfygr4Anop7XL9u3bMWjQIAwbNgwJCQkddi+h3Fdpm2cKMN7M5Kclj2br07kki8WC6upqNRFAz345IkeBkpISLF++XE3scZ+GnJwcAf2RE95ueyKgv1t55GYwFBDQHwzVpc5oVEBAf3CiHuqgf8RL8Rj1SjxG/iEew1/wDZQf9nvfl3NwZQF0DZbgBDEKaxXQHzpBpydvU1k+7m2ZjQMDfo2jH38f8cN+AoL3QGT3t8z/NbLG/UxZ9ex7/7s4N+VDFMVfhFnfGjoiSUtCQgEB/SERBmlEhCrgCeinFHFxcWqDVmb50tKF1i38d0UOUUAUiBwFuJrj6NGjav8FruA5ePCgmsyRjP7IiXF3PRHQ3506ci8oCgjoD4rsUmkUKiCgPzhBDxXQP/a1+1j4eSq2zczG6W+KkXCxBunxjch60IQnD9vPzMRGPLpZhyv7y7F3ST5WjkjH5LcfgJMB/oD3fSlTQH9gx6+A/sDq3WNtDgdaasqQfeUwTo9/Bwf6/QjnBvwASSN/iorpv0TrAt9n+DfO/RVyJvwMN7/8EY70+x4ODHgOCdvmozrzIaxGfY9NlgeiTwEB/dEXc+lx4BTwFPQzw3vNmjX44osv8PXXX6uM35s3b6K0tFRt6srNWuUUDWQMhOcY4OqM1NRUZdkzduxYcEJv8uTJePjwIbhiQ0B/4P5GB7MmAf3BVF/qdqmAgH6XsshFUcDnCgjo97mkvSowmKB/1B8TsHZ0Bq4dqkBmYhOKn7SiptQAXYMZFpPdZUaXzepAm86K+koTyvLakJeqQ+LlWuxZmIcpbz/A8Bd9n63fG+AvoL9Xw81nDwno95mUPi3Iom9FTXYK4r+ZiwMDn8eBD76Hk/2/j1tf/xi5E36Gprm/gn6h5x7+bQt+rSYOkkf+FBcH/hBH+30Pu9/7Li7M6I+8GyfRWlsBu83q0z5JYZGjgID+yIml9CT0FPAU9NPCJSMjAwsXLlSwf/DgwRg3bhxmz56N+fPnyykayBgI4zHAvTfoxz906FAF+fm7fenSpY6NlgX0h97fcn+0SEC/P1SVMr1SQEC/V/LJy6JArxUQ0N9rqXz6YDBAP7PwYxfk4uG1OpTntUHfYoXD7oCxzYqy3DYkXa9D6p0G6BrN6rrWYYvZjvzHOnW/IL0Fbc3t7/F6XYUR2UlNOLOtRK0MiHk5sFn+Avq1KAXmU0B/YHT2pBb69hO45986g5srx2L/gOex5/3v4Wi/7yt7nTtDfoyUUT9F/sSfK3uf7rL9mbVfOvUXyBz330gc/hNcG/QjnOr/AzWBEPv+D3Bm4nt4dHgDanNSYVFZ/GL34EnMouUdAf3REmnpZzAU8BT0s630ZU9PT8fGjRuVVz+tPeQUDWQMRM4Y4IodTt5dv35dWfZo9lwC+oPx1zrwdQroD7zmUmMPCgjo70EguS0K+EgBAf0+ErKPxQQS9I/+UwL2Ls5DRkIj6sqNIKAn5E+Jq8fBFQVYNzYTS75MU99Lc9tUVr/VYkdTnRkmgw3M5m9ptCDueCXWjMrAqpHp2DU/F3dOV6Ox2qTu0yefKwMu7yvHzI+SMOLFwAB/Af19HHhePi6g30sBA/C61WSArrIYZcm38HDvSpwc8xZ2f/Aj7Hnvuzj44ffUprmnP/2ByswnwL/x5Y8Q99WPlRXP9cE/wuUvfoizn/0AJz75Pg5/9D3sf/+7iH33v3Bg4G9wY/lo5Fw7itq8xzDqGuCw2wLQI6ki3BUQ0B/uEZT2h7IC3oB+9ouwv6qqSll6HD58GJs3b8b69evlFA1kDITxGODk3a5du3Djxg0UFBSgra3tmRXbAvpD+a+679omoN93WkpJPlJAQL+PhJRiRIEeFBDQ34NAfrodKNA//7MU3DpRhdoyowLy1aUG3Dhaic2Tn2DOJ49Aj35utsvPtDsNahKgMKNFTQwQ6G+ckIX7F2tg1NvQWGNS/vzcoJf2PzPeT8KqmHSc2V6CoqwWcHKgrdmCrMQmbJnyBJxg6I39jjfPCOj30wB1U6yAfjfChOBlh80GQ2MtanPTkHP1KBJ3LcbVhUNwfOTr2P3hT7Dznf/Crnf+C7Hvfhe7vz35ndd2vvNdHPjidzg3tR9ur5uCtGNb1MRBc0UROJEA2bAxBCMeuk0S0B+6sZGWhb8C3oJ+TQGr1YqmpibQ25vgX07RQMZAeI+Buro6GI3GZwC/9vsuoF9TIrI/BfRHdnzDsncC+sMybNLoMFRAQH9wguZv0D/qlQRl05Od1AxDm01l8F8/XIHVozIw7d2HIKx3BuwbJmahocqkMvc3T8nCmFcTMOyFeyozf9ZHych51KwmCrgh78Q3H3S8y0kC/rxoUCqObyhCbZlBTRZUFRtwaW85ZnyQ5Ff/fgH9gR2/AvoDq7evaqO9jr6hGk1l+cpuh9n+2ZcPIe34Vjw6tB5x2xYhce8qpBzZiIwzu1B47yKqMh6gvjALLdWlMLU0wW6T7H1fxSPayhHQH20Rl/4GUgFfgf5AtlnqEgVEgeAqIKA/uPoHqnYB/YFSWurptQKhBPptxhZYdbWw6mo6TjjsbvtiN+th09V1POv8Hr93t9TdbjZ0/243m93ZzUaP33VYjLC1dNNmq8Vtf3t+1+z+Xauph3r5rmvv357qtVtM7t+1mnuo1/N3u63XZoGtpf6ZsWE3tgY1O1JAv9vh6dcb/gT9Y/6UgPM7S0HYTtudwswW7F6Yi+nvJWHES88Cfg32n9hcjNZmC9LjG9Vz2nXt80JsmZosyExsxPT3kzpAv3afnxPeSMTasRnKEoiWP61NFjy6WYd5n6X4zcpHQL9fh2mXwgX0d5HErxcaGxuRnZ2tllx7W1FCQgIePHigPFoPHzqEvOwsGHWN0DfV4fiBvSh4kq7seMxtOti7+TffuR2FhYW4evUq6uvrnS/Ld1HgGQUE9D8jh/wgCvhUAQH9PpVTChMFokIBAf1REWYI6I+OOIdVL0MJ9Ddc2Yiy1e+hdPlbHaeh4CHMlTkuz4br36Bszfsdzzq/x+/63ASYKrNdvtsYtxNlaz9w+27bkzswVbh+t+nOXpSt/dD9uxk3YKkvBVx46rZl3kT5+o/dvmuqeALYXU9u6HPuoXzDJ27fNZakuZ3cMOQnonxjf/fvFj2Cw251OXYNeQndvqvPuw+HzfUEhaHoEco3fdZNvSlu6zWVZaB88wC37xq6qddUlYuKzQOfebfp9m7YTW0u+xiIiwL6A6Fy1zr8BfoV5N9Vqmx2TEYb4k5UYsXwxxjz6n2Voe8M5p2/n/6mBG06K9JuN6iMf+d7/H5uR6m6n53crCx7Ot/Xfh75Ujzm9n+Ek5uK0FBtUh7/qbcb/Ab7BfR3HVv+vCKg35/qdi17//79iImJwd27d2EycQLa84NerSyvtrYWt2/fVvYM3JSNS7sXL14MTgSYze4n5rWai4qKlJezTqdT1g6PHj0Cv8shCrhTQEC/O2XkuijgvQIC+r3XUEoQBaJNAQH90RFxAf3REeew6mUogf7qfeOQM+LfkP31P3ScxQteRvHi11ye+VP+G9lD/6njWef3+L1o/h9cvsfyCqb+vPt3573o/t1pv0ROd/XOfQE1h6fBbuj6H+RtmTfUBEPJktfh6jSVZ7mcIOCg0mffURMMrt7jNWOxe9BPGF+27iOXdfJdQ1GyW+Cuz43v9l3edw/6k1G2vl839bqfYDCWpaNswydu39Xnua+XoJ8TG+xbzoh/VWOk9uQ82A3NQfv9FNAfHOn9Afo7Q/7zsaWY3S/ZbRa/Buf5uWlylpocaK43K3sfZ2ufSW89QNbDJlgtDlw7VPGMdY9zGc7fJ/41UVkH1ZYb22H/Lf/AfgH9gR2/AvoDpzez+adMmYLp06djy5YtCqqzdrvdjvT0dNTU1CAxMVFl1JeXl8Nms4Hv5Ofno7i4GHFxcWqCoLm5WfmzsgzCfvov379/XwF+gv4rV65g9OjRWLJkCXJzc0GfZh4tLS24d+8eLly4gIyMDOXzSv/m2NhY9SwnBkpKSlRbWltbVR2lpaVq4zeWye8si2dWVpaaYOCKgsuXL3fcC5yaUlMwFRDQH0z1pe5IV0BAf6RHWPonCvheAQH9vtc0FEsU0B+KUYnyNoU66O8M78Pl57J1H8LW1tBldNn0TTCVZYLZ965Ou0nv1gbHrm+Gqbybd7uxpuGkg9/e5YSGmw0DaZfjcb2mNnDiw5VOvKYmUtzVazbAVNH+bv255cgd8x8Q0N9lOEbFBV+D/piX43Fu59NMfkJ+WuyMeNG1VY8zlOd32u5kJxPm25GXpsP+ZflY+nUaNk7KQsKFGmXbo2+xKmuekS/3rkxu8Ltrfi6cYf/sj5PV5r+d6/f0ZwH9gf11EdAfOL0Jywnf79y5g4kTJyItLU1BfovFgpkzZ2LhwoU4cuSImgSYN28eaKPD7Pq5c+di1apVOHr0qHpm3759ylpHA/2VlZWYNWsWUlNTYTAYsHLlSnzxxRcYMmQIxo0bh5SUFDWpsHbtWnzzzTc4fvw4pk2bhuvXr6sJBNY7fvx4Bexv3bql6ifUT05OxrJly7B3714cPHgQc+bMUWVxcoDtW7p0qWrTmjVr1HN8R47oUEBAf3TEWXoZHAUE9AdHd6lVFAhnBQT0h3P0et92Af2910qeDJACAvqfrh7w5SSCO9AfoLBKNU4KtKZeQN6E7wvod9Ikmr76GvTvnJuDmjIjaNfTV8ivQfa1ozNQmt0Ki8mO+kojSrJbUVmkh1HfvpnviU1FakJAe743nwr2z3sK+68eLAdXCPTm3d48I6A/sL81AvoDozez4AnjT506BYJyQnICd1rk0F5n0KBB2LBhAwoKChR8HzNmDM6fP6+y+3mP36uqqlRW/6hRo1RGvQb6KyoqMHjwYGXVc/HiRZXNP2DAAAwcOFBNDCQlJYGTAdeuXUNOTo7KxN+4cWMH0N+8eTNWr16NvLw8Vf78+fPVd7Zx+/btqk2sW4P+XF3w5ZdfYtu2baDtT2ZmJoYPH64mLgKjptQSbAUE9Ac7AlJ/JCsgoD+Soyt9EwX8o4CAfv/oGmqlCugPtYhIexBKoL8t6yYK573UraWOL2G8P8sS0B86v1zmmkJwTwbu2eCweue97E2vxLrHG/U8f9eXoH/OJ4+Ql6pTG+/ePlmFmR8l9zqT3xmmx7ycgNUx6cqeh/76drsDZqNNba4bOz8Xk//2wKNsfML+w2sKoWuwoKXRgm0zszH6Twk+gf0C+j0fg568KaDfE9X6/g6teYYOHao89WnPs27dOmXjw6x9gn6Cemb8a576zLKn/z5tdphtT6scHg0NDWpS4OHDhyCgp3WPM+hndj0nBgj6eRLG0waItj3nzp0D73N1AMH8ggULUFZWpsrgc7QA4moDgn7WN2zYMJX1zxUHPI4dO6ZWC/Ae28sVAbyn1+tV37gCQI7oUEBAf3TEWXoZHAUE9AdHd6lVFAhnBQT0h3P0et92Af2910qeDJACoQT67WY9ytb1Q86w/+HWd9+fcN6XZQvoD9AA7kU13D/AZmiG3Wx0azHUi2K8fkRAv9cSelSAr0D/qFcScOtklcq6L85uxdKv0sANcZ0Bfl++892p7z5E3PFKGNpsyE5qxorh6QrMD3/hnsflTnzzARIv1Sq//oL0FswfkILhL3pentYnAf0eDT+PXxLQ77F0fXqR2ffMxGfmPO1zCNz79++Pmzdvoq2tTYFzftegOrPpNdBPX39m4vPgCgDa8rgD/Xzv888/7wD9s2fPVv75zObnPU4m0DKI9S9fvtwt6H/y5Imy/uG+AJrHP1cj8B1m8BP0x8fHK+sho9GIr776CvTr5x4BckS+AgL6Iz/G0sPgKSCgP3jaS82iQLgqIKA/XCPXt3YL6O+bXvJ0ABQIJdDP7pZv/Aw5wwX0ByD0UkWAFRDQH2DBv63OV6A/dkEu6qtMMLRasWters8y5U9tLUZbsxVJ1+sw9Z2HHgN+Dcjzc/HgVJTmtilroOtHKnxi4SOgP7DjV0C///XmJrvcHPfs2bNqY13a3fBcv349Nm3apDLuCc45AUBbH/rs01ufNjyE/wT3zLQncCekp60PYXtn6x5CfPr5a9n8/KTFDn3/6dtPSE8ffW7wO2PGDGiTAFwVwLJoz6Nl9NPGhxn/e/bsUc9zw+AVK1Zgx44dylqI7dXAPkE/6+GGwAL6/T+eQqEGAf2hEAVpQ6QqIKA/UiMr/RIF/KeAgH7/aRtKJQvoD6VoSFuUAtEE+nOG/TNyRvwrsod8BznD/0V9+jKL37ksyeiXX7DOCgjo76xIYH72BehXG+gmNSvLnpvHKjHl7w89stZxhvHad3+A/pF/iFeb/DbXm6FrNGPVyHTwmlanJ58C+gMzXrVaBPRrSvjv8/Lly8oOh/77zgctcLgpLzfLpd0ON7ildz43vaV9Tn5+vvLd50qARYsWqYmBCRMmYPfu3WozXtrtEMTTf5+2QPTTZ3nOoF+z7+EkwOTJk1W5mj8/7XvOnDmjJiBYB62AmLW/ePFi5cvPzX0J+7mBMK+xXbzGVQWsj6sKCPYJ+mnzo4F/5z7K98hUQEB/ZMZVehUaCgjoD404SCtEgXBSQEB/OEXL87YK6PdcO3nTTwpEC+gvmv8HNN74Bg3XtyB39P9Bw5UNyre9eMnrfrEKEtDvpwEbxsUK6A9O8HwB+rfPzkZTrRmNNSYsH/oYI7yw7OkM2f0B+lkHJycy7zfCarHjyv5y0NKnc919+VlAf2DHr4B+/+tNEM8MfgJx58NkMqnMfGbYM0Oe0J0Z+8yM56QA/fr5febMmWoj3UePHim4zhUCNptN2e7Qn18rhysCCNw7g35tc92MjAwF47kagNn7rIse/fX19aC/Pq+zraybvvusn5ZBBPg8c3NzVR9YN59tbm5W3WG2v/PPzn2U75GpgID+yIyr9Co0FBDQHxpxkFaIAuGkgID+cIqW520V0O+5dvKmnxSIdNCfP+lHqD25AIb8RFhb6mAqz0Te+O/BWJwCa0s9jCWpqD+/EgXTfoHsIf/os70BBPT7acCGcbEC+oMTPG9BPzPhH8XVw2K2K4/+SW95B8w7w3V/gX7Wc2B5vtqYt6bMiAUDU7xahSCgP7DjV0B/YPV2VRtBOa1v6HlPex7+rFngcOPeWbNmgVY6BOza9c7l0Oe/sz+/Bvzpn89MfJbtXIZzWc51di6b7/C+HKKApoCAfk0J+RQFfK+AgH7fayoligKRroCA/kiPcHv/BPRHR5zDqpeRCvpzRv4vVO4ajraMazCWpaP+0lq0pl6EqSwDeeO/D2NpOprjD6Hx+jcwlmei7cltVO+bgNwx/9cnlj4C+sPq1yAgjRXQHxCZu1TiLehfMewxasoMahPedWMzvbbACSTop+d/cVaryuo/tKoAY/983+OsfgH9XYaWXy8I6PervL0qnMCddjyE+Z2BemFhobLTYRZ/dwez9blprwb3O3+eOHECLS0t3RUh90SBXisgoL/XUsmDokCfFRDQ32fJ5AVRIOoVENAfHUNAQH90xDmsehlKoL854TAKpv/Ku8z6If+I0tXvQnf/KEzlWdAlHEbZhk+QP+nHaLy6GcbSxx2gv+70YhTOeA6E8oT+poonaHl0FuUbPmn38v/6HzzO8BfQHzq/BqbSdNQcno6W5DOwmw1Ba5iA/uBI7y3ov3qwAoY2G9LjGzD9/SSPQXlnwK/9fHZ7Cdp0VqTE1WPau77ZjFcre/gL93BpTxn0LVZkJzdjxgeet19Af2DHr4D+wOrtrra6urou1j58lrY8tPaxWCzuXlXXjx8/jhEjRrgF/fTZp82PHKKALxQQ0O8LFaUMUcC1AgL6XesiV0UBUcC9AgL63WsTSXcE9EdSNCOkL6EE+qsPTUFuzP/yGK4Xzvl/aLiyEcaSNLRl3kRlbAwKZ/2mw4Nf3esE+nNj/h05Q/8ZBTN+jcqdw9GWeQOm0sfKv79owcvqnvMmu739LqA/dH5BWh9fRsHUn6HuzGLYDbqgNUxAf3Ck9wb007Yn/7EOdpsDB1bkY8xrnmfEa/CdnzEvx2PlyHTlnV9ZpFeb/OoaLHh4rQ675uWC9kCE9M7vePp9+bDHqKswqhUJiwenelyugP7Ajl8B/YHV2x+1GQwGLF++HF988YVb0D9kyBCkp6d3WTHgj/ZImZGvgID+yI+x9DB4CgjoD572UrMoEK4KCOgP18j1rd0C+vumlzwdAAVCCvTvG4ecEf/WZ9BPz/2aozOgz72nvPdrT85H8aI/IUdNGnynozx3oF+D9zkj/yeK5r+E2uNzYCx6BEPBQ9SeWoj8yT/p8yoDAf0BGLy9rKI19QLyJnwftSfnwW5o36Swl6/69DEB/T6Vs9eFeQP6Z32UjJpSA6xWO5YNScOIF+O9hu9T332Im0crUZLdqjL5HXZHR18sJjvop58R34hVMemIeTnB6/rGvJaAkpxW5SH+zYxsjHrFszIF9HeEKSBfBPQHRGa/VpKdnY2pU6e6hfyajQ83+21tbe3SFtoFsQydTud2D4AuL8mFqFZAQH9Uh18672cFBPT7WWApXhSIQAUE9EdgUF10SUC/C1HkUnAVCGfQnzP831DxzZft3vsVWWi8uR2lq95B3rjvuvTZ7wn0a8A/b+x/oWT5m2i8tlXZ/zDLn6sDckf/H2R//XTiQHve1aeA/uCOa+faIwn0E/hw88YbN25Ar9c7dzMiv3OTyqtXr+LRo0cewy5vQP+myU/QWGNWHv2zP07GhDcSsWXqE5zcXIwz20qwY3YOJv/tAYa/2Lvse0L+e+dqoNdZoW+1IuV2PQjQt07PVpn8cccrVfa91WxHQUYL1ozO6DXs5+oDZu8fWVuo2rZ3SR44UcHryTfqwEkE2gSxD56sDvAU9DOGJSUluH79Ouhrzp8j/cjMzMS9e/dQXFzco7WLOy0E9LtTJrSuHz58GA8ePHBp73P69GmMHDmyR9C/YsUKVFZWdukYbYHmzp2Lx48fC+jvoo5ccKWAgH5Xqsg1UcA3Cgjo942OUoooEE0KCOiPjmgL6I+OOIdVL8MS9A/5DkqW/RXNd/d/66t/DhVbB6Fg6s+RPfSfOjL4OwP4hqubnvXoP7MEtO7p/Jz6ech3kD/5pyjf9ClaHp5U9egeHEfpmveRM/xfXL/j5OkvoD90fg3CGfRzM0j6QCclJeHAgQNYtmyZyhBdtGgRGhoaQkdkP7XEbDZj/vz5qs/0sqYGDx8+RFNTU6+tLrwB/ae2FKOt2Yq02/XYvSAXSdfrUFWkR3O9GbTaYbZ/5v2mdiDfQ6b8iJficfNYpcrib6wxKcA/77MUjH3tPngv5pUETH8vCevHZSIvTQezyY78NB3mfPKoR7sdbrp7/XAlip+0gmWzbbTryUvVYf+yfNw4UqHqZfv5rL9BPwFlQUEBLl++jI0bNypYOW7cOMTHxytvcz8Nl5Ap9tKlS5g9ezbmzJmj+n/x4kXk5+f3qe8C+kMmnN02ZNasWTh58qTLjPzy8nL1t/v27dvq79axY8cwatQorF27Frx29+5dNSH05MkT0OZHO+j/z4lcfn755ZdISEjo9d87rQz5jE4FBPRHZ9yl14FRQEB/YHSWWkSBSFJAQH8kRdN9XwT0u9dG7gRJgXAE/ZU7hsJQ8ACGvARUH5yMorkvIGf4v7qF7zkx/47K2JEwVWTDkH9fZfzr8+7DWJqOqt2jkDvq/3ObqZ8z7H8on/+qPWOgz76r/P+r9owGbX5cThB8C/sF9AdpQLuoNtxAP+F+bW2tgjt79uwBAfeUKVMwdOhQDBw4UGWHTps2DdwkMtIPgn72XbO4GDZsGCZPnozFixdj7969SqP6+vpuIZg3oD/xUi3MRjse3axTVjsWsx0N1SY8iqtX15pqTbBaHCjKasGyIY9V9rw7iL50SBqqSwzKK59+/+PfSHQJ8Ee+FI+Vw9NRnt8GZvYfWFGgJgPclTvhr4m4c7pagXxjmw1ZD5qQeLkWZXnt79dXGvHgaq26X17QBq5McFdWd9d7yugnlMzNzcX58+exfv16BbrHjBmDQYMGdcTv1q1bfYLd4Tq+z54925HJzf6PHj0aBMLr1q0D79GOhWCXv+vuDgF7QdhtAAAgAElEQVT97pQJrev8W8wNd1taWp5pGG13OMFDj35O0PLv+P79+8EJr2+++QZr1qwBM/k5kbl79271N58FJCYmqndWrVoFrhZ499131QQZy5NDFOhJAQH9PSkk90UBzxUQ0O+5dvKmKBCtCgjoj47IC+iPjjiHVS/DEfQ3Xt8KQ2GSsulRdjpD3NjpDP0nlK55D7r7R2Esz0Rz/CGUrn5XZeSXrn4Pugcn2jP1E491XHcH75n5X7zgFRiLkpVFULuNzz+4hf0C+kPn1yAcQD+BX1VVlcrw3LlzJ5ixP2nSJHCjRg3ua7Cbn4RLBNyRfnQG/c4aUBtqtHDhQsTGxirtampqYLPZnpHFG9D/5GGT2ii3tsKooDsz5GndM6f/I5Vpv3FiFoqzWsEJgKsHKzDxzQduIfrVA+UwtFqRHt+AmR8mu4T8Gmgn7L+4pwz6Fiuyk5ox4/0kt+XunJuDhioTWhotOLKmEAu/SMWsfslY+nUa4s/VgPCf7Wcb+QxXEWj19OXTFehn1nFWVhZoUUJwSZhNqO1u89FoBP3OY5a6MKN75syZWL16tcoEz8jIQFtbWxfoL6D/mV/jkP3BHein3Q5/H86dOwd+37Fjh/r5q6++Un/ft27dqgA+V7mMHTtW/f3i6q3p06erScyUlBQ1afbOO+8I6A/Z6IdewwT0h15MpEWRo4CA/siJpfREFAiUAgL6A6V0cOsR0B9c/aV2FwqEEug3FqegePGfkTP0n90CdIL4xlu70Jp2EXlj/9Ptc4Vzf4+GK5tgLE5Fa9plVO4agcJZz4MZ+iyjPVP/t6jaMxb67DtqE9+GyxtU9n539j+tqZfQdCsWuWP+w23dLF9Av4vBFqRL1uYqMG7Gskw4bJYgtQLovBmv2WJCWVkZTp06hc2bN2PBggWYOHEiCIJcwX1nYMgNHgmICJAi+eR+BIRgzn139f3rr79W2lHDTZs2KUBG2wxCf29Af0F6C+x2h4L99LjfPisbo/74dDNb+t8fXFGgADoz/S/vK8eJTcVdTnr6V5caVFkHV+R3m6GvwXf67dN+x2Sw4dqhCpzY3LVc1lWYoVOTELdOVmHau0nPTCDM+/QRyvP1sFrsYPK4UW/D/AHegX5mLtOTnFnIzFaeMWMGYmJi3MJ953jRuoQAM5LHLPu2b98+DB8+vNtx+/nnn6usf+rHzO7t27crmxfqy4k/Af1B+1Pdp4rdgf6DBw+CWfn8G8+Dq134t6x///4qo5+TXtxrhRvxfvrpp+rfAe5Fwox//t3jGKBvP39/uN+DZPT3KSxR+7CA/qgNvXQ8AAoI6A+AyFKFKBBhCgjoj7CAuumOgH43wsjl4CkQSqDfYbehfGP/DhjvLrtegf6U8y5Bf96EH6D26Czoc+NBe56aozNRvODlb612umb+58b8bxQv/CPqTi9WkwL6nHuoOTTN7Ya+rSkXBPQHb7h2qdnaUgu7WQ9FMbvc/faCwwGOLYcL6wO72QBbSz1gfzYL3F1R3lx3Bv2nEo4jdnesgvvcrNHZ3sQZjLr7zgkBZn5G+snM58GDB3cLTDtrpFmlzJs3D4cOHcKp2DRMfOu+R1nszNbX3FXofT/300ddyln4eSrqyo3quZYmC5rrzF3PerOaLOD44SqAmJfju5SjAX7tk176VcXtvt2t7sqtMyuIz3J3L8zF6D89nYRgOSNevIfHdxs6niHwXzDQM9C/d+kTnD99XWXu0z6Jkys9TUh1jg1jwiznSB+3XJHDFSed++/uZ+pIL3baVBH637lzB+9t/zO+t/Sf8caOF5Bb98SbPz3yrh8VcAf6mbFPix6uMuLBT67m6Nevn9pzZOnSpervEzcb59+4EydOKN9+jgFaO/HgihneE9Cv5JD/6YUCAvp7IZI8Igp4qICAfg+Fk9dEgShWQEB/dARfQH90xDmsehlKoJ/ClW/8DDnD27PuPQH9zQmHYCxKQf3FtShZ/hZyx/xfZLuz9nHaPDdv/PeUFVBj3C6YyjOUzY+rrP1AgH6uMKA9UcOVjV1OXeJxEE7b9U1ourULlsYKwPHUu9dUmt7lurmmAE23Y1F3Zglqj81u38S4KhcOu7Xbscp6Wh6dAzcxbri0VlkWmcqZFd/9e90W2ulme4a9e5/qTo93+bFyxzC0Pr4Ch8XU5Z7+yS3V9voLq9QnteNEjrWpsgPst2VcR/X+CbDparu87+sLzqD/RtYVPM54rPy6CbN7k8XvDAkJWrdt26Ysa2hbE8knffmd+97TdwJTAmVmynKTy6tHCjHprcQewboG2J0/CzNa4LC3j09DmxVLvkrD8BfvPVPWurEZyref1jiP7zXiwZValydteHhsm/nsqgDn+py/00ufqwCY2ZuR0Kh89l2VzYkFtvHEpiKMe/3ZfhL8027Ibmvvg9lo8xj0H1ieh+yMEgUdt2zZoqAls9J7iofz/Q0bNkT0WNV+D+nFzz01nPve3XfqyHFOMEzIX1FRgY/3viWg39d/hP1QnjvQf/To0Wcy+nNyclS2PrP333vvPTDjv6SkBMXFxWrSjKtduNE4V8ekpaWp3/vS0lKV7c9NeztbkvmhK1JkBCggoD8CgihdCFkFBPSHbGikYaJAyCogoD9kQ+PThgno96mcUpgvFIg00G9pKFNwvGDaz5E95B+7tdfpMpEw5B9RMPXnaLq9G+baYuRP+EGX9wMB+utOL0HJirdQc2QGak/Mf+ZsjNsJu6kNlroSFC14GYbChx3AnhC+bP3HaLi8Hra2BgAOtZcBV0lUH5qCxps70HhjmwLb3KtAn3PXrZWNoegRqnaPVpZHhPwNVzeqDY1LV/wNuoTDarLB2/FnN+lRc2Q6bK2ee80XzHweTXf3tmf1d2pQ3amFavKm9vhc1J9boXSsio1B2YZP1MbKDqsZzfEHUbz4NXDc+PtwBv0JJXdgtprR2tqK/Px8BXYuXLigNutk1mdPAJVwKS8vT23Iy015I/XkvgVcvdAdJOU9bvrKDWC5+SWtYYqKipS2tLvwxronN6VZQXJCepvVAdrjMNN+2AvtsH/SWw/ADXtpr5Me34gVw9PVZreE9J3PtNsNoP3PzWOV4HvOUN/V971L8qCrN6Om1IB1YzO7lKeVf2V/OfQ6q9osmHY/tBNieSNeoq1QvlpdwPYT9utbrV5b93DfhOrqajWJwkxjbjA6e/bsXq28uHTpkoLYkTpetX4R2o4YMaLbccuVJ9SNm0pTx/T0dJX1TX3Fusfff419Vz7/Fs+ZM6d99dCpU8qCh/ZN3HuBE7K0cUpISAAz+LmahSs9Pv74YzUJQOseWmBx7wbaYGVmZqr9VzhRdPPmTeXr/8Ybb6jJHwH9votZJJckoD+Soyt9C7YCAvqDHQGpXxQIPwUE9IdfzDxpsYB+T1STd/yqQKSBfmtTFaoPTELOiP/ZBdJ3AftOGf3O92pPzIO5vgT5E3/YpYxAgH5aB5Wt+wjGokcw1xQ+czKDnzY0zNJn+/S591SGvbkqF2UbP0XN4WkwV+d3ZKxzsoBlGQoewtpSp2xqOCHA57g5sbK96TTCbG2NqqyqfeNhyI1XEJxZ8KaydGWFVLb6vXYwrixx7DCWPkZL0mmV/W9pZLZ8+woD1mcqy1R1sBzdw5PqWWbx2w06tDw8qfZE4LtWXa2avDBX58FSX4rWx5fBiQAevNeafgUtD0/AUJgMu1P2fnegv+bgZJRt+kztv2CpLwE1og6c+KjcOQy2lrouoJ+rHAz5D9CSdErtA9Ge/f9tf3S1oHacaKE1FPvDFRQO61Pff64sMOTdV++3Zd6EzdDSYSvUGfRbnVZUEOxxQ05m8hL2XLlyRXnN09PZFfQnXCJUjPSju814x48frzSi9QU1o581rS6opfPhDehPvdOg/O+fPGhSG+m2Nlvw+F4DzmwrUWfanQa06axq09wds3O6WOc4A/xd83IVdG+oMmLliKdA3vkZ7Ts39U1PaFSWO/Tnn9TNJr/zPk1BYWYLzEY7uAKB4J/e/ffO1aC23Aib1Q5uKsyNgOsrjZjbv6v9kFZvd5+uNuO1WCxoaGhAYWEhEhMTFezkPglcoeJqcibaN+OlLvPnz1fZ3Pfv30dBQYHaVJs6dj7Eo7+zIqH5Mydo9+zZo8b+kSNHwJOTjTqdTu25wMx+TobRmoebVtODn9793JPhwIEDaq+V27dv4/Dhw2qCkv78vM6TE0BcJcLfL/HoD834h1qrBPSHWkSkPZGkgID+SIqm9EUUCIwCAvoDo3OwaxHQH+wISP1dFBDQ/w9dYH4ogP7yrV90m+nuDPoJsMs3D0T1wckKZjv7zVftG4eSZW/AXFvUAZw5CJjBrk0adB4UnAAomPGcAt6d7X34Hu1vCOFp4UOLpIpvBoOrELgfQtmG/tDnJaiVAm3p11C5czhqjs1StkGcgClZ+TcFwtmeqr1jkTfh+6g+PA2msgw0xe1EzaGpqNg+RK0kIIg3FCWjYutgNTFRd3YZKrZ8gbpzy2HTN6tm9wT6K7Z/rSYKOvrocKD+/EoUL/oTrI3lz4B+TkDUnl6E8m/7U71vvNJV2RXZbWryoXLXSNVP9pf9KV35dxjy76v+2o0tqDk8HRXfDALHECcTKmNj1MQFDdy7A/0d7eM6DIcDBoMBzGan9QyzPmnTw8x2Zn4SoBL019d7vhLCub5Q/u4M+uljPmnSJND7+vr168jKylIaUavOcN+5T96A/qsHK2BosyH5Rh2uHSpHc51JwXddgwU8meXfprMo2xxm6Q//NtPfFTCf+GYiuELAam4H77QB0rLvnZ9nOTeOVqoJhLZmC1aPynD5nPYOy9g4MRPFT1phtbA9VjWhQPBPT/6EizW4daIKLIvAf8YHST2uJtDKdv50BfqddbZarWhqalKwMikpCcxqX7Jkicpg1rz8oxH0M4Obnv0EvrRm4WqTxsZGUK/uDgH93akTOvcI9Gtra9VqDPrw8+RKLYJ5xpj3uCEvfze4iTX/jhP8c0UWJ3b594t/5zhxy+/aO9o9vsf7cogCvVFAQH9vVJJnRAHPFBDQ75lu8pYoEM0KCOiPjugL6I+OOIdVL0MJ9DNTvczLzXgjJaOf+wvoHhxH2+Mrz5y07CHI10B/c8JhlG8eoGC7BqSdByB96rnZcNn6fspnvy3jmsr4d85Cd36e3zk5ULbuQ1h17ZsIPnOf2dLfZkwzO75o7gvK899cmQNTeRbomV+5a7iapGD786f8t6qXWf/G0nTQ+qfuzFJYm6vReG0rCOrZRmb4159bjoIZv0LD9S0wFDyA3WIEQT2BuSE/EeaafNBnv3DO779dyWBR77uz7mFGvwL9zdUKxHN8MRu/cvsQtcqBbXC27rE2V6Fqz2i0PDqrJky4oqJ48Z+Vv7/d2Irm+0dQMPVnqL+0Tq1MYH9K2J9zy2HXNytLI1oucV8DU2W2anPp2g9UPzkJ0FvQ/4zeAIxGo4JH9HgmKN25c6fKZCcAivSDgIs2Fsx+jYuLU5tU0jaGmnQH95118Qb071nUbp9TlNmCZV+nYcOETDDDnjY9WYlNuH64AlumZoEZ+N1Bfg2Yrx+XidLcVpV9X5DegnM7S7Fy+GPM6pesvPP3L8tHyq36jlUC9N0f/5dnffe1spw/R72SgKVfp+Hk5mKkxNUj60GTAvx7FuUqy5/48zUw6W24cbSiV7ZBzmVr33sC/c6a02akublZeZAzu/nUqVPKmoSg22Tqup+G87uR8J2Tc5s3b8bJkyeRnJysfNipR1/sVwT0R8JIeLYPHAsE/fTnj4a/38/2Xn4KhAIC+gOhstQRrQoI6I/WyEu/RQHPFRDQ77l24fSmgP5wilaUtDWUQD/94/Mn/7RHb/3GW7vQmnIeeWP/s0s2fqSA/sJZv0FV7Ejlp8/NYrWTG/XSW14D/fSXL176FxQvelXBZeeNeTmEuaGuPvuuyqhntnxl7EiUrnpXZaObK7OVDVDnoV65YwgqdwyFrZU+/+6PhssbFOim1Y4G/1uSz6Bgxq9hqS2C7sEJcJNjQn6tXe39mAjaA9H6pnDei7A0lqtKuGluwfRfwlSZo563NFWhYPqvoEs63bHZLkF98eJX0Xh9i4L2PWX0Fy98BdX7xqF846eo3P61ytAvWfoGWlLOw2ExPgP6qRUnK7hCoi3rJlpTLyptaXOk2pt4FPmTfgxjSVqHPRHtjaoPTlETG5yQ4IoGrmQwFiYpm6DK2FEqw5+TCp6CfucIEJJqGaI9ZQQ7vxeu35kVyw0pmSXLvvcW7jv31xvQT3heV2lUtjcLBqaozHp69M8fkKLA/LR3H3abba9Bcu2TQH7DxCxltcNse64KKM1pRV6aTtnu0FqH11saLTixuRhT/v6wy+a/WlmuPif8NRFzP32EBZ+nYtZHycpKiBn/2l4DB5bnY8xr9/2S0e+sufN3xrClpUXFkdnP0WBBQjsjWkmxv32B+866Ceh3ViMyvgvoj4w4hnIvBPSHcnSkbeGugK9AP/8/Alc+0qaTe0vJKRrIGAjfMXD58mW1lxL/e9WVFaeA/nD/y9+79gvo751O8lQAFQgl0E8gmzPi37rAe2f/fH6PBtBfuuY9leluLEmF80nfe0JzDfRzw1n69HOD2cpdI8CJDg26a8PI4bCrDHoCbGNhsgLsZWvfV5n7trauWeHK1399v2ctb7TCnD5rjs5C+ZaByuteu8zMe+4dYKp4okA/J27URMC3D9Dep2rvGDWJ0BX0rwbBvLWxQj1tKn+iwDo985mNrx3Uhv1mFn2PoH/Rqyjf8jlyY/4dpav+rvYlMOQlwG5sU5sVP5PR31KP6kPTVFZ/7cn5aLi0DkUL/6gmRTjpoUs8piYiLHXFWlPUhsmcvKDNUOmqd9Tqiao9Y5SNEq2UaDvETY153xegv6Ni+dJrBbwB/eNev4/y/DY47A5snpKFmFcSPILkzlCeZSz9Kg1H1xWqzHt653ORDL30KwraQLugTZO/XSXwYvumv87v9/U7rXqqivRqM95VMelqk96+lsHn+5LR3+vgyINuFRDQ71aasL0hoD9sQxc2DRfQHzahkoaGoQLegn7a9hEKrly5ElOmTAH34Ro9erScooGMgTAeA2PGjMGECRMwb9487Nu3T+2/5ZzkI6A/DP/Ye9BkAf0eiCav+FcBAf3h7dHPDV+Z4U8bnZJlfwXhu03fDu+5MSztZ2iL4wz/advTcGUDCmY9Dys3z+100LqGHv0qE98JsPMxltV0a5eaOKg7s0RNMHCzXO1oy76N/Mk/ATfV5Ya2Kru/oUy7rfztO6x9OmX0N1xco2C8mqzgPgL1pWqFh1rFYGv3s2ZGN+1x6s+vgN3Q0iPop61Rw+V1yBv3XVQfmqo2JAaebtbqDPob43ahmNn+tN5hZn9NofLgrz4wuX1i4sEJFM7+Hbixr3ZwUqRyd4yaFOFkS8W2r6DPilMbABuLU9QnJz0YIwH9mmqB/fQG9NOOJ/lmPSxmO+KOV3pse+MKrNOSZ8HAVNw9Uw1jm01l3W+alAWuGBj5UrzXEwpanfuW5KG53oyaMoPHG/EK6A/smGVtAvoDr7m/axTQ72+FpXwB/TIGRAH/KeAN6GcWP23buCG7tt8W99ySUzSQMRA5Y2Do0KFYtWqV2kdOg/0C+v33NzmUShbQH0rRkLYoBQT0uwb9lsZKFEz7BbKHfOeZFQatKRfQdCsWuWP+45nrnVcd0OPe1ta99Y27IVhzaBr6shkvN8Vlxntr6gUULXhZQXxa3NBXnhnldedWwNZS2wH77aZWZQXEbHVaynQ+bC31Kjud9j3cJFfbkJfPEmwzo97SUI7WtMsonPU8jEXJqn5C+NrTixWItzZVgjY+Cow3tFvzsB5m9FfQFqilDi0E/QTn304ENFxaq/YS0NrksJrURsKcUFCTFQBMFdnKx19Z71hNPYJ+evQ33dmjNv2tPTkPdkP7Jr5an51Bf+3xOShZ9Y7apJj3OdHB9jFDX2X0PzyJovkvPbtCgaCfKyl0tag/uwwly99UeyBwYsVBy5LkM2oShn0R0K+pHthPb0A/Affuhe2gvKHKiIVfpPTJSkeD7d19ntpajLZmK5Ku1ynI392zfb036o8JeHy3QdkB3Tji3USFZPQHdtwK6A+s3s61cVPcu3fv4ty5c8paIT4+Xm2e25v9JZityb1UaFfV+RDQ31kR+dnXCgjo97WiUp4o8FQBT0E/95U6duwYYmJiMHDgQDADeNu2bbh27Rr470tCQoKcooGMgTAdA3fu3FG/37NmzcKgQYPw5ZdfYu3atSgsLFR/PAT0P/0bGsnfBPRHcnTDtG8C+ruCfoJoWuS0pJxD2fqPkTP8XzqgfqBAP73py7d8obzyCdydT0tjhYLJtMihbQ9BPw96zDfG7UTRvBfVxrEE/U1396Fk5d9Rvukz0KO/9tgcZWXD7H9d4lE4zIauI9fhgD43HuWbP0fpyreV9QztacrWfaRAPOE167LpmxUEL9vwsYLcXE1QvOR1ZXHD+y3JZ12D/u1DFOg3FqeqyRRu4KvPvo36cyueAf1sGFcFcGPi6kNTUH9+pbpftXtUu6+/w+FT0M/VEcWL/qQy/2tPzEPtqQUK4hfNewm6hENovncARfP/4AL0D1egnysAyjcPRPnWQaovbHPF1kFqU16HzSKgv+tIC8gVb0H/pLceKP98m8WOY+sLMe7Pnnncu4P0/gT9a8dkoK7CCEObFWvHZvRpP4HO7RXQH5Dh2lGJgP4OKQL+hfugTJ48GevXr1cZmLGxsZg6dSpOnDih9l3orkHchHnv3r2or6/v8piA/i6SyAUfKyCg38eCSnGigJMCnoL+zMxMzJ07V0F+WvYQ8HPvKU4AcL8tOUUDGQPhOwboy9/c3IyMjAysXr1awf4hQ4Yomy4miAjod/ojGsFfBfRHcHDDtWuRBvq5sSuBbPumvs9m43fOunf1c9747yvrGfqqE6Izq7vx+lYUzf09cob+EwIB+g1599F0Z6+C9AT1nU/66hOyN8cf+taT394x/Gjbo0s8Dn3OPTCL3GbQQZ+bgOaEw2i8uUP1RXf/qAL5dmNLR5Z/RwHffuHkAbP56UvfcHUTGi6vVxvXGgqTn5kc4F4B3HSXdj5c6dCacV21jRnt5rpidY+rC7SDHv5tWXFqI1y7Sa82xaW+tMoxFD1C6+MrsJv12uNqVULbk1tour0bTXE7oHtwHOaqvI7JDd2DY2oTYm2yo+NFAPq8BFWX7uEJtxn9ymLo0RlwlQPbyQ14G+N2qDFkLH6kLIiY9c+YcDUB9xXgBIp26PMT1V4KnDDhXgjUrPn+kQ49GAfNOkky+jXVAvvpLegf9sI9nNtRCr3OiqLMFsz8MMlntjqE6f4C/bQdunO6Gia9DWm3GzD9fe/aLaA/sONWQH9g9XauraqqCoMHD8aNGzfUpsolJSXYuXMn5syZg+Li9j1auNnyqf+fvfNwj+q69vYf8SW3JLk3uYkd2+lOb065uYkd995tjG16xxQDpvdiig3YYDC92jTTTe/V9KZCEUggJNRQH2m0vufdZIujYUbS9Jkzaz/P0WhO2eW395yZ866111650uxnQUUe8khTpkyROXPmGNBfXl4uW7ZsEQwFS5culXXr1pk4rtOmTTMzBo4cOWL2L168WLKzs81C1SY8XVaWfPHFF2aBxitXrhgIxCLWJ0+eNIaHuXPnyrFjxwwkYmo43mRnzpyR1atXC3XXlLoKKOhP3b7XlkdfgVBAP/d07v/t2rUzIXv43igpKYl+ZbUEVUAViKkCGGsOHDgg/fv3NyG5cBZhgV4F/THthrgVpqA/btJrwYEUSCTQj0d4Wufv1HvP+wPx7GtsMV5CywCTS49tkJwZbSSt0383mR95pne/23i8l53cJIXbZsjl9x+XrFEPyY3Vo6XyykkDxk3eQPidc6IaugdAfyv0DuF37twAymyAcucitbaP6zyV5lh9XP66ulse+KUFUnMzT7yeyoCA3+ZhX42xoPSG8VjHS78+T3sCMwk8lcZDv7assEF9CPljoD0rjf4rkR/1s/ng6U5YHLO/plrqqm8fq7+mzivkTXgcU3dHjH3yJw9n3P3669DRUymlJzfJhYG/M172xPV3JgwEznYRS7+29MatdQ7qbhlQTF8A8ms9ftpT3aA95E2/EJrIVw8F/U7lY/d/2KD/j3tkyGtHJTerQjxVXlk4NlO6/SNyXv3RAv3j2p2QqxfKpbamTmYPTZcu/xfeQsIK+mM3ZilJQX9s9XaWBixn6jUwHcBOGJ6pU6eauKs5OTnGE3Ps2LECcMczc+DAgQb6A28s6M/PzzehGXhPOB8e+PDobN26tYwaNcrEacb7f8OGDTJs2DBjDOAaPD/Zv2rVKlmyZIk59/z58+bhkTIxCgCKKHP//v1SWloqffv2FaaML1iwQJiNoCl1FVDQn7p9ry2PvgKhgH48evkeIGQP3vwYbIH/mlQBVcB9CvA7kN9wrLvA7zI+7wr63dfP/lqkoN+fKrovrgokEuivvpZuFpRNa/fvjcL5xkB/Rve7TbiZgi3TpCLzoPHMzhr3hKS1+w+/eRKWhwVbCUdDrHg8sAu+nGI8zfNXDJNLw/8mlyc9Z+A+XufGk373gqiC/rgOCBcWDrgnFBGhdfx5/seqyQr6Y6V0w3IiAfo7/mWvbF6cbULg5Jwvl9Gtj0uHCC2YGw3Q3+ORA3J4c75UV3ol7atiGfTyEcHD3zccTzDvFfQ3HFfRfqegP9oKB84f0A+UYdFEvPi7dOkib7zxhoHyeOmXlZUZyI53f25urnmoY/E1jABO0E+onrS0NONlv337dpPPa6+9ZsA++eHtz0wAPPFHjhxp4rliBGBGAHlRD2YB8P/o0aNl1qxZxjussLBQZsyYUX9eq1atZPLkyXLx4kVhCrmm1FVAQX/q9r22PPoKhAL6+b6YOHGiAX8jRqOhpicAACAASURBVIyQzMzMsCrKPZ48MUCzVVdXm/wwEjO7jNlmkUx8z61du9Z8v0Qy33DyYjYc6xrwHWl1CPSKXnha892NVk0ZWZglR17MpuM7lf+buqapthDSZdOmTea7vKlzY3WcWYT0a0ZGRsAimc24fv16wdkg2unw4cNmFmVTzgpHjx41fV9UVNSgSoTBwvGBvvZN7KMfWRAbhwrGQqA+ZbxwPNTfUuSLEwi/IQkByVhV0O/bI+58r6Dfnf2a1K1KJNCPkNlTXpO09v6hvPXwbwz0m3PafF3O9/mZiTFP6Jny8wdN6Bm8us+1/bd64E88dmLaV+WckapraZK/aoRcGvkPEzeeePSEq8EAcHVOZxObPeeTVia0S+7C3pLe8b/q87H1cr6GsxhvUg8orXxABRT0B5QmqgciAfoB4gNf+krSj5WIp9orBzbmSZ8nD4UFzi1kt6D/qwgtxgvQXz7lopQUVMvNAo9M63dOWJTXlhfqq4L+qA7TOzJX0H+HJDHbATxgQbVFixYZT3oW1+V/PO/PnTtnwi7gbQ/cx3OrZ8+exiDAFG0L+nlYBeTjyc82btw48+D3yiuvmHw6dOggZ8+eNW1iqvfw4cPNA3fbtm3r47pykAdX4ATnc2zo0KHGKMBijsB/IAygH2MBD7qaUlsBBf2p3f/a+ugqEAro5x5O3G48fLln2wU6Q60p3xdDhgwx3wl8L+zZs0eA0zt37jQG4MbAbShlsjA9Rm/yD5QoPz093UBUew7fo8DySH8v8X1ov3uZ5YYGgTaM9AcPHjQGd87lu9wfCLZ1Rju+r7t162YWTm7fvr1pO4Z1vmsDwWF7faBXtJs5c6bRKNA5sd6PLrSTGYeBEmOrR48eBsAHOidS+wmPyKxHwhAGSsyOYZFbtATa24TzA4tb87uIUIbMxHQmDC04UfAbiq1jx45mJiTjaMWKFSZ0oj2f6/m9huEh1DR//nzjHNKrVy/B4UNBf6hKJtd1CvqTq79SorZJCfqB89cyJGcmoXkCA3e89S8M+r1cm/+OiR1fdm6XEH7n4rC/GqhPiB9i+hNf/vLEZySj+/flXJuvG4BPPP4L7/1aWJiXUD3E/b/y4YtycehfJbPnD+Vc21vnOeG+838F/Snx8QmqkQr6g5IrYidHCvQD0Kf1OyuFuVVSUVojgO9wQvj0fPSgzBqaLhdO35Qaj1cK86pl7azLJkwQMwhCBfLjO56Uy+llJmTPutlXpNejB0POy1kHBf0RG5LNykhBf7NkispJAAobuocCeLjH856HfjwmiZ+PZyYeejxAAgYA9Xi/WdB/6NAhee+998xD5PHjx81sAB4wAf2cCzjB25/EAzczBwAl7OfB28IRHmArKirMgynlAF3Im43z8ewkHBDrCYTqgRYVETXTuCigoD8usmuhKaJAIoB+gDMh38aMGSOPPPKI+Y4BXgM++Q7iOyGSCYM134eEqQuUWFgYAIuXvU3Lli0zaxNwLJKJ9r/zzjsmjB0A/bPPPjMb5T/55JMGXs+bN8/sow5owncss+hYKyHQ9yTnYczHOLBw4ULzXQv0ZY0dFlYFCmPMDyXRN1wb6b4JpS72Gn5LtGzZ0oQJtPt8X/ldQdvx6o924vcN/XrixImARTHDAi95HC2c/UhbuPbBBx80RjXfMcdxDG38zmIWA6ER6WMMcPwuo2/pf9Lnn39udGnMABKwgv86oKC/KYXceVxBvzv7NalblYygP2vso3Lz6Dqz8CkL1WaN+WfA0DzA9/TO35ZLI/4u+V+MMgu0EtKnpuiqlB7fIDnTWxkPfqenvxPYp3X8luDdX3npqDEWEBrIeTzQ/wr6k/pjEZXKK+iPiqxNZhop0A/07vqP/fLlwmwD+onZP/29cyHFvu/z1CHZufKaifsP5CcRsrX4RrWcO1wkEzqflE7/G7wX/rAWR+XknkKzlsDZQ0XC+w5/Ct1ooKC/yeEVtRMU9EdN2iYzBvSzGC8Q4caNG8YrEdjBQzEP/nie4VkPcCBMAkAfr34eQi3o37Ztm1l8ESAPqCfsDpD/5ZdfNkYCzgfUk4AQxHLlPVCB9QAI18OGFyLGBCCGBQ14tWFwwIDAFHNAP3XFq1JTaiugoD+1+19bH10FEgH0A/UxBBMOju8UPJLZx/cP3yV8Z/Gdw3cPYYIIHbJmzRrzPYY6hJsDYvJdw0w1PI4bA9B89zFrjGsIm8I1AHO+r4Ct5Ad4pS4YH/CE5nuyU6dOBppzjO9JzqcuAG/qDoynXnzPWQ9s2sF57KcMADPtckJd4HOfPn3MTAa+C/kOZKO9zMT7+OOPzTo67EMH8mwO6KedhFuhXjZcD0Z+QsRg3AcM+wP9AOK9e/eaMELO0UeIGDziqT/9QB3YR6K9zA5cvny5+W1AH3KOs53OvPByRzu7iDP1AoiTP/1tE3nQnzgI2FkW5E1fA7gJ12O1tqAfsE3e9CtrABECCl1JaA0Ipz9Ys4jj9AtOCs66MmuF9pEHoQe5jlmNzhkQOEtQXyA4oW34zUI97Tm+oJ/6E98ebW0b+V3Vr1+/BrNLqAfX8hsKkM9vK+riTLSVvrWGHtqHlujB7y2OWUOWgn6ncvp/MAoo6A9GLT03JgokI+hPa/8NuTj4Abm+pK+Jw19x4bDcWDtOzvf7Rb1Hvj8An9HjXrk84Wm5sX6i5C7oIReH/FnIy9+57APy58xoLTePrpGSA59JzrQ3Ja3DNwOe78xHQX9Mhm9SFaKgPz7dFUnQD/ju//xXcmJ3gVRXeSU7s8x4+Qez0C3gfcuSHCkrqZGSAo9sX35V5o/JlFXTLsnl9FKTb+aJEhn8SnBx9YH6R7bdkKqKWsnLrpSpvc9EJGSPhf3q0R/b8augP7Z6O0vjARWvMWACoRZ4iCQGPovg8qAOiCCmPt5/06dPN56DPHzyMMx7zuPhn7A+GASA9IACFs3FqxB4b8PuUC4P7B988IExHBDqAFBB3jy0YiDA8EC4B/Yzk4Ap6Dyc8rBNGAMecIErCvqdvZia/yvoT81+11bHRoFEAP22pXjPs+YLsBjYyXcMoU8wAPM9xXcIi7bz/cD/hIoDLvM/iwLzvcb3GEAeD2fgtr9kPfr5TuR70ALZ/v37GyhM/Ha+05hdAGRlXRkWhn/++efl1VdfNV7TAGhAOXlgGH///ffNRsgdG7YOAM0sOb53+Z6bNm2aqTvhT1h4HmBPIkQL9fYNUcT3KDMPCOvi25bmgH6MD+jJd6szLAxlkh+aWgDu1AkATp0B6Xwf24RhhO98QDW/CfgtwLkk2klIHPqL8vj9YAG1BfE2H165njYDvkkYHwgvgwEGbUhchzb0D04IOAOQJ3nTP2hPnwH1ORdjDIC7Xbt2pi+4jnMIfwOQ5/cEwB5HAurKcTb+Jx9nXdCc2YiUY8/BMcHG9sfDHicIvO7xouc3EefTdn7zkLjOevQD/6kf5TC+bX9SDmPDzobkOsY0szA4RlgrwhFhTMDQYxOgn99e5OWb6CccMOwxBf2+Cun75iqgoL+5Sul5MVMgGUG/BerpXb8rWaMfkhsbJkrllZNSfnaHXFvQQzK6fU/OtfmafyDf5usm9A5e/oHP+ZpkjXtMincvkJJDyyV3YS+5OPTPktYhsFHA1sm+KuiP2RBOmoIU9MenqyIN+ts9sEdGvnVcTu0rDAn2j3zrmFy7WG687j+bdEH6P3/YzApgAd2JXU5JzoVyE8pn6cQL0u3B/c0Ku+ML+WcPS2/2tRbkN/WqoD+241dBf2z1dpbGwzoPkjwQ48GINx0PrDxs8oAMcABccJyHTLzSOJ8HVgA/D7WAF7wYebAHvHAOD948RAPveUjG25CENxzX8Z788RqkXDzzMDrwwM1+8ic/9gP+8erkgRjggXea9YxztkX/Ty0FFPSnVn9ra2OrQCKCfuvRD1wHnAM7+Q4Cfr7wwgvG2x7Iz/cMXsuAdeAm3zMYrQHBbE546lQV0I+3PoCevPmu4nogM1AUKM4r5wDzKZvvSwwIgG487ZkxgOH7n//8p/H6B8rj6Q6QBa7TBvJh7QGME4B5vu/4nsR4DoTn+5E2AH+JmY+HuDOFC/r5rkUbNMM4Qp3Ik3o1ZkTHAAAgx3jP7AQS3/9Ab4wU/H6gnegBlKcdeNgDwmknXuWAdTzn0cjXyEB+tJ/rMRCQ+E1BXZ966ikhPBG/WayDAgYSfj9QJ87BCQCtMQwB6XEqwHkAkI72xKsH6NOv1I8xRN35/cJ+zqEfOWb7nnA+zNTgNwh1YixQLr+LGFeMB/YRVon2oiVGGDz5qQv54PnPDAwMJOjrBP3UGeMJ+zBa8PuH318YRijH2ffMMiCsIhoB9zGA0H+MbZsCgX4MN8zQfOmll0w4LM5X0G9V09dgFVDQH6xien7UFUgk0F9zM08uT3im0TA8FqQ7XzN7/dDEzy/et1iqsk/LzcMr5crkl4MC8zY/4vLfWDveLLqb/8VoIUxQepfvBjYKtP5/fg0KCvqjPnSbXYC3qkw8+ZektrRApK7hAj3NziQCJyroj4CIIWQRcdD/xz3S/k97ZNTbt2H/lYwyWTAmU7o/1DSYXzLhvNws9Mj5kzdl0MsNvfaJzb/t86tSWVYrR7ffkL5PN77gL+sGYBw4vqug3pN/zrD0W/V4YE+zjARNAX57XEF/CIMvjEsU9IchXoJeCqDHw47p7XjkaVIFIq2Agv5IK6r5qQK3FUhE0I83PqDUCfqBvhiVO3fu3GBxUyA8oJXvH0LuYDAm3A5wl+8nfwnQ/+KLL5rvLbt2DECbvIGkAFgMCEBbC6IBrswawAvdwm9mpJEP51hwDhQGYOPhDdgH9AOICdljjde0xYaiIawMXt/MGrB52DqHC/qByeiBjhgT0A9vdyAy9cNYYmcV2DJ55Tp0wEMdQE0CeKMPBgna4QT95EG70QWoD+inXRhm8PpHB9/EOUB68gGc0+fMrgCGUzb9StlWG/SzoJ2+po/QEEMC/YLDAKFzmHGBIYXjJAwUeNxbz3pAPxAcQG/7nrrQVts2tKGtOD7YRKgdysH7HqMPrxg90NAmtKbNGB7QwYJ+wD2zGakHOtp+RiOMF6tXr67fh5EFqE/+aEpi/Qr6DA3oGxKgnxj9GAo4zuxLtGR2JN78GGns9Qr6jWT6JwQFFPSHIJpeEl0FEgn0F3w5+dZCt4G88QNAdSC9XTz36qftpfTUZqnMOi5F22aYhXfT2v67Xxhv4T6v6d3uktyFPU3c/sKt042hILPXjxoNBeS83vd/Bf3RHbfB5F6RsV+yp7wqRTtnC9A/XklBf3yUjwboB35b2H9yb6FUV3pNuJydK6/JsDeOSmOL6a6ekWXC9hzeki/E6rcg3b4un3pJSos8knakWN577vAdx+15LOa7bMpFuXDqppkdkJddIXjyG2NDhCE/ZSroj+34VdAfW71jUZqC/lionNplKOhP7f7X1kdXgUQE/YTsAWj6A/0AU7ynbQJmYmjGgx/wynEAKOvP4HnvLwH6gb14XtsEWCZECpAY7+rmgn681p3x0/HQB94CuKknMwbwHqc+gHZC/OB5bkE0kBcI788oES7op23MigPMA6eB4Tt27DBAGw92NMM7318CsgOX8Vy3YZSA2HiZ0zdO0M/1eNwD6mk7sJ5ZDHjnA6Kd/WXLIk881SdOnGgMA7wyKwCPeUA5EBxATT7kzcwKFiYGYuOxb7dnn33WzLxgBgGgH299ZgQ4ZwMSAofz6Qvr0Y9hwSYMRBgdMNxghKHOtAEobxNtJkQUjg3MBAD6M7sAI4FN6MwsEYw7jEtAP+PMboB6p2EFOA/Ud44fYvYzfmk35zNW0RoDBjMmGKckQD9txRhFfSmTV8YX7cf4ZctS0G97SF+DVUBBf7CK6flRVyCRQH/u/O7NjoHvC9bte+LqXxz6F8n7fKAQu78i84Dkrxwmmb1/7Bfap7X/T8me+qqUHFohxXsXydVZHeXCgN8GPavAlm9fFfRHfeg2u4DSY+uE9RnyVgwRb0XDqZ7NziQCJyroj4CIIWQRLdAP/Ab2j2h5TLZ+liNlxR6zSG/60WKZMyJDuj90wC+knzsiwyy6m32+3Hj0EwrIwnvy27v2uvHO37/hurz75J2GgPZ/2ivjO54UjhfmVUltTZ2c3l9o1groTqgfR34230i8KugPYfCFcYmC/jDES9BLFfQnaMe4qFoK+l3UmdqUhFMgnqDfCWMRhtjvAE0AqC/ox9MZUI6nMiFYSITPIU46ABoYyvV4YQNkAdmNgX4gKZ7QNlnQb+PZNwf0E3IFGO4shzoBgQH9wF68xgHGAHYMFwDkt956y6w/AOwHcAO8rfe1rQ+vkQD9zvz4H13xiAecE5oIo4oFws5zqRuwGbhMqBl0B2wDkElO0E/7ANxAawwXAHXC6jCrIhDoJw9iyJMn8J3zqAse8nizsw9ojXc9/U15AHOMAMBv50a/Mz6sR7+NTW/bwwwB6gKgJ1+MLowxmyzox1DB/9QF44wT9DNWGVfMDKBt9CP1tLM7yMuCfttmQP+jjz5qDFDMRiB8kJ3dQD9wnNkn1hBC2B28/h977DEzfhlHbBgXnnvuORMqyBoFAP2sR8D4x1iDboSqwvDAGHR+thT0257W12AVUNAfrGJ6ftQVcBvot6A9o9tdJuxO4aaPpOrKKSk7uUmuze4o6V2+I+da34rff2nE/0nhtply88hquf7ZQLk04u+S3um/6o/bvEJ5VdAf9aHb7AIU9DdbKleeGE3Qb2D/A3uk37OHZc7wdLl4plQ81V65fqVSDm+9IfNGZZrwOyzAa2E7Xvos4stivtuXXZVBL38lHf68V4D080dlmJkBtTVe+XRwmondb6/r+o/9MrnHGRPah3KqK2uNwWD9nCsyqtXxiC68a8t0viroj+3HQ0F/bPWORWkK+mOhcmqXoaA/tftfWx9dBeIF+gHGQEqgqQXNTrgOqHR69ANy8bgHjON1TQKOEyYHWApw5Ro8xQmv05RHP8dZY8YmC/qBr4RpcdaFc5yhe6wXN97/wGe8sC1YBeQS9oV8ANTUm2sBu8BzgCzH8cDm+5NZCLSTc3xTOKCf8DDMWADo2/o68wd4E3aIsDLOBXftObSHYwBvXgltY2PYc44T9KMVei5durQ+HA79Szt9Z2DY/HmlfRgHMHQAzRkL6ABQZ2ygDXlSP9ZQwECCJz59jJ5szKAg9A/1xZiC8QIPfmA3CR1s6B7WR6DdxNYnVJJNFvRjVGBsAfwxKjGTwCbGBLMVqCeGD0Lk8J41jWyizRid6HvCCvGKwQmjBEYMwibNmzfPzBihHLQlrj/1JzGLAYMERhWAPusW2I2ZFRgL0J3zA8Xot3Vxvirod6qh/wejgIL+YNTSc2OigFtBv4Hzbb4mmb1/YsK2lBz83AD/kv2fSfZHLST/i1FSenyj3Fg/SS6Pf0oyun/fr8d/KJCfaxT0x2T4NqsQBf3Nksm1J0Ub9FsY3vXv+2VM2xOyfdk1E4Mf4J+fUylnDxUJ4XrGtT8pPR4+YML6LB5/XkpuVEtpsUeYAXBgY56c2F0g+dmVAuTfv/66vPfsrUV6h7x6xMT/J9QPBgLi99d46uTMwSKZOSjNeP07DQm2PpF+VdAf24+Igv7Y6h2L0hT0x0Ll1C5DQX9q97+2ProKxAv0A9YJlwJQJewKC7DjCQ24J8QMyQn6Aa2AfgtjOU4eXE8IGkLTEHIHj3KAKB7QgF9gsG8CvDrj79u8yB+PceA8QJgQKtQBD3gANF7cAG/qB3zGo/+RRx4xhgaMDnhk403OdQBpPMKBzMSDZ7FY6mIX9cWTHXiLtzZlWUOBs67NAf1AaQAx3tx2oy7UlxAuwHFAOnkRNx6NANho9sYbb5gwQv40oh54iuPBTh54ljtnLjhBPzqTF57zeLVjdCEMD6F20MsJw53tw/BBn2NwwNudMYAOGFAIiUS4HYA2CbgO+AeOnzp1yhiH2Ed/YQygbYQVAvQzywJQTh8B93nP7ACAPlozPvyBfoxItu9bt24tn3zyickXsL5y5UpjzCC0ELM06F/ywZBCmzE4MFbsYrwYrwD9dm0AdCc0ELAfwwhjHk0xNtFmNjQlT8anb59wPcYhZk6gk4J+50jS/6OlgIL+aCmr+YasgKtB/79i+qe1+3cTjufanM5Sdma7VF46KsW75kr2xy3lfJ/75Vzbf2syhn+wwF9Bf8hDMuIXKuiPuKRJlWGsQD9gncVxAfRTe5+RLUtyJDerQmo8Xikp8EjWuVID5wnNwzEW0L1x7VboHc6p89ZJWYlHMk+UyK5VubJz5TVzDu/zr1aafDh+ZPsNmT86U0a8eSzqXvxOY4GC/tgOewX9sdU7FqUp6I+FyqldhoL+1O5/bX10FYgX6MfTGuiKBzSQGI9wgDLwG3BKwpMc+A5gBuTiQQ3YBsaS8OwG8uKhDRi2cdaBr8BdQDEe0b4JIMz5AFWb8LAGJLO4K0YFwqkAwwHHAGAWWiVfQv5QT8LFAG4BswBYwtxgdOAYcB8IDfy1MB8DBtAb0Es5gFpgONcCrv0l9tMOvL6B4s7Edy8wGoMGXuO0x26AfYwMgG3gMfXiHPLCYxxd0JLwNRgxAiUAN4D84YcfNrqTn02siwDEBqhjcCHED/1I3qw5gPc/oJt9QHz08E3A7VmzZhmDAAvh4gVPAn4zHtDUhs+hr1nbgBkAtIFxgaYYCgjJA3znOBpQPh73GFEYGzauPnlglOB6ZgjYRP0xIDC26Hsb2oixyawE9OMa+ptxQb0ZLzb2P+excQ59ilGHxFjCOGT7l2sJ6cQ+2kbfY4AhUQdmP3CcseabKJOxRBmMW8YP/Y/BoamEkQJdMDCEmhhH9CVjl7G35+IOeX7eP+WuUV+ToZv7Su7NW+G0Qs1fr0tMBRT0J2a/pHStUgH0W0hPWJ5Lw/9mPPovDn5A0tp/I+KA35aloD9xPlYK+hOnL+JRk1iCfgvGCcXT9+lDJpb+8qkX5ezhYhPDv84rZuHckoJqKcitMt75dXW3VWEWQHF+tRTlVd86xvnVXsk5Xy5bl16VaX3PCh7+Xf++zxgVbHmxeFXQf7ufYvGfgv5YqBzbMhT0x1bvVCxNQX8q9rq2OVYKxAv00z7Cq+CNDtglzAxAH8gK1CThGQ4kZR+QFg9zICie2jYBZoHNduFSjgOM8eQGhgJkfRPXYACwBgOOkyd1IfwK/1MentNAVRamBbQDYwkvs2nTJlM3PPoBzkBj9uMlDkgmfA/Xk6g7ZXENawKQH+2g7YTxYXaANWz41pMyAcF46NvwRvYcPLzJF7jtu3ENeaIjWqAh56AxdUQXvOwxRDSVAPS0DUjtrAPhgNCL9uF9TptpO/njrY5RgI14/cwgCNRG+pj+43qMPySMOlyTnp5eH9aG/Rge6BMMRBgp0NJ5DtfRdowDvNIvjC30tqGR6HuOOccFMzHoC9v3lMV5/L6hz2gTxgTaY+uItowH2sfYY6MdjCnrjU9+lG2NNOxnfNLnGIqcfU/90JMZH9THXyJv+px60Faut0YFf+fbfZzjO97tsea+KuhvrlLuOk9Bv7v60xWtSSTQf2PdeMl451451+ZWDH0LzSP9mhYFD37fOiroT5yPR3naHrk84Rkp3PqJeCub/qEWrZrrYrzRUrbxfOMB+p3gnXA9LNj7QffTMm9khqyfe0UIw4OH/41rlQL0LyupMeF+WFz32qVyObW/0MTiXzrpgnzc96yMa3dC+j592IT9ceYdy/8V9Dc+ziJ9VEF/pBWNf34K+uPfB26vgYJ+t/ewti+eCsQT9Nt2A5AB4xbw2/3NfQWgcj0Q1ubBq/2/ufn4O488LbjlOP/bcgjtAuhnAWBnHXzzoR5cQzvttZzDe7ZI1NO3TN/3lIFG4ejsm6fve9pG/k69KDfS7aMcjDG8BkqUGa6+zdGsOef4q2O4dfOXZzT3KeiPprqJm7eC/sTtm5StWSKBfk/+Jcka97gQascXnCfbewX9ifORqi0vkspLx8RTkC113sA/dKJdYwX90VbYf/7xBv1OGN/5b/uk9+OHZPArR2RMmxMyodMpmdT1lDECfNDttEzsckreb39Shr1xVPo9c1i6Pbhf2v9pT/1Cvs68Yv2/gn7/4ytaexX0R0vZ+OWroD9+2qdKyQr6U6WntZ3xUCARQH882h2JMgH9hHXhe1CTKuBmBRT0u7l3A7dNQX9gbfRInBRIJNCPBNlTXpO09v+hoD9O40GLjZ4CCvqjp21jOScS6I81nI9keQr6GxtlkT+moD/ymsY7RwX98e4B95evoN/9fawtjJ8CCvpD157vP8K6XL2q8clDV1GvTAYFFPQnQy9Fvo4K+iOvqeYYpgIK+v9fVIwK6tEf5sB04eUK+uPTqQr6IzMjQEF/bMevgv7Y6h2L0hT0x0Ll1C5DQX9q97+2ProKKOgPXV9ixhN/nTAsmlQBNyugoN/NvRu4bQr6A2ujR+KkgIJ+Bf1xGnopV6yC/vh0uYJ+Bf3xGXnhlaqgPzz9EvFqBf2J2CvuqpOCfnf1p7YmsRRQ0J9Y/aG1UQUSUQEF/YnYK9Gvk4L+6GusJQSpgIJ+Bf1BDhk9PUQFFPSHKFyYlynoV9Af5hCKy+UK+uMie1QLVdAfVXk1cxFR0K/DQBWIngIK+qOnreasCrhFAQX9bunJ4NqhoD84vfTsGCiQaKD/5pHVUrBxshRsmJTU283DK6XOUxmDHtQikkUBBf3x6SkF/Qr64zPywitVQX94+iXi1Qr6E7FX3FUnBf3u6k9tTWIpoKA/sfpDa6MKJKICCvoTsVeiXycF/dHXWEsIUoFEAv3V19Kl9PhGqc7PktqyQqktK0razVtZKlJXF2Rv6OnRUKCm9IZUZOyT6rwLUlcbv9iQCvqj0btN56mgX0F/06Mk8c5Q0J94fRJujRT0h6ugXt+UAgr6G1eIGOFnzpyRffv2yZ49iAquvQAAIABJREFUe3SLogb79++Xs2fPSmlpaeOdkkRHFfQnUWdpVVWBOCmgoD9Owse5WAX9ce4ALf5OBRIJ9N9YN16yRj0olZdPinhr76ys7lEFQlCgPG2PXJ7wtBRunS7GABNCHpG4REF/JFQMPg8F/Qr6gx818b9CQX/8+yDSNVDQH2lFNT9fBRT0+ypy631hYaFs27ZNPvzwQxkwYID07t1bevXqpVsUNUBjtJ48ebJs375dioqK/HdOEu1V0J9EnaVVVQXipICC/jgJH+diFfTHuQO0+DsVSCTQnzu/u6R1+KZUZOyXOgX9d3aW7glJgdJj6ySjx72St2KIeCuKQ8ojEhcp6I+EisHnoaBfQX/woyb+Vyjoj38fRLoGCvojrajm56uAgn5fRUQKCgpk4cKF0qNHD3nzzTfl9ddf1y2GGqA52i9fvlxu3LhxZwcl0R4F/UnUWVpVVSBOCijoj5PwcS5WQX+cO0CLv1MBBf13aqJ73KWAgn539WewrVHQr6A/2DGTCOcr6E+EXohsHRT0R1ZPze1OBRT0N9SkrKxMFi9eLJ06dZIWLVqY1ylTpsiqVatkw4YNukVRAzRmBkWHDh2MYaVz586yevVqKS6On8NNw9ER/DsF/cFrpleoAqmmgIL+VOvxW+1V0J+a/Z7QrVbQn9Ddo5WLgAIK+iMgYhJnoaBfQX8yDl8F/cnYa43XWUF/4/ro0fAVUNDfUMMjR45Iv379DOTv06ePbNmyRXJycoRY/eXl5VJRUaFbFDRAWzRG640bN5oQScyk6Nu3r1kjoS5J1zBT0N/w86XvVAFV4E4FFPTfqUkq7FHQnwq9nGRtVNCfZB2m1Q1aAQX9QUvmqgsU9CvoT8YBraA/GXut8Tor6G9cHz0avgIK+m9rWFtbK7Nnz5bWrVvL22+/LevWrQtpYdjMzEyZN2+enD9//nbmcf5v586dxmjBYrcXLlxodGNWQ2VlZb2BoynIzvlZWVly7NgxOXz4sGRnZ4vH4wm5xSzGu2TJEuPZTxifNWvWhNQPIVcgghcq6I+gmJqVKuBSBRT0u7Rjm2iWgv4mBNLDsVdAQX/sNdcSY6uAgv7Y6p1opSnoV9CfaGOyOfVR0N8clZLrnBkzZkirVq3MoqCAN02qQKQVUNB/W1FCxIwZM8Z48w8aNEgyMjKkKch9++rb/+3atcsYCvbs2XN7p89/Xq9XDhw4INeuXas/cvHiRUlPTzczB+p3RuAfoPvQoUNl+vTpMnjwYFM3DBmBNmA99Rg+fLhZFLe6utpvLdCGGRAjRoyQd955R5gBwYLFXbp0kXHjxglGhZqaGr/XNrXzzJkzMnDgQBPCh3o7dWrq2kQ6rqA/kXpD66IKJKYCCvoTs1+iXSsF/dFWWPMPWoFEAv1FO2ZJzvS3pOpauojXG3Rb9AJVwJ8CFRe/kmuzO0rJvqXirSr3d0pM9ulivDGR+Y5CFPQr6L9jUCTBjmQH/XjT4mm6fv16WbBggfGsxbs2lTfCVhArfMKECTJr1qyU1oJxMGfOHPnss8+M1zBhPkKBsEnwUY5pFSMB+ktKSuTUqVPCDBT+j1c6evSoGRss4ApIDzbl5uYauE3IGGLFE0YmlLRt2zZ55ZVXBC/6QCk/P99A94MHD9afsmjRInPvox6RTJcuXZKOHTvKF198IZS3efNms/F5evrpp02oIo7Z/devXzcAHx2WLVtmvPv91Yf7NWGOevbsafI+dOiQsH3++efSrl07oyVlh5Ly8vJk9OjRBvRPnDhRLl++HHQ2fKeg5f79+4VZFoEMFoEyLiwsNOMJowOhhUJJCvpDUU2vUQVSSwEF/anV37a1CvqtEvqaMAokEuivKb4m1VfPibe6QkTqEkYjrUhyK+CtLJXqaxlSU5In4q2NW2MU9MdH+ozjJbJsykVZMDZTtzA0OLQpXyrL4vf5ic/oiV+pyQz6gTqEahg2bJh07dpV2rRpYzzZ8WbXTTWwY4CQKu3btzeew5MmTZLjx49LVVVV/D50Lig5FNCPgQVQDdTlc4shqn///vLxxx+HDMcjISUGQuoBIOZ/AC/1BPg2J129etXcgwDcH330Uche5ID+1157Tb788kszG2fq1KlGG7zfmZlz5coVY7h74oknZMiQIcYgAGjHw54xjo6cQyicHTt2mBj1K1asEMb83Llzjbe9DY0DvMYDn/1cR7v5XLCWgE2bNm0yMJ7z6Du7nT59Wlq2bCmffvqpFBUV1e/nOHVtCvSzfsGLL75ojG/O8oDiHGNx3VA98YHsY8eONXUYP368CQ1k29PYK3oQRog+oF2jRo2S3r17CxoQYiiYhHFh8uTJMmDAAPnggw9Me9CMfNCoOUlBf3NU0nNUgdRWQEF/ava/gv7U7PeEbnUigf6EFkorpwqEqYCC/jAFDPHyyvJaKcitkvyrlbqFoUFZsUe83uY9DIfYVXqZQ4FkBf1A/pkzZ5p4zC1atDBgB9CPJ3vnzp11Uw3qx0CHDh0MmARAAigJ7YEXucJ+x40gyH+bC/oJwQJ8xksdT3BgOqFa8Nx+4403zOcWMBuK53WQVQ54OqCbmO6Mj7Zt2xrAC+glXv7evXsFT/XGoH8kQf+rr75qwtgQdgbg/O6770qPHj3kxIkTgpc7xpGHHnrIjOHt27cbz/nnn3/eaAlcRkfgPfdAZvZYY4F9f+7cOTNrAZgOyMbrnXbSL926dRPCB1kP9ilTppj9hAZyJjzVLegnbJEzNQf0Y0ihnYTpQTsn/Ab2M7vDGiSceTfn/2BAP+AdPVhTAQMNYYoIJYSB0H6nYEgJFvTTT4QvsvcbvpOA/hhcMLycPHnSLCDsbLdv2xT0+yqi71UBVcBXAQX9voqkxnsF/anRz0nVSgX9SdVdWtkkVkBBfxJ3nlZdFYixAskI+oGHeKDipQ1MARwuX77ceKgCUXRTDZxjAEgKFAWSYgwC4hFznBAijcG2GH8Uk6q4xkA/XtrEqd+4caNMmzbNQE/CtOB1bgEqn1u7xRv0A9Xfeuut+vrYejFWgOEjR4408JzY+YR08Y0fH0nQj6c73vp412NgoEygOmFtgNgA+ueee05WrlxpvOmpD/fB9957z3jy4/kPtH744YcNWE5LSzPe8dwfX3755fp8MAIwiwHvf2Yv0F9AI+L/kwdwm7j5GA18wyqFC/qZBQD0fumll8xMLAy2eNJHYp2BxkA/n3WO02b0wNseox9rA1hDj+17+xou6Lf58Iphi1BI6I6BhTpwb0Jf3/uQgv6kuh1qZVWBuCigoD8usse9UAX9ce8CrYCvAgr6fRXR96pA6AqU5uXIxR3Lpfz4Bqm7mSdSdzuurIL+0HXVK1WBVFMgGUE/cZOJ8Qw0BFjhdYtnaSjxtVOtv1O1vTY0B97bAFzg6dq1a6W0tDRVJQmr3Q1B/1bz+QMSL1261MSpx5CCh7g/gO6En/zPoqwAbbyr47FhAGqqnowZwDfQHzBNSJfs7GwD/SMJ+vHOB+rbkDasGwDIZ60JgDChbQD2hOYhMdMAnfEgpz4kQD8GA2ZR2JkIzIAiH8LZsIYA3uuA58WLF9e3AwDPGhbcRwk1gyf61q1b6/MwmYuYkEDhePSTD7M8Vq9ebRYxxkhBG5jlQRg2QjuFuoi4L+jHmEcYIPqL9Uref/99893hnOXjOx6d7zF0AOODGZeMZTz4nfn4/m+hP21n/FEO7bbQX0G/HW36qgqoAoEUUNAfSBl371fQ7+7+TcrWKehPym7TSieQAp6Kcsk5tlsOzRsnGwa/Keu6/ENufPCMVC3sJNXbP5LaiwelrrpCJu0aJfdP+K7cNeprsi9rl9R4axKoFVoVVUAVSCQFkhH04wkJqAGerFmzRmGtnwEFwMb44et9bE9t6rg9z22veDhjJGLsEK7EwlG3tTPa7bGg/+cj7pJhnww2HsqEmQEm25A8vnAz0HtgJ17seFfHYyM0TlOg31l3YuJbuM5aAyxUS/05J9wY/YB+YvRboyXwHS/wTz75xHjwNwf0Y8xi9gSLDNvEfaB79+6mnkB2ZgxgtKC/yB8wzWwBDAskQszwOWFmjG8K16Pf5ocxA6PD2bNnjYYsmE1d0JZFmn293O11jb06Qb+NkU87abszJI+zPxv7H+97jA/BjEvuK8wSaCxf5zE+L/QXM9OA/vTxlK3j5S8f/dz8jl90dI5U1za9pgj3dK4nb+qAkUOTKqAKuFcBBf3u7dvGWqagvzF19FhcFFDQHxfZtdAkV6DO65WCS+fk9Oo5smVsF1nZ/UmZ/9qv5NOn7pElL9wjeQN+KeXDfyMVE/4hlTNfk6oVfWXDwpbyxLjvyr2jvq6gP8n7X6uvCkRbgWQE/cSOBswB+/G0tFAs2lpFMn+8gAF6ADU24joHgvKhlItnNcCPcvwloBpQMtBxf9e4YR+e/YTsIFQHQJGQJZqCV8CC/p+O+Y7M2zxL1q9fb8AxwNIJMZvzPxCVWPKE0InHhqEhGNBPmzBqED6MMDAYj/CQZ38kQD9e9BZyW9CPPkD45oJ+ZiA4QT8x7xnv1NPORCCeP17khKdhvw0RhIFwzJgxxngDiPdN4YJ+2sa9zve+TXx+7oXMRqBOoayh4QT9AH5m7XCvYzaGv7BRTY1P8sDIEsy4nDFjhon131TezuPUDTjP5+j8+fMyc+9UBf2+A0/fqwKqQAMFFPQ3kCNl3ijoT5muTp6GJhLorzh/UEr2LZGaEkKe6KKPyTOKErumnoIrUnJwuVReOiZ1NdVhVba8ME8u7F4nez4eKGv7vSKL3/6zzHrmPpn55N31223Q/2spH/6vbeTv5drYP8nukT+TT0fcI+d3T5eam9cbhPYJq2J6sSqgCrhKgWQE/XgtAmqJ+52VlZWU/UFoDMJo4GlqvXhDDVfhTwBAHWAPaOQvAfiIi+27mKa/c922DxCHdy+GIiCtpuAVsKD/x+P+S3ae32JiurNoK3CZMCmEtwGg4/3uBJr+/mfhWzzMiTcfj41FbJsC/SzSS4ghoPHu3buNF3pBQUHEQ/cQt571JGyyoJ86Eksf0M85jYXuYV2EZ5991ny+bege4D7wH4MBHv2EP7Ox9wHqGBq7du1q1q5goWo80mkr8N03hQP6gfzWCEmZvmnz5s3mfsisrXBBP/dXvNrRkFkDLAKMAQFDH23FsOFvPDr3EdqIcR3MuMT4Q+gqZz6+/wP2uffTrywGTNgr9EBvDCChhO5hhgRrH1AW5bPmgSZVQBVwpwIYb1mwnXsJs4G47+y5uEOen/dPMxNo6Oa+knvTv6OHOxVJnVYp6E+dvk6aliYS6M9fNUIuDvrDLSDrrU0aDbWiia1A+dkdcmnkP6Tgy8nirbwZUmW9NR45sXy6fDmslSzr+JDMefGnMvOp79fD/SZBvwX+w38t+cN/KcVTnpTKRZ3Fs2O61F76Suo8FSHVSy9SBVQBdyqQrKAfSMNCmckK+oFsQGbCZTzxxBPGk9UJ1fB4BSTixcsDXaCEhzrnELbB6SHbFOgHogGGnNdQBu+B/4HK5ThxvLneeh0Hqlui7ufhGM9zwpYo6A+tl5ygf9eFbQ0ywWDFQrJoCxRfuHChCX8CaPYFnryP92K8zHzxtxgrMeMxQhAzn/A8QGM+Gxae20ZHMka/M/4++VvQ/+GHHxrQv2vXLgP6MVYBhtEab3XGMvCf+wrtefzxxw3sJb48kHrOnDnyyiuvmFlEgH68x4H+GBz5rB85csQYZcaNG2fuSYBwYs37+4w3B/TTp9Rn37599RthgLh3ANsJV0NoHYwaAGkMkhgxKJfP5uHDh++4N1m9G3t1evQD+p3fD9y7uE9i9KAuzKjCU5/ZGYEMPdSVhYmDSfQLayb4jnWA3DvvvCPMSNuwYYPQN8yYsHDfWUYooJ9xiYGNtjB2WbsmkrPEnPXT/1UBVSC+CmCA5Hce9xlmHnEfVdAf3z6JVekK+mOltJbTbAUSCfTnzu8uaR2+KRUZ+6VOQX+z+1BPbFyB0mPrJKPHvZK3Yoh4K4obP/lfRwnN4/VU1c8s8VSWy8puT8inT9/jF+4HA/rrvfxHENrnQan8tIVUrXxPPIc/E2/+RRGN3d+sPtKTVAE3K6CgP769SyzqF154QfBgtaAfzyyAGx6fLIgJNAI0Wo9/PKYBdxs3bjQPenjfci7vAVkkX9APAMPTd9GiRQbsYWBgcUogIKCSWRJ4+LPoJ+CLctlnQ3cAkfC2pS7MpGCjjoDCxgwR8VXXf+kK+v3rEszexkC/Mx/GBgYrIDmzSAjNwoKojC8byz/eoB/Ya0Evszz47CxbtszUF5jiD+472xgp0I/HOZ9lvLttAtwT2ojPO59hPq/MLMAwAfwHWqMpMw6oO/cJAD6wHJ05l3sDhgBC0FBXDHzcKwYNGmSOYSigXGLR483PfYFQPoRF85eYDcA1ePwD7p2J+xkwmxkzrH1g7xW8Ul/AO+MBgE78e85lLHTu3NmcSx24D9n7mDPv5vzfGOh3Xo8BAx3QE29/Fi6eN2+eMY44w0+FC/oZ47SdkE5ojoGBeypl+zOi2DqGAvq5FuMK5WFUwNCBAcXXmGvL0FdVQBVITgX4XmBmFGua8Fln5hHfUwr6k7M/g621gv5gFdPzo66Agv6oS6wFxFmBYEB/RdENubh3veyZNlgKFvaUqnWjxLNvnlQcWytL3vx9k5Af4O83dI/Do78e9Dv3jfqDVEx+QirntZHqDWOl5swWqSsr1NA+cR47WrwqEC8FFPTHS/lb5fqCfsAMoAYIBsBbvXq1AX12gUqAO8AOz19Co3AOnqlcA1wDzgGQnKAfaAb8Iw88aIFMQHob2oc49eSHxzWwC89aYDghQniYBOYBH/G2JdQEhgZiXzNdHE8yPISTKSnoD7+3mgv6nSUBHAEUxIbHmEU8csYlEBsAHa/EgroTJ040nyU8yfHIpp6+nvuB6ucL+kNtC9773A94tQmPbGZG8BnDaIKGGB/w1gYa420O3DZhG/bsMTMpMOjxWQVes59XjCzMsrBt4jryJR+O84oxhpk6vHLMGh5tXewr+/Hqp52+HuPcKzD+YXDw3bjGAnxeue9QL8oHUGNkoG3WoGnLC+YVIwKGI7xcfT36G8vHzozCiIHBhVkc3EMxOgTr0c/4xrOemRXcK+lTtGoK7jvrFyroJ7yTXYMEgwVaYKClXRgYqIduqoGOgeQbA3x+7boq/Ibh95sN22NnQCnod95F3fu/gn739m3StkxBf2y7rs5bI6XHN0jRzrlStGN2eNvOOVKetifsuPOxVSD2pTUF+ms9VZJ79rAcXTpFNg1vI8s6PSxzX/yZZL/3Sykb8yep+OARKZnyrCx5+UfRA/1O6D/2r1Ix7UWpWtJNPLtmivfyUanzVMZeOC1RFVAF4qaAgv64SW8KtqAfYA9AY4FPvIuBXwAv4B7wHoiP1xYgDdD/6KOPGggPkAT+AXOeeeYZEyaD9xb0A9cAqYA/DAIWWgGAeFAEALEB+vHSZfo3MBDvMLzFMAjg9Yr3LudgKACKUS+AHnDOwrv4Ktn80hX0N1+rQGeGAvqdeWGMYrwDnPBKDwfuOvMN5X8LUIKB+85y8vLyjOe8hcvxNnxxf8BDn9AwqZboS2Yx0BcA71D6wt7/MPgQ1sgaR5qrJUCfcq9du2bGdWOe+4HyDBX0c+/nvowBllkfbMyaIGY/uuimGugYSN4xwIwnHCxsGDxmTTFTiO8ukoL+QHdUd+1X0O+u/nRFaxT0x7Ybi/cslEsj/i7n+/5Czvf9edjbpRH/J2Wntynsb6QbmwL9GVuXy9r3XpWFb/yuQWieK31/LmXDbi2mWzzkl8ZT3xmiJ9D/IXn0O0G//Z/QPhMfkspZb0jN2S0iCvsb6WX3HAL44eHn65HnnhZqS5qjgIL+5qgUvXMs6CdEBIAIL32AOjG4V65caTbC+rCPsDnAI449/fTTJq62hUh49xICCBDPZxrQTzgMYnHj2Un+TiDvD/QTXgKPWJv69u1rwBDwjMVSMUAQZgOvf7x1AZzJeP9Q0G97OPTXcEF/6CUn3pV8bpkRQJgWjGd8Fu3nMh61BfTzOeUzm2qJmQms3QLo5z4FqE/GFCrop60YYRmDzCjAWIsWuqkGOgbcMwZY5J7walu3bm0wA0xBfzLe7YOvs4L+4DXTK6KsgIL+KAvsk332Ry0ko/v3pWD9JCnaMSssj/78lcMlvfN3JH/VSPFW3or/61OcvhWRpkD/obnjZO5L99/hrR9p0H9z6K9kw1v3yfa2P5TTPX4qeQN/UW9I8BvOxwL/4b8Wz765UlcV3MJjbut8pq0Ts5cHJR6YSMSzPnr0qJnWznu8pniIZB/erXbf/PnzzXR0PBWZss2ia3hWEZsWj1vrTWsuEDHeXsTEJpau74b3rvXSsOdH8hXPXdpFmADqBeAL5LkGXKQ+ePeyOCHT0olra/VprF54A6NHPMFHY/VL9WMK+uM7AizoJ0QPXs144gLxiZ/tvCf069fPeOYTmoHPH2F1uEfZhBcnoJ/7DvckQD8Lcj777LPy4IMPmlA7AEmbnKCfex4LdeL577znYHQYMmSI8bjmWhbnnDRpkgklBEAi9jezBJwGBJt/Ir8q6A+/dxT039aQ7zY+vxjWgP2EzsE4Fq/vPO4FzAhKVsh9W9ng/sOLHi9+IBgeryxcbH+fBZdT/M8OB/RTe36bMVsGgyyzsfhNiyGXUFm6qQY6BpJzDGC8mzt3rgH8hD7zfaZU0B//e3csaqCgPxYqaxlBKZBIoL/k0Aq5vrS/VOddcm1s8svvPymZ7/5EPHkXxVtdEdZWeeErs8hs7uJ3xVtxa3pYUJ2fIidXZZ+WvBXDTMgkfyFwYgX6S4b8Skb+89sy4O//JaMf/rZ8+OT/yLwX75YNb98nX3X5sVzp93PBGOAP+nv2zUl50A9EI8wFcJ7YtyT7kGTfEycR71YeKm08XcIP4DkLAF+zZo0BZLzu3r1b1q1bJ3jHAuGcsI2HUI5v2LDBLICH1y6hO3hPnFh7ri8w4L3vPvsxa+yYPYdXQnMQD5c67Nu3z9TNd2E9zqM9wH0gIPFq8RgGZDAdnNAATo9ef3ViYT/i/fqe5+9cZ/0C/d/c9gW6Xvc3VEBBf0M9ovmOhzJC3TCTBmMhCa/b559/3nzmiY9tp2UTs5oHOecGuAHgAKqJzQrQs8mCfu415APoB/xjoAPYY0DAMGCNef5A/8KFCxssrsl1rBXA/Y7EZxijH/cEPMkA/QA1Pt/JlBT0h99bCvobasgis4TEAPS3a9fOGMT4ruTzy+cnlhuGO8ol9Ewsy41XWbSV+xGLh6M9nsv8T32SNYUL+m27uWfzWw+HC74/dFMNdAwk7xjg9xfOHjiF+HuGUtBv73zuflXQ7+7+TcrWJRLory0rFE9BttTVVCWlls2p9OX3n5DMPj+VmuJrzTm90XMA2Jk97pPcRQr6GxMKg0pN4VWpLS/2a0CKGegf+ivp99C3pP0f/lM6/P7W1u2Bb0i///2WDH/ov2XC49+RGc9+T1a2uEcOdvqRXB34Gyn9V+igVAf9PBB16NDBeOfxwEjsan5M4R0HKAPmk4BpwG+mx+O5RyJO4rvvvmveEy4DkMbDFdfj0Q5MZ6FNpxc8x4By/Gg7cuSIgXdAM94D4MkT4wAPrUxJJz9gHO8pH0MC3rQ8zAGveNhl2j5euCx0CFikbDy6MEpwHYtrYrCgHDtTAbhIe4kT7vTOJV9mJAD2gQa8BxTSZsKK8CDNe4wdixYtqq8XC3WSD0YMjBcAQxYFpFy7yB3TTskDD2LaAfBEC37E4rUCTKQ8yuA84CiGBtoAxCR8CQ8s9BFtcnovEuoEI0SyevOZARWjPwr6YyS0iBnbGPwwftkQOYzV5557znheAv8xNOJdz+K3jH8S9wM+2wA89nE9hkbi79tkQT+fPc7nM4LXPTN3+KzzP3Ga8XrlvuME/Rj8KJPPkdNDjM8tMwmAmHjHcg+z9wc+93yWn3rqKWEhuGRKCvrD7y0F/Q015HudhWUHDBhgYD+fT+In85kjrrJu0dMAjXE8QHMgPyHO+L3B74lkTZEC/cnafq23KqAKBK+Agv7gNUvGKxT0J2OvubzOiQT6XS61aZ6C/sTr5ZiB/uG/kWd7fEP+1OHfZNqkrrJo3Lsy7vW/ysC//48M/tt/y7C/f1vGPPgd+ejx78mC578v+3v/nxQN+53x8E910A9UB24Bw3h4JK41oBxAjQctD48ALjz3AG9M1QdIA+gIawOAw1jANP62bdua91wD1AM6Wy9ef6OTEB4tW7Y0Xvb2OGEyiPkLqAe2USYQHOCNEQBDA0CbOlovNoAc52OwAJITMgjDw5YtW0zoDa7HAw5vQ9oILMQwAIigrk44zvXkixGCdjsTZVoQiSGEfKkf9UIXvIcBiC+++KKZDQCUBwyiEzMWaANQhGuB9kxHRWfqz/W0AagIuCRv6oCxAiMLRg/6CcME8BMdOE59yANPY9tXzjrr/3cqoKD/Tk2itQfwhKEK4xefA6A+9xXC9Fgjoh3PjGE+L9yTCOEDNLQe+YT7YpHFpkA/9w6Mi3x2+bzhbcxnjfuRE/RjxHv11VcbBf0Y4/hcMtMJIyL3OGY+sY/7STIlBf3h95aC/js15PON0YvPiPUs5/tTt9hogDFz8uTJxmkAY2cyJwX9ydx7WndVID4KKOiPj+6xLlVBf6wV1/KaVEBBf5MSRfQEBf0RlTMimcUM9I/4rfx11H/K3SO+JttPrZPrORdl08R3ZfpzP5aPHrtLpj1+l0x/4i6Z8eTdZr2ALT0flsJhv0950A8Mw7Md73EgNtAamMxUSTxgCWHBMRagtHCLGPyAbeByq1atjMcrnn28B4bhCc9D/8CBA80DKEDNF5jbweUP9AP4KBcISB14BewDEwD1QHRAPiF3CP+Bhz7hfvCSJ2wH3rzUjwdgjBa4dA7wAAAgAElEQVRcD/jjOOCP9uGdz8MxRgobhsjWCSMGIBKveZuA9EB5QvkQXgSt/NULwwLgA7gImEcXGxKJuLG0A+MCsUKpIx7+1IU4suTN4oZ48eOZTJnMZsDrH4CPZzGe0fYcdGKmA0YW2sVsBzvTwtZbX/0roKDfvy7R2ovBjvGNcY3PNvcHAL41sHF/YIwzMwcYj0EAAxf3Ixs/H+MYx51jnM8gn2PWDeGzBphnzRA+QyQ+pxgOMC5gyHQeZxYNnzvChTm9YDG2sTFbhny4Zvz48cbwQN24/+HFbEOMRUuzSOeroD98RRX0+9eQzw+fL76j+OzweeOzSvg/3aKjAZ9n7m3cv7gP2nup/x5Kjr0K+pOjn7SWqkAiKaCgP5F6I3p1UdAfPW015xAVUNAfonAhXqagP0ThonhZrEH/XaO+JvuydkmNt0YOzh7tdyHgmU/eLQr6b3U6UJtFMJkCjgc8ISseeuihekhNiA2gG8ANT3gMAISmAXaxSCVe5XiwA+RJeJTxwE9IDbzUAdmAf1+YboecP9APVAPe2TAfLHwJ3Abg4VHLgpxAcEA/YB+Ajlc7Mwd4T9lAPDzfKRu4SH0BhM0B/bSRkB7Uzc5GADKSHyF9qAv5Uy9mH7C+gLNeaGBBPwAEr2G8lzEqYCzgGgA9MwfwPibECPATIwDGEQwV9Afl8z/e0FyLQQPQT39geCHuOUYaICr1wnAA2NTUtAIK+pvWKNJncA/AC557DgDdzoyx5fBZ43PF54FzfOEVwJ/PphNo8T+zZpgFwz2IewZ5A/1twhDGPYnPhvM453At9xH7Oeca6sBm8wDoY6w8d+6c2TC+2WO2jGR4VdAffi8p6G9cQz7TfN74DPI50S16GqAxWvveRxvvocQ+qqA/sftHa6cKJKICCvoTsVciXycF/ZHXVHMMUwEF/WEKGOTlkQT9nvxLkjPtTSnc+ol4q8qCrImebhVQ0G+VSMxXPMuB8XitAvPZgNKAcTz0gfhMx8eTFdDOgyWwjJAaAGi8bvF8BbiRBwDaQn9eiX/dq1cvA9T8KeAP9FuwTVnkgTEBMA70xssecM7MAQv68ebFI9iCfjzggYLUC09+POupL9ewNeXRD8Tj/Hnz5tV7E1MWerAPb3sABjMcqBfw0lkvJ+hHFxvOiLZyHoYIICblAOiXLVtm+oB95I1xBeME7/GCxlMfqI+hgr6iL9AZcMn6CBgA0Bh9nMDSn96675YCCvp1JKSaAgr6w+9xBf3ha6g5qAKBFFDQH0gZ3a8KqAKBFFDQH0gZd+1X0O+u/nRFaxT0x7YbIwn666orperKKfEUZkudt2Gc7ti2KrlLU9CfuP0HsCf0Dh76eK3iGcZGSI3WrVsbgI1HOqFnWDgTD37ANTAZz3+85/Gs51pAO+E4ANHE1yYMB17wPXv2NPGxgfb+UiDQj+e7vYa4+4QCAODjPY9HP+EAgO2E7mE/dbKgn7IJ2QMk53885YHtxLmnvhb0E1oAowaGAtrlTIQgIF44hhBmJrBIKCEJgPvUgbo56wXwp17kiTcw+gHW8NrnFU99DA60l9kK1MsaR8iTePwYEpiKj2GDeOR4QPNKTH/Kp+54+rPh9Yzm1AlDjHMGhLMd+r9/BRT0+9dF97pXAQX94fetgv7wNdQcVIFACijoD6SM7lcFVIFACijoD6SMu/Yr6HdXf7qiNYkE+ktPfCk31k8QT0GOSJ3XFfr6NqI5oN9bXSFFO2ZL/srhkrd8aHjbimFSvG9xSnv8V+dmSMGmqVJ+dqfUeap8u0QU9N8hScLsYAFMALrTC5/KAffZT6gKwD8LwxIuhjAX1lufsDV4lhM2xnqR462+ePFiA6cB8cB6QDTnAKX9JbzWORc4bhNAG7huw9AA3QnBA/RmxgFhclhck3AazCggf+rFBvDmPd7tzCYA9hP2hnrhEQ9op05AdTzridGNAYDQH86EVz5gHg9+IDwb5RMeh3xoD8dtvQgJhHEB3YD7zG7ASIARgfrgpU892AgBZPMgpAgGEsIPoTsa0iaME3j8W0MB+ZIn6wNQF9Yr4Hz6kBkOGGuSMZyIU/NY/q+gP5Zqa1mJoICC/vB7QUF/+BpqDqpAIAUU9AdSRverAqpAIAUU9AdSxl37FfS7qz9d0ZpEAv15nw+UzHd/KhUXvnKth3pzQH/hthlyYcBvJaP73ZLR7a6wtwv9fy0lh1dKnafSFWM22EaUndoiFwb9QW6sfV+8FTfvuPzIog9k4Ru/kzkv/KTBdmXAb6Vs1ANSPuZPUjzij/L5S/fJ7Ke/f+f27A9kzvM/rr92WYv7JW/oH8x1XGu3G6P/IH8d9Q1xxug/vGCC37Kpy/a+T0rhqP8113sOLJS66tQLzwTcBvL7i/HKfo4D8fFeB0w7QTKhcWz4GWen44UO2MbjHBDPedYQ4DzP/o9XO3G3nXkD4Z3XcYy8CJFDnTAAUEZZWZmpF8DbJowRvAf6YzwAnAP9yZN6cC37aTP5Atq5xp8GwHzi4FIu7UEDp+e/s17UxdaLV0L9EPaIcskHDQkjRF78bzWhXPLlGupM/rzH0GCNF+jDddTbHmc2BuWzUDKzBWiHpuYroKC/+Vrpme5QQEF/+P2ooD98DTUHVSCQAgr6Aymj+1UBVSCQAgr6Aynjrv0K+t3Vn65oTSKB/tz53SWtwzelImN/SoP+K1NelYx37pHCbTOl5OAyuXlwechbwYYPJL3rd+X65wPEW1HiijEbbCNKj62TjB73St6KIeKtuDM8S9GVTLl8eJtkHdjcYKs4vU1q0rZLbdoO8ZzbLtkHNsqlfRvu3PZ/KVkHNtVfm3N4i1SdvXUd19pt+cqu8uv3v90A9BddzvBbNnXJP7VPqtN2muu9hVdENDxTsF2v58dRAQwJhAkiVBLe/BgGNDVfAQX9zddKz3SHAgr6w+9HBf3ha6g5qAKBFFDQH0gZ3a8KqAKBFFDQH0gZd+1X0O+u/nRFaxT0x7Ybm+PRf3n8U5LZ+8fiKci+FcKIMEYhbsTwz+z5A8ld2FNqy++E3LFtfXxKawr0x6pWk3aNlvsnfLcB6I9V2VqOKhBrBfDsP3LkiFlPgdkEeP9rar4CCvqbr5We6Q4FFPSH348K+sPXUHNQBQIpoKA/kDK6XxVQBQIpoKA/kDLu2q+g31396YrWKOiPbTc2H/T/RGqKroZduaqcMwr6m/DoDyRyndcrdTXVUlddIXWVN6WuvEjqSvOlriRX6opypK4gS+ryL4j3erp4r50Vb85J8V45KrWXDknt+b1Sm7FLapkRcHaz1JzeIFu/6CFPj/++/HTMf8rB81ulprxA6soKpK68UOoqSqSuqsyEV6qr9SgUDdQpul8VSBEFFPSnSEdrM+sVUNBfL0XI/yjoD1k6vVAVaFIBBf1NSqQnqAKqgI8CCvp9BHHpWwX9Lu3YZG6Wgv7Y9p6C/tjqTWlNefRf/WqrnF02WTJWTpXLG2bK9e3zpHjfEqk+vExqDi2Rmv3zpGb3TPFs/0g8Wz6Q6i/HSfW6EVK9ZqhUfTFIqlcNkOpV/W9tK9+TKvP/QKlePViq1w6T6vUjxbNxjBSsGSj7lnWWjcs7SP7+2VJzdIXUHl1+azu20ryvObxUag7MF8+eWeLZOV08WydL9eaJUnvxoEhNdezF0xJVAVUgLgoo6I+L7FpoHBVQ0B+++Ar6w9dQc1AFAimgoD+QMrpfFVAFAimgoD+QMu7ar6DfXf3pitYo6I9tNyroj63elNYU6D+6eJIsa/sX+fyt38mKNg/I6g5/kXWd/yY545+V8slPSsWHj0npxEfk5JDH5PSo5yVz0utyZVpryZ/bRW4u7S1VqwaIZ/Ug8awZLJ41Q8Szdqh41g0XjwH8o8Xz5TjxbHpfPBtG3QL/GAKW9ZaqxV2kan5bqZrdUipnvCyVHz8rlVNulVcx6Z9SMeEfUvH+36R83P9Kqi7GG/vRoiWqAomhQDKD/l69epnFqBNDSa1FsiigoD/8nlLQH76GmoMqEEgBBf2BlNH9qoAqEEgBBf2BlHHXfgX97upPV7QmkUB/2eltUrDpI/EUXr0Vk94VCjdshIL+hnrE4l319QtmYePy9D1SV1N1R5GH5o6TuS/dLzOfvLvBdv69P0jp8N9I+fBfS/GQX8mqFj+Rpa//XJa99RtZ1faPsrbjX2VD17/L5p4Py673npKDw1+W4+PflPPTO0n5oq5StaC9VM15SypnvCqVHz8nlVOfkorJj0vFBw9LxYQHb0H8sX+R8tF/lPKRvzPlUJa/zbNvjgntc0fldYcqoAq4UoFkBP0ffvihvPXWW9KhQwfJzMx0Zb9oo6KjgNfrlcmTJ8ubb74pXbp0kYyMjOgU5PJcFfS7vIO1eXFVQEF/XOXXwlWBpFRAQX9SdlvQlVbQH7RkekG0FUgk0O+trpBaYpV7a6Ld7LjlH2vQ7ym4ItfmdpGiXfPEW1Uet3bHs2Bi3nsrborXUyniZ0HQ5oH+X8qSF+5pYAioNww89X2Z/ex9Mv/FH8ui1+6XtR3/LAWj/yblBuI/0CTE9wf2ffcp6I/nCNKyVYHYK5CMoH/x4sXSrl07admypWzdulUqKipiL5yWmJQKZGVlyaBBg6RFixYybNgwuXz5clK2I96VVtAf7x7Q8t2sgIJ+N/eutk0ViI4CCvqjo2ui5aqgP9F6ROsjiQT6U6E7DOh/96dSU3wtYHMvj39KMntHZjHeOk+VVF9Lv1WetzZgmal8IGzQ7zMTYMnrP5e8Qf49830BfnPfK+hP5RGqbU9FBZIR9J8+fVp69+4tr7/+ugwcOFBOnTolHo8nFbtP2xyEAkVFRTJnzhxjJGLsLF++XEpKSoLIQU+1Cijot0roqyoQeQUU9EdeU81RFXC7Agr63d7Dt9qnoD81+jmpWqmgP7bdlTP9LUnv8l3J/uh1uTqzbYOtGK/76nIJBvSXnd0huQt6NsjHN99mv5/dUUqPrpM6PN9TKCnoT6HO1qaqAkmiQDKC/srKSpkxY4a0bt3aePUPHjxYVq5cKcePH5f09HQTjoWQLLqpBoyBc+fOyc6dO+Wjjz6Sjh07Gm/+Pn36yNmzZ6W2Vh0TQrlVKegPRTW9RhVongIK+punk56lCqgCtxVQ0H9bCzf/p6Dfzb2bpG1T0B/bjitP2y1XPnheLg5+QC4M+mODLf+LUeKtLG026K8pvSGXJzwjmT1/KBcG/r5BXr55N+d9Ro/75OKQP0t1boZr10jw19sK+v2povtUAVUgngokI+hHL0KwEKu/VatWBtx26tRJ+vfvL0D/IUOG6KYa1I8BQvX07NlT3n77bTMLhEWcd+zYIeXlqRlmMBL3GwX9kVBR81AF/CugoN+/LrpXFVAFAiugoD+wNm46oqDfTb3pkrYo6I9tRxIvvjLrmAD8y8/tarARYof1CZrr0V99LU0ye/5Asqe+JqXHNzTIyzfv5ry/+ml7Sev4LSlP3+fqdRJ8e/zQvPdl7stNLcbbSIz+WITuObBQ6qoVfvj2nb5XBdyqQLKC/rq6Orl48aIsXLhQALfE6ycci26qQaAx0LZtWxk3bpzs3btXSktL3fqRjkm7FPTHRGYtJEUVUNCfoh2vzVYFwlBAQX8Y4iXRpQr6k6izUqWqCvoTr6ebC/qrsk9LZo/7JHfRu+KtCD+ebf7qUZLe+dvGYFBX694FkX17PP/8aTm8YIKs7v28zH7uh/UL7p5/7w9SOvw3Qhz94iFxAP1j/yqVCzuKZ/cs8eZfFNE1Fny7Tt+rAq5VIFlBPx0C7M/Pzzcx+teuXWugPzHYZ8+endJb586djcFj4sSJKa2DHQdz586Vzz77zAD+S5cuCaGfNIWngIL+8PTTq1WBxhRQ0N+YOnpMFVAF/CmgoN+fKu7bp6DffX2a9C1KJNBfsn+piTdfff1CSoWO8R1ECvp9FQnvfdXlk3J9aX+5eWS1eKsr7siszuuV8oLrcv3cEUnf8rnsmtxHlrb5q1wc+Bcpm/BPqZzbWsqW95clr/283ggw08eL3/k+rMV4R/5OKme8KtVfvi81pzaK9+pZqasoTunPwx0dpjtUgRRQIJlBv+0egH9ZWZkUFBQY8A/8T+Vt48aNMmLECFm/fr1cuXIlpbWw46C4uFhqalLHscB+NqL1qqA/WspqvqqAiIJ+HQWqgCoQrAIK+oNVLDnPV9CfnP3m6lonEujPXdTLLFRbkXlQ6lLYe1lBf2Q/cqUnNkpm759I/qoRTc58qPVUScnVS5J9dJfcPL5JajJ2izfnlFTlnJOlrf4UNdBf8eFjUrXiPan56nOpzfpK6kquiXgVfkR2JGhuqkDyKOAG0J88asempidOnDDx6VesWCEAbk2qQKQVUNAfaUU1P1XgtgIK+m9rof+pAqpA8xRQ0N88nZL9LAX9yd6DLqx/QoH++d0lrcM3pSJjv4L+3j+RmqKrjY44Dd3TqDz1B0uPrZOMHvdK3ooh4sU7vpkJT3+baqoqZcuYTjLnxZ82Cfub7dE/9i9SOb+9eHZ9IrXpu8Sbf0HqPMw4qLPF6qsqoAqkqAIK+t3X8V999ZVZfHbRokVSVFTkvgZqi+KugIL+uHeBVsDFCijod3HnatNUgSgpoKA/SsImWLYK+hOsQ7Q6Igr6E28UqEd/ZPskVNDvrAXQ/8b505K5Y5XsnTZYlnV6WGY9c59f6N8Y6L85/FdydPjPJHfFu1J9cq14c05LXXmRhuZxiq3/qwKqgCjod98gUNDvvj5NtBYp6E+0HtH6uEkBBf1u6k1tiyoQGwUU9MdG53iXoqA/3j2g5d+hgIL+OySJ+w4F/ZHtgkiAflsjb02NlF7Plqsn98vpNXONl//CFr+VT5+6px76+wP9FZMekaMfPSaDR98jL438lhw7u1ZqanThQaurvqoCqkBDBRT0N9TDDe8U9LuhFxO7DQr6E7t/tHbJrYCC/uTuP629KhAPBRT0x0P12JepoD/2mmuJTSigoL8JgeJw+PKEpyWz5w+kMuu41BTnSk3x9Ts2r6dKqq6ckswe90nuonebjD3fnGbkrx4l6Z2/LeXndkldrXviw0cS9Dt19FSUSWFWumQd2CyHF4yXNX1elNnP/0iWvP4LyRv0aykf/YBUzmsjnh3TpTZ9p8ze0Ed+N/5/5O5RX5N9WbukRmPwO+XU/1UBVcChgIJ+hxgu+VdBv0s6MoGboaA/gTtHq5b0CijoT/ou1AaoAjFXQEF/zCWPS4EK+uMiuxbamAIJBfoXvSsZ3b4nFedTezFewH161+/K5feflCsfvChXPrxzq7h0zBgCFPQ3NrpvHWMx3vN9fib5X4yKiEHEt8S6ujqpKMqX62lHJX3LMvnqkwFy84sRUnN8jVnIt6680ITmmbRrtNw/4btyl4J+Xwn1vSqgCvgooKDfRxAXvFXQ74JOTPAmKOhP8A7S6iW1Agr6k7r7tPKqQFwUUNAfF9ljXqiC/phLrgU2pUAigf7KyycE7+vasgKRutRdkLQq+4zkLughVz54Qa5Mes7vpqC/qZF9+zizIspOfClVOWelrtZz+4DPf9XV1VJeXi6A+1BTradaynIvSW1htohPWQr6Q1VVr1MFUk8BBf3u63MF/e7r00RrkYL+ROsRrY+bFFDQ76be1LaoArFRQEF/bHSOdykK+uPdA1r+HQokEui/o3KpuqOuTqrzLkjl5eNSmYXn/p2bt+Kmhu6J8PhYtGiRDBw4UK5evRoW7A9ULQX9gZTR/aqAKuCrgIJ+X0WS/72C/uTvw0RvgYL+RO8hrV8yK6CgP5l7T+uuCsRHAQX98dE91qUq6I+14lpekwoo6G9SooQ9oSr7tMboj1DvFBYWSqdOnaR169ayfv16qay8tVCu1+sVjtXU1Ehubq7k5+dLbW2t8fy/cOGClJSUCOfYdP36dcnMzJS8vDxzHvtv3rxprhu1ZpDcP/x7cvfAf5e9F3ZKTa3HXJudnS0ZGRlSVlZWb2Ag36qqKikqKjL5kUc4Mw1s/fRVFVAFkkMBBf3J0U/B1FJBfzBq6bmhKKCgPxTV9BpVoHkKRAL08wyRlZUlW7Zskc8//1yWLFmim2qgYyCJx8Bnn30ma9askRMnTkhpaekdNxMF/XdI4sodCvpd2a3J3SgF/cnbfwr6I9d3wP0hQ4aYH939+/c3YJ7cge8jR46UuXPnyvz582Xw4MGybNky8/7jjz+WoUOH1s8AII+JEyfKrFmzZNiwYbJ7924D63ft2iVz5syRtwe0kJ+3+KH8+PF7ZcexbVJcUiQzZsyQqVOnyqeffiqjRo2S06dPG6MCeVDmvHnzZPLkyTJixAi5du2awv7IdbnmpAoktAIK+hO6e0KqnIL+kGTTi4JQQEF/EGLpqapAkAqEC/pzcnJk+fLl5rninXfekfbt20vbtm11Uw10DCTxGGjXrp107txZBgwYINOnT5eTJ08K4YBtUtBvlXD3q4J+d/dvUrZOQX9SdpuptIL+yPQd3vr84AbU47XPF/aRI0cMcC8uLpYnn3zSQPfjx4/L+++/b36M4YnDe2YAAPIrKioM4N+2bZucOXPGgPtBgwbJjRs35MqVK+ZLv9+cnvLbZ38hP3rmHtlzepd8uflL6dOnj7meaz788ENjKMCL/91335X33ntP9u3bJ8eOHZO3335b9uzZ0+CHQ2Rar7moAqpAIiqgoD8ReyW8OinoD08/vbppBRT0N62RnqEKhKpAOKCf2bs49XTs2FFatGghr7/+uvltr6BfDR06BpJ7DLRq1UreeOON+s80znlwBAv7FfSHesdNrusU9CdXf6VEbRX0J283K+iPTN9heedLGqBeUFAgo0ePlmnTppmwPITQeeyxxwzUZ7rtunXrpEuXLsYgQCgdYDz7WMQXKL9x40ZZuHChDB8+3PyQxwufxLm9J3eXX770E7mn1zdk/8XdMmbsaGP5pwzS0aNHTT1YIwADADMG7DHA/4YNG4xBwZysf1QBVcDVCijod1/3Kuh3X58mWosU9Cdaj2h93KRAqKCfcB48G+DBD+Dv27evLF26VPbu3St8L+imGugYSN4xcOjQIfOMPmbMGOMA+Oabbwr/p6Wlmdufgn43fQsEbouC/sDa6JE4KZBIoN9bWSq1N29IXa0nTmokV7EK+pvXX3WeKqktLRBvVRnE/Y6LCLfz2muvmfA4eOzj3f/iiy/KpUuXDGh//PHH5eLFi+a6L7/8Ugjtg6c+Ca/9tWvXCvH6CddDrE28+hcsWCB80VvQD8R/tcPL8qPu35G7hn9d9mXtkgED+8vixYtNeCDyOn/+vLz88stmBgAPAeRF6CAS0wGJ/8fMAU2qgCrgfgUU9LuvjxX0u69PE61FCvoTrUe0Pm5SIFTQjyMRzw5Afp4bCO3J7F3nGl9u0knbogqkmgI8n7PeHuF4me2PAyHP7TgCKuhPjdGgoD81+jmpWplIoL9w2wzJ+aiFVF1NE3EscJpUgsawsgr6myd2xYXDcnVmWynet1i8VeUNLmLR3JYtW8rKlSuNR/7+/fuFjam1AHyOA/ovX75srgP025A87OD/1atXy+bNm6VDhw4mxj5f6sTzZxofoJ9rOa/d2LfkJ6O/LXeN+poB/VM/nioTJkwwP/bJa+fOnWZBYK7p16+frFixwvxA4BignzqStyZVQBVwvwIK+t3Xxwr63denidYiBf2J1iNaHzcpEAroB+bjzd+mTRsTqocwodaJx03aaFtUgVRXgM86Rj2e+THq4UiI06CC/tQYGQr6U6Ofk6qViQT6c+d3l7QO35SKjP1S561NKh3jUdmqnLOS2eM+yf64pZSf3SGVF74Ka7s6p7OkdfyWlKftkbramng0KSpllh5bJxk97pW8FUPEW1HcoIxVq1aZePjXr19vsJ/FsgjLwxf0E0880QD0syCv06Mf0E8sPn7E82P+s88+k48++sjE9sdYwPlA/9f6viT3t7tXftDqO7Jm7yo5duKYmT3AQr1Y/Xv16lXv4U/ZTrAP6HeC/waV1TeqgCrgOgUU9LuuS014hp49e8qiRYvqDbzua6W2KJ4KKOiPp/pattsVCAX0V1ZWmjW4iMvPbN3Tp0+7XSZtnyqQsgpgxCP8L6CfZ/kTJ04o6E+R0aCgP0U6OpmaqaA/mXqrYV1rSm/IpZH/kMzeP5ZLox6UrDEPh7Vl9v6JnO/3S6m6li5S521YWBK/awz0Hzx4UA4fPixVVVUNWgj4B9ITs3/ZsmVy8+ZNc5wQPiyKa0PosBAvU/U4jlc/cJ6FeonLhwGAuP1cD6TvOqm93N/1Hrm3w3/L+oNrpLS8VA4cOGDO++KLL0x8f8rFIwDv/vT0dPF4boWx4j152vcNKqtvVAFVwHUKKOh3XZcq6HdflyZcixT0J1yXaIVcpEAooJ/4/Hj2Av5GjhxpwnS6RRLWH2MtMWYunzp1yrTNrTOP8dRmrbScnJyIdh/a4XTGM1+iJMLN8txJSNnc3NxGN56HeTbleRnIzZhoLLFALbPlaS9GL557WQPPLYn2z5s3zzj49e7d2zgCqke/W3q38XYo6G9cHz0aBwUU9MdB9AgVyayH0hOb5PrS/nJtXrewt9yFveTmoRW3YtlHqI6JkE1joN/+QPH9YcJ7frDw44NXG0ezpqZG8M6x5/M/P3B4z48XPP3tDx2MB/zPj3wMAWO/HCb3j/6e3D3k32R35nbx1N66jjid+fn55nqrlzNf9vm+t+fpqyqgCrhTAQX97utXDd3jvj5NtBYp6E+0HtH6uEmBUEE/YToB/aNHjzZrerlBE55vCEPEjOM+ffqYjTXOeL9u3TopLCx0QzPr28BMPMKqAsEjmXD46tKlixAaNlDiGfTMmTNy9erV+lP4n/Xh6IdIJp5zP/zwQ7Oxbl2nTp0Cbp07dzbOb9Tjgw8+MA5vPAv7SzwnA/enTJliZtIzZpjhyDZ58mQ5d+6ca4C/DTpldY0AACAASURBVN/LTH1+9yno9zci3LdPQb/7+jTpW6SgP7m7kIWLawqzxZN3UarD3Dw3sqTOUykijVvjk02xxkB/LNsyaddouX/Cd+tj9Nd43RMeKZY6almqQCoooKDffb2soN99fZpoLVLQn2g9ovVxkwIK+m/3JpC/ffv2MmrUKDMjmQWG8XgfPny4WYyU/3FSckv69NNPBbB96NChiDYJ3d566y0TwjVQxnjLT5o0SXbs2FF/CrPGCRcb6RkG2dnZgic6XunUjVC2bB9//LE899xzBvoDsu1+ZrofP37c9DmhaAP1Ofli6MKowfW0hY3/WRfPTbNdFPTXD9OU+kdBf0p1d3I0VkF/cvST1jJ0BRT0h66dXqkKqALxUUBBf3x0j2apCvqjqa7mjQIK+nUcqALRU0BB/21tAbNt27Y1IUjxAicxCxrvboAvoV9sGB9mNuO5DjyePn26EK40KytL7HXA4v3795sQQIQ85XrOJRyQM7QqIV82btwoM2fOlFmzZplQqXbNNMonFAzhWImLTihVwu3gYU54GAwPM2bMMKFUCbm6adMmIXwrdczMzDSe6ZxnE7OtAd2Er8Gj3oJ+DBzUgbwIzUrdnaFnyIO8OX/27Nmyd+9eKS5uuD6cLYNXymjVqpWpL78RaDcb8BxoTn6s/fbSSy+ZNd/IjxCxXbt2lXbt2ply0BJveTSkbRyn/M8//9zU3+rM69mzZ40GwGjCyjJTwAnnqQ/e9tu3bzf9w6x1NrTFsIPBgTrZ/WjTHNBPvi1btjS6Ee7JJsYGsxkWL15s1sWz+5P5VUF/Mvde6HVX0B+6dnpllBRIJNCft3yoXOj/a6m8eFQX441Sf6ditmWnt8mlYX+VGxsmibfyVqz9eOigHv3xUF3LVAWSUwEF/cnZb43VWkF/Y+rosUgooKA/EipqHqqAfwUU9N/WZdy4cfLqq68aqOwM1wL4xQMduA0AB+QCPgljQigYFiplkdKhQ4cakE9IF0Bv//79zb6pU6cKGyCbUDknT5404VGvXLkihEDC25xQL4SK4RyAvwX0AHLy4To2PMa5jnAx3bp1M2slAOhZM4HFkT/55BNTV7zjBw0aZOKp2xYC+MlrzZo1BmpjXCD8EuGJuJ7wNt27dzczGFhDjUS8ferIOePHj5exY8eacmk/IVr9JQD422+/bULYoA2bDYXEbwbypKxHH31UevToYQwWAHy0f/nll005QH6MDoTBIXQSMJ5raPPAgQMNpEfnrVu3muN41tMejDXoCdS3fTh37lwZNmyYMQA460sbO3ToYLT3DcvUHNCPUYWZC2hy7do1Z9Ym/BBjxmnUaXBCkr1R0J9kHRah6iroj5CQmk3kFEgk0F+Vc1bKTm2R2vIikSYWc4mcApqT2xWoKcmT8rM7pDo3Q+pq4xcuR0G/20eatk8ViJwCCvojp2Wi5KSgP1F6wr31UNDv3r7VlsVfAQX9t/tgz549xqMfeAtYxmMeD3wgsNPDHS9zPP8Bz8BiQs1s3rxZ2rRpY7y7OR/P8hdeeMF4rBMaB7jNPmA83v94ohMbH0jMwrV4sF+6dMkYDgj7ghc/CQPAU089ZfYzgwC4jhEBT3KgPt73XIe3++OPP27qzTmEwAFi4y1vEzHj8ZgnNj8QHAPBI488YkIVAbapw9KlS82iq4SxwSt+wYIFJp8lS5aYmQ3MFGAGA3UE6PtL7KedAHfKp+0YKCgbYMyMBYwNr7zyipkhgFGDc4D+GBS4BmMKswcee+wxA+nRivoxE4C8qRc6A/gph74jlA5e+hhKtm3bZmY2sG4dkB9Di3OmBPUOF/Tb8EO0A0MGmttZHM4ZBf40SrZ9CvqTrcciU18F/ZHRUXOJoAKJBPoj2CzNShWImAL8wMTbAw8EPFWciemh/FBhUSQ8LPjBxI8XpnbivWAX5uUaQP8vhn5fftD6OzL0g8Eyf8F84z3iFg8Gpy76vyqgCoSngIL+8PRLxKsV9Cdir7irTgr63dWf2prEUkBB/+3+4PmG5xwAPt7zeOwTwx6vckB3bm6uORmoDrQGSONVTiJczpAhQ8x1hJohzA7x3/FKt57leKlzHc9UgGBAMV72/5+9N3GTqkrzdf0j+tznPKe679C3um/d7j7dt04Pp489VFuWllVqO5ZlOYETqEjhDKIo4AAoyqyIAgIyCQgi8yggyjzPyZwkCckMSWaS03efd8EOIyMjMmPYEbH3jt9+njBj2Hvttd4VEnu/61vfQnQjsUk58/HHH7soe0Q1G5H799xzj0ut4w02ECFPyhnq6m2IeqLomRWA6EfmI+PjRT/lMxjBZ9ynIfpJn0PaHq9sZDmzCojw92YAINIZrKD9PCizU6dOTtoj0hM3RP/DDz/sBh+8hXWR7PCkPQj6VatW2WOPPRbL4899KZH6RO8zcMGG6L///vvdPnzOxvkZECByH2bMwmDQg/tVPqMdcOUcHANzzssgi1eGK8gH0U/fU1cGH5jN0aNHDzcjgpz91Ivro6jcD0v0e9+a0vor0V9a/R2K1kr0h6KbVMkiEkDus9gUF6Jevkmqw/t9+vRx0SVEsXAhx5RHok24iHrvvfdcJAd5HtleHfmS/cPDf2t/9dj/ZSMmDrMJX0xwUQ1Eq8SXW8Sm6tQiIAIBISDRH5CO8LEaEv0+wlRRSQlI9CfFojdFwBcCEv0tMXIfRN588r4j0ufOnWvvvvuuS9HiRZEjcUkhQwqe+I1ZAEhepDv3TUR6E33vbUhh5Dv3VdwjIaaRxAwQILmJTu/atasT+6SkYSMSnQh2Ita9jXsxUuwQve5tRMQzKOGJfsrldbzoJ5CL3PkMNHiin4EHgru8jXr17NnT3QtyTqT/nXfeGRvwYNCDNhJpz2K2CPXEzRP9DHJ4wWTcNyLCqR/SPx3Rz7oG3IfGzxxg0ARWDMQwEEGkPxH7tAMm3NsyE8OL3mcQg7RKrJOQuOUa0e+Vx2AGMytYP4GZC/Qv/Qgr3ovCJtEfhV7MvA0S/Zkz0xF5JiDRn2fAKj4SBObNm+eiHLig9TYWnCLCAslP5Af5EpnqyQUa0f9EdBD9wWdMVf3DE/fb3zz95/aXvf6rfbt7iVVUVrjBA6Z+XrxYvLUDvPborwiIQHAISPQHpy/8qolEv18kVU4qAhL9qcjofRHInYBE/48MkdJehL73LlHg5MRHfntynbz8PE8m+pHryF1Ef8eOHV2+f68sRD8CmBkB3FeRf5/IfFLhIIi5x2I2Afde8aIfiR0fvY/oJ8VNvOgnup2yPZFOBDuSPl70kw6I6HcGLBD9pP6hbFICeRuiH4lO0BeCHanPg2AvFuSNfxAtnyxinePI/U8wmbd5oh92zGBIR/QjzJmBEC/6WTDXE/3csyL++ctCySx+y2cMDnAfyjmZIYH8Z5/EzQ/Rn/id4fvD/S/8mdXATJBkjBLrEvTXEv1B76H81E+iPz9cVWoOBCT6c4CnQ0uGAFMbuRjiws+bzshFFRdEfMYFEBdqCH1vYzooOSCJViF/4+8eu9v+3zd/Yj/t/yf2w5FV1tDU4FL7kPbHK9M7Vn9FQARKm4BEf/T6X6I/en0atBZJ9AetR1SfKBGQ6L/am4hyUtkgjBPzqyOXSRVDXn4iyBH0PCfi3RsYQJAjmYkeJ489M5tJpeOl4OEsnuhHsHNvhVAnLQ7CnA1pjPS/7777YqIfUY2w37Rp09WKmrl9ElP3EJXPPRsDBUSzkwMfQR8vyVlHgHUDEP20kXPxGnnvRd4zqMFxlEN9WbzXa5NXAY5lYWIvJZH3vveXczKgQIpYb/NEP4MUBI61JfqJjmfjnpTUPQSmeamFvNQ9rG1An8HxwoULbn/SCJE2iVQ91JnBEf4ysELO/8QtF9EPL2YLkF4o2SAC7UP083ni9ymxHmF4LdEfhl7yv44S/f4zVYk5EpDozxFgCA9ntJyLHH7svYuuEDajoFWGE1NCueCEGxdIXDhykcvFGxdAXAAy/ZOLQ6ZgvvPOO+7ClIs0jn3wud/bX7/9Zy1Ef0EboZOJgAiEhoBEf2i6Ku2KSvSnjUo7ZklAoj9LcDpMBNIgINF/FRKBTIh6IsiJDGc2M0FLSFyi2ZG2yGXEMhH7LHRLCh8+5x4K6csivshpXiO5Cab69ttvY70QL/qJaidqngGD+EV2idRngVzOiSBG9DN7gAEGb1u6dKmbfc1niHnE+KBBg+zmm292i/ci+pHtnJ/BC9qBAKf+N910k8utT9nk+r/tttvcvR33fMh47vlIFcSMBO6tiUinXYhe6kwgGJ99+OGHrWY0ePXj3PH593k/UfSTSocZD6T/gSn3oKQwYoYBkpx0OKTuueOOOxwnZpIzuMAsAQYRqCfpirgXZcCCwRJkPu0grZKXhpaBFNaY8wYyvDryNx3RT/AbAwb0uffgXETtk9aJwRzy89Me6kNb6E/WGoABAz3eIEX8ucP2XKI/bD3mT30l+v3hqFJ8JBAk0d9w/oRdqdxrTVcum9nVBXt8bKrvRSF0+VEnMiFxYwEdphUS2cAFA6PyXMyk2ojoJqKAiwEuQDyBnGr/xPf5oSeCAoHPOeM3LgjIhcgPPD/s/PgzHZAf2WQ/5vHHRuF5U+0lu3KizBouVBECknWTuFjhYpULRTiTT5CLFAYBuABiISkuBPmB56KTvIe8T3/w3gNd77O/eutPJfqz7gEdKAKlQ0CiP3p9LdEfvT4NWosk+oPWI6pPlAhI9F/tTe4dEbnIe8Q6spjIdhZ+Rb6TEodUOdz/cI+MyPfS+bAPxwwfPtxF81MWufl5Pz51Dveor776qrt/4v6Z9DxE6xNkRf567mlJ+cI+3kK6o0ePdtI4Pk0QIh+5zaAE6XoYoOCemOh36oCMZx/qjGymHQhrpD8DC94gAjMTqDf386xDwD0gZbIQL4MSbAR2UQcY0B4e1I9ZAQwgJNsQ4/CLX5+A+3Ry6eMSGDCgXO7xGVSg7gyYIPEZnED24wyIxPdEOvtSPz7DKZCfn34g2p9ZB7QDqQ9P+oVUSNSxd+/eLWZDxNeXMuBO+xiIiN8YWKCtzJKgbK/t/IUP988MDsGSMmgv5+bBPszWYFZHsjUM4s8TlucS/WHpKX/rKdHvL0+V5gOBIIn+s0s+tvKhv7e6il1mTY0+tC6/RXCBwJQ3fpATN6K7vYsDpisSOcAUulQb0RD86HIxxKg3eQu5yEk34p6RfNLE8COdOKCAlL733ntdvnh+aIlAJ50M0j/d8lPVOwzv1xxYZxUjO9r57yZYU1111lXmgpVpjUSHEP1A/xJFwYbQZyEpRA7TI8nlHz9Nkwviux+4y3726p/aT/v9mLqHizeiPZSjP+tu0YEiEEkCEv3R61aJ/uj1adBaJNEftB5RfaJEQKL/x9708vEjqgl8I1iNtDa8TkxJyn0p953IbGQz98UESnmBadwfc5+EcPc2xDQL4iLRORf3SezDbADK4b6Lcrl/ZiYA98wIcNZNS7wvpz5EznNupDipfbjP9kQ/5+TejYhy9uG+maAuzs9fosypB2UTvEdEOvt55/XaQTmIeaLUCfYiOp6gPwYTUgXW8RkzEOIdAeUxUMK5mCnA+UlxxP0nZSPaYcVzWFB3PACDFDgE3ufcifWDIW2gHOpHf/Gae1nOBd9Edl5/sA88YBzfXj6nHziW8yU+uO7xBgbYj3bRB9SPuvKcxZyjdB8s0e99a0rrr0R/afV3KFobJNF/4osXbG+Xn1hN2RprDoHoZ/SfkehkP4pEdzNVjul+XFzceOONLX7EE78c/NgRZcCPIT/6d955p7uISXVhkHg8ee2IIOC8TEv0jkPkExXAZyxYhOjnx5rUMshoPkdI80M8duxYN6LPjz4/4jzILc+PPyP9XPiwLxcUzGSg/aSyIW994o9+Yv2K+frSlnlW9tLPrGpmX2uqaT0ok0nduJgl8oCoBSIUPM5ccPIeF67JNi5YH3/xUfv57//afvbHP7OvV39la9atcVMYiRrh4kebCIiACHgEJPo9EtH5K9Efnb4Maksk+oPaM6pXFAhI9KfuRe6H2gse4/P29kl9hquf5FKGd26CrIgqJ2Kee25vy6Ts9vZt73PvnJn8TVYm77EhlxH93Kuzee+7F2n8h/7z7mnT2D3nXahfIc+Xc4UzKECiPwNYEdpVoj9CnRmVpkj0Z9+TiG6mqHkj1fEl3X333RmJfkbAueggmoC8gOSwQ8qn+0ON6B8wYIArg6gKbzEbLma8BW7IG0iZCH6kP1PtiBL48ssv3TmR/+RLZFAAIcHoOvKa3HlEPRAhgORnmh9TB5k2SAQBURFBlv1+in4GdeDMNNB4OU/EB1M946NR4r8PPH97+hv2j53/xv76gZ9a974v24eDPrTJkye76AgtxptIS69FoLQJSPRHr/8l+qPXp0FrkUR/0HpE9YkSAYn+aPQmEf6kjSH9T1TSxRCQx/04sw20FZeARH9x+Rfr7BL9xSKv86YkINGfEk27HyD6yfeXKPqR8yzYg0BPJ6KfEW3yDHIMufxY2Igoeqb/pZteB9FP3kDSwBBx7l24IONJCcSMgSeffNKJfuT/Lbfc4qZRMgUP6U/KIKIa+IzFfsiTiMhmkSNmGjA1EvHPYAA5DJmix8wA6kgeQNYWCOq0Oz9FP18K8hQyxTJ+wSD6mffj0/UkfoGGrBpg/6PfT+3/eeW/2fi5Y23zlk1uNki6gzmJ5em1CIhAdAlI9EevbyX6o9enQWuRRH/QekT1iRIBif5o9Cb31qS8IUjNC4wLe8uYjU9ao2PHjoW9KaGvv0R/6LswqwZI9GeFTQflk4BEf/Z0Ef0s1ONJda8kZO9vfvMbl96mPdGP5EXCEzWPUCfPO/Id+c/CPyyy25Y89s7pRfSTo5DFeYjWJ0qcGQfIeVLOJBP95Oe74447WqwHQMQ/bWIRX0Q/UfuknmFjpkHfvn1bpCvicxb8YbZAEDe/RX+2bUT0/3zQn2sx3mwB6jgRKCECEv3R62yJ/uj1adBaJNEftB5RfaJEQKI/Gr3JPTb3teS/j0qwFa6ANmmGePG/oxL9xe+DYtRAor8Y1HXONglI9LeJp80PSWdDOpz4/H4cQHoXIuYR7FxEtJWjn8hwxDyL0hARzlRCfiB4/4knnnCL+KTzo43oJ3UMUfiscD9p0iSX479jx45udsCKFSuSin5G/1mol8j8xI26I/qZFeBFPDDjYODAgS3S1rAobYcOHVxKoMQygvBaoj8IvaA6iIAIZEJAoj8TWuHYV6I/HP0U5lpK9Ie591T3oBOQ6A96D6l+IlB8AhL9xe+DYtRAor8Y1HXONgkESfSfWfKxlQ+5z+qO7TILwWK8CG6i4VktPn5BGVaQZ/Fdctoj6dsS/aTA+f3vf+9S5hBVQG69Z555xvr06eOi/Mn5nk60Qbzo37ZtmxswII888p+BB+qULKJ/+/btdvvtt7dYWJbpf7zP1EbSCRH1780qGDRokMvRHz+LgVQ/DFAkDni0+cUr4Ic1+9fasZEd7dyqCdZUV13AM7c8lSL6W/LQKxEQgdQEJPpTswnrJxL9Ye258NRboj88faWaho+ARH/4+kw1FoFCE5DoLzTxYJxPoj8Y/aBaxBEIkuivP33Eag9tsqbaS6wXH1fLYD5lYdoHHnjACXkE/f79+51QJ51Ply5dXJQ8kr4t0c8irvfff79L81NRUeHS9rCYzg033GD9+vWL5cZvT/Yj+tmfiH6i77t16+YGEBD8SHoW+2WGAOl14nP0sz+L77IgEe0h5Q8598nZT859RP+yZctiop/c/bSZVECIfXL3k7OfRXy99D5B663Gy+es9shWqz9bYc1FHECS6A/aN0P1EYHgEpDoD27fZFszif5syem4dAlI9KdLSvuJQOYEJPozZ1bMIwjCiw/Ey6QuBPHx8Pvetr6+3q1zt3PnTpciN1mdmFG/efNmd36e53MjgwCBiTgIbf4QkOj3h2PYSpHoD1uPlUB9gyT6w4abxVgR6G+//ba9/vrr1qtXL/f3nXfecQv88GPOxo816XmIzk/c2IfUOO+//757DBs2zMj9/9lnn7nXLLDr5dtPPDb+9ezZs2306NEuCp/3SRtEmh1+wBkkWL9+vcutz8LByH4GIvbt2+cugFiMaMCAAUa9yb9PXUgjxMUFgw7r1q0zry1E+SP1GVRgtgDHDRkyxA0SZHsxFd+OKD+X6I9y76ptIuAvAYl+f3kGoTSJ/iD0QrTrINEf7f5V64pLQKK/uPy9s+/du9c++eQTI8iNtekSt+XLl9u7775rr732mrs3516a++qZM2e6e2ovHS3HcQ8+efJkO378eKwY1qjjXnzatGmx++rYhzk+qa6uNmbHM+s+WdpcimfWPGlyud+On0Gf46mTHo7kx18QGKjNHwIS/f5wDFspEv1h67ESqK9Ef26dTGoepDgR/eTB5weTyHgGAbyN1DnIfi/9jfe+95doAaIGiJZHyFMeQp5o+TVr1rgBgvYkOlH6hw8fji3Cw6BCWVlZTNB75SHsqcfWrVvdxQuDALzHRRML/1IHLpqoP5+RBoiLjPgZBZRFe7gooL1cHMW312uX/rYkINHfkodeiYAIpCYg0Z+aTVg/kegPa8+Fp94S/eHpK9U0fAQk+ovfZ9yPjhs3zh566CG777773AzzxHtQBgFIi/vmm286oc5rAum6d+9uL7zwgpupjsxnI1Uu73HP7W3cP7/00kv29ddfx+6rvc9y/ctseQLxCJhLFUVPQN4rr7ziAul4ns+NWfvM+J83b14+T1NSZUv0l1R3xxor0R9DoSdBISDRH5SeUD2iTkCiP+o9rPaJgH8EJPr9YxmUkpgdhzyYOnWqWzsnKPVSPaJDQKI/On2plgSPgER/8fuEwDYkODPKWdNu+PDhVlVV1aJirB339NNPu1n3BKfxOUFsq1evdjPaGQA4ePCgO6Z37972/PPPtxD9CxcudLMB5s+f7wLh4qPqCaRjLbt4AY+8J2DOm7lP1D4BdYsWLXJ1QOh7gxGkzO3Ro4cT/ayHR0Af+zHQ4M008EQ/swoYdODagfXyOEd8Kh8GPZgVQLDhggUL3F+OjQ8O5DnnJ40w7aGs+AC+ZKKf1LykFqLs+LJaQNaLlAQk+lOiifQHEv2R7t5wNk6iP5z9plqHj4BEf/j6TDUWgWIRkOgvFvn8nXfu3LnWtWtXmzNnju/pAPJXa5UcJgIS/WHqLdU1bAQk+ovfYwhtBD9yfMyYMW7wnNly8Rui/9lnn3VpdOPfZxY+6WkZBNi0aZP7KFH0I89Zt46BBH6zibxnBrsnvHmPdfBYy87L38/s9g8//NCoB1Kd87P+HelwSe1LCiHKQOQzyx/R37lzZ5f6l/OQOodZBZRNilxP9FMGsv+DDz5w5TAjAWHPTHzqyXlJu8vAhbcPrxlkoL48OC9tZOYC+/Ts2dMxIJMAZSSKfgYrPv30UzeAQoYB9tGWGQGJ/sx4RWVvif6o9GSE2iHRH6HOVFMCTUCiP9Ddo8qJQKAISPQHqjtyrgxRfIgA1r3ZsmWL7+kAcq6gCogEAYn+SHSjGhFQAhL9xe0YxDriHXFOdDtCm8HzKVOmxKQ7NUwl+onuf+ONN9wxRNOzJYp+9kGGjx071q1lh4Anvz+/4Qh28v2TMojBgGPHjrkySCXEMaS1nTBhgps1QH59XhNtzzkR/qy554n+W2+91a0zwOAAa+VxPGKfenmi//7777eJEye6ckity8wDBio4L2lzGUhA/jPoQQT+0qVL3QAH1xp8jqhnUIGBBNILsw+BBgx0kM4IqR8v+mkjbWHGBAMqDDpoy5yARH/mzKJwhER/FHoxYm0IkuivK99hl7Ytssbqs2YaQY7YN614zWm4cNKqdy6zusq91tzYULSKSPQXDb1OLAKhIyDRH7ouS1lhpvXPmDHD3YCTZuDEiRMp99UHIpALAYn+XOjpWBFom4BEf9t88v0pg+RIamQ6Ehrxz6K7RKsjtb0N0f/oo4/apEmTYpKcaHki2h988EEn8b10PImin3O8/PLLRvoe1rTjmP79+7t18MrLy51c5xhkOgMNROm/9dZbNnjwYLeuHZKc/b38+0TEI9mpN/KcgQTke6dOndygvxcxP3v2bFdnzuuJfsQ+kfdspP4hup9BDt4jUp8ySAXorTdAfRmAYMYBgwfk3WcfyvbWCYQZgwXUE/Hvif7p06e7xYepG7MVkP7asiMg0Z8dt7AfJdEf9h6MYP2DJPpPz/3ADve72WqPbjdr+nEx2whiV5MKSODy3u/s6Id32dllo6yptnjRCRL9Bex0nUoEQk4gbKKfm2ZutLkBJWpNj10uj+/y5ctd5ByR/EypZ4F774Y75F9RVT+ABCT6A9gpqlJkCEj0F68rSUMzevRoe/jhhw2Rym8p0e+DBg1y7y1ZsiSWXgfRf9dddzm57qXOQZC//fbbLvofYe8J9kTR/9VXX7kof4Q/26xZs1xEPJH3yHUkOSIcuU8EPbn+WXsHUU4EPyl5HnjgARfBT8Q9D2YF3HLLLW7ggYF+ovAZnDhy5EgMKLn6GZygHPZBxHPN4M0aYEfaReQ/awSw35NPPmlcY8RvBBUg93n/888/d2mOmFUQvzFboUuXLm62AaKf85LqiAWOk615EH+snrdPQKK/fUZR3EOiP4q9GvI2BUn0n/jiBdvb5SdWU7bGmiMi+rkwYZoeiwAdOnSoxSI6fn91mIIXnzPQ7/LDWt6lLfOs7KWfWdXMvtZUc75ozZDoLxp6nVgEQkcgLKKfqDUWeBs2bJi7KeWmlhtYPfo4WYAAQPIT7YcE8BbbC90XUhUOBQGJ/lB0kyoZUgIS/cXrOIQ3qW1uu+02J6+JuueB7P7Vr37lot2JhGdDiHfs2NGJbnLak/Zm/fr1bmFbZthxb+5t8aKfqPmBAwe6wQMvIh+pjnQnPQ7i/OOPP7b9+/e7qH2iuM6lugAAIABJREFU6ZkpwGAC52Bw4IknnnCpgUj3w8wDHqTxISUOAxMsDIzoT5T4LJKLcP/yyy/NW3CYNEE89zbaRV0Y5ODcCH1mC8RvM2fOtMcff9wY+GBgBKFPLv/4jfo89dRTLt8/oh/B/8gjj7gBk1dffdVF+nsDIfHH6Xl6BCT60+MUtb0k+qPWoxFoj0R//jqR6Xn8sCM+iAAgryARAPwIewv4+Hl2LoJGjBih6XYJUCX6E4DopQiIQOAJhEH0E8nGTS/TxLnhJrKOvK+jRo3SY9Qol9d38uTJtmrVKhe5p0j+wP9vF/oKSvSHvgvVgAATkOgvXueQWx6Jzn0u0erxDxaj5TrEW2AXIZ5sMd5ktY8X/eS1R6ST898blCdFEPsgzYmm5zede3hkOYvWcl/P4AAzGg8fPuwG9nlNtD7H8iANDgMMXAOcOXPGiX5S5DBg4G2057HHHnM59BkMoB6kB+K5t9EuZgcQNLB48WIn+knPEz9wQb1YrJiBB6L7EfrIfE/csy8MPV58xqAI124MDpAuiPPGzyTwzq+/6RGQ6E+PU9T2kuiPWo9GoD0S/fnrREbxudDgh5Yf3NWrVzvxzw85I/As6uNt/ADH/1B773t/+dz7kfbeS/xLjr6ysrIW5bJPW8dxzlSfp3POxDoE8bVEfxB7RXUSARFoi0DQRT9RZuSC5YaSyDWi5bjJ5UaZz/SodNPvSWnU0FC8tWHa+o7ps+gRkOiPXp+qRcEhINFfnL5AlpN2h4AC0gImbtxfx+erz1b0Uw4Cnnt0796Yv0h+xDuR8gh23mMfovLvvfdeJ/2pI4MDSH6uiyiL+/y6ujon2pG/BEdwTUBZd955p1sHgM+5f+d6CilPmh0vRz8zAb1ZCrQ5XvRTFtKfIEKyBlAnUhIRkc/ABwMPRP7jIYYMGWInT550++zbt8/J/AEDBjiZj+hnAIWZCdSFVEWsJ8D6BmQk0JY5AYn+zJlF4QiJ/ij0YsTaINGfvw597rnn7I033nA/6t5ZGNVn9J0fYKYIItrJ8ccPLhED/BizuI8nBiZOnOgGCbgAYJoeufP44fY+p1wW9+FBZAD7ETXAxsUBC/Aw9Y9yyf/nRRRyUUCOPiIRSLHAVEHqxoUCFyb84DOiz4JCjPwz3TD+nF57wvBXoj8MvaQ6ioAIxBMIuujnN6Jr164uoo3fE37PtImACBSXgER/cfnr7NEmINFfnP5lYVlk9JgxY5LOWmcGfa9evdw9N/fX2Yp+AvQYUEgcTEDqc34EONH0bAQ2kILn9ttvd/LfC9bjHh3RTso+7qEZDCCFH2l/CIQgoh/RT5oezsW9NjP/ec0MASL4PdHPLMlUEf1IedL1EoGP3GeAgUEK0hvhFRg8qK6udvf3RO+TXojsAgyWsD8BiDgBT/TjJtioH6kYSfnDZ543cB/qP2kRkOhPC1PkdpLoj1yXhr9BEv3560Pk+oMPPuh+iBlJ9y4C+NFEqLMxpZ8faSIikfL8uDJCz5Q/9idCgYsF0iN8++237gca2U/kABs/9OyDqCe/HxccLOJDVMEHH3zgxD9Chh8dpAyDCAwEcFHBBQaLDjGAQB0ogwsDfti5eJk2bZqLNkD0sy8XUmHcJPrD2GuqswiUNoEgi35+fxhA5reKQWBJ/tL+rqr1wSEg0R+cvlBNokdAor84fco9MZH0rHXn3UvH14R7agQ8i+WyXh159XkeL8nj949/zmxE8vgTac9fjku836VMUuvwufcZ99nI8oULF7bIo0+w3J49e+zrr792kf4MHpASh5z/BMx5xxG5z4P7cAYBSE1Euhza5+3DPTv35d62c+dON1PAi/KnLuTfJ9UQZbBAL4MiXsAfx1F36k3KIfbhfJTLIAAb56Rt8QsDM4gBb9oRn33Aq4f+tk1Aor9tPlH9VKI/qj0b4nYFSfSfWznOKkZ3tiuV+8ziFsoJK16m1TFSz+g6o/fvvvuui6LfvXt3LDqefH+M+JPmAFnChUDnzp1jU+jIm8dIPBEK/PBz4cB7yHw2IgeYNkiZXOTcdNNNriyk//33328bN2505+JigIsNfrS5CPjd737nLg4YdKBcLg6YMsjFA1MUmZ5ImV6duBhhvzButYc3W+X45+zC2unWdOVy0ZqgxXiLhl4nFoHQEQiy6OeGkN8uIsi836LQAVaFRSCCBCT6I9ipalJgCEj0F6cruBdFkieT/F6N4vfxnntBdd4+yf7G70sQA/n3E89DOZyffePLjD82sWwC8Uh9w2z5eFkeXxbnQbizX3zkfPw+7Z2PzymDgQoGBeL39+rEeWgbLoB7+fh9+CyRLZ/zHo/4fb3y9LdtAhL9bfOJ6qcS/VHt2RC3K0iiv+Hccaur2HNNxl6NeA8xWvfjyDQ98vR5UfXIfiL0vSlz99xzjz355JMudQ8R+Dzuvvtut6ghP8pM5UOmeKPzzAxA0iPe+QEm0p/pePx4M0LviX5+ZDg2PpqBCwkuAojU/+1vf+vS9njnZBrfL3/5S5fnb8uWLUbaIaI1KZ/pfEQEhPXHvqn2khs8arhQZdZUvPQSEv1h/r9ZdReBwhIIsujfu3evm/XFNHN+G7SJgAgEg4BEfzD6QbWIJoFcRT+BXQSBaRMBEYguAQIrCcokyJOAy9WHVth9E35jP+3/J/bWkp524uLx6Da+hFsm0V/CnR/UpgdJ9AeVUbb1ihfjPEfWI0iI0CcvPuL91ltvdXkFke8sgMODFDpMxWN0n4V7yTXoTbGjHI5FwCNY+CEhPz+RA/Gin3Q8zAxIJmEYBGAwgb/eOZnKx9Q/6kRZzA6YOXOmSylEPj9S95C3T1v2BCT6s2enI0Wg1AgEWfQzM4z0bsz+0u9CqX0z1d4gE5DoD3LvqG5hJ5CN6CfAilSujzzyiMshz++nNhEQgWgSwKFwbdyhQwc385XgSYn+aPZ1Yqsk+hOJ6HXRCUj056cLkB8sooPYZ2qftyHqyY9PVD/T7MivP3jwYCdL+HHgUVZWFlsYF9E/fvx4N5XQK4P8gRxH/jyi9kmjQLnxop+BAiL/yWfIZ2yLFi0yfnD4i+gnNQ8XoJyTmQIsqMgsAdIEMUOAgQbSMrA/AxLKxez1QHZ/Jfqz46ajRKAUCUj0l2Kvq80ikBsBif7c+OloEWiLQDain3tA7uOYvU2KVBZ2jU/T0tb59JkIiEC4COzbt8/69evnBvZY/Hj//v0S/eHqwqxrK9GfNTodmC8CEv35IUuOP9LhkP6GaPk1a9a43PgTJ050C/TyF8lO1DxR+aT2QbyzqM8bb7wRW4yXXPlE3rOvt5Hvj2OefvppN5jgpfWJF/1E5rPA7tChQ920sfnz57uLTFIGkU6IY0kJtGnTJpfnn0EJZhVwHurG2gKkB6JOvL7rrrvcAERi3kKvTvrbPgGJ/vYZaQ8REIGrBCT69U0QARHIlIBEf6bEtL8IpE8gG9FP6dxP9ejRw8k/JCCLxcbnbU+/BtpTBEQgqAQImhw3bpxzLARisv4hjkYR/UHtMX/rJdHvL0+V5gMBiX4fIKYoYteuXS71zbBhw5w4J3Kf56TVIVIeaU5U/6RJk5yQHz58uPuL/EfUE4nP/suXL3dR9/Gn4Rhy85Nihyh8NvI+MkhAmWxIfMrkvIwqkzOOxXaJLiHi/6OPPnLn4xyjRo1ywp8LTy5AmXbGIAEpghgQmD17dix9kCtc/8mYgER/xsh0gAiULAGJ/pLtejVcBLImINGfNTodKALtEshW9HNfxn0WUf0EcJEOlXu9DRs22M6dO/UQA30HQvwd2LZtmy1ZssRGjBjhMjaQpqt3794uEwIuR6K/3X9aI7GDRH8kujFajZDoz29/ksKHVDykzEHKI+PJt++l0+HsjPYSOY+Y99LpeJ+TlocyEiPpEfZMDyMC39uX55zLixJB6HM85yXtjjd4wDn57NixY7F6VVZWxs5BeYxK88PFsYl1yi+x6JYu0R/dvlXLRMBvAhL9fhNVeSIQfQIS/dHvY7WweASyFf3cV3HPRuAVsp/83V27dnUBW6y7pocY6DsQ3u/Am2++aS+++KIbxEPyE4hJmmVvfUWJ/uL9m13IM0v0F5K2zpUWgSCJ/pr9a+3891Os4UKV2bW88mk1QjuJQBsE6s+U24V1M6z28GZrbrjSxp75/UiiP798VboIRImARH+UelNtEYHCEJDoLwxnnaU0CWQr+qFFgBWynxnZpPFhDTakoB5ioO9ANL4DDN6RDYF0zZcuXYr9IynRH0MR6ScS/ZHu3nA2Lkii/9TX/exQn3+12sNbrLnpxwVsw0lWtQ4Kgcu7V9jh/r+2M4tGWFPtxaJVS6K/aOh1YhEIHQGJ/tB1mSosAkUnINFf9C5QBSJMIBfRDxZmZzMjmzXVWDttypQpbh001mLTQwz0HQjnd4DBO1JxsQ7i0aNHrba2tsW/ghL9LXBE9oVEf2S7NrwNC5LoP/HFC7a3y0+spmyNRH94v1KBq/mlLfOs7KWfWdXMvtZUc75o9ZPoLxp6nVgEQkdAoj90XaYKi0DRCUj0F70LVIEIE8hV9HtoSOVDutVz58659KykaNVDDPQdCOd3gDU4iOD31kz0/j/3/kr0eySi/VeiP9r9G8rWSfSHsttU6QwISPRnAEu7ioAIBIKARH8gukGVEIFQEZDoD1V3qbIhI+CX6A9Zs1VdERCBHAhI9OcAL0SHSvSHqLNKpaoS/aXS06XbTon+0u17tVwEwkpAoj+sPad6i0DxCEj0F4+9zhx9AhL90e9jtVAE/CYg0e830WCWJ9EfzH4p6VpJ9Jd095dE4yX6S6Kb1UgRiBQBif5IdacaIwIFISDRXxDMOkmJEpDoL9GOV7NFIAcCEv05wAvRoRL9IeqsUqmqRH+p9HTptlOiv3T7Xi0XgbASkOgPa8+p3iJQPAIS/cVjrzNHn4BEf/T7WC0UAb8JSPT7TTSY5Un0B7NfSrpWQRL9FzfNsVNfv2v1p4+YNTeVdL+o8f4RqDu+x07P/cCqdyy15vpa/wrOsCQtxpshMO0uAiVMQKK/hDtfTReBLAlI9GcJToeJQBoEJPrTgKRdREAEWhCQ6G+BI7IvJPoj27XhbViQRH9TzUVruFBlzY1XwgtUNQ8cgeb6Omu8eMqaai+ZNTcXrX4S/UVDrxOLQOgISPSHrstUYREoOgGJ/qJ3gSoQYQIS/RHuXDVNBPJEQKI/T2ADVqxEf8A6RNUxC5LoV3+IQJQJSPRHuXfVNhHwl4BEv788VZoIlAIBif5S6GW1sVgEJPqLRV7nFYHwEpDoD2/fZVJzif5MaGnfghCQ6C8IZp1EBEyiX18CERCBdAlI9KdLSvuJgAh4BCT6PRL6KwL+E5Do95+pShSBqBOQ6I96D19tn0R/afRzqFop0R+q7lJlQ0xAoj/Enaeqi0CBCUj0pw/8wIEDNmvWLKuqqmp1UHNzszU1NRl/2RobG2PPW+2c5hvTpk2zlStX2vLly23hwoWtHkeOHLFDhw7Znj177PLly61KpS579+61RYsW2fTp0105FRUV1tDQ0GpfvSECmRCQ6M+ElvYVgcwISPRnxkt7i4AImEn0l8a3QKK/NPo5VK2U6A9Vd6myISYg0R/izlPVRaDABCT60we+Zs0a69OnjyH8E7d9+/bZ999/bxcuXLD6+no3IFBZWZm4W9qvz549a7169XKCHkk/YcIE6969u3vv008/da93795tc+fOtc8//9ySnWvVqlU2cOBAmzhxoqvP2LFjrX///rZz507J/rR7QjsmIyDRn4yK3hMBfwhI9PvDUaWIQCkRkOgvjd6W6C+Nfg5VKyX6Q9VdqmyICUj0h7jzVHURKDABif70gXuif8GCBfbVV185eX7ixAk7efKkDR8+3Hr06OGi7vns8ccft88++8z4/LvvvjOk/Lx582zq1Km2a9cuu3Lliov43759u82cOdNmzJhhmzdvtpqaGlehtWvX2tChQ23Hjh127NgxI3r/zTfftA8++MC2bNniXl+8eNG+/PJLJ/OPHj3aqiFvvfWWDRs2zBiEOHPmjO3fv9+++OIL45ycX5sIZEtAoj9bcjpOBNonINHfPiPtIQIi0JKARH9LHlF9JdEf1Z4NcbuCJPovbZlvp755z+rPlJs1N4WYqqoeJAJXKvfZ6QVDrHrXcmuuryta1ST6i4ZeJxaB0BGQ6E+/yxD9zzzzjI0cOdJJe6LjEe0IdJ4j+pctW+Yi6Dt27Oii7kmV8+qrrzpB/80337jo+7ffftsdg7BHxDMwQGQ+0fdIeFLrEH3PAMC5c+diFeTz0aNH26lTp2LvEe3P+8lEP+8zOEC9Se1DKh9mCly6dMmlGYoVoicikCEBif4MgWl3EciAgER/BrC0qwiIgCMg0V8aXwSJ/tLo51C1Mkii/+SXr1vZy39lNQc3WHNTY6g4qrLBJVC9fbEd6PVPdmrO+9ZUc6FoFZXoLxp6nVgEQkcgSKLfy3NPrnseRL6TrobIeOS29358LvxCAkeYd+7c2ZYuXepS9MyePdvee+89O3jwoI0aNcpJeyLv161bZy+88IKL0D9//rw9+uijseh+xP9zzz1n8+fPd2l5XnnlFVu9erVr3/r1690MAKLtSdvD+eLz6Wcq+knR89FHH1m/fv1swIAB7jk5/xH92kQgFwIS/bnQ07Ei0DYBif62+ehTERCB1gQk+lszieI7Ev1R7NWQtylIov/EFy/Y3i4/sQvrZtiVkwfsyqnDbQr/xpoLVn/6qNuPfRMfzY2pF7Zrqr3Y9rENqafPN9VeytuxTW1EnDfVXbb6M6nb23SF1AJXFxxM/Frm9di6y2bXFjpsdd4rNW6GRmLfeK/brHN9bTvHpj5vc0Nd7NizS0da2fM/taqZfa2p5nxiFQv2WqK/YKh1IhEIPYEgif5NmzbZ+PHj7ZNPPnGP999/35566ilDhhP57r0/btw4ly6n0PAR7y+99JJb4JZz8/qdd95xop8IfGQ/aXyIymeAgoVwkeqIfgS7J+179+5tU6ZMsW3btrnZAUj4IUOGGCmBGBgoLy839mGR3fgtU9HPgAhlUU8W5J00aZK9/vrr7nl1dXV80XouAhkRkOjPCJd2FoGMCEj0Z4RLO4uACJgW4y2VL4FEf6n0dIjaGUTRf6T/r6182P1WPvwP1nj5x+nxiVgvbp5rFZ885vZj38RHw4WqlOL70rZFVjHq8VbHeGXUnz2WUl6TAqbi0ydSHnvl1KGUqYcu7/nOKj59MuWxdZX7zJqSpy26vH+tVXzWKfWx5TtSDozUHNxoxz/rnPLY2iNbrbkp+cBIzcH1bR5bc2C9pRpUodzjo59Kfd6j21LWua5itx0f83TKY93Mj8b6xK+Fe81A0fGxXdyxh/r+u+19+r9K9CclpTdFQASCSCBIop9I+BdffNEeeeSRNh/knidvfaE3hPlrr71mZWVl7tS8RsizOG8q0Y9QR/SzMG5j49UZhBxDrn7S8jADgIh+cvT37NnTzRZgpgAL7h4/frxFEzMR/bW1tS49kCf0mS3BIMLgwYPdI7HsFifSCxFoh4BEfzuA9LEI5EBAoj8HeDpUBEqUgCL6S6PjJfpLo59D1cogif4zi0fY0cH32pGB/xl7NFafTcnzwoZZVj7097F944/jecP5EylFP4ME5UPvT3ls/WnWCUgeHX9p+yIrH/aHlMcimVOtMVC961srH/ZAymOR25YibdHlvautfPiDKY+9KuuTpzyq2b/Wjo14KOWxNYc2pZT1l8vWtHns5bIfrDmFcKfcYx89nPK8tYc3pxxgqCvfacc+7pDy2JqyNSnPy4DJsZEdWxx7buU4a6orXrSkIvpT/q+sD0RABBIIBEn0kz++T58+1qFDhzZF/7Rp01zqnISm5P0lYp+c9+TkZ+M1KXZ4/fnnn9uHH37ocuUT0U96HmYoXLhwwYl+UuicPn3apebp1q2bLV++3El9BgDYh8/I8T958mRjIIPUPokpdlKJfmYVsJAvswl4sPAuLJklwBoCpAtC/DM4Al/WGKiqIkBBmwhkR0CiPztuOkoE0iEg0Z8OJe0jAiIQT0CiP55GdJ9L9Ee3b0PbsiCJ/itVh4zocKS090glkAHecL7S5fP39k3829bCqwwCEBGeeIz3+mpKmeTdykyBNo8llU2KFDqNF08b0fXeeRL/khYo1QBDY/WZto8l/3yKwYnG6nNWeyj1eRsvn2/j2LNtH8tgTKrzXj5vtYc2pWxvW+dtqrnY9rFtnBehX3toc4vzkuapmGs/SPQn//9J74qACLQmECTRT6qZMWPGWKdOnVKK/ieffNJJbS8NTusW5e+drVu32vDhw2ML3/KalEIshIv079u3r1uIl4h/8uKzQO/u3buNhXkHDRrkBgP4SxlIdwYCiNxnEGDEiBEu3z+zGhhMoGxvBoDXImYNsPguEt/bSMlDOh4GASiDB7MFKisrXYoeIviHDh3qpD/n5UHKINYB0CYC2RKQ6M+WnI4TgfYJSPS3z0h7iIAItCQg0d+SR1RfSfRHtWdD3K4gif4QY1TVRaBdAhL97SLSDiIgAtcIBEn0U6Xvv//eLWSbKn0PMr0YaXuoG6lvkPiXLzPI3vI10feIeyLreU5+ffLyU1dS9yDkWWyX90jXU19fb3V1dW4/ovpXrFjhFh++ePGik/xE+Sduhw4dcjn34yX9iRMnbMOGDY4b7HgwSEAda2pqXPmkBlq2bJn98MMP7tzxxyeeQ69FIB0CEv3pUNI+IpAdAYn+7LjpKBEoZQIS/aXR+xL9pdHPoWqlRH+oukuVDTEBif4Qd56qLgIFJhA00X/q1CkX0Z4qfQ+paJJJ8AJjS/t0yHZEP5KfPPnaRCAKBCT6o9CLakNQCUj0B7VnVC8RCC4Bif7g9o2fNZPo95OmyvKFgES/LxhViAi0S0Civ11E2kEEROAagaCJftL3jBo1ykjRkxjV/8QTT7io+WKk7cn2C0PkPul2ysvLJfqzhajjAkdAoj9wXaIKRYiARH+EOlNNEYECEZDoLxDoIp9Gor/IHaDTtyYg0d+aid4RgXwQkOjPB1WVKQLRJBA00Q9l0tiwmG2i6O/du3fR0vZk2/tE8TMDAeGvTQSiQkCiPyo9qXYEkYBEfxB7RXUSgWATkOgPdv/4VTuJfr9IqhzfCEj0+4ZSBYlAmwQk+tvEow9FQATiCARR9JN3vlevXq1EP4vMkidfmwiIQHEJSPQXl7/OHm0CEv3R7l+1TgTyQUCiPx9Ug1emRH/w+qTkayTRX/JfAQEoEAGJ/gKB1mlEIAIEgij6Sc3z0UcfGal6vKj+xx9/3DZu3GiFTNvDwrgVFRXGX1IKsbGALoMNZ8+ejT14z8u/z37nzp1znyWra2Njo61Zs8ZOnz7d6tvD+gTbt293i/m2+jDJGyyqS90Sz1NdXR2rW3w9WS/AawczDM6cOWNHjx5t0b4kp9FbItCKgER/KyR6QwR8IyDR7xtKFSQCJUNAor80ulqivzT6OVStlOgPVXepsiEmINEf4s5T1UWgwASCKPpBsGTJEuvWrVtM9L/xxhsuz30h8CDOSR80cuRIN+AwaNAg27Fjh0u/891339ngwYPdY9iwYcZj165d7jMEO7MOPvnkE/vwww9dbn5Ee/xWW1trr7/+uhP63uCA9znSnfNyTFVVlR08eNDYP9U2b948e/fdd2337t3GAIK3TZ482QYMGODq4NWVv6tWrTLqyHoBo0ePdu377LPPXFsmTZpkJ0+ejA1YeGXprwgkIyDRn4yK3hMBfwhI9PvDUaWIQCkRkOgvjd6W6C+Nfg5VKyX6Q9VdqmyICUj0h7jzVHURKDCBoIr+Y8eOWc+ePWOiHxFdqLQ9iPP+/fvbjBkz7Pvvv7chQ4bYxIkTXRT+uHHjnFyfM2eOrVy50j1INYRonzVrlg0fPtwWL15sixYtso8//rjV4MTly5ft0UcftbVr17po+gMHDhjvsRFhv2/fPif658+f786J7E+M2GdfIvlJb9SpUyebNm2am0XgfXXg9t577xllfPvtt7EH52IWAHKfgQDquWHDBldXBgyYacDsBG0i0B4Bif72COlzEciegER/9ux0pAiUKgGJ/tLoeYn+0ujnULVSoj9U3aXKhpiARH+IO09VF4ECEwiq6Ce1zNChQ42UPaTvWb9+fcEWtEXcI8BZRJdt2bJl9umnn9rx48ddFDyDDkTcI829VDhE3r/yyiu2fPlyq6ysjEl7IujjN0/0I+IZPKCNEyZMMNL2MDNgypQptmnTJuvbt689//zzRtQ+Uj9xY2bB22+/7fZn37KystguiP6vvvoq6XHs9Oabb7qZCETwszFIwblJU5RsUCFWsJ6IwDUCEv36KohA/ghI9OePrUoWgagSkOiPas+2bJdEf0seehUAAhL9AegEVaEkCEj0l0Q3q5Ei4AuBoIp+Gvf1119bly5d7NlnnzWi0YuxIb5Jc/PNN9+4GQWk8enevbuL8h84cKB98cUXLuXNkSNH7KmnnnJpcBD3CHxke2LqHsQ/Ef2IfqL6EfZdu3a11atXu0GCPn362JYtW9zn77zzjm3evLlVlD1ivl+/fk7yM/Phtddes6VLl8bS/CD6OZYZBgsWLIg9GJwgXRDvvfrqq+4c1JF6UE9v0KIYnHXOcBGQ6A9Xf6m24SIg0R+u/lJtRSAIBCT6g9AL+a+DRH/+GesMGRKQ6M8QmHYXgSwJSPRnCU6HiUAJEgiy6N+/f7/16NHDpZohrU2hN6L0keKff/65y5ePYF+4cKET7KTmIdqe9Dmkzlm3bp117NjR1ZUUOHxGRD4zEeKj5C9duuREP+WQJocyvQh8zoXoZ1CDGQQMMCDnEze4sH4BqXeYfcDCxaQXYsYBG+WxDgD1Jl+/9yBiH9HPTAUGFlhPgIEK1hlg4IGFgJlJoU0E2iMg0d8eIX0uAtkTkOjPnp2OFIFG5MzhAAAgAElEQVRSJSDRXxo9L9FfGv0cqlZK9Iequ1TZEBOQ6A9x56nqIlBgAkEW/aTGIec9Ue2FFtAIdlLrkEqHtDje+c+dO+dEOYKeCPjx48e7nP0//PCDE/1Ex/M+dWeQgpkA8el7PNHPYIAXQf/WW2856T537ty0RD/nfOKJJ1xU/4gRI4yFih966CHbuHFjbOBgzJgxtnfvXiPi33t4C/si+zk3dUH+M4OAAQZy9ycbWCjwV1KnCwEBif4QdJKqGFoCEv2h7TpVXASKRkCiv2joC3piif6C4tbJ0iEg0Z8OJe0jArkTkOjPnaFKEIFSIVAQ0d/UZPVHD1vd3l0ZP9ZMn2on1v1gtXt3Znxsw9nT1tzYmHFXIuYR5Qj1Q4cOxSLyEeRE8u/ZsyeWn3/kyJFOuDMYgNhfsmSJS6FDLv4XXnjBLYhbU1MTq4Mn+klLxPsMILAfkp8I/fYi+kmx8+KLL9rYsWNtxYoVLvUP6X84N4MSLFjszRBIltufz4ni37lzZ2zwgnYxYMACveXl5bG66okIpCIg0Z+KjN4XgdwJSPTnzlAliECpEZDoL40el+gvjX4OVSsl+kPVXapsiAlI9Ie481R1ESgwgXyL/uYrdXZp6Xyr6v+GnXjjBavsldnjcPdnreL15zI+jvOcGv6+1ZXtseaGhoyoEp3PIsAsckv6HFLgINGJdkfQ9+/f31iQd9y4cW4B3vnz57voeFLvkDsfkU46HRbnRah7kftUAvlOih+EPmUxmIDo37Ztm61cuTIm+qdPn+6Onz17dmxRYI5nYWBEPoMNCHpvY4CByH7S+vA54v+TTz5xdaf+PEgXRHqfUaNGuZRDDBaQo59Ifvb32uGVqb8ikIqARH8qMnpfBHInINGfO0OVIAKlRkCivzR6XKK/NPo5VK2U6A9Vd6myISYg0R/izlPVRaDABPIp+psunrcLs6ZaRbfH7ch9v7bDd99Y0MeR+39rJ995zWp3bLXm+itpk0Wiz5gxwz1Y0JYHEpxoemQ/sn3OnDnuvVWrVrn3ke5Eyy9fvtwdR95+0vjEp+2hAqT04Vii8ZHzCH0i8on0P3r0qFEe6YF4PnPmTLdffGT+1q1bjYGI+PcolzUMEPnk7KcOlMvxXv35S15+jiNqn0EJ3mM//jLIwHnjBw/SBqYdS46ARH/JdbkaXEACEv0FhK1TiUBECEj0R6Qj22mGRH87gPRx4QlI9Beeuc5YmgQk+kuz39VqEciGQL5Ef8OJ43Z2wqd2rPMDdvjemwoq+OMHFBhgOPHmS1azca0119WmhYh0OqTeQdJ7D157kfnk50eYk/Pee88rmGMZEOBz9kvcEOmk7PHKQK57i/XylwV6vTK9c8eXw+cMFiQKea9cyqBe3rHxfzmvV7Z3/lOnTrm2eu8n1levRSAZAYn+ZFT0ngj4Q0Ci3x+OKkUESomARH9p9LZEf2n0c6haKdEfqu5SZUNMQKI/xJ2nqotAgQnkQ/TX7d9npz8aaEc73m2H7/lV0SR/TPjfe5NVvtrVqld/a001lwtMWKcTgegRkOiPXp+qRcEhINEfnL5QTUQgLAQk+sPSU7nVU6I/N346Og8EJPrzAFVFikASAhL9SaDoLREQgaQEfBX9pK9Z/4MdH9jXDjx8h+2765e2947/KPpj3503WNm9N1l5j652euEca7h0MSkLvSkCIpAeAYn+9DhpLxHIhoBEfzbUdIwIlDYBif7S6H+J/tLo51C1UqI/VN2lyoaYgER/iDtPVReBAhPwU/Q3NTTY8tdesOk3/y/78hc/t6n/9nc29V//tviPf/tbV59pN/y9ze30kJ09uL/AlHU6EYgWAYn+aPWnWhMsAhL9weoP1UYEwkBAoj8MvZR7HSX6c2eoEnwmINHvM1AVJwIpCEj0pwCjt0VABFoR8FP0N9bX25TH7rfB//xXgX18evsNdnL3DpfnngVw4/Pft4ITsTfI48+CwawjoE0EciEg0Z8LPR0rAm0T8Ev0s17LoUOHjEXcN27cqIcY6DsQ4u/A5s2bbffu3cbaTsnWVZLob/vf1ah8KtEflZ6MUDsk+iPUmWpKoAlI9Ae6e1Q5EQgUAT9Ff3NTkx1Ytdx2zJ4R2MfeRfOs5txZ27Nnj3355Zd28uTJQPVHPirjyX0E/8SJE534SVzMNx/nVZnRJSDRH92+VcuKTyBX0c/i8Yj9CRMm2IABA+zNN9+0Xr166SEG+g6E+Dvwxhtv2Ntvv20ff/yxLV682F2/xl/LSfQX/9/uQtRAor8QlHWOjAhI9GeESzuLQNYEJPqzRqcDRaDkCPgp+sME77vvvrPevXvbwYMHw1TtjOtaV1fnBjSOHTvmZi+sX7/ezpw5k3E5OkAE4glI9MfT0HMR8JdALqK/urraFi5c6H7fnnzySXvkkUf0EAN9ByL0HXj00UfthRdesHHjxtmRI0fMk/0S/f7+OxzU0iT6g9ozJVwvif4S7nw1vaAEJPoLilsnE4FQE/BT9DdUnbDaHVusdsuGYD92brOVixfFRH9DQ4MtW7bMtm/fbojxXbt22RdffGEjRoyw6dOn24kTJ6yiosJFUJ0+fTrW36tXr7adO3e6Y2Jvmrmp1fHHV1ZWumnWSPYNGzbY7NmzbeTIkU7Anzp1yh1K1P23337rIjBnzZplx48fN+o1b948+/777119vvnmGxelichhI2qTzw8fPmxz58416jNlyhRX9g8//GCkJpoxY4Y99NBD9uGHHxqyn/1oCzeGtJd6Updp06a5czIdfM2aNS3qSRnx7Y5vq56XJgGJ/tLsd7W6MASyFf3M2iLSt3v37taxY0fr3Lmz9e/f3/2u8FvGv+V6iIG+A+H7DvD/79SpU9116fPPP28dOnSwZ555xsl+rhfZJPoL8+9zsc8i0V/sHtD5WxGQ6G+FRG+IQF4ISPTnBasKFYFIEvBT9FevXGon3+5pld2fDfTjZL9etnzqZCf69+/fb4sWLbKhQ4fajh07XFqbgQMH2ueff+6k+JAhQ2zSpEm2d+9e69mzp61bt84J+JqaGpcOAbl+5cqV2HcDie4dP2fOHPOOR5R/9tlnroyvvvrKlf3SSy+5AQbE/eTJk11aHSTNRx99FLt544burbfecjd43JxTNmKfjXytpGXgb7du3ez999934p/0PK+99pprD4MGjz/+uCufAYvnnnvODRYcOHDAHYvoJ/qTgQCeM/DA+V9//XWbOXOm0QbqySAEgyDaRAACEv36HohA/ghkK/qZoYbYR/Lzm0B6On67mMV18eJFN/jLALAe/jNo79sQJuZ+tMWPMsLErBB1JSCkvLzcVqxYYX379nX/n3ft2tW9JjBEor+9b100Ppfoj0Y/RqoVEv2R6k41JsAEJPoD3DmqmggEjICfor/qi9F2pMNddvjuGwP9ONThLls69jMn+slhjORetWqVIe+JkH/11VfdjRNCnddMkSan/6BBg5yMP3v2rFvcsE+fPrZv377YtGm6dv78+e54xDjH85rjkS3Dhg1zAh3Jzk0Zkp4I/C1btjiZTuQ+EZmUuXbtWuM8SHrEO5KeB9Kd/Tj+008/dXIeucNUbgYkkDncDHJOoveJzu/Ro4ebZUD7KI+yGTTo16+fMdBBFD8DFq+88opr5wcffGC0jXKpDzlhiSa7cOFCwL69qk6xCEj0F4u8zlsKBLIR/czSYtbXH//4Rxfty29bVVVVi9+nUmCnNopA1AkQdLF06VJ3zUZqLoJIuD6U6I96z19tn0R/afRzqFop0R+q7lJlQ0xAoj/Enaeqi0CBCfgp+g8N6W8H/3BroCU/gxD7fvdrW/zZJ9apUyd7+OGHncgmrQ0b8hxRMnz4cBdVz2tEOXKe1Dssaogc532iJZHx8Rs3XByP1Cd/KvuRRoFjKJNF1LwFgHlO9P2SJUvsxRdfdDKeshA2yPfGxkYn5hH2tbW17n2kP8cwiMDiioh8ojUR/QwAcBwbop5BBAYwkol+0hJRV0QQG1FiTz/9tBt0QPRTb+8zZiUwZTyxre5A/ackCUj0l2S3q9EFIpCN6GdQljRsXv7uTZs2xX4PClRtnUYERKBABJh9yUxURD/Xe6SRlOgvEPwin0aiv8gdoNO3JiDR35qJ3hGBfBCQ6M8HVZUpAtEk4KfoL3uvjx34/W8CL/r33HWjLfp0pHXp0sVGjRrlIvDJ0U/E+/jx413aG9LZkE8fub9x40aX6oAUO8h1L+qfz4msj9+IoiRtzoIFC1odj1wfPXq0S4/DMUgZBgOIsCelDjnz2ajHoUOHjPM98cQTtnz5chdZz2fbtm1zN3XIfgQ8C7ExZRy5wywCrz6k3iHvPosOJxP91IOBBtYPYGMggynglM8MB+rl5eXnPJxPi/g6VPqPUvfoOyACeSWQjejn92Lw4MFO/DELq6ysLK91VOE/EvAWQ/3xHT0TgfwSIBCE6zRy9XONx8CeRH9+mQeldIn+oPSE6hEjINEfQ6EnIpBXAhL9ecWrwkUgUgRKWfQj7UmpQx56IvWR3ETIv/zyy25aNFOhkexI+3Pnzrl+R54ToY9IIQo+cWNQgOOJ0idyH/nO8UTDI/rJ/e8twIvoHzt2rJP1Xh5+BD+L9TLggIRH9BOVz00dG5H97Mv7pAVC7niin/z9zBxgrQHyM3Pc1q1b3XPqg6j3UvewWC8DEuR65TwMULzzzjtupgApisjX74l9RD+fe+I/sc16XXoEFNFfen2uFheOQDain98B/u0mwpe0cKReK+WNtXOYlcai9d7Gbxip7byZb977uf4t1my3dNPpsY6PtugR4DqN9ThIu8i1p0R/9Po4WYsk+pNR0XtFJSDRX1T8OnkJEZDoL6HOVlNFIEcCpSr6102bEpPp5LVHrBPFj/RmEVrS2iDlSWGDMEeos5Eyh+h5ZHy8QPC6gf3ij6cc73iOYeFf7+acfMqcE/HATRrSn/1J+7Ny5Up3TqLrifSPFxOkDCL6HqHP+wiexx57zOXyJ10PkfrcADLQwAAFr0kbxCAAgwG7d+92dWBRYM7HedmHQQ5mE/A+AwNwYaM9vPbq7bVVf0uXgER/6fa9Wp5/AhL9+WesM4hA2AlI9Ie9B7Orv0R/dtx0VB4JSPTnEa6KFoE4AhL9cTD0VAREoE0CpSr6T6z93kXks6gZG5F/R48eNV4juHft2mXr1q1zEf/Ib2/zFrfl81TT9RHvyY5nhgDn8dLrxL8mvzLpc0gHxLHeOXmP+njnon7k6UfQezn0GVxA9BOdj/xn0IDPmAXAcbSLiD6iDpH91I+NAQb2p52keWC2ANvx48fdrAOvngx+MAvBe+120n9KmoBEf0l3vxqfZwIS/XkGrOJFIAIEJPoj0IlZNEGiPwtoOiS/BCT688tXpYuAR0Ci3yOhvyIgAu0RKFXRf3nX1Xz47fHxPkeCE+net29fmzVrlpPk3meF+oukHzNmjEsbhLhncICNmQWIfgYJtIlAIQhI9BeCss5RqgQk+ku159VuEUifgER/+qyitKdEf5R6MyJtkeiPSEeqGYEnINEf+C5SBUUgMAQk+tPrCvL9rl692uXcJ7o9PpVOeiXkvheR9UuXLnWLrsWnDSLSnpRAzBDQJgKFICDRXwjKOkepEpDoL9WeV7tFIH0CEv3ps4rSnhL9UerNiLRFoj8iHalmBJ6ARH/gu0gVFIHAEJDoT78rkPteCp30j/JvT87tpeNJLBXZX8y6JdZHr6NNQKI/2v2r1hWXgER/cfnr7CIQBgIS/WHoJf/rKNHvP1OVmCMBif4cAepwEUiTgER/mqC0mwiIgEn060sgAiKQKQGJ/kyJaX8RSJ+ARH/6rHLZc16n6+y66wdbWS6FtDq2zAZfn49yW50o6RuuTZ3mJf0sGG/Os07XXWeBrmIwQLVbC4n+dhFFcgeJ/kh2a7gbJdEf7v5T7cNDQKI/PH2lmopAsQkUWvSfeKuHVb72nB154DY7fPeNKR/lne63yp7d7ESvF6zy9efsePcudrTDXXb4nl+lPKat8uI/23PXjZZpjv5i95POLwJBIiDRH6TeUF2iRkCiP50evSbUr7vOrnOP621whsZeoj8dzv7uUzb4ervuuk42zxL7z+vHuL/eaMC8TnbddW31b2JZbe3rb3uKWZpEfzHpF+/cEv3FY68zpyAg0Z8CjN4WAZ8JSPT7DFTFiUCECRRS9B99+A679O1iq92+2c5NHG3Hnn7IDt97U0zcH33kTjvRt7udmzzWqr9bbrU7t1rd7u1Wu3Ob1W7bZJeWL7Qznw234y8+ZUfu/03suHiJH3vexoCARH+Ev9BqWkEISPQXBLNOUqIEJPrb6/gkUfNlg+36DKPz8yP626t7fj9PK6I/lThP9b5vVb7Wb57Ajy+3rXO39Zk3YBDf91l8F+KrEpbnEv1h6Sl/6ynR7y9PleYDAYl+HyCqCBFIg4BEfxqQtIsIiIAjUEjRf+QPt1rVwL5Ws2GN1VeUW/WqpXbynddcdP+hpx60s9MnWt3endZ48YJZU1OrHmpuarKGqpNWs2WDnfl0qB199J6Wsv+eX9mxZzvY6RED7cyYEVb++H0tP782g0CivxVavSECGRGQ6M8Il3YWgYwISPS3h+tq+pfrMw3hTyhWor8VkHYi5xP2z/QlAj5V2p62ZH5bn5k/34VMmxKE/SX6g9ALha+DRH/hmeuM7RCQ6G8HkD4WAZ8ISPT7BFLFiEAJECik6Cfa/sh9v3ZpeM5Pm2BXjh6yuj077dykMbbhxc62b/Z0q0Pym1lzU6NdrKywE7u2W9W+3VZz9ow1NzbGeqThxHE7NWmMHXn0Xjvy+99YZY+udnbCp3b5h5VWf+yI1WxcYxXdHkua6keiP4ZRT0QgKwIS/Vlh00EikBYBif72MF2Vu9cliwyPO9SJ/Fhqn+sscf+kot9J5bj0MfGR4mbmRcxfTUFzbb9k+8TeSx7FnnjuNsuNr1Os3LiGxj1tsxyv/vFMrrvOGDBxxyV5n6L5jH1atNml34k78TWJfzWNUvIc/O74VPVvS+a39dk10Z/Yt3E1i+xTif7Idm2bDZPobxOPPiwGAYn+YlDXOUuRgER/Kfa62iwC2REotOj3UuuUP/Y7q3q/7zUxf9TKly+yHz4ebGtGf2S75n1tG74YY1umTbJtM6fa1hmTbfUnQ23TlPF29sghq7t40co3rrV1Hw+yo4PetfOzprrUPsj/2m2b7dzUcW6mAKmAkuX0l+jP7ruio0TAIyDR75HQXxHwn4BEf/tMf5TOyfOxe3I6VlKSaHInt+PE89UyyR/vba1TBMWEeGyQoXVEectyMxD9iPaEcp04T3ivrZkM6dTPUonzFO+3LjORSyIDPo/nCM/EfTzG1/6mOLf7tK3PzOIGIJJ/FxLOFJmXEv2R6cqMGiLRnxEu7VwIAhL9haCsc4iAmUS/vgUiIALpEiiW6HfC/3c32+F3XrMzX06wuoNlVrlts22ePM42Tfrc9iycYxVbN9mpsr12cs8u279iqW2cOMaWD3zH1o4daTu/+crKli2yS2V7rb6ywi7/sMrOjB7hFu49+kjbi/ZK9Kf77dB+IpCcgER/ci56VwT8ICDRnybFFlHk7Une1sK9pZC/KqJjTt2rQoJkdsck7NSynGtR/7EBhNbnpei2j7l68sR9kh3nVdP7m079shL9sfZcO1MLLu1I/KsVbzstUIvyvNYkO1fCZ97LjL4L3kHh/ivRH+7+y7b2Ev3ZktNxeSMg0Z83tCpYBFoQkOhvgUMvREAE2iBQTNG/v8NddvLraVY5c6odH/ORXfpuuVUfPWznjx21hit1rWp96WSl7VuywA6sXGbniOw/fNAuLZ5rVSMGWsWLnY01ALwZA239lehvhVZviEBGBCT6M8KlnUUgIwIS/RnhIqTb5X6/rkU6mWuCPSEdzY8R8wmyPVZGXNqe2LE/DiKkI9JbCvqIiP6EwQ2Pufd2OjMsrkscLIjv5lxFv1dWrB8TZxR4O0Tnr0R/dPoyk5ZI9GdCS/sWhIBEf0Ew6yQioIh+fQdEQATSJlBM0V/2+gtWc+yo1Zw5bWdXf2snh/SzK+VH2qw7C/LWMxgwe5qdnTjaTk+bYBVjPrIjj/8uLcnPAIBEf5uI9aEItEtAor9dRNpBBLImINGfBTonir3c8Nfkegux3Fq4txDy1wSxJ65T1UCi/xqZFLwcHzdAEi/aU8yWiIfsl+inzBbfhfiTROu5RH+0+jPd1kj0p0tK+xWMgER/wVDrRCVOQBH9Jf4FUPNFIAMCRRX9g961mqoTrrZ1Z89Y1fD37MqRg+3W/tKyhXb606FW/d0yq6sotwuHDlj5C50k+tslpx1EwB8CEv3+cFQpIpCMgER/MirtvBcvnuOfxw5rR/S3l0P+WjmZi/5rMwcSRhBaDDIkSeXD6RL3SfVerIneMe2cy//UPfE1cEnz3QwLrxqt1z5I2P9qw1Kn9mlrECBJUYmzDZLtEoX3JPqj0IuZt0GiP3NmOiLPBLZUbLS/H/xT+2n/P7H3v33Lauov5/mMKl4ESpPAhyvftZ8P+nP3/9rao6utoamhNEGo1SIgAu0SKKbo39HvTauuPO7qWHeqyk5/Mtjqyw+3W+fz076wUzMmWf3ZM27fc0cP29Hnn5Tob5ecdhABfwhI9PvDUaWIQDICEv3JqMS9h/hNFq0fS91zNYK8VZqeFovdthbpV4X0j2l63BkTzpWN6E8s15VBXeLakK7UT7ZfHJmrgwOeYb/2Qatjkg6EtBb0Xrmx+sbKTeALo9hnXkS9x7H1AItXbou/bcn89j6L42h27Xyx70KLs0TqhUR/pLoz7cZI9KeNSjsWikDZqT32D0P+wsnHP8563C7VXSzUqXUeESgZAs3Nzfbi7Kfsbwb+qf1F//9i245vsqbmppJpvxoqAiKQGYFiiv6NPf5oF6+l6mmqq7VTQwdY3Z6dZk2p/81qbqi3U8MG2Nnli6yx5mrAwNF1P9iBpx+W6M+s67W3CGRNQKI/a3Q6UATaJSDR3y4i+zEn/LWc+i1k74/S+jovz36nea0keCsB7g673mLHJMh4auWOiZfa3ntx529driefr9b1+sFlV+vf5jGtByJi5487LpFUOvWLlXONTXxz3PEJ73tltmCeUIf44+AXKzPVoELrircT0d967QQ4srWoV5I+SzxVVF5L9EelJzNrh0R/Zry0dwEIXKq7YLeP+Q/7ywH/m10//G9se+UWa2xuLMCZdQoRKB0C+6p2228++1f3/9mvP73ejpw7ZM3WXDoA1FIREIGMCBRT9K/qcI+d2b3TGKBkuzBnhp3/arI1nD6Vsg01G36wqsHvWu3+vUa+frbtX02xvY/eK9Gfkpo+EAF/CUj0+8tTpYlAPAGJ/ngael5sAp7oz6YeVyV8fL7+bErRMckISPQnoxL99yT6o9/HoWzh4JX97b9/8Gcuqv/ZmY/a5ooNSisSyp5UpYNGgKj9XSe324vfPG3//YP/3f0/9uGKd+1C7fmgVVX1EQERCBCBYor+72//he2cONZqL1z9d6qh6oSRlofHlcMHrLnhx7RjTZcuWvWKJXZ6+PtWvXKpNV2udhRrzp+179582Xb97tcS/QH6Xqkq0SYg0R/t/lXriktAor+4/HX2lgSyF/1XU/x4kfctS9WrXAlI9OdKMJzHS/SHs98iX+sdlVvtPz7+uf3FgP9if/X+f7Onpj9ks3dOt43H1tnW45v0EAN9B7L4DjBgNn/PbOv29RP2dx/+n07y/9PQn9m6o99bQ1N95P9dUQNFQASyJ1BM0b/j9n+3eU8+YKf27zW7FtWP4D8z5iO32G79iePWdKXOardvtnNTxlnVB2/bhW9mWOO5s7EG71u60FY+fKftueM/JPpjVPREBPJLQKI/v3xVemkTkOgv7f4PWuuzF/1Ba0m06iPRH63+TLc1Ev3pktJ+BSVQ21BjX2wcbf8y/G+c7P/r939ivx39b/bgpDvskSl36yEG+g5k8R14aPJddtuYX7hIfvLyI/k/+WGInas5q7Q9Bf0XTicTgfARKKboP3DXL23Wzf9s60YNt2rS9TQ3W3NTo105tN+O9u3h0vMg+898Nsyl9Lm8/gdrPHs6lsP/fEW5zX/lWVt/xw1GWYfvvjGtx567brTLu7aHr7NUYxEICAGJ/oB0hKoRSQIS/ZHsVjVKBHwlINHvK87QFCbRH5quKr2Ksgjv5M2fW8epv7O//eD/cAuG/rT/n7goZP0VB30Hsv8OkBbrDxP/08auH2mnq6tiea9L718ZtVgERCBdAsUU/Yj59b/9F5tx9822clA/O3P4oDU1NjrZf+S9PlZzYJ/V7tlppz/+wK4cLIsJfnLzH9u03ha/1dPm3/4L2/2fv0hL8HsDARL96X47tJ8IJCcg0Z+ci94VAT8ISPT7QVFliEC0CUj0R7t/U7VOoj8VGb0fCAKX66tt07H1NnHTWHtrcU97dV436z63qx5ioO9AFt8B/v/pvai7jd/wqa09utou1l2Q5A/Ev3SqhAgEn0CxRf/Bu35pK27+nzb+5v9lc3s+b2XLFtmZQwfs2OB+Vnf4oF1e/72dnTjaGk5Wuoj/iycqbcv0SfbVMx1t9i3X29bb/s0ow5P46fyV6A/+91I1DDYBif5g949qF24CEv3h7j/VXgQKQUCivxCUg3cOif7g9YlqlIRAfWO9VV6ssMNnD9qhswf0EAN9B7L4DvD/z/ELx+xKY12S/8v0lgiIgAikJlBs0Y+YL7vzBvvu5n+2KTf8vU1+8E6b/fxTdqDfG1ZfUW6Xls63gx++Yzu+GGOrPxpkc3p0s0l33WSzb/zHrCQ/55PoT/190CcikA4Bif50KGkfEciOgER/dtx0lAiUEgGJ/lLq7R/bKtH/Iws9EwEREAEREAEREAERSEIgCKIf+U5U/qZb/9UW/PIfbNq//Z0dHNDbGqpO2PlZUxeawtYAACAASURBVG31Y/fZ5DtutPG//Eeb9R//w1bd/M+28z9/YYcyjOT3ov0l+pN8EfSWCGRAQKI/A1jaVQQyJCDRnyEw7S4CJUhAor8EO93MJPpLs9/VahEQAREQAREQARFIm0BQRL8n4ffdcYNtu+3f7eRnw93Cu2fHj7Jtv/+tk/trbrneduUg+L1zSPSn/fXQjiKQlIBEf1IselMEfCEg0e8LRhUiApEmINEf6e5N2TiJ/pRo9IEIiIAIiIAIiIAIiAAEgib6PRl/fvpEa7p4wU6PGGhHHrg1oxz8Xhmp/kr067svArkRkOjPjZ+OFoG2CEj0t0VHn4mACEBAor80vwcS/aXZ72q1CIiACIiACIiACKRNIKii/+LiOdZUU2NV/XvZkftukehPu0e1owjkn4BEf/4Z6wylS0Civ3T7Xi0XgXQJSPSnSypa+0n0R6s/1RoREAEREAEREAER8J1AUEX/2S8+s5otG+z4S0/Z4Xt+JdHve8+rQBHInoBEf/bsdKQItEdAor89QvpcBERAor80vwMS/aXZ72q1CIiACIiACIiACKRNIKiiv+LZDlb5Wjc7+tB/+ir5Seej1D1pfz20owgkJSDRnxSL3hQBXwhI9PuCUYWIQKQJSPRHuntTNk6iPyUafSACIiACIiACIiACIgCBoIr+VPn1/Xhfol/ffRHIjYBEf278dLQItEVAor8tOvpMBEQAAhL9pfk9kOgvzX5Xq0VABERABERABEQgbQIS/Wmj0o4iIALXCEj066sgAvkjINGfP7YqWQSiQkCiPyo9mVk7JPoz46W9RUAEREAEREAERKDkCEj0l1yXq8EikDMBif6cEaoAEUhJIBvRX11dbYMHD7ZHHnnE+vXrZwcOHEhZvj4QAREIN4Hm5mYbP368dejQwbp3726bNm2y1YdW2H0TfmM/7f8n9taSnnbi4vFwN1K1T0pAoj8pFr0pAiIgAiIgAiIgAiLgEZDo90jorwiIQLoEJPrTJaX9RCBzAtmI/itXrtjw4cOd+HvllVds+/btmZ9YR4iACISCwPnz5+2jjz5yA3u9evWybdu2SfSHoudyr6REf+4MVYIIiIAIiIAIiIAIRJqARH+ku1eNE4G8EJDozwtWFSoCjkA2op8I3+nTp9szzzxjjz/+uM2cOdMuXLggoiIgAhEj0NTUZGvXrrXXXnvNif4RI0ZYeXm5RH/E+jlVcyT6U5HR+yIgAiIgAiIgAiIgAo6ARL++CCIgApkSkOjPlJj2F4H0CWQj+il9165d1rt3byf/evToYfPnz7fTp08bYlCbCIhA+AnU1NTY5s2bbeDAgfbEE09Y586dbcGCBVZbWyvRH/7uTasFEv1pYdJOIiACIiACIiACIlC6BPwU/fve72v77rvFDtx5Q6Afu+660S7vUlqD0v3Wq+W5EpDoz5WgjheB1ASyFf1IwK+//tq6devmZP/LL7/s0nsQ6T9nzhw9xEDfgRB/B/h/e9y4cW4w78knn7THHnvMpes6fPiw+8dEOfpT/5sapU8k+qPUm2qLCIiACIiACIiACOSBgJ+if9snQ232bf9uM/797wL9oI5nJPrz8G1SkaVCQKK/VHpa7SwGgWxFP3WtqqqyadOmxWQ/i3US9dulSxc9xEDfgRB/B55++mkn91lwm2j+IUOGuFk89fX17p8pif5i/Gtd+HNK9Beeuc4oAiIgAiIgAiIgAqEi4Kfo3zBhtH180z/bwJ//34F+fHLLv9gJif5QfU9V2WARkOgPVn+oNtEikIvohwSyf8WKFTZy5EgjhQ+CsFOnTnqIgb4DIf4OPPXUU/bcc8/Z+++/b7NmzbIDBw6YJ/n5/16iP1q/A6laI9GfiozeFwEREAEREAEREAERcAT8FP0n9+yy7bOm2aYp4wP92DF7hl0+e1rfABEQgSwJSPRnCU6HiUAaBHIV/ZwCAXj8+HHbtGmTrVq1yol/5L8eYqDvQDi/AytXrrQ1a9bY/v37rbq62liAO36T6I+nEd3nEv3R7Vu1TAREQAREQAREQAR8IeCn6PelQipEBEQg8AQk+gPfRapgiAn4IfpD3HxVXQREIAsCEv1ZQAvhIRL9Iew0VVkEREAEREAEREAECkkg7KL/4sWLLk1B/PTlQvLTuUSgFAlI9Jdir6vNhSIg0V8o0jqPCESHgER/dPqyrZZI9LdFR5+JgAiIgAiIgAiIgAhY2EX/unXrbMaMGXbq1Cm7cOGCnTt3zhobG9WzIiACeSQg0Z9HuCq65AlI9Jf8V0AARCBjAhL9GSML5QES/aHsNlVaBERABERABERABApHIGiin5yjV65ccbI+Mf9oMipz5sxxC5OVl5cb+Uu///57u3TpUrJd9Z4IiIBPBCT6fQKpYkQgCQGJ/iRQ9JYIiECbBCT628QTmQ8l+iPTlWqICIiACIiACIiACOSHQKFFf1lZmS1YsMDOnDnjGtTU1GQzZ860PXv2uIUDic4fO3asjRw50pYvX+6kPVH6X331lZ08edIdg8jn9YkTJ8wT/Swu17NnT+vevbstW7bMLl++nB9gKlUERMAk+vUlEIH8EZDozx9blSwCUSUg0R/Vnm3ZLon+ljz0SgREQAREQAREQAREIIFAoUX/gQMH7Pnnn7ft27cbkr+iosK93rBhgxP7n3zyiX3zzTc2efJke+mll2z37t129OhR69q1q3tO9RH+f/zjH23nzp0x0U8Kn5dfftn69Olj69evt9ra2oSW6qUIiIBfBCT6/SKpckSgNQGJ/tZM9I4IiEDbBCT62+YTlU8l+qPSk2qHCIiACIiACIiACOSJQKFFP2l5evXqZfPmzbPq6mqbO3euDRgwwEi9Q7Q/kh5pT1T+fffd59LxHDp0yJ5++mnbtWuXo1BZWele79ixIyb6Of69996zKVOmuDz9ecKlYkVABMwU0a9vgQjkkYBEfx7hqmgRiCgBif6IdmxCsyT6E4DopQiIgAiIgAiIgAiIQEsChRb9nP3rr7+2YcOG2bFjx1wEPul3SMezcOFCGzNmjE2dOtUJ/HvvvdcJfyL6u3TpEhP9vO7cubNJ9LfsS70SgUIRUER/oUjrPKVIQKK/FHtdbRaB3AhI9OfGLyxHS/SHpadUTxEQAREQAREQAREoEoFiiH4EP7n0Efs9evRwwh7R361bN5s4caLL109anj/84Q+2dOlSl4v/mWeecfuBibQ/jz32mER/kb4zOq0ISPTrOyAC+SMg0Z8/tipZBKJKQKI/qj3bsl0S/S156JUIiIAIiIAIiIAIiEACgWKI/sbGRpdmh5z6w4cPdzn3a2pqXNQ+on/r1q02bdo0l7rn888/d4v0Pvfcc24QYPPmzW6xXqL9EyP6hwwZ4srdtm2bkSJImwiIQH4ISPTnh6tKFQEISPTreyACIpApAYn+TImFc3+J/nD2m2otAiIgAiIgAiIgAgUjUAzRT+PWrl1rgwYNcvn46+rq3MK8ixcvttGjR7s8+4sWLXJif9y4cW7BXnL6jxw50qX1WbBggQ0ePNgt0rtp0ya3eO+ZM2dcWexDfn9mCGgTARHIDwGJ/vxwVakiAAGJfn0PREAEMiUg0Z8psXDuL9Efzn5TrUVABERABERABESgYASKJfovX77sRD1/m5ubXXsR/vv377fdu3e7hXqR9QcPHjT24bFv3z7bu3evk/gVFRXG/hcvXrRTp05ZfX29e83+pAbitTYREIH8EJDozw9XlSoCEJDo1/dABEQgUwIS/ZkSC+f+Ev3h7DfVWgREQAREQAREQAQKRqBYor9gDdSJREAEfCcg0e87UhUoAjECEv0xFHoiAiKQJgGJ/jRBhXw3if6Qd6CqLwIiIAIiIAIiIAL5JiDRn2/CKl8EokdAoj96faoWBYeARH9w+kI1EYGwEJDoD0tP5VZPif7c+OloERABERABERABEYg8AYn+yHexGigCvhOQ6PcdqQoUgRgBif4YCj0RARFIk4BEf5qgQr6bRH/IO1DVFwEREAEREAEREIF8E5DozzdhlS8C0SMg0R+9PlWLgkNAoj84faGaiEBYCEj0h6WncqunRH9u/HS0CIiACIiACIiACESegER/5LtYDRQB3wlI9PuOVAWKQIyARH8MhZ6IgAikSUCiP01QId9Noj/kHajqi4AIiIAIiIAIiEC+CUj055uwyheB6BGQ6I9en6pFwSEg0R+cvlBNRCAsBCT6w9JTudVToj83fjpaBERABERABERABCJPQKI/8l2sBoqA7wQk+n1HqgJFIEZAoj+GQk9EQATSJCDRnyaokO8m0R/yDlT1RUAEREAEREAERCDfBCT6801Y5YtA9AhI9EevT9Wi4BCQ6A9OX6gmIhAWAhL9Yemp3Oop0Z8bPx0tAiIgAiIgAiIgApEnINEf+S5WA0XAdwIS/b4jVYEiECMg0R9DoSciIAJpEpDoTxNUyHeT6A95B6r6IiACIiACIiACIpBvAhL9+Sas8kUgegQk+qPXp2pRcAhI9AenL1QTEQgLAYn+sPRUbvWU6M+Nn44WAREQAREQAREQgcgTkOiPfBergSLgOwGJft+RqkARiBGQ6I+h0BMREIE0CUj0pwkq5LtJ9Ie8A1V9ERABERABERABEcg3AYn+fBNW+SIQPQIS/dHrU7UoOAQk+oPTF6qJCISFgER/WHoqt3pK9OfGT0eLgAiIgAiIgAiIQOQJSPRHvovVQBHwnYBEv+9IVaAIxAhI9MdQ6IkIiECaBCT60wQV8t0k+kPegaq+CIiACIiACIiACOSbgER/vgmrfBGIHgGJ/uj1qVoUHAIS/cHpC9VEBMJCQKI/LD2VWz0l+nPjp6NFQAREQAREQAREIPIEJPoj38VqoAj4TkCi33ekKlAEYgQk+mMo9EQERCBNAhL9aYIK+W4S/SHvQFVfBERABERABERABPJNQKI/34RVvghEj4BEf/T6VC0KDgGJ/uD0hWoiAmEhINEflp7KrZ4S/bnx09EiIAIiIAIiIAIiEHkCEv2R72I1UAR8JyDR7ztSFSgCMQIS/TEUeiICIpAmAYn+NEGFfDeJ/pB3oKovAiIgAiIgAiIgAvkmINGfb8IqXwSiR0CiP3p9qhYFh4BEf3D6QjURgbAQkOgPS0/lVk+J/tz46WgREAEREAEREAERiDwBif7Id7EaKAK+E5Do9x2pChSBGAGJ/hgKPREBEUiTgER/mqBCvptEf8g7UNUXAREQAREQAREQgXwTkOjPN2GVLwLRIyDRH70+VYuCQ0CiPzh9oZqIQFgISPSHpadyq6dEf278dLQIiIAIiIAIiIAIRJ6ARH/ku1gNFAHfCUj0+45UBYpAjIBEfwyFnoiACKRJQKI/TVAh302iP+QdqOqLgAiIgAiIgAiIQL4JSPTnm7DKF4HoEZDoj16fqkXBISDRH5y+UE1EICwEJPrD0lO51VOiPzd+OloEREAEREAEREAEIk9Aoj/yXawGioDvBCT6fUeqAkUgRkCiP4ZCT0RABNIkINGfJqiQ7ybRH/IOVPVFQAREQAREQAREIN8EJPrzTVjli0D0CEj0R69P1aLgEJDoD05fqCYiEBYCEv1h6anc6inRnxs/HS0CIiACIiACIiACkScg0R/5LlYDRcB3AhL9viNVgSIQIyDRH0OhJyIgAmkSkOhPE1TId5PoD3kHqvoiIAIiIAIiIAIikG8CEv35JqzyRSB6BCT6o9enalFwCEj0B6cvVBMRCAsBif6w9FRu9ZToz42fjhYBERABERABERCByBOQ6I98F6uBIuA7AYl+35GqQBGIEZDoj6HQExEQgTQJSPSnCSrku0n0h7wDVX0REAEREAEREAERyDcBif58E1b5IhA9AhL90etTtSg4BCT6g9MXqokIhIWARH9Yeiq3ekr058ZPR4uACIiACIiACIhA5AlI9Ee+i9VAEfCdgES/70hVoAjECEj0x1DoiQiIQJoEJPrTBBXy3ST6Q96Bqr4IiIAIiIAIiIAI5JuARH++Cat8EYgeAYn+6PWpWhQcAhL9wekL1UQEwkJAoj8sPZVbPSX6c+Ono0VABERABERABEQg8gQk+iPfxWqgCPhOQKLfd6QqUARiBCT6Yyj0RAREIE0CEv1pggr5bhL9Ie9AVV8EREAEREAEREAE8k1Aoj/fhFW+CESPgER/9PpULQoOAYn+4PSFaiICYSEg0R+WnsqtnhL9ufHT0SIgAiIgAiIgAiIQeQIS/ZHvYjVQBHwnINHvO1IVKAIxAhL9MRR6IgIikCYBif40QYV8N4n+kHegqi8CIiACIiACIiAC+SYg0Z9vwipfBKJHQKI/en2qFgWHgER/cPpCNRGBsBCQ6A9LT+VWT4n+3PjpaBEQAREQAREQARGIPAGJ/sh3sRooAr4TkOj3HakKFIEYAYn+GAo9EQERSJOARH+aoEK+m0R/yDtQ1RcBERABERABERCBfBOQ6M83YZUvAtEjINEfvT5Vi4JDQKI/OH2hmohAWAhI9Ielp3Krp0R/bvx0tAiIgAiIgAiIgAhEnoBEf+S7WA0UAd8JSPT7jlQFikCMgER/DIWeiIAIpElAoj9NUCHfTaI/5B2o6ouACIiACIiACIhAvglI9OebsMoXgegRkOiPXp+qRcEhINEfnL5QTUQgLAQk+sPSU7nVU6I/N346WgREQAREQAREQAQiT0CiP/JdrAaKgO8EJPp9R6oCRSBGQKI/hkJPREAE0iQg0Z8mqJDvJtEf8g5U9UVABERABERABEQg3wQk+vNNWOWLQPQISPRHr0/VouAQkOgPTl+oJiIQFgIS/WHpqdzqKdGfGz8dLQIiIAIiIAIiIAKRJyDRH/kuVgNFwHcCEv2+I1WBIhAjINEfQ6EnIiACaRKQ6E8TVMh3k+gPeQeq+iIgAiIgAiIgAiKQbwIS/fkmrPJFIFgEGuvr7Myh3bZ3yXQ7s/xza9i7wpovnjJraky7ohL9aaPSjiKQMQGJ/oyR6QARKHkCEv2l8RWQ6C+NflYrRUAEREAEREAERCBrAhL9WaPTgSIQGgLNzc126dRxO7J2iW2cNNgWv/uUfdn5l3bgjV9YzehH7Mo3fa1h3VRrLN9qzXXVZtbcZtsk+tvEow9FICcCEv054dPBIlCSBCT6S6PbJfpLo5/VShEQAREQAREQARHImoBEf9bodKAIBJ7AleqLdmLXBtsx+3NbMaS7zXrxThv/h//PRt/1lzb6zr+wspd/bpff+Se7/O7/tJqht1rtxC52ZfEga9g+35pOHzZrvJK0jRL9SbHoTRHwhYBEvy8YVYgIlBQBif7S6G6J/tLoZ7VSBERABERABP7/9u7Dq8orX+P4PzGzbnJn5iYzY0w0xdTJTDQzyWQmddK8MZlommYsidE4RiyxpBhQFAvGjiA2UIqAXaSIaNBgw44gCIqiUmwcOPW5a78JXFCTQYTDOYfvWevNgcNb9v7sV7LW825+GwEEWixA0N9iOg5EwCcF3E6Hqk8VqiAzWTsjg7VhwnuK+eBPiup5jxXum4C/fisIevCHoN+E/fXb5B6yze+lusTRcmQvkqtghzxXKiSPu6G/BP0NFHyBQKsLEPS3OiknRCDgBQj6A36IrQ4S9HeMcaaXCCCAAAIIIIBAiwUI+ltMx4EI+KRAYVaKMsI+VcLHzyq6170NoX59uN/4/YZBf33gb96nPaPaxX1lXzdRztw4uU8flMd+VZMyvtAjMzvp/rDfKLso0ycdaBQC/ipA0O+vI0e7EWg/AYL+9rP35pUJ+r2pzbUQQAABBBBAAAE/FCDo98NBo8kI/Chgr7kiW1m+XFVl8jjrrNr6WeFBin7zvp8N+OvD/v8Y9NeH/lZpn3+oLmaI7GkzFRvzrl6e1kkPE/RzLyLQ6gIE/a1OygkRCHgBgv6AH2KrgwT9HWOc6SUCCCCAAAIIINBiAYL+FtNxIALtIuB2OlV96oQKt67RzqgQnVj4qa4mjrVq6zt2Llfm+DcV/UbX1g366wN/8x7aQyemdteaSQ9oemgXHd+1RJ6rlU1K+7QLDBdFIEAECPoDZCDpBgJeFNhevFVvLntBnSb/QhPTPlf55TNevDqX8pYAQb+3pLkOAggggAACCCDgpwIE/X46cDS7wwmYhXXL9u/Q/vi5ypg6VAmfPK/oXvdpz5Buqv76MdWE/FG26c8qfdCjiu55d9sF/Y1C/7PBj+rSondkXx8i5+4Euc8VSM4bL+Db4QaMDiPQQoHYfdF6ev4jVmC3dHeEbI6aFp6JwxBAoKMIbC3cop5L/m793ghJH6/zV8o7Stc7VD8J+jvUcNNZBBBAAAEEEEDg5gUI+m/ejCMQaA+Bc8f2KW3yx1rW5xFFvd65IcjfM+QBVX/1WMNiumn9uir69f9fcLe+TM+N3n+qdM+liY/pyjeNFuhtFO43LNrb+DPzkOHbl+XYOk+eS+fag4drIhAwAuuPJOn5Rd2twC44fZzOXC4LmL7REQQQaH0BjzxasXex/jLvId01+ZcKzw7V5bpLrX8hztjuAgT97T4ENAABBBBAAAEEEPBtAYJ+3x4fWodAvcDJnFQlDH6uIeCvD+7bIujP/vhere17j7YOuld5wx9Q6diHddH81UDjcP8GX9cljJK7ori+ybwjgEALBAouHNP7K/9Xd4X+Ui9F/llbjm9QnbUGRwtOxiEIIBDwAicqCzQsZYC6Tv2Vus+5X0mHVsnpdgZ8vztiBwn6O+Ko02cEEEAAAQQQQOAmBAj6bwKLXRFoRwFvBv2L3/q9Rj71K43/228U9o87FfHG77Xqnc5K7d9FuUPvV+Goh1T55aO6es2sf4L+drxBuHTACDhcdk3LCtZj4Z11z5Tb1C/uLSUfilPZxVNW4O9yu8SGAfdAx74HTJBfbavSrpIdmrA5SE/Mvs/6K6Ahyf107PzhgPl9SEeaChD0N/XgOwQQQAABBBBAAIFrBAj6rwHhWwR8VMCbQf/afz+jkN49FPR8Fw3p8WsNfuJ2Del+u0Y//StNeuEOLej5O8X16awt/+qivOEPqvLH0kEE/T5689AsvxM4XH5AQ1P+pW7T71SXKbfrpcgnNXzNIGuRTVN/OyR9AhsG3AMd+h4Yr7Ebh6tPzKt6ZGYnK+R/ZfHTMqW/WNfD737lN7vBBP3NpmJHBBBAAAEEEECgYwq8F9tTd0/5L70Y+aSOXzjaMRHoNQJ+IODNoL80aar2p61WdvIybVoSrsWf99XkV+/XN3+7QyHP3qHQ5+7U1Ofv1OyXf6f4d+9X6dgfyvoQ9PvBjUQT/ULA7XEr91SOPls7yJrZb+pud5r8CzYMuAe4B667B+4N+7V6LXtBiQdirVn+fvFLjka2SICgv0VsHIQAAggggAACCHQcgQ/j/ql7ptyuJ+d2k5lByAsBBHxTwJtBv3P/GnkctRaE02HXkbQExQ58RhGvdrpujYAVb3dT8RiCft+8a2iVPwuYsP9weZ6icxfo32sGqtfS562Z/S8s6iE2DLgHOvY98OKiHjIz+PvHv63pWcHKLsrQxdpqf/6VR9ubIUDQ3wwkdkEAAQQQQAABBDqywITNI/Tg9N/KzAZaczhRNoetI3PQdwR8VqC9gn4DUvzdphsuBGwWBCbo99lbhoYFiIDdWafCinxtL8q0FubdnL9ObBhwD3TseyA1f70yCjcr78xeXbRVyePxBMhvPLrxcwIE/T+nw88QQAABBBBAAAEEtOnYWj0172Hrz4A/WNlLe0/nyuFyIIMAAj4mQNDvYwNCcxBAAAEEEEAAAS8KEPR7EZtLIYAAAggggAAC/ihQZavUJ0l9dV/Yb9R16n9rYMI7itm7WN+X5uhQ+QEdPneQDQPuAR+4B7I3LVLMoKeuK52zZ8gDqv5xMdya4D8orV9XRb9+13X7mdn3124FQQ/KHHPtVrJtno6U7WkY96z187Vi4F+uO54Z/f74W582I4AAAggggIA/ChD0++Oo0WYEEEAAAQQQQMDLAjtOZum9lf9rle8xC/6ZGf7vxLym/vG9NSChDxsG3AM+cA+MmvGiZr93/3Vhe1sE/Ysi/6HBcW83jPvIac/d8NoE/V7+Zc3lEEAAAQQQQKDDChD0d9ihp+MIIIAAAggggEDzBVwel7KLMjVy3Sf689wHdfeU26xSPp0m/4J3DLgHfOQe+OuY2xTU7w4F9/ltky1pWBft/OoB5QZ3U25INyV93EXRfTprce+m27zenRTa53dNjt08+l7t/vE4c2z99uGk/1HXyb9sGPtnxtymkf3uUOi7nTWv/2Na9ekLSh7+qpKHv6YNY95S2bfvqDbyPdnTZslTfab5v3zYEwEEEEAAAQQQQKBZAgT9zWJiJwQQQAABBBBAAAET9hdcOKakg6s0KX2CgtYN1rCUARqW0p8NA+4BH7gHxiYM1PRlH+nb6I+bbMtjhyhh9adKTP5hi48ZqrglQxUX3XRbFj1E86IHNzk2Nn6oVv94XP3x5n1Sykca3ujf//jEjzR/1QhtXBeu3ZmxKty5WaW5GSrNzdTpvVmqOZotV8F2uc8elcfOgt78HwUBBBBAAAEEEGhtAYL+1hblfAgggAACCCCAQIALeORRRc0FFVeeUEFFvhX+mwcAbBhwDwTePXD8wtFm/dsurDiu0xdLVeskxA/w/wXQPQQQQAABBBDwUQGCfh8dGJqFAAIIIIAAAggggAACCNyMgMftlsflkMdZJ4+9Rp7ay/LUVMtztVKey+fluXRWnurT8lSWyF1RLPf5QrnP5ct99ojcZQflKtkrV1GOXMez5DqaJufBjXLmrZVzf7Kce1fLuTdRzj2Jcu5LkqsgW+7Kkh/PeUqeipM/nNN8Zq5x8Yw8l8/Jc6VCnpoqeWov/dCeuquS23Uz3WJfBBBAAAEEEEAAgWYIEPQ3A4ldEEAAAQQQQAABBBBAAAFfF6gsOqxDSQuVFzNNR+LDVZg8WyXr5qs6M0p12yLkyJwrIwv1YwAAEJFJREFUR9pM1W0Ok31TqOwbJ8m+IVj29d/Ivu5r2dd+JfuaCbKnjJc9eZzsSWNlTx4re8q4Hz4zn5ttzRdypIfLtSderrwUufYlyrk7Ts7vV8iZs1TOHYvlyI6QI2u+7JlzZE8Plz11uuybpsixO0GeKxd8nZL2IYAAAggggAACfidA0O93Q0aDEUAAAQQQQAABBBBAAIHrBU5+t1GrhzyvZW/dp9h3HlJCv8eVMuhJHfrmNV0Mf1W28Bdlm/mcjk74q3JH/1X7xz+nI8GvqDDsTZXOfk/liwapasVwXUkcq7r138ixKVSOLWFyps+QI22GHKlT5dgQLMfaL2RP+lz2hBGqWzlUdSs+Uu2SD1Ub9Z5qI95W7fw3VDvnVdlmvSjb9L+rZupTqpncXTUhj6sufqTcF4qvbzyfIIAAAggggAACCNySAEH/LfFxMAIIIIAAAggggAACCCDgGwInc1KVMPg5Rb52V5MtZ3h3VU58QjXBf7C29H/dr2VvdtWK3t0U98GjShrwhNZ98pRShz+rzNEva/uEnto58Z/aO+V9VUQOUN3S/qpd/L5qI3qrdkEv1c55TbZZL8k241nZwp5WTWgP1YT8seH89de50XtdwiirxI9viNEKBBBAAAEEEEAgcAQI+gNnLOkJAggggAACCCCAAAIIdGCB5gb9af26Kvr1pg8Drn04EPV6Zy3t1VUnPn9cNZP+1KwQ/0bB/rWfEfR34BuUriOAAAIIIIBAmwoQ9LcpLydHAAEEEEAAAQQQQAABBLwj0JpBf33wXxD0YKuF/Cb0J+j3zr3AVRBAAAEEEECg4wkQ9He8MafHCCCAAAIIIIAAAgggEIACBP0BOKh0CQEEEEAAAQQQaKYAQX8zodgNAQQQQAABBBBAAAEEEPBlAYJ+Xx4d2oYAAggggAACCLStAEF/2/pydgQQQAABBBBAAAEEEEDAKwJl+3co+bPXFPX63T+7GG9zavS3Seme0Cdl3xgqT/UZr3hwEQQQQAABBBBAoCMJEPR3pNGmrwgggAACCCCAAAIIIBCwAjWV5Tqevlrb545TyoieWvLPblbgnzO8uyonPtFQaz/tw3sV3bNzk4cB9cH+te+3XKM/5I+yzX5NdfFBcmRHylW6Tx67LWDHgI4hgAACCCCAAALtJUDQ317yXBcBBBBAAAEEEEAAAQQQaGUBj9utK+fLdGrPVuUlzFfG1KE6OKWPLkZ8YC2Ea0+drowxryj6jS5tGvTbpv9dtcsGyb5lhpwH1stdnk/A38pjzekQQAABBBBAAIHGAgT9jTX4GgEEEEAAAQQQQAABBBAIEAGXvVZVJfmqPpApe/52ucuPy1NTrcxpwxTd697WD/pDn5Qtorfsa7+W8/uVcp3cLU9NleRxB4go3UAAAQQQQAABBHxXgKDfd8eGliGAAAIIIIAAAggggAACrS5wdHOsNox/V8v6PKzI13++hM9/LN0T8rhss19RXdwI2bdFyJm/Ve6q05LL0ert5oQIIIAAAggggAACPy1A0P/TNvwEAQQQQAABBBBAAAEEEAg4AdvFCp05kKODKVHKmjlCiUNeUHSv+244w/8ng/5pf1Pt0gGyp06TM2+t3GePymOvkeQJOC86hAACCCCAAAII+IMAQb8/jBJtRAABBBBAAAEEEEAAAQRaWcDtdOhiWbGKv9ukPStmaPPE/ort211RPe9pCP2bBP2Te8i28G3Z13wpx64YuYpz5blKaZ5WHhZOhwACCCCAAAIItEiAoL9FbByEAAIIIIAAAggggAACCASOgL3mss4fz9Ox1FX6bsGXWjOyl5a+/aAKRj6kmvCXVLfq37JnLZDzWIbcVacozRM4Q09PEEAAAQQQQCBABAj6A2Qg6QYCCCCAAAIIIIAAAgggcKsCHo9bNRVndXpvtvISF+jChlly7E2S+8xhSvPcKi7HI4AAAggggAACbShA0N+GuJwaAQQQQAABBBBAAAEEEPC2QGlpqTZt2qSSkhK5XK4WX95lr5W77qrkbvk5WnxxDkQAAQQQQAABBBC4KQGC/pviYmcEEEAAAQQQQAABBBBAwLcFli9frk8//VTx8fGqrq727cbSOgQQQAABBBBAAIFWESDobxVGToIAAggggAACCCCAAAIItL/AhQsXNH78eM2YMUMTJ07UsWPHGhq1fft27dq1S5s3b9bKlSu1d+9eff/990pMTFRcXJxOnz4tt9utqqoqbdmyRatWrVJsbKzy8vJUW1uroqIirV+/3trX7G9+dujQIdXV1am4uFhr1661PjPnO3HihBwOh/Lz87Vnzx6lp6db50tISFBZWZk8Hk9Du/gCAQQQQAABBBBA4NYFCPpv3ZAzIIAAAggggAACCCCAAAI+IWAC+tDQUCvE//LLL63A3oT05mWC/5CQECvYNw8Cxo4dq8jISGvm/6hRo5ScnKxLly5Zx8ydO9cK7c375MmTVVhYqJMnTyo1NdXab86cORo4cKAV4J85c0azZ8+W2df8FcG3336refPm6dSpU1q9erXGjRunJUuWyIT8I0eOVEpKii5fvuwTXjQCAQQQQAABBBAIFAGC/kAZSfqBAAIIIIAAAggggAACHVrAzKwPDg62AvWLFy9aQf38+fOtmfoGZsyYMQoPD1d5ebkOHDigAQMGWLX8zXEmiF+4cKFMaL9v3z7l5ubqyJEjysjI0Pvvv6+dO3c22JpyQFFRUYqIiLDC/JycHCvMNzP3zV8EmNn8w4YNk/nczPr/7LPPrHOa9QIWLVrUcJ2GE/IFAggggAACCCCAwC0LEPTfMiEnQAABBBBAAAEEEEAAAQTaX+Dw4cPq16+fFfabgN3MxO/bt69VrseE7J9//rk1m//KlStWqZ0RI0ZYM/9Ny83MexPcm4V8s7OzrYDelOcxW69evbRjxw6rg+ahgJmZP2vWLKssjzmvmaE/bdo0q7SP2cmU7Pnkk0+sEkErVqywfmZK+5iXOXbBggXWAwLrA/6DAAIIIIAAAggg0CoCBP2twshJEEAAAQQQQAABBBBAAIH2EzA1782MfFMmx7ybgH3p0qVW4B4TE2MtymtK9ZhQvqamxgr6TbkeU6ffvEzQbwL4/fv3W+cwM+/NDP1t27apd+/eVtBvZuunpaUpLCzM+pndbreO3bRpk1UuqKCgwPr+6tWrGjJkiFXWx1zbPBQoKSmxfmbq95uyP+aBAi8EEEAAAQQQQACB1hMg6G89S86EAAIIIIAAAggggAACCLSLwLlz5xQUFKSNGzdaob4J881mQvivv/7aWpTXBP1mwVybzWYF/aNHj7ZK6pgGm6DflPkxi/MOHTrUqsNvZuGbuv09e/a03k35HvNXAdHR0Tp48KA1g//8+fNWiR+zALA5t6nLb+r4mzJBpjyQ+YsAU7+/Ptg3Qb/5vj74bxcsLooAAggggAACCASgAEF/AA4qXUIAAQQQQAABBBBAAIGOJXDo0CFrJn9RUVGTjl+4cMGaQW+CeTNL34T1pvyOqdNvvjeL7JqXKdezZs0aK5BfuXKlda5Vq1Zp3bp1mj59ulXD39TxN4v5Ll682CrBY8rw7Nq1S5WVldaxpm6/KRlk/qLAPHCoqqpSVlaW9ZDAPIgwL/MXAklJSar/3vqQ/yCAAAIIIIAAAgjcsgBB/y0TcgIEEEAAAQQQQAABBBBAoH0FzMx6M2u+tra2SUNMSR+zOG5FRYU1A9+E8qYEj9nPzNg3ZXbMyzwQMAvxmocAZrFdU9LHLMhrwnoTypsHBWYNgLy8POtn5udmM+cwx5i/HjCL95pa/uahg1kHwFzbnLesrMzap/46jb9v0li+QQABBBBAAAEEEGixAEF/i+k4EAEEEEAAAQQQQAABBBBAAAEEEEAAAQQQQACB9hcg6G//MaAFCCCAAAIIIIAAAggggAACCCCAAAIIIIAAAgi0WICgv8V0HIgAAggggAACCCCAAAIIIIAAAggggAACCCCAQPsLEPS3/xjQAgQQQAABBBBAAAEEEEAAAQQQQAABBBBAAAEEWixA0N9iOg5EAAEEEEAAAQQQQAABBPxLwCyEaxbYdblcTRpuFtM9deqUtThvSUmJtfDu0aNHrQV+L126dN3+ZqHds2fP6tixY9YivGbR3WvP2eQCfIMAAggggAACCCDQpgIE/W3Ky8kRQAABBBBAAAEEEEAAAd8R2Lhxo9avX6/KysomjcrJyVFsbKxOnjypefPmaebMmVqyZIlWrFihqKgo65iKigrrmOrqaqWmpio6Otr6uXmfPXu2srKydOXKlSbn5RsEEEAAAQQQQAAB7wgQ9HvHmasggAACCCCAAAIIIIAAAu0usG3bNk2YMMGasV/fGKfTqSlTpigyMlKnT5/W4MGDtWDBAu3atUvbt29XfHy8goKClJmZKZvNpuTkZIWFhVnve/bssfZbuHChQkNDVVBQIDPbnxcCCCCAAAIIIICAdwUI+r3rzdUQQAABBBBAAAEEEEAAgXYTMLPxx44dKzOz34T25lVcXKxRo0YpOzvbKt1jgv60tLSGUjwOh8M6ZtmyZTp06JC177p162TK/dS/zHnNQ4Hy8nKC/noU3hFAAAEEEEAAAS8KEPR7EZtLIYAAAggggAACCCCAAALtLRATE6O5c+daNflNW8yMfVOqx5Ttsdvt1oz+1atXW6F9aWmpdu7cqWHDhlnle9LT063Z/Xl5ee3dDa6PAAIIIIAAAggg0EiAoL8RBl8igAACCCCAAAIIIIAAAoEuUFRUpPHjxys3N1eXL1/WV199pQ0bNlgz9OuD/i+++MKqwW/q75uSPqZev1mk18zaHzdunDWzP9Cd6B8CCCCAAAIIIOBPAgT9/jRatBUBBBBAAAEEEEAAAQQQuEUBU5N/xowZMrP2Td394OBgq2a/qa1fH/Sbn5vwPyMjQwcPHpQpzeN2u2UeEgwfPlzfffddQ2kf0xxz7IkTJ6z9qNF/iwPE4QgggAACCCCAQAsECPpbgMYhCCCAAAIIIIAAAggggIA/C+Tk5GjatGkaMWKE4uLiVFlZaXWnPuhvXKO/cT/r6uqshXtnzZplLbxrHhqYzSzcaz7Lz8+nRn9jML5GAAEEEEAAAQS8JEDQ7yVoLoMAAggggAACCCCAAAII+IqAKdkzZcoU9e/fX7t3726YnW+CfjNj38z0d7lcN2zugQMHFB4ebj0oiIiI0MKFCzV16lQtX77cqut/w4P4EAEEEEAAAQQQQKBNBQj625SXkyOAAAIIIIAAAggggAACvilgAn6zuG79bH7TShPum89MPX5TqudGL1Oa5/jx40pOTrZq95v6/Vu3blVVVRWz+W8ExmcIIIAAAggggIAXBAj6vYDMJRBAAAEEEEAAAQQQQACBQBSgHn8gjip9QgABBBBAAAF/FCDo98dRo80IIIAAAggggAACCCCAAAIIIIAAAggggAACCPwoQNDPrYAAAggggAACCCCAAAIIIIAAAggggAACCCCAgB8LEPT78eDRdAQQQAABBBBAAAEEEEAAAQQQQAABBBBAAAEECPq5BxBAAAEEEEAAAQQQQAABBBBAAAEEEEAAAQQQ8GMBgn4/HjyajgACCCCAAAIIIIAAAggggAACCCCAAAIIIIAAQT/3AAIIIIAAAggggAACCCCAAAIIIIAAAggggAACfizwf/nhddsk7VWvAAAAAElFTkSuQmCC;" vertex="1" parent="1">
          <mxGeometry x="180" y="240" width="1530" height="791" as="geometry" />
        </mxCell>
        <mxCell id="DZH7VH-jRp4rcOsMZcXj-3" value="&lt;b style=&quot;font-weight: normal; font-size: 23px; line-height: 3.4;&quot; id=&quot;docs-internal-guid-c357fa69-7fff-ff16-b3d1-ac4d32b26d27&quot;&gt;&lt;img width=&quot;64px;&quot; height=&quot;19px;&quot; src=&quot;https://lh6.googleusercontent.com/lHBATx8VJXjPWI5Lyzz5hZ2OAabmqXwH5f08ETZU51qbizo9qXZZbTZIqO0dcM4p2_DGJj6lZw4W1L9xFNYl2zQzuoM8Lyc2Xvl46DIprT2-n6FBHLoXOBHdNc3pvTg2fZVQPXY3O6_uow&quot; alt=&quot;Icon&lt;br/&gt;&lt;br/&gt;Description automatically generated&quot; style=&quot;font-size: 23px;&quot;&gt;&lt;/b&gt;" style="text;whiteSpace=wrap;html=1;fontSize=23;fontFamily=Times New Roman;" vertex="1" parent="1">
          <mxGeometry x="228" y="289" width="150" height="90" as="geometry" />
        </mxCell>
      </root>
    </mxGraphModel>
  </diagram>
</mxfile>
